<svg xmlns="http://www.w3.org/2000/svg" fill="none" viewBox="0 0 32 32"><style>path{fill:#1e3241}@media (prefers-color-scheme:dark){path{fill:#fff}}</style><path d="M32 27.597H0v3.2h32v-3.2ZM4.068 14.801c0-6.59 5.343-11.933 11.934-11.933 6.592 0 11.935 5.343 11.935 11.933a7.884 7.884 0 0 1-7.884 7.884 1.23 1.23 0 0 1 0-2.46 5.425 5.425 0 0 0 5.425-5.424c0-5.233-4.243-9.474-9.476-9.474A9.474 9.474 0 0 0 6.528 14.8c0 3.83 3.2 7.082 6.833 7.082a.43.43 0 0 0 .434-.428.433.433 0 0 0-.433-.434c-3.17 0-5.967-2.87-5.967-6.22a8.607 8.607 0 0 1 8.607-8.606A8.607 8.607 0 0 1 24.61 14.8a4.557 4.557 0 0 1-4.557 4.557 2.097 2.097 0 1 0 0 4.194 8.751 8.751 0 0 0 8.752-8.75C28.805 7.731 23.073 2 16.002 2 8.932 2 3.201 7.731 3.201 14.801c0 5.666 4.625 10.414 10.16 10.414 2.114 0 3.799-1.682 3.799-3.76v-2.893h2.893a3.76 3.76 0 0 0 3.761-3.76 7.81 7.81 0 0 0-7.812-7.811A7.811 7.811 0 0 0 8.19 14.8c0 2.923 2.487 5.425 5.209 5.425.678 0 1.229.55 1.229 1.23 0 .678-.534 1.229-1.267 1.229-4.106 0-7.63-3.615-7.63-7.884 0-5.672 4.599-10.27 10.271-10.27 5.673 0 10.271 4.598 10.271 10.27a6.22 6.22 0 0 1-6.22 6.22.434.434 0 1 0 0 .868 7.089 7.089 0 0 0 7.089-7.088c0-6.152-4.988-11.138-11.14-11.138S4.864 8.649 4.864 14.8c0 4.748 3.92 8.751 8.497 8.751 1.22 0 2.134-.939 2.134-2.097a2.1 2.1 0 0 0-2.096-2.102c-2.326 0-4.34-2.109-4.34-4.552a6.943 6.943 0 0 1 6.943-6.943 6.943 6.943 0 0 1 6.944 6.943 2.892 2.892 0 0 1-2.893 2.892H17.16v-2.892a1.158 1.158 0 0 0-2.314 0 1.23 1.23 0 0 1-2.46 0 3.616 3.616 0 1 1 7.233 0 .433.433 0 1 0 .868 0 4.484 4.484 0 0 0-8.97 0 2.098 2.098 0 0 0 4.197 0 .289.289 0 1 1 .578 0v2.892h-2.677a2.888 2.888 0 0 1-2.892-2.892 5.28 5.28 0 0 1 10.56 0 1.23 1.23 0 0 1-2.46 0 2.821 2.821 0 1 0-5.64 0c0 .24.193.434.432.434.24 0 .435-.194.435-.434a1.952 1.952 0 1 1 3.905 0 2.098 2.098 0 0 0 4.195 0 6.148 6.148 0 1 0-12.296 0 3.757 3.757 0 0 0 3.762 3.76h2.676v2.894c0 1.598-1.283 2.893-2.931 2.893-5 0-9.293-4.36-9.293-9.547Z"/></svg>