<svg width="32" height="32" viewBox="0 0 32 32" fill="none" xmlns="http://www.w3.org/2000/svg">
<path d="M3.7498 11V20.9583H0.0216626C-0.0129976 20.8912 0.00433252 20.8175 0.00433252 20.7482C0.00433252 17.5681 0.00433252 14.3902 0.00433252 11.2101C0.00433252 11.1408 -0.0129976 11.0672 0.0216626 11H3.74763H3.7498Z" fill="#FF0000"/>
<path d="M4.09199 11C4.001 11.0953 4.01617 11.2166 4.01617 11.3314C4.01617 12.1525 4.01617 12.9713 4.01617 13.7923C4.01617 16.0582 4.01617 18.322 4.01617 20.5879C4.01617 20.7157 3.99234 20.8522 4.09199 20.9605H31.9999V11H4.09199ZM9.85641 18.1747C9.70044 18.8614 9.29318 19.2968 8.61297 19.4744C8.46567 19.5134 8.31186 19.5416 8.16023 19.5502C7.73997 19.5762 7.32621 19.5372 6.92329 19.3986C6.63084 19.2968 6.35573 19.1668 6.09794 18.9892C6.22142 18.6599 6.3254 18.3328 6.46188 18.023C6.66984 18.1595 6.85614 18.2981 7.05543 18.413C7.27856 18.5429 7.52118 18.6166 7.78546 18.6274C7.94577 18.6339 8.09957 18.6274 8.25121 18.5798C8.61731 18.4671 8.80794 18.127 8.83393 17.8151C8.86209 17.4966 8.81227 17.1955 8.59781 16.9442C8.51116 16.8424 8.41368 16.7406 8.30103 16.6713C8.01292 16.4893 7.71614 16.3268 7.4237 16.1535C7.21357 16.0301 7.00994 15.8958 6.82364 15.7333C6.55719 15.5037 6.41205 15.2047 6.34273 14.8733C6.26041 14.4834 6.26475 14.0891 6.41638 13.7165C6.65251 13.1316 7.07926 12.759 7.70531 12.642C8.37252 12.5164 8.99424 12.655 9.57263 12.9973C9.61595 13.0233 9.65278 13.0601 9.69611 13.0926C9.60946 13.4002 9.52497 13.7013 9.43399 14.0284C9.28018 13.9223 9.14587 13.8226 9.00507 13.736C8.8166 13.6233 8.61297 13.5562 8.39202 13.5302C8.21222 13.5085 8.03891 13.5259 7.86778 13.5779C7.55584 13.671 7.40637 13.9959 7.3847 14.2169C7.35871 14.4834 7.40853 14.726 7.61 14.9058C7.74214 15.0249 7.89594 15.1267 8.04975 15.2177C8.34652 15.3953 8.6563 15.5492 8.95091 15.7311C9.30185 15.9477 9.58346 16.2359 9.75026 16.6236C9.85208 16.8619 9.91057 17.1089 9.91923 17.3688C9.9279 17.6396 9.91273 17.9082 9.85208 18.1747H9.85641ZM13.9636 19.4289C13.838 18.9004 13.7124 18.3696 13.5845 17.8389H11.8862C11.7627 18.3653 11.6414 18.8917 11.5136 19.4333H10.3611C10.3611 19.3813 10.3503 19.3293 10.3611 19.2838C10.5236 18.6404 10.6883 17.997 10.8507 17.3536C10.998 16.7666 11.1432 16.1795 11.2905 15.5946C11.4248 15.0552 11.5591 14.518 11.6956 13.9786C11.7952 13.5822 11.8949 13.1836 11.9945 12.7872C12.0032 12.7503 12.0205 12.7178 12.0357 12.681H13.4567C14.033 14.9253 14.6092 17.1717 15.1876 19.4289H13.9615H13.9636ZM19.0305 19.4333C19.011 19.4008 18.9829 19.3596 18.9612 19.3163C18.7403 18.8809 18.5236 18.4454 18.3027 18.0122C18.0254 17.4685 17.7459 16.9291 17.4687 16.3853C17.2672 15.9911 17.0679 15.5968 16.8664 15.2025C16.8426 15.1571 16.8144 15.1159 16.7884 15.0769C16.7754 15.0769 16.7689 15.0769 16.7668 15.0769C16.7625 15.0812 16.7581 15.0877 16.7581 15.0942C16.7581 16.5326 16.7581 17.9689 16.7581 19.4073C16.7581 19.4116 16.7516 19.4159 16.7408 19.4289H15.7118V12.694H16.8209C17.5315 14.1173 18.242 15.547 18.972 17.0114V12.694H20.0248C20.0335 12.7048 20.0487 12.7157 20.0487 12.7243C20.0487 14.9534 20.0487 17.1847 20.0487 19.4311H19.0305V19.4333ZM24.2187 19.4268C24.0931 18.8939 23.9674 18.3675 23.8418 17.8389H22.1434C22.02 18.3631 21.8965 18.896 21.7708 19.4268H20.6054C20.6097 19.3748 20.6054 19.3293 20.6184 19.2881C21.173 17.0872 21.7275 14.8841 22.2821 12.681H23.7162C24.2924 14.9296 24.8686 17.1717 25.447 19.4246H24.2209L24.2187 19.4268ZM29.6539 17.7501C29.6257 18.1487 29.5347 18.5321 29.2856 18.8635C29.0971 19.1127 28.861 19.2838 28.5729 19.4029C28.1657 19.5697 27.7411 19.5849 27.3186 19.5437C26.7901 19.4939 26.2983 19.3098 25.8586 19.0043C25.8543 19 25.8499 18.9935 25.8369 18.9762C25.9517 18.6642 26.0709 18.3436 26.1965 18.0079C26.2918 18.0772 26.3698 18.1335 26.4456 18.192C26.6969 18.387 26.972 18.5364 27.284 18.5993C27.5158 18.6469 27.7476 18.6534 27.9815 18.5841C28.3628 18.4714 28.5513 18.101 28.5751 17.8064C28.6011 17.4858 28.5426 17.1868 28.3325 16.9356C28.2458 16.8337 28.144 16.7384 28.0313 16.6669C27.7497 16.4893 27.4595 16.3247 27.1713 16.1579C26.9309 16.0192 26.7034 15.8654 26.502 15.6726C26.2572 15.4387 26.1489 15.1441 26.0774 14.8256C26.0341 14.6393 26.0319 14.453 26.0449 14.2667C26.0709 13.8595 26.203 13.4934 26.4846 13.1836C26.8529 12.7828 27.3035 12.6095 27.8407 12.5987C28.3498 12.5879 28.8177 12.7157 29.2575 12.9626C29.2964 12.9843 29.3354 13.0081 29.3723 13.0341C29.3939 13.0493 29.4091 13.0688 29.4373 13.0948C29.3484 13.4089 29.264 13.71 29.173 14.0306C29.1036 13.9808 29.0473 13.9418 28.9932 13.9006C28.7874 13.7468 28.5686 13.6168 28.3108 13.5605C28.0768 13.5107 27.8472 13.4999 27.6154 13.5757C27.3338 13.6667 27.1822 13.8768 27.1345 14.1497C27.0717 14.5007 27.1713 14.7931 27.4768 15.0141C27.6652 15.1506 27.8667 15.2632 28.0703 15.3694C28.4126 15.5492 28.7505 15.7355 29.0408 15.9911C29.3116 16.2294 29.4849 16.537 29.5867 16.8857C29.669 17.1695 29.6799 17.4598 29.6582 17.7501H29.6539Z" fill="#00004A"/>
<path d="M12.6878 13.8443C12.4734 14.843 12.2676 15.8416 12.0618 16.8511H13.4308C13.2012 15.8243 12.9759 14.8191 12.7463 13.7967C12.7138 13.8205 12.69 13.8292 12.6857 13.8422L12.6878 13.8443Z" fill="#00004A"/>
<path d="M22.9211 13.8855C22.8995 13.9591 22.893 14.0349 22.8778 14.1108C22.7955 14.5245 22.7175 14.9404 22.6309 15.3542C22.5464 15.7614 22.4576 16.1665 22.3709 16.5738C22.3514 16.6648 22.3406 16.7579 22.3232 16.8511H23.6858C23.4584 15.8351 23.2331 14.8278 23.0013 13.7945C22.9645 13.8356 22.9276 13.8573 22.919 13.8876L22.9211 13.8855Z" fill="#00004A"/>
</svg>
