<svg width="32" height="32" viewBox="0 0 32 32" fill="none" xmlns="http://www.w3.org/2000/svg">
<path d="M16.8506 24.0596C17.0205 24.0765 17.199 24.0426 17.335 24.0596C17.4283 24.0595 17.5469 24.0343 17.6318 24.0596V24.0771C17.6318 24.0771 17.675 24.094 17.709 24.1025C17.7073 24.1054 17.6846 24.143 17.6914 24.1445C17.7509 24.1615 18.0656 24.153 18.1338 24.1445C18.1346 24.144 18.2016 24.1028 18.2188 24.1025C18.2527 24.1025 18.3376 24.1188 18.3887 24.1104C18.4056 24.1104 18.465 24.0856 18.499 24.0938C18.5075 24.0938 18.5415 24.1351 18.5586 24.1357C18.6096 24.1442 18.6785 24.1357 18.7295 24.1357C18.7723 24.1361 18.874 24.1787 18.8994 24.1787C18.9503 24.1787 19.0097 24.1703 19.0859 24.1787C19.0859 24.1787 19.095 24.2047 19.1035 24.2217C19.078 24.2132 19.0944 24.2386 19.0859 24.2471C19.061 24.2472 19.163 24.2891 19.1885 24.2891C19.4095 24.323 19.6901 24.2976 19.9365 24.2891C19.9195 24.2891 19.9876 24.3066 19.9961 24.3066C19.9876 24.3066 20.0292 24.2893 20.0381 24.2891C20.1316 24.2976 20.2677 24.2979 20.3867 24.2979C20.3623 24.2815 20.4085 24.2803 20.4121 24.2803C20.4092 24.2764 20.3876 24.2462 20.3955 24.2383C20.3788 24.2383 20.3287 24.23 20.3271 24.2217L20.3105 24.1953C20.3784 24.1953 20.463 24.2037 20.5225 24.1953V24.1787C20.5225 24.1787 20.6083 24.1615 20.6338 24.1445L20.6592 24.1025H20.6758C20.7523 24.145 20.8628 24.1445 20.9902 24.1445C21.0326 24.1445 21.1007 24.1277 21.1348 24.1445C21.1518 24.1445 21.1607 24.1956 21.1777 24.2041C21.2033 24.2038 21.2458 24.1621 21.2627 24.1621C21.28 24.1623 21.3469 24.1873 21.3643 24.1875C21.4662 24.196 21.5684 24.1869 21.6533 24.1953V24.1699C21.6492 24.1692 21.6015 24.1608 21.5771 24.1445C21.594 24.1443 21.5773 24.0941 21.6621 24.1025C21.6792 24.1026 21.7558 24.1275 21.7812 24.1445C21.8067 24.1615 21.7637 24.1621 21.7637 24.1621C21.7625 24.1656 21.7549 24.1875 21.7471 24.1875C21.7641 24.1875 21.7981 24.2129 21.8066 24.2129C21.8831 24.2299 21.9343 24.1953 22.0107 24.1953C22.0448 24.1953 22.1297 24.2047 22.1807 24.2217L22.2061 24.2471C22.2571 24.2471 22.2831 24.2217 22.3086 24.2217C22.3765 24.2133 22.4361 24.238 22.4785 24.2295C22.4826 24.2279 22.5217 24.213 22.5459 24.2129C22.6138 24.2129 22.6821 24.2632 22.7754 24.2549L22.8018 24.2295C22.8614 24.2127 22.9719 24.221 23.0312 24.2295L23.0732 24.2549C23.1922 24.2804 23.3283 24.2379 23.4473 24.2549L23.4902 24.2803C23.5329 24.2802 23.6178 24.2637 23.6348 24.2637C23.7281 24.2637 23.7793 24.2891 23.8896 24.2891V24.332C23.7536 24.332 23.6768 24.3917 23.5322 24.3662C23.5069 24.366 23.4982 24.3314 23.4473 24.3398C23.4473 24.3398 23.4135 24.3911 23.3457 24.3828C23.3372 24.3828 23.3366 24.3568 23.3281 24.3398C23.2053 24.3399 23.0737 24.3518 22.9492 24.3496L22.9883 24.374C23.0478 24.391 23.1244 24.357 23.1924 24.374C23.2009 24.3741 23.2435 24.417 23.252 24.417C23.2944 24.417 23.2948 24.3916 23.3203 24.3916C23.3968 24.3747 23.5154 24.3746 23.5918 24.3916L23.6172 24.417C23.6852 24.434 23.7706 24.3915 23.8301 24.417L23.8555 24.459C23.9405 24.476 24.0255 24.4163 24.1445 24.4248L24.2041 24.4512C24.2634 24.4596 24.3228 24.4337 24.3652 24.4336C24.4843 24.4336 24.5951 24.4679 24.7227 24.4424L24.7061 24.3994C24.6465 24.3909 24.6121 24.3825 24.5781 24.374V24.3486C24.5798 24.3478 24.6133 24.332 24.6465 24.332L24.7568 24.3574C24.8248 24.3574 24.893 24.3489 24.9609 24.3574L25.0029 24.3828C25.139 24.4083 25.3265 24.4082 25.4795 24.4082C25.4625 24.4167 25.4961 24.4427 25.4961 24.4512C25.4711 24.4595 25.4964 24.4512 25.4795 24.4766H25.4199C25.4709 24.4937 25.5474 24.553 25.5898 24.5615C25.6492 24.5615 25.7001 24.544 25.7764 24.5439C25.8699 24.5439 26.0149 24.5869 26.1084 24.5869C26.1423 24.5869 26.2101 24.561 26.2695 24.5693L26.2959 24.5957C26.3554 24.6124 26.4485 24.5957 26.5078 24.5957C26.5928 24.5957 26.7118 24.5703 26.8223 24.5957C26.8478 24.5957 26.8989 24.6467 26.9414 24.6553C27.0689 24.6723 27.1625 24.6552 27.29 24.6807C27.2985 24.6807 27.341 24.7226 27.3496 24.7227H27.4688C27.4858 24.7228 27.5447 24.7652 27.5703 24.7656C27.6382 24.7741 27.7065 24.7572 27.7744 24.7656C27.8848 24.7741 28.0464 24.8163 28.1738 24.8164C28.2502 24.8164 28.3016 24.7999 28.3779 24.7998C28.4034 24.7998 28.4804 24.8418 28.5059 24.8418C28.5739 24.8418 28.6507 24.8248 28.7188 24.8418L28.7783 24.8672C28.8801 24.8755 28.9395 24.8337 29.0498 24.8506L29.0674 24.876C29.1271 24.9013 29.2878 24.9095 29.3389 24.918C29.5769 24.9435 29.7643 24.9181 29.9854 24.9521C30.0957 24.9692 30.1804 25.046 30.2568 25.0801H30.3164C30.3249 25.0801 30.3509 25.1221 30.3594 25.1221H30.4268C30.4438 25.1221 30.4957 25.165 30.5127 25.165C30.5805 25.1734 30.6568 25.1566 30.7246 25.165C30.7501 25.165 30.8182 25.207 30.8438 25.207C30.8862 25.207 30.9373 25.1986 30.9883 25.207C31.0052 25.207 31.0472 25.2494 31.0645 25.25H31.167C31.2435 25.267 31.3711 25.3265 31.4561 25.335H31.6426C31.7531 25.3435 31.9065 25.3778 32 25.4033V25.4453C31.983 25.4453 31.9746 25.4544 31.9746 25.4629C31.9236 25.4883 31.8551 25.4625 31.7871 25.4795L31.7197 25.5049C31.5667 25.5304 31.4388 25.5055 31.3027 25.5225C31.2517 25.5225 31.1583 25.5562 31.1328 25.5986C31.1159 25.6157 31.1238 25.6585 31.0898 25.667C30.962 25.726 30.6314 25.6667 30.5039 25.6836L30.4189 25.709C30.2064 25.7515 30.4871 25.7435 30.5381 25.752V25.7773C30.4447 25.7773 30.3256 25.7601 30.2236 25.7939C30.1812 25.8024 30.1213 25.8449 30.0703 25.8535C29.9343 25.8705 29.7893 25.845 29.6533 25.8535C29.3643 25.879 29.0498 25.8622 28.7354 25.8877C28.4973 25.9047 28.2334 25.9391 28.0039 25.9561L27.9365 25.9814C27.8686 25.9814 27.7835 25.9642 27.707 25.9727L27.6387 25.998C27.5964 25.998 27.5626 25.9816 27.5371 25.9814C27.4011 25.9814 27.1962 26.0325 27.0771 26.041C27.0431 26.0409 26.9841 26.0235 26.9756 26.0234C26.9416 26.0319 26.8987 26.0911 26.8477 26.0996C26.6946 26.125 26.431 26.0657 26.2695 26.0742C26.0911 26.0743 25.8535 26.1175 25.6836 26.126C25.2245 26.126 24.6628 26.1259 24.2207 26.1514C24.1529 26.1513 24.102 26.126 24.0596 26.126C24.0257 26.126 23.9834 26.1424 23.9746 26.1426C23.8556 26.1596 23.7447 26.1338 23.6172 26.1338C23.6342 26.1338 23.5661 26.1514 23.5576 26.1514C23.553 26.1504 23.4809 26.1339 23.4561 26.1338H23.1162C23.1077 26.1338 23.0651 26.1513 23.0732 26.1514C23.0717 26.1511 23.0228 26.1422 23.0479 26.1338C23.0234 26.1338 22.9523 26.15 22.9463 26.1514C22.6657 26.1514 22.4272 26.1259 22.1807 26.1514L22.0957 26.1338C21.8662 26.1338 21.6448 26.168 21.4492 26.168C21.3387 26.1679 21.1771 26.1341 21.0752 26.1426C21.0656 26.1433 20.9908 26.1852 20.9736 26.1855C20.8972 26.1855 20.8037 26.168 20.7188 26.168C20.6592 26.168 20.5224 26.2021 20.4629 26.2021C20.3948 26.202 20.2762 26.1771 20.1914 26.1855C20.1574 26.1855 20.0809 26.2274 20.0469 26.2275C19.9534 26.236 19.9277 26.2109 19.8428 26.2109C19.7493 26.2109 19.6304 26.2106 19.5029 26.2021C19.4775 26.2021 19.4603 26.2186 19.4434 26.2188C19.3583 26.2102 19.239 26.1849 19.1455 26.1934V26.2109C19.1413 26.2112 19.0094 26.2192 18.9756 26.2441C18.9756 26.2441 18.9587 26.2866 18.9502 26.2871C18.8992 26.3041 18.7967 26.2875 18.7627 26.2705C18.7373 26.2618 18.7286 26.2021 18.7031 26.2021C18.6095 26.1769 18.3975 26.2187 18.3125 26.2188C18.1 26.2188 17.7936 26.1934 17.5811 26.1934C17.4453 26.1934 17.3434 26.2443 17.2246 26.2529C17.0972 26.2614 16.9099 26.2442 16.7061 26.2441V26.2617C16.6212 26.2617 16.5698 26.2701 16.502 26.2617C16.4935 26.2617 16.4424 26.2188 16.4424 26.2188C16.3746 26.2103 16.3657 26.253 16.332 26.2617C16.2725 26.2787 16.1441 26.2874 16.1016 26.2959C15.9314 26.3213 15.5829 26.3045 15.4385 26.2705C15.4215 26.2699 15.3734 26.2295 15.3711 26.2275H15.2939L15.2773 26.2021C15.1413 26.1767 15.0053 26.2278 14.9033 26.2363C14.8524 26.2363 14.7759 26.2532 14.7334 26.2363C14.7334 26.2363 14.6909 26.1935 14.6738 26.1934C14.5888 26.1849 14.444 26.2278 14.376 26.2363C14.1635 26.2703 13.917 26.2278 13.7471 26.2363C13.4835 26.2618 13.271 26.2193 13.0244 26.2363C12.6334 26.2448 12.2 26.2696 11.792 26.2441C11.7496 26.2441 11.6732 26.2616 11.6475 26.2617C11.3499 26.2872 11.0095 26.2872 10.7119 26.2617C10.3805 26.2362 10.0237 26.2611 9.71777 26.2441C9.59025 26.2441 9.45329 26.2702 9.34277 26.2617L9.27539 26.2363C9.05442 26.2108 8.83328 26.2533 8.6123 26.2363C8.22123 26.2108 7.76148 26.2017 7.37891 26.1592C7.14116 26.1338 6.89497 26.193 6.65723 26.1592L6.57129 26.1338C6.39295 26.1169 6.19761 26.1344 5.98535 26.126C5.77281 26.109 5.49184 26.0573 5.2793 26.0488C5.15191 26.0404 5.01606 26.0573 4.88867 26.0488C4.82083 26.0488 4.69349 26.0154 4.63379 26.0068C4.52327 25.9983 4.41228 26.0238 4.30176 26.0068C4.25088 26.0068 4.16627 25.9725 4.11523 25.9639C3.96225 25.9469 3.84271 25.9815 3.69824 25.9561L3.65527 25.9297C3.60436 25.9297 3.54501 25.9382 3.49414 25.9297C3.47713 25.9297 3.43428 25.8877 3.42578 25.8877C3.30694 25.8623 3.2051 25.8874 3.09473 25.8789L3.03516 25.8535C2.97572 25.845 2.9162 25.8535 2.86523 25.8535C2.80572 25.8535 2.70335 25.82 2.65234 25.8115C2.5929 25.8115 2.53338 25.82 2.48242 25.8115C2.46537 25.8115 2.406 25.7686 2.39746 25.7686C2.30399 25.7516 2.23602 25.7682 2.14258 25.7598C1.97255 25.7428 1.78515 25.6834 1.64062 25.6494C1.52184 25.624 1.41987 25.6497 1.30957 25.6074C1.30107 25.6074 1.2751 25.5645 1.2666 25.5645C1.24117 25.556 1.2237 25.5645 1.19824 25.5645C1.18143 25.5637 1.16468 25.5226 1.15625 25.5225C1.10524 25.497 1.07083 25.505 1.02832 25.4795C1.01952 25.4783 0.994828 25.4369 0.986328 25.4365H0.910156C0.910156 25.4365 0.860245 25.3958 0.850586 25.3945C0.782573 25.369 0.739199 25.3771 0.679688 25.3516C0.670757 25.35 0.646113 25.3098 0.637695 25.3096C0.612243 25.3096 0.578222 25.318 0.552734 25.3096C0.501832 25.2926 0.425373 25.2417 0.382812 25.2246C0.323315 25.1991 0.289272 25.2156 0.238281 25.1816C0.212776 25.1646 0.203928 25.1476 0.169922 25.1221V25.0967H0.12793V25.0801C0.12793 25.0801 0.0604415 25.0377 0.0429688 25.0205V24.9775L0 24.9521C0.0424438 24.7908 0.0345393 24.7905 0.1875 24.748C0.467882 24.6632 0.816188 24.6892 1.14746 24.6553C1.47052 24.6213 1.89598 24.587 2.22754 24.5615C2.37204 24.5445 2.52543 24.5615 2.66992 24.5615C2.7464 24.5614 2.86503 24.5186 2.94141 24.5186C3.08589 24.5101 3.23052 24.5185 3.375 24.5186C3.46852 24.5186 3.60501 24.4851 3.70703 24.4766C3.88542 24.4596 4.0638 24.4935 4.24219 24.4766C4.33571 24.4681 4.51459 24.4424 4.59961 24.4424C4.61665 24.4422 4.66616 24.4252 4.65918 24.4248C4.78668 24.4249 4.96535 24.4588 5.09277 24.4248L5.11816 24.3994C5.21991 24.3825 5.28792 24.4254 5.38965 24.417C5.96776 24.3575 6.60606 24.3655 7.20117 24.3145C7.55798 24.2805 7.87238 24.3145 8.2207 24.2891H8.46777C8.47108 24.2877 8.50925 24.2725 8.49316 24.2725C8.89267 24.2725 9.32618 24.2471 9.7002 24.2471C9.87023 24.2471 10.0662 24.2889 10.2617 24.2549C10.2629 24.2516 10.2705 24.2297 10.2783 24.2295C10.3293 24.2295 10.4064 24.2129 10.4404 24.2129C10.8143 24.179 11.1886 24.2296 11.5625 24.2041C11.6814 24.1956 11.8596 24.1956 11.9785 24.2041C12.123 24.2126 12.2086 24.1529 12.3701 24.1699L12.4463 24.1953C12.4888 24.1953 12.5571 24.1621 12.5996 24.1621C12.71 24.1622 12.8713 24.2213 13.0156 24.1875C13.0241 24.1875 13.0162 24.1615 13.0332 24.1445C13.0841 24.1444 13.143 24.1189 13.1602 24.1104C13.262 24.0934 13.3133 24.1275 13.415 24.1191C13.534 24.1191 13.7215 24.0772 13.832 24.0771C13.9595 24.0771 14.1381 24.1025 14.2656 24.1025C14.3335 24.1025 14.4609 24.0769 14.5205 24.0684C14.7586 24.0514 14.9289 24.0771 15.167 24.0771V24.1357C15.2434 24.1612 15.3282 24.1192 15.4131 24.1191V24.0771C15.4471 24.0686 15.8131 24.0511 15.8301 24.0596C15.8725 24.0681 15.8977 24.145 15.9316 24.1621C15.9485 24.1621 16.041 24.1871 16.0508 24.1875C15.9915 24.2977 16.0089 24.2979 16.1533 24.2979C16.2636 24.2978 16.3403 24.2557 16.4082 24.2217C16.3657 24.2047 16.3397 24.1957 16.3057 24.1787V24.1357C16.3142 24.1357 16.3486 24.1104 16.3486 24.1104H16.4336C16.4421 24.1103 16.4596 24.0769 16.4766 24.0684V24.0254C16.5049 24.0085 16.7826 23.9912 16.8164 23.9912L16.8506 24.0596ZM22.5381 24.2979C22.5298 24.2979 22.521 24.3381 22.5127 24.3398C22.6144 24.3533 22.7375 24.3411 22.8564 24.3438C22.8408 24.3422 22.8248 24.3423 22.8096 24.3398C22.7416 24.3313 22.623 24.2811 22.5381 24.2979Z" fill="#00AA66"/>
<path d="M16.0557 6.00073C16.2002 5.99797 16.3531 6.01533 16.4678 6.02808L16.5361 6.06226C16.6296 6.0791 16.7484 6.04528 16.8418 6.06226C16.8756 6.06226 16.9685 6.11257 17.0029 6.11304C17.156 6.13854 17.2419 6.12981 17.3779 6.16382C17.4037 6.16442 17.4629 6.2146 17.4883 6.2146C17.5306 6.21456 17.5729 6.20622 17.6152 6.2146C17.6322 6.2146 17.6835 6.26629 17.709 6.26636C17.7854 6.28332 17.828 6.26605 17.9043 6.28296L17.9385 6.31714C18.0064 6.33411 18.0828 6.34283 18.1338 6.35132C18.1933 6.36832 18.2364 6.35092 18.2959 6.36792C18.3215 6.37675 18.3723 6.44472 18.4062 6.46167C18.5847 6.53813 18.7548 6.55539 18.9248 6.64038C19.0266 6.69137 19.1286 6.79279 19.2305 6.85229C19.3068 6.89471 19.392 6.91189 19.46 6.96265C19.4855 6.97965 19.5373 7.05697 19.5713 7.07397C19.5884 7.07384 19.6218 7.06554 19.6387 7.07397C19.6395 7.07868 19.6482 7.12476 19.6562 7.12476C19.6815 7.14132 19.6984 7.12474 19.7236 7.14136V7.17554C19.8342 7.26055 19.9454 7.31191 20.0645 7.38843C20.1237 7.43081 20.1578 7.473 20.2256 7.51538V7.54956H20.2764C20.3274 7.56656 20.4382 7.72844 20.4893 7.76245C20.5232 7.78776 20.5657 7.78779 20.5996 7.81323C20.6164 7.83013 20.5997 7.84712 20.6162 7.86401H20.6504C20.6504 7.86401 20.651 7.91479 20.668 7.91479C20.719 7.95729 20.7615 7.98362 20.8125 8.02612C20.8202 8.02764 20.8124 8.06856 20.8291 8.0769C20.8886 8.12788 20.9653 8.16195 21.0078 8.22144C21.0247 8.24729 21.0417 8.36509 21.0586 8.38257C21.1011 8.41657 21.2284 8.40871 21.2539 8.45972C21.2792 8.50209 21.2288 8.51913 21.2373 8.57007H21.2715C21.2884 8.61226 21.2887 8.61232 21.3057 8.64624C21.3822 8.77371 21.4671 8.88468 21.5605 9.00366H21.5947L21.6455 9.11401H21.6621C21.6616 9.11628 21.654 9.14834 21.6621 9.16479C21.6876 9.1988 21.7555 9.25022 21.7725 9.29272C21.8064 9.37768 21.747 9.43714 21.7725 9.54761C21.7727 9.57314 21.8491 9.63244 21.8662 9.65796C21.8747 9.67487 21.8663 9.69183 21.8662 9.70874C21.8832 9.75975 21.9771 9.81134 21.9941 9.87085V9.92163H22.0283C22.0538 9.98091 22.0872 10.0319 22.1211 10.0828C22.1296 10.0998 22.1211 10.1175 22.1211 10.1345C22.1301 10.1605 22.2142 10.2699 22.2314 10.2957C22.2484 10.3467 22.232 10.3807 22.249 10.4402C22.2491 10.4572 22.2998 10.5169 22.2998 10.5339C22.3337 10.6274 22.3342 10.6954 22.3682 10.7888L22.4023 10.8054C22.4278 10.8734 22.4191 10.9246 22.4531 10.9841C22.4701 11.0266 22.5211 11.0696 22.5381 11.1121C22.5805 11.2224 22.5809 11.2988 22.6318 11.4177L22.665 11.4519V11.5281L22.6992 11.5457C22.7162 11.5966 22.7415 11.6562 22.75 11.6902C22.7924 11.8175 22.7929 11.9108 22.8184 12.0466C22.8438 12.1995 22.9116 12.4037 22.9287 12.5652C22.9542 12.8117 22.9117 13.0589 22.9287 13.3054C22.9289 13.3315 22.9631 13.4752 22.9463 13.5769C22.9378 13.6364 22.8865 13.7472 22.8779 13.8152C22.8269 14.0702 22.7933 14.2575 22.7168 14.4871C22.6998 14.538 22.6401 14.6229 22.623 14.6824C22.5976 14.7757 22.5724 14.9114 22.5723 14.988C22.5723 15.0475 22.5976 15.1498 22.5723 15.2263H22.5381C22.5381 15.2263 22.5375 15.2776 22.5205 15.3201C22.5205 15.3285 22.4702 15.3538 22.4697 15.3708C22.4612 15.3879 22.4697 15.4222 22.4697 15.4392C22.4611 15.4817 22.385 15.5578 22.3594 15.6003C22.3424 15.6343 22.3597 15.6517 22.3428 15.6941C22.3258 15.7366 22.257 15.7961 22.2314 15.8386C22.206 15.8811 22.2152 15.9156 22.1982 15.9666C22.1971 15.9757 22.1465 16.0173 22.1465 16.0173C22.1466 16.0345 22.1641 16.102 22.1641 16.0935C22.1641 16.1104 22.1385 16.178 22.1465 16.1873C22.1125 16.2382 22.0535 16.2809 22.0195 16.3318C21.994 16.3658 21.9943 16.4257 21.9688 16.4597L21.917 16.4763C21.8831 16.5358 21.8751 16.5958 21.9346 16.6042C22.011 16.4683 22.0872 16.3744 22.2061 16.281C22.1891 16.3152 22.1722 16.3916 22.1553 16.4255H22.1211L21.9941 16.5867C21.9941 16.5867 22.0021 16.6282 21.9941 16.6375C21.9516 16.697 21.9087 16.7315 21.8662 16.7996H21.832C21.8326 16.8022 21.8402 16.8421 21.832 16.8503C21.8065 16.8758 21.7471 16.8932 21.7217 16.9187C21.7048 16.9361 21.6878 17.02 21.6709 17.0457C21.6539 17.0627 21.5173 17.1566 21.5088 17.1736V17.2078C21.5042 17.2078 21.466 17.2084 21.458 17.2244V17.2751H21.4072L21.3906 17.3269H21.3564C21.3574 17.3311 21.3644 17.3619 21.3564 17.3777C21.229 17.3352 21.4072 17.208 21.4668 17.1824C21.4413 17.1739 21.5261 17.063 21.4326 17.114L21.416 17.1648H21.3818C21.3818 17.1648 21.3481 17.2161 21.3311 17.2332C21.2886 17.2671 21.2206 17.3011 21.1865 17.3435C21.161 17.369 21.1693 17.4032 21.1523 17.4373C21.1269 17.471 21.0677 17.4794 21.042 17.5046C21.025 17.5301 21.0247 17.5729 21.0078 17.5984C20.9908 17.6069 20.9565 17.5899 20.9395 17.5984C20.9395 17.5984 20.8461 17.7435 20.8291 17.7605C20.795 17.7858 20.7185 17.7858 20.6846 17.8113C20.6591 17.8369 20.6333 17.9043 20.5908 17.9382C20.5398 17.9807 20.4973 17.9895 20.4463 18.032C20.4379 18.0406 20.4463 18.0741 20.4297 18.0828C20.3958 18.0997 20.3533 18.0917 20.3193 18.1169C20.2938 18.1424 20.2931 18.2109 20.2676 18.2449H20.2344V18.2791C20.1749 18.3131 20.1488 18.3209 20.0723 18.3464C20.0641 18.347 20.0723 18.3804 20.0557 18.3806C20.0388 18.3806 20.0218 18.3724 20.0049 18.3806C19.9879 18.3806 20.0043 18.4229 19.9873 18.4314C20.0383 18.4144 19.9792 18.4659 20.0215 18.449V18.4148C20.081 18.3893 20.1834 18.3726 20.2344 18.3386C20.2344 18.3386 20.2845 18.2542 20.3018 18.2449C20.3442 18.2194 20.4038 18.2276 20.4463 18.2107V18.1765C20.4463 18.1765 20.48 18.1847 20.4971 18.1765V18.1423C20.5651 18.0998 20.5997 18.0579 20.6592 18.0154C20.6932 17.9899 20.7355 18.0066 20.7695 17.9812V17.947C20.7695 17.947 20.8374 17.9133 20.8799 17.8962V17.8621C20.8799 17.8621 20.9135 17.8702 20.9307 17.8621V17.8279C21.041 17.76 21.1264 17.7008 21.2197 17.616C21.2367 17.599 21.3226 17.488 21.3311 17.488C21.3564 17.4713 21.3983 17.4796 21.4238 17.4714C21.4158 17.4883 21.4238 17.5054 21.4238 17.5222C21.415 17.5475 21.3566 17.5731 21.3311 17.5984C21.3141 17.6153 21.2715 17.6913 21.2627 17.7087C21.2543 17.7172 21.2208 17.7089 21.2119 17.7087L21.1611 17.8025C21.1016 17.8535 21.0244 17.8794 20.9648 17.9304L20.9482 17.9812C20.9313 17.9897 20.9144 17.973 20.8975 17.9812C20.889 17.9812 20.8969 18.0235 20.8799 18.032C20.846 18.0573 20.787 18.0576 20.7529 18.0828C20.7444 18.0828 20.7524 18.126 20.7354 18.1345C20.574 18.2535 20.4294 18.3724 20.251 18.4744V18.5085H20.1826C20.1487 18.5176 20.1061 18.5935 20.0723 18.6189C20.0553 18.6272 20.0384 18.6189 20.0215 18.6189C20.013 18.6189 19.9958 18.6697 19.9873 18.6697C19.9279 18.7035 19.8855 18.6867 19.8262 18.7205C19.7838 18.7459 19.7325 18.8136 19.6816 18.8308H19.6309C19.5969 18.8478 19.5369 18.9251 19.5029 18.9421C19.435 18.9761 19.3837 18.9589 19.3242 18.9929C19.2987 19.0017 19.2474 19.0948 19.2305 19.1033C19.1796 19.137 19.1037 19.1289 19.0527 19.1541V19.1882C19.0527 19.1882 18.9764 19.2386 18.959 19.239C18.9165 19.256 18.8736 19.2396 18.8311 19.2566C18.7886 19.2738 18.7289 19.3415 18.6865 19.3669C18.6526 19.3838 18.6267 19.3666 18.5928 19.3835L18.5762 19.4177C18.5082 19.4347 18.457 19.4183 18.3975 19.4353C18.3636 19.4441 18.3376 19.5111 18.3037 19.5281C18.2783 19.5364 18.2447 19.5281 18.2109 19.5281L18.1426 19.5798C18.1173 19.5798 18.1004 19.5462 18.0918 19.5457V19.5281C18.0918 19.5281 18.0074 19.5455 17.9814 19.5457L17.9297 19.5798C17.7598 19.6138 17.5982 19.6562 17.4453 19.6902C17.3519 19.7071 17.3008 19.6898 17.2158 19.7068L17.1816 19.741C16.9013 19.7834 16.782 19.7578 16.5186 19.7917C16.4997 19.7921 16.2743 19.8338 16.2471 19.8425L16.2129 19.9539C16.2129 19.9539 16.1714 19.9539 16.1621 19.9539V19.9871C16.1621 19.9871 16.0933 19.9876 16.0508 20.0046C16.0472 20.009 16.0081 20.0554 16 20.0554C15.864 20.0893 15.6512 20.055 15.5322 20.072C15.5146 20.0718 15.448 20.0554 15.4648 20.0554C15.3033 20.0554 15.1244 20.0724 14.9629 20.0554C14.9288 20.0553 14.8438 20.0046 14.8184 20.0046C14.7166 19.9877 14.6233 19.9789 14.5469 19.9705C14.4619 19.9535 14.3845 19.9709 14.291 19.9539C14.2814 19.9527 14.2236 19.9021 14.2236 19.9021C14.0791 19.8681 13.9937 19.8853 13.8662 19.8513C13.8492 19.8511 13.8148 19.8005 13.7979 19.8005C13.7386 19.7837 13.7042 19.7999 13.6533 19.783L13.6367 19.7498C13.5858 19.7328 13.5097 19.7066 13.4756 19.698C13.4416 19.6895 13.3983 19.698 13.3643 19.698C13.2962 19.6807 13.1772 19.6046 13.1094 19.5876H13.0244C13.0075 19.5872 12.9663 19.5383 12.957 19.5369C12.9061 19.5199 12.88 19.5372 12.8291 19.5203V19.4861C12.8271 19.4863 12.7524 19.4944 12.7188 19.4861C12.6932 19.4861 12.5736 19.3842 12.5566 19.3757C12.5141 19.3589 12.4545 19.3842 12.4121 19.3757C12.4027 19.3744 12.3536 19.3246 12.3447 19.324C12.2258 19.2985 12.1661 19.3072 12.0557 19.2732C11.9963 19.2477 11.9114 19.1884 11.8604 19.1628C11.7753 19.1288 11.6895 19.1292 11.6045 19.0867C11.5705 19.0696 11.5115 19.01 11.4775 18.9929C11.4351 18.9759 11.4096 18.9922 11.3672 18.9753L11.3496 18.9421C11.3157 18.9422 11.2898 18.9506 11.2559 18.9421C11.2559 18.9421 11.2314 18.8915 11.2227 18.8904C11.0951 18.8394 10.9924 18.8229 10.8818 18.7634V18.7292C10.8765 18.7292 10.8215 18.7286 10.7891 18.7126L10.7715 18.6785C10.7375 18.6615 10.7117 18.6779 10.6777 18.6609C10.6187 18.6267 10.6098 18.5418 10.5674 18.5164C10.5421 18.4998 10.5169 18.5163 10.5 18.4998V18.4656C10.5 18.4656 10.4652 18.4656 10.4482 18.4656C10.4397 18.4639 10.4235 18.4163 10.415 18.4148C10.398 18.4063 10.3803 18.4148 10.3633 18.4148C10.3584 18.4117 10.2695 18.3548 10.2363 18.3464V18.3123C10.2363 18.3123 10.2026 18.3206 10.1855 18.3123V18.2791C10.1006 18.2281 10.0747 18.1936 10.0068 18.1511C9.96433 18.1171 9.92141 18.1258 9.87891 18.1003L9.8623 18.0496C9.84561 18.0496 9.82047 18.0573 9.81152 18.0496C9.73507 17.9901 9.68352 17.9218 9.59863 17.8708V17.8367H9.56445C9.56445 17.8367 9.55622 17.7875 9.54785 17.7859C9.53935 17.7774 9.5046 17.7859 9.49609 17.7859C9.49257 17.7831 9.36849 17.6831 9.33496 17.658V17.6238C9.33496 17.6238 9.29268 17.6323 9.28418 17.6238V17.5896C9.28418 17.5896 9.25047 17.5898 9.2334 17.573C9.21648 17.5645 9.17384 17.472 9.16504 17.4626C9.14804 17.4456 9.11368 17.4621 9.09668 17.4451C9.07148 17.4194 9.06298 17.3518 9.0293 17.3347H8.99512C8.9951 17.3294 8.99404 17.2397 8.97754 17.1902H8.96094L8.86719 17.0798V17.0291C8.86441 17.0285 8.82461 17.0197 8.81641 17.0115C8.79115 16.9944 8.78244 16.9443 8.76562 16.9187C8.75712 16.9102 8.72237 16.9096 8.71387 16.9011L8.60352 16.7566H8.56934C8.51856 16.6971 8.49326 16.6037 8.44238 16.5613L8.3916 16.5447C8.35761 16.4597 8.41704 16.4252 8.3916 16.3318H8.37402L8.30664 16.281C8.30664 16.281 8.30596 16.2216 8.28906 16.1707C8.28061 16.1453 8.18814 16.044 8.17871 16.0261C8.17871 16.0091 8.18721 15.9914 8.17871 15.9744C8.17 15.9579 8.13649 15.9745 8.12793 15.9578V15.907H8.11035L8.01758 15.7966C8.01758 15.7966 8.01758 15.7534 8.01758 15.7449C8.01758 15.7449 7.97432 15.7368 7.96582 15.7283C7.94048 15.7027 7.94042 15.6519 7.91504 15.6179H7.88086L7.70312 15.3796C7.66063 15.2946 7.68593 15.2096 7.66895 15.0906C7.66895 15.0481 7.60059 14.9967 7.60059 14.9626C7.57532 14.8608 7.62584 14.7422 7.60059 14.6404C7.60059 14.632 7.55085 14.6148 7.5498 14.6062C7.54138 14.5894 7.55778 14.5723 7.5498 14.5554L7.49902 14.5378C7.47352 14.5123 7.3966 14.359 7.37109 14.325V14.2917H7.60059C7.55808 14.1642 7.55828 14.0535 7.63477 13.9685C7.64327 13.9515 7.69462 13.9262 7.70312 13.9177C7.75412 13.8157 7.72785 13.6623 7.73633 13.5603C7.75333 13.5603 7.83875 13.5775 7.86426 13.5945V13.6453C7.87278 13.6708 7.94099 13.7216 7.95801 13.7556C7.97501 13.7981 7.96671 13.8235 7.99219 13.866L8.05957 13.9177C8.08491 13.9517 8.07678 13.9856 8.09375 14.0281C8.1109 14.0536 8.17053 14.1045 8.1875 14.1384C8.21287 14.1893 8.20449 14.2571 8.23828 14.2996C8.30629 14.3846 8.39982 14.3088 8.52734 14.3513L8.54395 14.3679C8.60346 14.4104 8.61277 14.5037 8.65527 14.5632C8.6595 14.5641 8.69802 14.5728 8.70605 14.5808V14.614C8.70605 14.614 8.80726 14.7078 8.83301 14.7419C8.85001 14.7759 8.84168 14.8017 8.86719 14.8357H8.90137L8.98633 14.9626C8.96086 14.8014 8.93538 14.6825 8.87598 14.5466C8.87598 14.5297 8.791 14.4194 8.78223 14.4021C8.76525 14.3512 8.78251 14.3169 8.76562 14.2576L8.73145 14.24C8.71465 14.1977 8.73083 14.172 8.71387 14.1296H8.68066C8.68119 14.1248 8.68887 14.0522 8.68066 14.0193C8.68977 14.028 8.76419 14.07 8.77344 14.0955C8.79889 14.1464 8.77422 14.1891 8.79102 14.24H8.8252C8.8252 14.24 8.82479 14.3088 8.8418 14.3513L8.87598 14.3679C8.89292 14.4273 8.87578 14.4698 8.89258 14.5291H8.92676C8.92676 14.5291 8.92733 14.5803 8.94434 14.6228C8.96133 14.6567 9.01992 14.6908 9.03711 14.7332C9.07112 14.8012 9.05486 14.878 9.08887 14.946C9.0929 14.9494 9.13899 14.9883 9.13965 14.9968C9.15664 15.0308 9.13928 15.0566 9.15625 15.0906C9.17324 15.1161 9.23294 15.1669 9.25 15.2009C9.25 15.2178 9.24172 15.2348 9.25 15.2517C9.2585 15.2687 9.32675 15.3116 9.34375 15.3201C9.35196 15.3287 9.34391 15.362 9.34375 15.3708H9.37793C9.38252 15.3759 9.56485 15.5753 9.57324 15.5837C9.60714 15.6177 9.64124 15.6767 9.68359 15.7107C9.7176 15.7362 9.75994 15.7369 9.79395 15.7625C9.81079 15.7795 9.81134 15.8297 9.82812 15.8552H9.8623C9.91328 15.8723 9.95585 16.0003 10.0068 16.0173H10.041C10.041 16.0198 10.0412 16.0598 10.0576 16.0681H10.0918L10.1426 16.1619C10.1936 16.2044 10.2618 16.2382 10.3213 16.2722C10.3128 16.2467 10.3298 16.204 10.3213 16.1785C10.3125 16.1444 10.2279 16.0763 10.2109 16.0339C10.211 16.0169 10.2193 15.9831 10.2109 15.9578C10.2109 15.9578 10.1592 15.9321 10.1592 15.9236C10.1592 15.9065 10.1677 15.8644 10.1592 15.8474C10.1592 15.8389 10.1169 15.8468 10.1084 15.8298C10.0831 15.7873 10.0746 15.7277 10.0576 15.6853H10.0234C10.0234 15.6797 10.0232 15.6076 10.0068 15.575C10.0068 15.575 9.95715 15.5668 9.95605 15.5583C9.90516 15.5075 9.9214 15.4225 9.8877 15.363L9.85352 15.3455V15.2517C9.85117 15.24 9.75284 15.0926 9.74316 15.074C9.74316 15.0485 9.75157 15.0142 9.74316 14.9802C9.74316 14.9802 9.69245 14.963 9.69238 14.946C9.68391 14.8952 9.7007 14.8358 9.69238 14.7849L9.64062 14.7507C9.63213 14.7252 9.64062 14.691 9.64062 14.657C9.64062 14.6485 9.59054 14.5982 9.58984 14.5808C9.58134 14.5298 9.59835 14.4697 9.58984 14.4187C9.58941 14.4017 9.53912 14.3764 9.53906 14.3679C9.53056 14.3254 9.54756 14.2825 9.53906 14.24C9.53831 14.2227 9.48828 14.1807 9.48828 14.1638C9.45427 13.9938 9.47053 13.9084 9.43652 13.7468C9.43204 13.7401 9.38625 13.6707 9.38574 13.6541C9.37726 13.6116 9.39414 13.552 9.38574 13.5095C9.38574 13.501 9.33496 13.4663 9.33496 13.4578C9.31821 13.3983 9.34344 13.3218 9.33496 13.2625C9.33464 13.2368 9.28461 13.1612 9.28418 13.1355C9.22467 12.8294 9.20789 12.4634 9.2334 12.1404C9.24191 11.9959 9.26739 11.7744 9.2334 11.6384C9.2328 11.622 9.19849 11.6303 9.18164 11.6218V11.4607C9.19014 11.4012 9.25839 11.3411 9.27539 11.2986C9.28379 11.2475 9.26669 11.1204 9.29199 11.0271L9.34375 11.0095C9.34368 10.967 9.32678 10.9074 9.34375 10.865C9.34488 10.8564 9.39453 10.8392 9.39453 10.8308C9.39439 10.8137 9.3861 10.7799 9.39453 10.7546C9.39672 10.7528 9.44474 10.7125 9.44531 10.7039C9.45379 10.67 9.437 10.6275 9.44531 10.5935C9.44531 10.5851 9.49498 10.5427 9.49609 10.5417C9.50439 10.4993 9.47914 10.4396 9.49609 10.3972C9.49667 10.3808 9.53099 10.389 9.54785 10.3806C9.54784 10.3551 9.53935 10.3124 9.54785 10.2869L9.59863 10.2703C9.61564 10.2108 9.59823 10.1592 9.61523 10.1082H9.64941C9.64845 10.1041 9.64149 10.0732 9.64941 10.0574C9.65024 10.0488 9.7002 10.0316 9.7002 10.0232C9.73394 9.93011 9.68386 9.8962 9.68359 9.84546C9.68384 9.8548 9.69187 9.89604 9.68359 9.89624H9.63281C9.62436 9.91318 9.64112 9.93008 9.63281 9.94702H9.59863C9.59863 9.94702 9.59863 9.98868 9.59863 9.9978H9.56445C9.56445 9.9978 9.56477 10.041 9.54785 10.0496H9.53027V10.1257C9.52973 10.1343 9.47949 10.1515 9.47949 10.1599C9.46277 10.1936 9.47942 10.219 9.46289 10.2527C9.45441 10.2697 9.39477 10.304 9.39453 10.321C9.38603 10.3465 9.39453 10.3808 9.39453 10.4148C9.39427 10.4319 9.34375 10.4747 9.34375 10.4832C9.31845 10.5425 9.32642 10.6016 9.30957 10.6609C9.30109 10.6948 9.27579 10.7545 9.25879 10.8054L9.22461 10.823C9.2077 10.8824 9.22402 10.9081 9.20703 10.9675C9.18988 11.0186 9.13125 11.1119 9.11426 11.1628C9.10577 11.1968 9.12264 11.2392 9.11426 11.2732C9.11426 11.2732 9.08008 11.2823 9.08008 11.2908C9.06327 11.3417 9.07946 11.3925 9.0625 11.4519C9.04547 11.5114 9.0037 11.5712 8.96973 11.6306C8.96973 11.6306 8.91938 11.5892 8.91797 11.5798C8.86697 11.3758 8.96081 11.1458 8.98633 11.0183C9.01181 10.9334 8.98661 10.9079 9.02051 10.823C9.02051 10.806 9.07129 10.7629 9.07129 10.7458V10.6697C9.08829 10.6187 9.16464 10.542 9.18164 10.491C9.18161 10.4571 9.17316 10.4312 9.18164 10.3972L9.2334 10.364C9.2419 10.33 9.2334 10.2867 9.2334 10.2527C9.234 10.2273 9.28418 10.2019 9.28418 10.2019C9.29253 10.1764 9.28418 10.142 9.28418 10.1082C9.28508 10.091 9.33496 10.0574 9.33496 10.0574V9.9812C9.33496 9.96444 9.38431 9.93928 9.38574 9.93042C9.40275 9.89641 9.38632 9.87068 9.40332 9.83667C9.40561 9.83516 9.42808 9.8196 9.43652 9.81909V9.70874C9.46203 9.70874 9.47978 9.70914 9.48828 9.69214C9.48828 9.67521 9.47996 9.64143 9.48828 9.61597C9.48828 9.60747 9.53056 9.61539 9.53906 9.59839C9.54746 9.57287 9.53058 9.5301 9.53906 9.50464H9.58984C9.58984 9.49401 9.59004 9.39507 9.57324 9.41187C9.56495 9.42061 9.58165 9.47104 9.57324 9.48804C9.56489 9.49639 9.53167 9.48832 9.52246 9.48804C9.51402 9.48804 9.52235 9.52993 9.52246 9.53882L9.4707 9.5564C9.44549 9.58213 9.43681 9.64946 9.41992 9.68335C9.39449 9.71726 9.33519 9.75974 9.30957 9.7937C9.30957 9.8022 9.30049 9.86206 9.29199 9.86206H9.25879V9.91284L9.19043 9.96362C9.19043 9.96362 9.19053 10.0398 9.17383 10.0574C9.15682 10.0659 9.13057 10.0579 9.12207 10.075C9.11399 10.1005 9.13883 10.1423 9.12207 10.1677H9.07129C9.05415 10.1683 8.99453 10.3124 8.97754 10.3464H8.94434C8.94434 10.3464 8.94365 10.4143 8.92676 10.4568C8.92676 10.4568 8.87598 10.5 8.87598 10.5085C8.84211 10.5849 8.85067 10.6359 8.8252 10.7039L8.79102 10.7205C8.74002 10.8564 8.73163 10.9673 8.68066 11.1033C8.68066 11.1203 8.62891 11.1715 8.62891 11.197C8.62894 11.2309 8.63739 11.2568 8.62891 11.2908C8.62801 11.3082 8.57851 11.3582 8.57812 11.3835C8.53562 11.5791 8.56095 11.7582 8.54395 11.9792C8.53535 12.1321 8.45059 12.2086 8.43359 12.3191C8.42514 12.387 8.4511 12.4803 8.45117 12.5144C8.46818 12.7184 8.45077 12.7615 8.46777 12.9656C8.46781 13.0256 8.47659 13.2282 8.50195 13.2878L8.53613 13.3054C8.54451 13.3479 8.52765 13.4075 8.53613 13.45C8.53708 13.459 8.58691 13.5007 8.58691 13.5007C8.58691 13.5177 8.58634 13.6196 8.56934 13.6111C8.56816 13.6064 8.55293 13.5437 8.55273 13.5349H8.51855C8.51855 13.4924 8.51896 13.4323 8.50195 13.3728C8.50116 13.3555 8.45161 13.3054 8.45117 13.28C8.45117 13.2375 8.45967 13.1946 8.45117 13.1521C8.45107 13.1266 8.39953 13.0673 8.39941 13.0417C8.37392 12.9398 8.3913 12.8632 8.38281 12.7527C8.35731 12.4636 8.27252 12.0639 8.33203 11.7068C8.33227 11.6896 8.38271 11.6135 8.38281 11.5964C8.3998 11.5115 8.3659 11.4265 8.38281 11.3416C8.38281 11.3245 8.43359 11.2563 8.43359 11.2478C8.4421 11.2053 8.42509 11.1624 8.43359 11.1199C8.4344 11.1029 8.48438 11.0775 8.48438 11.0691C8.49282 11.0351 8.47592 10.9927 8.48438 10.9587C8.48442 10.9419 8.53544 10.9166 8.53613 10.908C8.54461 10.874 8.52779 10.8316 8.53613 10.7976C8.53613 10.7891 8.58691 10.7458 8.58691 10.7458C8.61225 10.6611 8.60389 10.6017 8.6377 10.5339C8.6377 10.517 8.68832 10.5167 8.68848 10.4998C8.68848 10.4743 8.67997 10.4315 8.68848 10.406C8.68873 10.3891 8.73176 10.3803 8.74023 10.3718V10.2957C8.74023 10.2872 8.79102 10.27 8.79102 10.2615C8.80786 10.2276 8.79065 10.2017 8.80762 10.1677C8.82476 10.1338 8.8844 10.0913 8.90137 10.0574C8.92675 10.0065 8.92679 9.94714 8.95215 9.89624H8.98633C8.98633 9.89624 8.98593 9.8446 9.00293 9.81909C9.00365 9.8024 9.04619 9.79431 9.05469 9.78589C9.08869 9.72638 9.07146 9.68329 9.10547 9.62378C9.10641 9.61536 9.15625 9.60644 9.15625 9.5896V9.53882C9.17326 9.50493 9.24925 9.45425 9.2666 9.41187C9.2666 9.39486 9.2581 9.37711 9.2666 9.36011C9.29214 9.31767 9.36053 9.27559 9.39453 9.23315C9.43697 9.17375 9.45408 9.09731 9.50488 9.03784L9.57324 9.00366V8.9519C9.60646 8.93545 9.58186 8.96905 9.58984 8.96948C9.65765 9.02034 9.61561 8.95256 9.64062 8.9353C9.65763 8.9268 9.67538 8.9438 9.69238 8.9353V8.88452C9.70144 8.88474 9.73476 8.89289 9.74316 8.88452C9.75155 8.87614 9.7434 8.84282 9.74316 8.83374L9.85352 8.75659C9.85574 8.75214 9.89707 8.67101 9.92188 8.62964H9.95605L10.0234 8.51929C10.0234 8.51929 10.0832 8.49303 10.1172 8.46753C10.151 8.42518 10.1596 8.37453 10.1934 8.34058H10.2275C10.2275 8.34058 10.294 8.2412 10.2959 8.23022C10.3894 8.14521 10.4914 8.09385 10.585 8.01733L10.6523 7.90698C10.6608 7.90698 10.6956 7.91548 10.7041 7.90698V7.8728C10.7089 7.86989 10.7896 7.8214 10.8145 7.79663C10.8145 7.79663 10.8226 7.75337 10.8311 7.74487H10.7637V7.69409C10.7806 7.67759 10.7975 7.70255 10.8145 7.69409C10.8149 7.69167 10.8228 7.64409 10.8311 7.64331C10.8735 7.60932 10.9246 7.60043 10.9756 7.57495V7.54077C10.9756 7.54077 11.0178 7.54922 11.0264 7.54077V7.50757C11.0264 7.50757 11.0952 7.47281 11.1377 7.45581V7.42163C11.1377 7.42163 11.0863 7.42221 11.0693 7.43921C11.0608 7.43921 11.0437 7.48999 11.0352 7.48999C11.0182 7.48995 11.0013 7.48162 10.9844 7.48999C10.9759 7.48999 10.9672 7.54077 10.9502 7.54077H10.8994C10.9022 7.53647 10.9322 7.48999 10.916 7.48999C10.9329 7.48157 10.95 7.48984 10.9668 7.48999C10.9923 7.4815 11.0182 7.39684 11.0352 7.37964H11.0693C11.0693 7.37964 11.1292 7.27779 11.1377 7.26929C11.1972 7.20987 11.2732 7.18381 11.3496 7.14136V7.10718C11.3496 7.10718 11.3833 7.11549 11.4004 7.10718V7.07397C11.4599 7.03999 11.5196 7.03077 11.5791 6.99683C11.6216 6.97132 11.6902 6.90348 11.7412 6.88647C11.7666 6.88654 11.8002 6.89477 11.834 6.88647C11.834 6.88647 11.8594 6.83683 11.8682 6.83569C11.953 6.80175 12.0213 6.81866 12.0977 6.78491C12.0977 6.78491 12.1232 6.73368 12.1318 6.73315H12.2002C12.2092 6.7323 12.251 6.68237 12.251 6.68237C12.2765 6.67387 12.3107 6.68237 12.3447 6.68237C12.3537 6.68161 12.4025 6.63318 12.4121 6.63159C12.5395 6.59761 12.608 6.60624 12.7354 6.58081C12.7523 6.58081 12.8199 6.52959 12.8457 6.52905C12.8966 6.52057 12.9394 6.52901 12.9902 6.52905C13.1431 6.50357 13.3473 6.43578 13.5088 6.4187C13.5853 6.4187 13.6712 6.4357 13.7393 6.4187L13.7725 6.38452C14.1465 6.32501 14.5637 6.40193 14.8867 6.36792C14.9632 6.35937 15.1074 6.3172 15.1924 6.31714C15.2519 6.31714 15.3116 6.32563 15.3711 6.31714L15.4219 6.28296C15.5663 6.26596 15.6685 6.32496 15.7959 6.29956C15.7959 6.29956 15.8307 6.28296 15.8477 6.28296V6.24878C15.7456 6.24878 15.609 6.27486 15.541 6.26636C15.5238 6.26615 15.4557 6.2146 15.4473 6.2146C15.2433 6.17221 14.9885 6.19799 14.7676 6.198V6.16382H14.8184C14.8353 6.15534 14.8354 6.13816 14.8691 6.12964C14.9626 6.10414 15.0819 6.11244 15.1924 6.09546C15.2518 6.08696 15.4049 6.04474 15.4814 6.04468C15.5749 6.04468 15.6345 6.07067 15.7363 6.06226C15.7363 6.06226 15.8729 6.06168 15.8984 6.04468C15.9067 6.04401 15.9074 6.0105 15.9326 6.0105L16.0557 6.00073ZM14.9629 8.33179C14.9289 8.33177 14.8865 8.32331 14.8525 8.33179C14.844 8.33179 14.7927 8.38257 14.7842 8.38257C14.7333 8.39096 14.6739 8.37413 14.623 8.38257C14.5722 8.39104 14.4705 8.47554 14.4277 8.49292C14.3939 8.50138 14.3513 8.48473 14.3174 8.49292C14.3089 8.49292 14.2741 8.54468 14.2656 8.54468C14.1639 8.57852 14.1044 8.57006 13.9941 8.59546C13.9346 8.61246 13.8489 8.68031 13.7979 8.70581C13.6962 8.7396 13.6537 8.72279 13.5605 8.75659C13.5605 8.75659 13.5173 8.80835 13.5088 8.80835H13.4414C13.4246 8.80835 13.3995 8.85778 13.3906 8.85913C13.3568 8.87605 13.331 8.85915 13.3057 8.87573V8.90991C13.3057 8.90991 13.254 8.90991 13.2285 8.90991C13.186 8.91857 13.1179 8.98668 13.084 9.00366C13.0416 9.0205 13.016 9.00332 12.9736 9.02026C12.9567 9.02028 12.9479 9.06233 12.9395 9.07104C12.8799 9.10505 12.8378 9.0888 12.7783 9.1228C12.7444 9.13977 12.7019 9.21593 12.668 9.23315C12.651 9.23315 12.6332 9.22465 12.6162 9.23315C12.5999 9.23391 12.6164 9.28387 12.5996 9.28394C12.5827 9.2924 12.5489 9.28402 12.5234 9.28394C12.5066 9.28394 12.4559 9.32572 12.4385 9.33472V9.3689C12.4385 9.3689 12.3869 9.36855 12.3613 9.3855C12.2933 9.44501 12.2506 9.53888 12.1826 9.59839H12.1494V9.63257C12.1494 9.63257 12.0471 9.7258 12.0215 9.74292V9.7605H11.9873C11.9857 9.7661 11.9692 9.82101 11.9531 9.85327C11.9446 9.87027 11.9108 9.85385 11.9023 9.87085L11.8516 9.9812H11.8174C11.8174 9.98392 11.8171 10.0325 11.8008 10.0574C11.7838 10.0914 11.715 10.1337 11.6895 10.1677C11.6725 10.1848 11.6303 10.3035 11.6133 10.3123H11.5791C11.5791 10.3123 11.5876 10.347 11.5791 10.364C11.5366 10.4233 11.4604 10.4825 11.418 10.5417C11.4095 10.5588 11.418 10.5765 11.418 10.5935C11.4168 10.6021 11.3672 10.6193 11.3672 10.6277C11.3589 10.6446 11.3672 10.6615 11.3672 10.6785C11.3584 10.7042 11.2564 10.8056 11.2393 10.8396V10.8904C11.2393 10.9074 11.1885 10.9336 11.1885 10.9421C11.129 11.0695 11.1034 11.1545 11.0439 11.282C10.993 11.4009 10.9162 11.5026 10.8652 11.6384L10.8311 11.6726C10.797 11.8256 10.8311 12.0385 10.8311 12.1746C10.831 12.353 10.7714 12.5061 10.7969 12.7185C10.8139 12.897 10.9074 13.0843 10.9414 13.2458C10.9499 13.2882 10.9415 13.3221 10.9414 13.3728C10.9584 13.4833 11.0606 13.6962 11.1201 13.7898L11.1543 13.8064C11.1543 13.8234 11.1458 13.8412 11.1543 13.8582H11.1885C11.2478 13.9853 11.2818 14.0702 11.3496 14.1804C11.3496 14.1972 11.3911 14.2062 11.4004 14.2146C11.4004 14.2231 11.4095 14.2832 11.418 14.2917H11.4521C11.4528 14.2976 11.4619 14.3695 11.4863 14.4021H11.5195C11.5201 14.4032 11.6051 14.5639 11.6475 14.5808H11.6641C11.6652 14.5854 11.6819 14.6488 11.6982 14.6736C11.7152 14.6991 11.7665 14.6998 11.792 14.7253C11.8001 14.7342 11.792 14.7677 11.792 14.7761H11.8262C11.8287 14.7812 11.8768 14.878 11.877 14.8865C11.8776 14.8866 11.9186 14.8947 11.9277 14.9031C11.9616 14.937 11.9874 15.0051 12.0381 15.0476C12.0891 15.0901 12.1492 15.1164 12.2002 15.1589C12.2082 15.1679 12.2001 15.2012 12.2168 15.2097C12.2507 15.2352 12.2932 15.2352 12.3271 15.2605C12.3356 15.269 12.3277 15.3028 12.3447 15.3113C12.4722 15.4133 12.6079 15.4818 12.7354 15.5837C12.7439 15.5922 12.7359 15.626 12.7529 15.6345C12.787 15.6599 12.8883 15.6684 12.9141 15.6853C12.9141 15.6853 12.9223 15.7355 12.9307 15.7371C12.9816 15.7795 13.0499 15.7793 13.1094 15.8132C13.2114 15.8642 13.2882 15.9403 13.4326 15.9744C13.4326 15.9744 13.4242 16.0508 13.4326 16.0681H13.4834V16.0857L13.79 16.2302C13.7986 16.2489 13.8158 16.3661 13.8242 16.3914C13.8072 16.3999 13.7895 16.3829 13.7725 16.3914V16.4255L13.7217 16.4421C13.6793 16.4506 13.6371 16.4255 13.5947 16.4421C13.5777 16.4421 13.4923 16.5189 13.4668 16.5359C13.5008 16.6123 13.5262 16.6551 13.5771 16.7146C13.5346 16.7231 13.4409 16.7399 13.3984 16.7654C13.3905 16.7663 13.3983 16.8073 13.3984 16.8162C13.3941 16.8183 13.2964 16.8669 13.2881 16.8669C13.2371 16.9095 13.2202 16.978 13.1777 17.0291C13.1607 17.046 13.1179 17.0628 13.1094 17.0798C13.084 17.1054 13.0841 17.1566 13.0586 17.1736C12.863 17.267 12.3866 17.1393 12.2676 17.0798C12.276 17.0967 12.2596 17.1138 12.2676 17.1306H12.3018L12.3193 17.1824C12.2939 17.1824 12.302 17.2498 12.209 17.2332C12.1495 17.2247 12.0471 17.0881 11.9961 17.071C11.9707 17.0626 11.9622 17.0794 11.9453 17.071V17.0378C11.9453 17.0378 11.8765 17.0207 11.834 17.0037V16.9695H11.7832C11.8087 17.0799 11.7831 17.0377 11.834 17.114C11.8935 17.1905 11.9026 17.1477 11.9961 17.1902C11.9961 17.1902 12.0381 17.2405 12.0469 17.241C12.0894 17.258 12.1067 17.2497 12.1406 17.2751C12.1661 17.2921 12.1487 17.3098 12.1572 17.3523C12.0894 17.3523 12.0385 17.3348 11.9961 17.3347V17.3005C11.9961 17.3005 11.9364 17.3009 11.9023 17.2839L11.8857 17.2498C11.8349 17.2328 11.7837 17.2583 11.7412 17.2332C11.7327 17.2332 11.7406 17.1824 11.7236 17.1824C11.7067 17.1825 11.6733 17.1905 11.6562 17.1824C11.6988 17.2081 11.775 17.2839 11.8174 17.3093H11.8682C11.8682 17.3093 12.056 17.4112 12.0645 17.4197C12.1155 17.4538 12.2003 17.5478 12.2598 17.5818C12.3191 17.6156 12.3615 17.6072 12.4209 17.6326C12.4634 17.6581 12.5486 17.7259 12.5996 17.7429C12.6166 17.7429 12.651 17.7344 12.668 17.7429C12.6845 17.7437 12.6847 17.7928 12.7012 17.7937H12.7695C12.778 17.7937 12.8294 17.8455 12.8379 17.8455C12.9396 17.8793 13.0076 17.8793 13.1094 17.9216L13.127 17.9558C13.1776 17.9726 13.2032 17.9556 13.2539 17.9724L13.2715 18.0066H13.3564C13.382 18.0069 13.4248 18.0574 13.4502 18.0574C13.5945 18.0997 13.6882 18.0827 13.8496 18.1082C13.8753 18.1085 13.9426 18.1596 13.9766 18.1599C14.1295 18.1854 14.2572 18.1596 14.4102 18.1765L14.4609 18.2107C14.5715 18.2362 14.6741 18.253 14.7676 18.2615C14.9546 18.2785 15.1842 18.2619 15.3457 18.2449C15.6942 18.2194 15.9832 18.2446 16.2637 18.1511C16.2807 18.1511 16.3235 18.1003 16.332 18.1003C16.3829 18.0834 16.4166 18.0996 16.459 18.0828L16.4766 18.0496C16.4821 18.0501 16.5624 18.0576 16.6035 18.0496C16.6035 18.0496 16.6126 18.0154 16.6211 18.0154C16.672 17.9985 16.7062 18.0148 16.7656 17.9978L16.7822 17.9636C16.8672 17.9296 16.9268 17.9299 17.0117 17.8875C17.0199 17.8875 17.0592 17.8407 17.0625 17.8367C17.139 17.8027 17.1908 17.8199 17.2588 17.7859V17.7517C17.3436 17.7178 17.3774 17.7088 17.4707 17.6833V17.6492C17.5387 17.6237 17.6241 17.6158 17.6836 17.5818V17.5476C17.7346 17.5221 17.769 17.4963 17.8115 17.4792C17.8286 17.4712 17.862 17.4792 17.8789 17.4792C17.9044 17.4792 17.9472 17.4025 17.9727 17.3855C18.0321 17.3516 18.0919 17.3521 18.1514 17.3181C18.2363 17.2586 18.3128 17.1562 18.4062 17.1052C18.4487 17.0798 18.5083 17.0799 18.5508 17.0544V17.0203C18.5546 17.0178 18.6445 16.9602 18.6611 16.9519V16.9187C18.6611 16.9187 18.7374 16.9015 18.7715 16.8845V16.8503C18.7715 16.8503 18.8051 16.8585 18.8223 16.8503V16.8162C18.8223 16.8162 19.0097 16.6971 19.0352 16.6716C19.0521 16.6546 19.0357 16.6212 19.0527 16.6042C19.0612 16.5872 19.1542 16.5441 19.1797 16.5271L19.1973 16.4763C19.2141 16.4682 19.2312 16.4848 19.248 16.4763C19.2562 16.4754 19.248 16.4259 19.2646 16.4255H19.2988C19.2988 16.4255 19.2907 16.3838 19.2988 16.3748C19.3073 16.3663 19.3408 16.3746 19.3496 16.3748L19.3672 16.323H19.4004C19.3996 16.3189 19.3926 16.2807 19.4004 16.2722C19.4259 16.2467 19.4777 16.2469 19.5117 16.2214C19.5286 16.2044 19.562 16.1206 19.5791 16.1111H19.6133C19.6133 16.1111 19.6133 16.0763 19.6133 16.0593C19.6222 16.0254 19.6982 15.9829 19.7236 15.949C19.7661 15.8895 19.783 15.8298 19.834 15.7703C19.8353 15.7618 19.8844 15.7456 19.8857 15.7371C19.8857 15.7201 19.8772 15.7023 19.8857 15.6853H19.9365C19.9619 15.626 19.9619 15.5835 19.9873 15.5242L20.0381 15.4734C20.0381 15.4564 20.0296 15.4386 20.0381 15.4216H20.0723C20.075 15.4166 20.1148 15.3441 20.123 15.3113H20.1406C20.1744 15.2264 20.1404 15.1416 20.1572 15.0398L20.1914 15.0222C20.2083 14.9713 20.2005 14.9201 20.209 14.8777H20.2422C20.2415 14.8728 20.2343 14.8175 20.2422 14.7849L20.2939 14.7507C20.3279 14.6573 20.3109 14.5892 20.3447 14.4958C20.3447 14.4873 20.3955 14.4441 20.3955 14.4441C20.4038 14.4187 20.3873 14.3851 20.3955 14.3513C20.3955 14.3513 20.4463 14.3081 20.4463 14.2996C20.4631 14.2572 20.447 14.215 20.4639 14.1726L20.4971 14.155C20.4964 14.1492 20.4889 14.0773 20.4971 14.0447L20.5488 14.0105C20.5572 13.9596 20.5404 13.9002 20.5488 13.8494C20.5488 13.8325 20.5985 13.8074 20.5996 13.7986C20.6166 13.7562 20.5913 13.6965 20.5996 13.6541C20.5996 13.637 20.6504 13.5939 20.6504 13.5769C20.6928 13.3817 20.6511 13.2798 20.668 13.1101C20.668 13.0506 20.7181 12.9738 20.7012 12.8718C20.7012 12.8378 20.6504 12.7437 20.6504 12.7097C20.642 12.6248 20.6673 12.5231 20.6504 12.4382C20.6492 12.4373 20.6011 12.3967 20.5996 12.3875C20.5911 12.3449 20.5996 12.302 20.5996 12.2595C20.5996 12.2425 20.5488 12.1913 20.5488 12.1658C20.5234 12.0554 20.531 11.9962 20.4971 11.8943C20.4971 11.8773 20.4463 11.851 20.4463 11.8425C20.4126 11.7832 20.421 11.7408 20.3955 11.6814H20.3613C20.3274 11.6134 20.3279 11.528 20.2939 11.4685C20.2929 11.4605 20.2506 11.4687 20.2422 11.4519C20.2252 11.4262 20.1999 11.3159 20.1914 11.3074C20.1745 11.2905 20.1493 11.3071 20.1406 11.2908V11.239C20.1402 11.2051 20.0638 11.1626 20.0469 11.1287C20.03 11.0947 20.0473 11.0689 20.0303 11.0349C20.0292 11.027 19.9869 11.0351 19.9785 11.0183C19.9702 11.0014 19.9784 10.9844 19.9785 10.9675C19.9785 10.959 19.9362 10.9419 19.9277 10.9333C19.8682 10.8569 19.8176 10.7885 19.7666 10.7205C19.7497 10.7035 19.7666 10.6867 19.7666 10.6697L19.7158 10.6531C19.6818 10.6191 19.6896 10.5677 19.6641 10.5251C19.6639 10.5168 19.622 10.5252 19.6133 10.5085C19.6048 10.4915 19.6218 10.4738 19.6133 10.4568L19.5625 10.4402C19.5455 10.4232 19.5453 10.3719 19.5283 10.3464L19.4004 10.2361C19.4004 10.2191 19.4089 10.1938 19.4004 10.1853C19.375 10.16 19.3331 10.1513 19.3076 10.1345L19.2305 10.0232C19.2135 10.0233 19.1881 10.0316 19.1797 10.0232L19.1631 9.97241H19.1289C19.1295 9.9694 19.137 9.92999 19.1289 9.92163C19.1205 9.91324 19.0871 9.92142 19.0781 9.92163V9.88745C19.0781 9.88745 18.9923 9.83678 18.9668 9.81128L18.9502 9.7605H18.916C18.916 9.7605 18.916 9.71724 18.916 9.70874C18.8986 9.6835 18.8147 9.6666 18.8057 9.64136V9.60718H18.7549V9.5896C18.7039 9.56409 18.6268 9.51325 18.5928 9.47925C18.5505 9.43672 18.5333 9.36863 18.4824 9.33472C18.4654 9.32649 18.4318 9.33481 18.4316 9.31812V9.28394C18.43 9.28393 18.3633 9.28403 18.3213 9.26733C18.2874 9.25038 18.2449 9.19079 18.2109 9.17358C18.1939 9.16508 18.1762 9.18209 18.1592 9.17358V9.1394C18.1083 9.11416 18.0571 9.13067 18.0146 9.10522C17.9891 9.08771 17.9466 9.01147 17.9043 9.01147H17.8877V8.96069H17.8369V8.92651C17.752 8.87557 17.6497 8.89296 17.5479 8.85913C17.531 8.85913 17.5221 8.80923 17.5137 8.80835C17.4968 8.79991 17.4798 8.80822 17.4629 8.80835C17.4289 8.79135 17.3433 8.72253 17.3008 8.69702C17.1903 8.64612 17.0795 8.63764 16.9775 8.58667C16.9658 8.58404 16.819 8.47819 16.8164 8.47632C16.7314 8.45932 16.629 8.49332 16.5439 8.47632C16.5266 8.47561 16.4685 8.42628 16.4512 8.42554C16.3748 8.40857 16.2896 8.43387 16.2217 8.42554C16.1877 8.42554 16.0936 8.37476 16.0596 8.37476C15.9831 8.36628 15.8981 8.38325 15.8301 8.37476C15.7791 8.37469 15.6858 8.32308 15.6348 8.323C15.4647 8.30599 15.2433 8.29749 15.0732 8.323L15.0479 8.3064C15.016 8.31912 14.9799 8.33179 14.9629 8.33179ZM17.6152 6.81812L17.6328 6.86987C17.6073 6.86987 17.5811 6.88647 17.5811 6.88647C17.8106 6.92898 18.0152 6.98884 18.1768 7.09937C18.2194 7.12514 18.3296 7.23538 18.3721 7.2439C18.4231 7.2524 18.4233 7.20932 18.4658 7.22632C18.4913 7.23495 18.5341 7.33726 18.5596 7.35425C18.5766 7.36241 18.61 7.35433 18.627 7.35425C18.6354 7.35425 18.6526 7.4047 18.6611 7.40503H18.7119C18.7373 7.4135 18.7883 7.48152 18.8223 7.49878C18.8393 7.50728 18.8739 7.49878 18.8994 7.49878C18.9163 7.49914 18.9497 7.55669 18.9668 7.56616C19.0263 7.60017 19.1036 7.6008 19.1631 7.64331L19.1797 7.67749C19.2307 7.69449 19.2651 7.67709 19.3076 7.69409C19.333 7.71119 19.3666 7.77068 19.4004 7.78784C19.4429 7.81333 19.4858 7.81316 19.5283 7.83862C19.5367 7.84704 19.5286 7.88051 19.5449 7.8894C19.5789 7.91491 19.6388 7.91566 19.6729 7.94116C19.7067 7.96675 19.7242 8.02606 19.7666 8.05151C19.8175 8.08529 19.8602 8.06835 19.9111 8.10229C19.9193 8.10292 19.9112 8.14436 19.9277 8.15308C19.9872 8.19554 20.047 8.21254 20.1064 8.26343L20.123 8.31519C20.123 8.31519 20.1574 8.27232 20.1914 8.29761L20.1748 8.33179C20.2085 8.35706 20.2 8.34911 20.2422 8.36597V8.41675C20.2677 8.43375 20.3019 8.43393 20.3359 8.45093C20.3529 8.46791 20.3532 8.50162 20.3701 8.5271C20.3716 8.5274 20.4126 8.53633 20.4209 8.54468C20.4804 8.58727 20.5994 8.77392 20.6504 8.79956H20.6846C20.6866 8.80354 20.7281 8.88503 20.7529 8.90991C20.7869 8.93525 20.8293 8.93524 20.8633 8.96069C20.8973 8.98621 20.9396 9.0973 20.9736 9.1228H21.0244C21.0669 9.13981 21.0758 9.19065 21.0928 9.23315H21.1436C21.1351 9.21615 21.1436 9.18151 21.1436 9.15601C21.1377 9.15209 21.0414 9.08808 21.0332 9.07983C21.0248 9.07135 21.0331 9.03779 21.0332 9.02905C21.0162 8.99506 20.9484 8.96928 20.9229 8.9353C20.9144 8.92685 20.9228 8.89325 20.9229 8.88452H20.8887C20.8887 8.88452 20.7777 8.71431 20.7607 8.70581C20.7179 8.66321 20.5573 8.56954 20.5488 8.5271C20.5489 8.51019 20.5571 8.48492 20.5488 8.47632C20.5403 8.46782 20.5056 8.47632 20.4971 8.47632C20.4635 8.45904 20.455 8.3915 20.4297 8.36597C20.4042 8.34896 20.3529 8.35729 20.3359 8.33179C20.3191 8.30642 20.3359 8.28098 20.3193 8.25562C20.3108 8.24711 20.2761 8.25562 20.2676 8.25562V8.23804L20.1406 8.14429C20.1406 8.13921 20.1391 8.09222 20.123 8.06812C20.1131 8.05066 19.9619 7.98282 19.9619 7.97437C19.9621 7.96534 19.9703 7.93198 19.9619 7.92358C19.9533 7.91527 19.9199 7.92347 19.9111 7.92358C19.8943 7.92358 19.8772 7.85681 19.8604 7.84741C19.8433 7.84741 19.8171 7.85591 19.8086 7.84741V7.81323L19.6816 7.71948V7.70288C19.6392 7.66889 19.5962 7.67755 19.5537 7.6521L19.5371 7.60034C19.5202 7.60034 19.4949 7.6087 19.4863 7.60034V7.56616C19.4438 7.54066 19.4175 7.524 19.375 7.48999C19.3669 7.48113 19.3751 7.4477 19.3584 7.43921C19.3414 7.42221 19.307 7.43863 19.29 7.42163C19.2307 7.38746 19.1707 7.30254 19.1113 7.2771C19.0777 7.2606 19.0523 7.27725 19.0186 7.2605L19.001 7.22632H18.9248C18.9165 7.22632 18.8763 7.17827 18.874 7.17554C18.8145 7.15854 18.7463 7.19248 18.6953 7.17554C18.6783 7.17554 18.6862 7.12476 18.6777 7.12476H18.627C18.61 7.12427 18.5846 7.07397 18.5762 7.07397C18.5509 7.07398 18.5422 7.08219 18.5254 7.07397V7.03979C18.5254 7.03979 18.4576 7.03913 18.415 7.02222L18.3633 6.95483C18.2443 6.91246 18.1252 6.95464 17.9893 6.92065C17.972 6.92003 17.9139 6.8707 17.8965 6.86987C17.82 6.85287 17.7091 6.8608 17.6836 6.85229C17.6835 6.84885 17.6808 6.80173 17.6152 6.81812Z" fill="#F8A03A"/>
<path d="M12.5774 19.6765C12.623 19.6924 12.6721 19.7116 12.6848 19.7244C12.6858 19.7282 12.6935 19.7576 12.7014 19.7576C12.7779 19.7831 12.8463 19.7838 12.9143 19.8093C12.9181 19.8138 12.957 19.8601 12.9651 19.8601C13.033 19.877 13.0758 19.8597 13.1438 19.8767C13.1696 19.877 13.2375 19.9115 13.2883 19.9285L13.3049 19.9617H13.3987C13.4411 19.9618 13.5173 20.0214 13.5598 20.03H13.6536L13.6877 20.0642C13.6916 20.0634 13.7731 20.0478 13.8147 20.0642C13.8572 20.0727 13.96 20.1576 14.011 20.1746H14.1213C14.1469 20.1748 14.2062 20.2253 14.2317 20.2253C14.3846 20.2678 14.58 20.3021 14.7161 20.3191C15.2771 20.3871 15.9148 20.3446 16.4758 20.3191C16.6119 20.3191 16.6292 20.3614 16.6887 20.3699C16.7482 20.3699 16.8251 20.3533 16.9016 20.3533C16.9016 20.3363 16.884 20.2849 16.884 20.2849C16.969 20.2679 16.9692 20.3276 17.0627 20.3191L17.0969 20.2849C17.1561 20.2681 17.1732 20.3023 17.2239 20.3025C17.3088 20.3025 17.411 20.2678 17.5129 20.2507C17.7425 20.2082 18.0067 20.0985 18.2278 20.073C18.2454 20.0732 18.3121 20.0896 18.2952 20.0896C18.3122 20.0981 18.3469 20.1238 18.3469 20.1238C18.2619 20.1493 18.21 20.1491 18.1165 20.1746C18.0987 20.1754 18.0314 20.2253 18.0061 20.2253C17.9636 20.2253 17.904 20.2169 17.8616 20.2253L17.7942 20.2771C17.7518 20.2856 17.6922 20.2687 17.6497 20.2771C17.6327 20.2771 17.5814 20.3277 17.5559 20.3279C17.5134 20.3364 17.4705 20.3279 17.428 20.3279C17.3853 20.3281 17.2917 20.3787 17.2493 20.3787H17.0881C17.0625 20.3788 16.9691 20.4294 16.9436 20.4294C16.8841 20.4294 16.8244 20.4209 16.7649 20.4294C16.7222 20.4296 16.6205 20.4802 16.5696 20.4802C16.238 20.5142 15.7195 20.5057 15.3879 20.4802C15.3029 20.4802 15.1497 20.4294 15.0647 20.4294C14.7333 20.404 14.4952 20.4127 14.2063 20.3533C14.1553 20.3448 14.0529 20.328 13.9934 20.3025L13.9768 20.2683C13.8664 20.2343 13.7981 20.243 13.6877 20.2175C13.6707 20.2175 13.611 20.1658 13.594 20.1658C13.56 20.1573 13.5176 20.1658 13.4836 20.1658C13.4582 20.1658 13.3311 20.1152 13.2883 20.0896L13.2708 20.0554C13.2668 20.056 13.2098 20.0636 13.177 20.0554C13.1733 20.051 13.1343 20.0046 13.1262 20.0046C13.0923 19.9963 13.0664 20.0131 13.0325 20.0046C13.0153 20.0037 12.9739 19.9545 12.9651 19.9539H12.8967C12.8878 19.9532 12.8459 19.9021 12.8459 19.9021C12.8289 19.8937 12.7945 19.9021 12.7776 19.9021C12.7515 19.8928 12.6584 19.8087 12.6331 19.7917H12.5823C12.5653 19.7916 12.5566 19.741 12.5481 19.741C12.5057 19.7156 12.4802 19.7238 12.4377 19.7068C12.4373 19.7015 12.4307 19.6148 12.4719 19.656C12.489 19.6475 12.4924 19.6426 12.4905 19.6394L12.5774 19.6765Z" fill="#F9A13A"/>
</svg>
