<svg viewBox="0 0 32 32" fill="none" xmlns="http://www.w3.org/2000/svg">
<path d="M0.790084 15.4279L0.00244141 16.2155L0.790084 17.0032L1.57773 16.2155L0.790084 15.4279Z" fill="#DD352A"/>
<path d="M0.787886 18.4845L0.000244141 19.2722L0.787887 20.0598L1.57553 19.2722L0.787886 18.4845Z" fill="#DD352A"/>
<path d="M6.87675 24.6126L6.08911 25.4003L6.87675 26.1879L7.6644 25.4003L6.87675 24.6126Z" fill="#E75F50"/>
<path d="M9.96464 24.6104L9.177 25.398L9.96464 26.1857L10.7523 25.398L9.96464 24.6104Z" fill="#EC7562"/>
<path d="M13.0257 24.6124L12.238 25.4001L13.0257 26.1877L13.8133 25.4001L13.0257 24.6124Z" fill="#F08A75"/>
<path d="M6.88139 6.2809L6.09375 7.06854L6.88139 7.85618L7.66903 7.06854L6.88139 6.2809Z" fill="#E75F50"/>
<path d="M9.96586 6.28188L9.17822 7.06952L9.96586 7.85716L10.7535 7.06952L9.96586 6.28188Z" fill="#EC7562"/>
<path d="M13.0271 6.28395L12.2395 7.07159L13.0271 7.85924L13.8148 7.07159L13.0271 6.28395Z" fill="#F08A75"/>
<path d="M0.787642 12.3712L0 13.1589L0.787642 13.9465L1.57528 13.1589L0.787642 12.3712Z" fill="#DD352A"/>
<path d="M3.82641 15.1484L2.75928 16.2155L3.82641 17.2826L4.89353 16.2155L3.82641 15.1484Z" fill="#E24A3D"/>
<path d="M3.82421 18.205L2.75708 19.2722L3.82421 20.3393L4.89134 19.2722L3.82421 18.205Z" fill="#E24A3D"/>
<path d="M3.82396 12.0872L2.75684 13.1544L3.82396 14.2215L4.89109 13.1544L3.82396 12.0872Z" fill="#E24A3D"/>
<path d="M6.87677 14.6841L5.34912 16.2118L6.87677 17.7394L8.40441 16.2118L6.87677 14.6841Z" fill="#E75F50"/>
<path d="M6.87457 17.7452L5.34692 19.2729L6.87457 20.8005L8.40221 19.2729L6.87457 17.7452Z" fill="#E75F50"/>
<path d="M6.8775 11.6307L5.34985 13.1583L6.8775 14.686L8.40514 13.1583L6.8775 11.6307Z" fill="#E75F50"/>
<path d="M9.96124 14.6851L8.43359 16.2128L9.96124 17.7404L11.4889 16.2128L9.96124 14.6851Z" fill="#EC7562"/>
<path d="M9.96392 17.7418L8.43628 19.2694L9.96392 20.7971L11.4916 19.2694L9.96392 17.7418Z" fill="#EC7562"/>
<path d="M9.96197 11.6316L8.43433 13.1592L9.96197 14.6869L11.4896 13.1592L9.96197 11.6316Z" fill="#EC7562"/>
<path d="M13.0257 14.684L11.498 16.2117L13.0257 17.7393L14.5533 16.2117L13.0257 14.684Z" fill="#F08A75"/>
<path d="M13.0235 17.7451L11.4958 19.2728L13.0235 20.8004L14.5511 19.2728L13.0235 17.7451Z" fill="#F08A75"/>
<path d="M13.0264 11.6305L11.4988 13.1581L13.0264 14.6858L14.5541 13.1581L13.0264 11.6305Z" fill="#F08A75"/>
<path d="M16.2461 15.1477L15.179 16.2148L16.2461 17.282L17.3132 16.2148L16.2461 15.1477Z" fill="#F59F88"/>
<path d="M16.2468 12.0942L15.1797 13.1614L16.2468 14.2285L17.3139 13.1614L16.2468 12.0942Z" fill="#F59F88"/>
<path d="M16.2439 18.2044L15.1768 19.2715L16.2439 20.3386L17.311 19.2715L16.2439 18.2044Z" fill="#F59F88"/>
<path d="M16.2463 9.04396L15.1792 10.1111L16.2463 11.1782L17.3135 10.1111L16.2463 9.04396Z" fill="#F59F88"/>
<path d="M16.2475 5.99995L15.1804 7.06708L16.2475 8.13421L17.3147 7.06708L16.2475 5.99995Z" fill="#F59F88"/>
<path d="M16.2483 21.2719L15.1812 22.339L16.2483 23.4061L17.3154 22.339L16.2483 21.2719Z" fill="#F59F88"/>
<path d="M13.0278 21.2718L11.9607 22.3389L13.0278 23.4061L14.095 22.3389L13.0278 21.2718Z" fill="#F08A75"/>
<path d="M9.96679 21.2698L8.89966 22.3369L9.96679 23.404L11.0339 22.3369L9.96679 21.2698Z" fill="#EC7562"/>
<path d="M6.88207 21.2733L5.81494 22.3404L6.88207 23.4075L7.9492 22.3404L6.88207 21.2733Z" fill="#E75F50"/>
<path d="M13.0259 9.04389L11.9587 10.111L13.0259 11.1782L14.093 10.111L13.0259 9.04389Z" fill="#F08A75"/>
<path d="M9.96483 9.04182L8.89771 10.1089L9.96483 11.1761L11.032 10.1089L9.96483 9.04182Z" fill="#EC7562"/>
<path d="M6.87987 9.0409L5.81274 10.108L6.87987 11.1752L7.947 10.108L6.87987 9.0409Z" fill="#E75F50"/>
<path d="M16.2461 24.333L15.179 25.4001L16.2461 26.4673L17.3132 25.4001L16.2461 24.333Z" fill="#F59F88"/>
<path d="M19.2293 15.4262L18.4417 16.2138L19.2293 17.0014L20.0169 16.2138L19.2293 15.4262Z" fill="#FAB49B"/>
<path d="M19.2315 12.3651L18.4438 13.1527L19.2315 13.9404L20.0191 13.1527L19.2315 12.3651Z" fill="#FAB49B"/>
<path d="M19.232 18.4828L18.4443 19.2704L19.232 20.0581L20.0196 19.2704L19.232 18.4828Z" fill="#FAB49B"/>
<path d="M19.2284 21.3629L18.2566 22.3348L19.2284 23.3066L20.2003 22.3348L19.2284 21.3629Z" fill="#FAB49B"/>
<path d="M19.2297 24.4273L18.2578 25.3991L19.2297 26.371L20.2015 25.3991L19.2297 24.4273Z" fill="#FAB49B"/>
<path d="M19.2341 9.1382L18.2622 10.11L19.2341 11.0819L20.2059 10.11L19.2341 9.1382Z" fill="#FAB49B"/>
<path d="M19.2277 6.09553L18.2559 7.06738L19.2277 8.03923L20.1996 7.06738L19.2277 6.09553Z" fill="#FAB49B"/>
<path d="M22.1969 15.2434L21.2251 16.2152L22.1969 17.1871L23.1688 16.2152L22.1969 15.2434Z" fill="#FABCA7"/>
<path d="M22.1945 12.1867L21.2227 13.1586L22.1945 14.1304L23.1664 13.1586L22.1945 12.1867Z" fill="#FABCA7"/>
<path d="M22.195 18.3L21.2231 19.2719L22.195 20.2437L23.1668 19.2719L22.195 18.3Z" fill="#FABCA7"/>
<path d="M22.196 21.3643L21.2241 22.3362L22.196 23.308L23.1678 22.3362L22.196 21.3643Z" fill="#FABCA7"/>
<path d="M22.1972 24.4287L21.2253 25.4005L22.1972 26.3724L23.169 25.4005L22.1972 24.4287Z" fill="#FABCA7"/>
<path d="M22.1972 9.1396L21.2253 10.1115L22.1972 11.0833L23.169 10.1115L22.1972 9.1396Z" fill="#FABCA7"/>
<path d="M22.1952 6.09694L21.2234 7.06879L22.1952 8.04064L23.1671 7.06879L22.1952 6.09694Z" fill="#FABCA7"/>
<path d="M25.1567 15.2434L24.1848 16.2153L25.1567 17.1871L26.1285 16.2153L25.1567 15.2434Z" fill="#FAC5B3"/>
<path d="M25.1542 12.1868L24.1824 13.1586L25.1542 14.1305L26.1261 13.1586L25.1542 12.1868Z" fill="#FAC5B3"/>
<path d="M25.1547 18.3046L24.1829 19.2764L25.1547 20.2483L26.1266 19.2764L25.1547 18.3046Z" fill="#FAC5B3"/>
<path d="M25.1559 21.3644L24.1841 22.3362L25.1559 23.3081L26.1278 22.3362L25.1559 21.3644Z" fill="#FAC5B3"/>
<path d="M25.1569 24.4287L24.1851 25.4006L25.1569 26.3724L26.1288 25.4006L25.1569 24.4287Z" fill="#FAC5B3"/>
<path d="M25.1569 9.13966L24.1851 10.1115L25.1569 11.0834L26.1288 10.1115L25.1569 9.13966Z" fill="#FAC5B3"/>
<path d="M25.155 6.09706L24.1831 7.06891L25.155 8.04076L26.1268 7.06891L25.155 6.09706Z" fill="#FAC5B3"/>
<path d="M28.1166 15.2435L27.1448 16.2153L28.1166 17.1872L29.0885 16.2153L28.1166 15.2435Z" fill="#F9CDBE"/>
<path d="M28.1142 12.1868L27.1423 13.1587L28.1142 14.1305L29.086 13.1587L28.1142 12.1868Z" fill="#F9CDBE"/>
<path d="M28.1147 18.3046L27.1428 19.2765L28.1147 20.2483L29.0865 19.2765L28.1147 18.3046Z" fill="#F9CDBE"/>
<path d="M28.1156 21.369L27.1438 22.3408L28.1156 23.3127L29.0875 22.3408L28.1156 21.369Z" fill="#F9CDBE"/>
<path d="M28.1169 24.4288L27.145 25.4006L28.1169 26.3725L29.0887 25.4006L28.1169 24.4288Z" fill="#F9CDBE"/>
<path d="M28.1169 9.13972L27.145 10.1116L28.1169 11.0834L29.0887 10.1116L28.1169 9.13972Z" fill="#F9CDBE"/>
<path d="M28.1149 6.09712L27.1431 7.06897L28.1149 8.04082L29.0868 7.06897L28.1149 6.09712Z" fill="#F9CDBE"/>
<path d="M31.0236 15.2426L30.0518 16.2144L31.0236 17.1863L31.9955 16.2144L31.0236 15.2426Z" fill="#F9D5CA"/>
<path d="M30.9943 12.1857L30.0225 13.1576L30.9943 14.1294L31.9662 13.1576L30.9943 12.1857Z" fill="#F9D5CA"/>
<path d="M31.0087 18.3029L30.0369 19.2748L31.0087 20.2466L31.9806 19.2748L31.0087 18.3029Z" fill="#F9D5CA"/>
<path d="M30.9914 21.3634L30.0195 22.3352L30.9914 23.3071L31.9632 22.3352L30.9914 21.3634Z" fill="#F9D5CA"/>
<path d="M31.028 24.4279L30.0562 25.3997L31.028 26.3716L31.9998 25.3997L31.028 24.4279Z" fill="#F9D5CA"/>
<path d="M31.0109 9.13808L30.0391 10.1099L31.0109 11.0818L31.9828 10.1099L31.0109 9.13808Z" fill="#F9D5CA"/>
<path d="M31.0263 6.09621L30.0544 7.06805L31.0263 8.0399L31.9981 7.06805L31.0263 6.09621Z" fill="#F9D5CA"/>
</svg>
