<svg width="32" height="32" viewBox="0 0 32 32" fill="none" xmlns="http://www.w3.org/2000/svg">
<path d="M0.0124512 26.8365L7.21438 19.6281L8.4147 18.4342L11.2431 21.2626L2.80341 29.6319L0.0124512 26.8365Z" fill="#231F20"/>
<path d="M20.1118 21.2052L17.277 18.3768L11.6201 24.0655L10.4262 22.8716L7.61694 25.6872L11.6201 29.6968L20.1118 21.2052Z" fill="#231F20"/>
<path d="M15.6169 10.498L14.3527 9.24024L15.9553 7.6313L17.5642 9.24024L12.0031 14.846L14.8188 17.6617L23.1955 9.24024L15.9553 2L8.72778 9.24024L12.8012 13.3137L15.6169 10.498Z" fill="#231F20"/>
<path d="M32 18.0448L24.7661 10.8109L20.8523 14.7183L23.668 17.534L24.7661 16.4422L26.3687 18.0448L20.4245 24.0655L19.1987 22.8397L16.3894 25.6553L20.4245 29.6968L32 18.0448Z" fill="#231F20"/>
<path d="M21.5866 22.099L24.4022 19.2834L24.4469 19.2451L23.2657 18.0575L19.2434 14.016L16.4277 16.8316L21.5866 22.099Z" fill="#231F20"/>
<path d="M6.83162 19.2387L5.6313 18.0448L7.23386 16.4422L12.8332 22.0671L15.6489 19.2515L7.23386 10.8109L0 18.0448L4.01597 22.0544L6.83162 19.2387Z" fill="#231F20"/>
<path d="M28.0031 22.8652L31.9872 26.8492L29.1386 29.6319L25.1875 25.6808L27.9904 22.8716L28.0031 22.8652Z" fill="#231F20"/>
</svg>
