<svg width="204" height="204" viewBox="0 0 204 204" fill="none" xmlns="http://www.w3.org/2000/svg">
<rect x="0.5" y="0.5" width="203" height="203" fill="#D9D9D9"/>
<rect x="0.5" y="0.5" width="203" height="203" stroke="#929292"/>
<rect x="59.5" y="74.5" width="85" height="23" rx="6.5" fill="#D9D9D9" stroke="black" stroke-width="7"/>
<rect x="59.5" y="110.5" width="85" height="23" rx="6.5" fill="#D9D9D9" stroke="black" stroke-width="7"/>
<path d="M137.531 84.5306L132.531 89.5306C132.461 89.6005 132.378 89.656 132.287 89.6939C132.196 89.7317 132.098 89.7512 131.999 89.7512C131.901 89.7512 131.803 89.7317 131.712 89.6939C131.621 89.656 131.538 89.6005 131.468 89.5306L126.468 84.5306C126.327 84.3897 126.248 84.1986 126.248 83.9994C126.248 83.8001 126.327 83.609 126.468 83.4681C126.609 83.3272 126.8 83.2481 126.999 83.2481C127.199 83.2481 127.39 83.3272 127.531 83.4681L132 87.9375L136.469 83.4675C136.61 83.3266 136.801 83.2474 137.001 83.2474C137.2 83.2474 137.391 83.3266 137.532 83.4675C137.673 83.6084 137.752 83.7995 137.752 83.9987C137.752 84.198 137.673 84.3891 137.532 84.53L137.531 84.5306Z" fill="black"/>
<path d="M137.531 120.531L132.531 125.531C132.461 125.601 132.378 125.656 132.287 125.694C132.196 125.732 132.098 125.751 131.999 125.751C131.901 125.751 131.803 125.732 131.712 125.694C131.621 125.656 131.538 125.601 131.468 125.531L126.468 120.531C126.327 120.39 126.248 120.199 126.248 119.999C126.248 119.8 126.327 119.609 126.468 119.468C126.609 119.327 126.8 119.248 126.999 119.248C127.199 119.248 127.39 119.327 127.531 119.468L132 123.937L136.469 119.467C136.61 119.327 136.801 119.247 137.001 119.247C137.2 119.247 137.391 119.327 137.532 119.467C137.673 119.608 137.752 119.799 137.752 119.999C137.752 120.198 137.673 120.389 137.532 120.53L137.531 120.531Z" fill="black"/>
</svg>
