<svg width="204" height="204" viewBox="0 0 204 204" fill="none" xmlns="http://www.w3.org/2000/svg">
<rect x="0.5" y="0.5" width="203" height="203" fill="#D9D9D9"/>
<rect x="0.5" y="0.5" width="203" height="203" stroke="#929292"/>
<path d="M137.321 70H113.214C111.135 70 109.084 70.4819 107.225 71.4076C105.365 72.3333 103.748 73.6774 102.5 75.3333C101.252 73.6774 99.6349 72.3333 97.7752 71.4076C95.9155 70.4819 93.8649 70 91.7857 70H67.6786C66.9682 70 66.2869 70.281 65.7845 70.781C65.2822 71.2811 65 71.9594 65 72.6667V120.667C65 121.374 65.2822 122.052 65.7845 122.552C66.2869 123.052 66.9682 123.333 67.6786 123.333H91.7857C93.9169 123.333 95.9608 124.176 97.4678 125.676C98.9748 127.177 99.8214 129.212 99.8214 131.333C99.8214 132.041 100.104 132.719 100.606 133.219C101.108 133.719 101.79 134 102.5 134C103.21 134 103.892 133.719 104.394 133.219C104.896 132.719 105.179 132.041 105.179 131.333C105.179 129.212 106.025 127.177 107.532 125.676C109.039 124.176 111.083 123.333 113.214 123.333H137.321C138.032 123.333 138.713 123.052 139.215 122.552C139.718 122.052 140 121.374 140 120.667V72.6667C140 71.9594 139.718 71.2811 139.215 70.781C138.713 70.281 138.032 70 137.321 70ZM91.7857 118H70.3571V75.3333H91.7857C93.9169 75.3333 95.9608 76.1762 97.4678 77.6765C98.9748 79.1768 99.8214 81.2116 99.8214 83.3333V120.667C97.5053 118.932 94.6843 117.995 91.7857 118ZM134.643 118H113.214C110.316 117.995 107.495 118.932 105.179 120.667V83.3333C105.179 81.2116 106.025 79.1768 107.532 77.6765C109.039 76.1762 111.083 75.3333 113.214 75.3333H134.643V118ZM113.214 83.3333H126.607C127.318 83.3333 127.999 83.6143 128.501 84.1144C129.004 84.6145 129.286 85.2928 129.286 86C129.286 86.7072 129.004 87.3855 128.501 87.8856C127.999 88.3857 127.318 88.6667 126.607 88.6667H113.214C112.504 88.6667 111.823 88.3857 111.32 87.8856C110.818 87.3855 110.536 86.7072 110.536 86C110.536 85.2928 110.818 84.6145 111.32 84.1144C111.823 83.6143 112.504 83.3333 113.214 83.3333ZM129.286 96.6667C129.286 97.3739 129.004 98.0522 128.501 98.5523C127.999 99.0524 127.318 99.3333 126.607 99.3333H113.214C112.504 99.3333 111.823 99.0524 111.32 98.5523C110.818 98.0522 110.536 97.3739 110.536 96.6667C110.536 95.9594 110.818 95.2811 111.32 94.781C111.823 94.281 112.504 94 113.214 94H126.607C127.318 94 127.999 94.281 128.501 94.781C129.004 95.2811 129.286 95.9594 129.286 96.6667ZM129.286 107.333C129.286 108.041 129.004 108.719 128.501 109.219C127.999 109.719 127.318 110 126.607 110H113.214C112.504 110 111.823 109.719 111.32 109.219C110.818 108.719 110.536 108.041 110.536 107.333C110.536 106.626 110.818 105.948 111.32 105.448C111.823 104.948 112.504 104.667 113.214 104.667H126.607C127.318 104.667 127.999 104.948 128.501 105.448C129.004 105.948 129.286 106.626 129.286 107.333Z" fill="black"/>
</svg>
