<svg width="204" height="204" viewBox="0 0 204 204" fill="none" xmlns="http://www.w3.org/2000/svg">
<rect x="0.5" y="0.5" width="203" height="203" fill="#D9D9D9"/>
<rect x="0.5" y="0.5" width="203" height="203" stroke="#929292"/>
<path d="M138 94.32C138 95.3384 137.595 96.3152 136.875 97.0353C136.155 97.7554 135.178 98.16 134.16 98.16C133.142 98.16 132.165 97.7554 131.445 97.0353C130.725 96.3152 130.32 95.3384 130.32 94.32V83.12L111.277 102.163C110.555 102.885 109.577 103.29 108.557 103.29C107.537 103.29 106.558 102.885 105.837 102.163C105.115 101.442 104.71 100.463 104.71 99.4432C104.71 98.423 105.115 97.4446 105.837 96.7232L124.88 77.68H113.68C112.662 77.68 111.685 77.2754 110.965 76.5553C110.245 75.8352 109.84 74.8584 109.84 73.84C109.84 72.8216 110.245 71.8448 110.965 71.1247C111.685 70.4046 112.662 70 113.68 70H134.16C135.178 70 136.155 70.4046 136.875 71.1247C137.595 71.8448 138 72.8216 138 73.84V94.32ZM123.92 102C122.902 102 121.925 102.405 121.205 103.125C120.485 103.845 120.08 104.822 120.08 105.84V126.32H81.68V87.92H102.16C103.178 87.92 104.155 87.5154 104.875 86.7953C105.595 86.0752 106 85.0984 106 84.08C106 83.0616 105.595 82.0848 104.875 81.3647C104.155 80.6446 103.178 80.24 102.16 80.24H80.4C78.7026 80.24 77.0747 80.9143 75.8745 82.1145C74.6743 83.3147 74 84.9426 74 86.64V127.6C74 129.297 74.6743 130.925 75.8745 132.125C77.0747 133.326 78.7026 134 80.4 134H121.36C123.057 134 124.685 133.326 125.885 132.125C127.086 130.925 127.76 129.297 127.76 127.6V105.84C127.76 104.822 127.355 103.845 126.635 103.125C125.915 102.405 124.938 102 123.92 102Z" fill="black"/>
</svg>
