<svg width="204" height="204" viewBox="0 0 204 204" fill="none" xmlns="http://www.w3.org/2000/svg">
<rect x="0.5" y="0.5" width="203" height="203" fill="#D9D9D9"/>
<rect x="0.5" y="0.5" width="203" height="203" stroke="#929292"/>
<path d="M131.942 70H88.3269C86.7203 70 85.1795 70.6243 84.0435 71.7357C82.9074 72.847 82.2692 74.3543 82.2692 75.9259V81.8519H78.6346C77.6707 81.8519 76.7462 82.2265 76.0646 82.8932C75.3829 83.56 75 84.4644 75 85.4074C75 86.3504 75.3829 87.2548 76.0646 87.9216C76.7462 88.5884 77.6707 88.963 78.6346 88.963H82.2692V98.4444H78.6346C77.6707 98.4444 76.7462 98.819 76.0646 99.4858C75.3829 100.153 75 101.057 75 102C75 102.943 75.3829 103.847 76.0646 104.514C76.7462 105.181 77.6707 105.556 78.6346 105.556H82.2692V115.037H78.6346C77.6707 115.037 76.7462 115.412 76.0646 116.078C75.3829 116.745 75 117.65 75 118.593C75 119.536 75.3829 120.44 76.0646 121.107C76.7462 121.774 77.6707 122.148 78.6346 122.148H82.2692V128.074C82.2692 129.646 82.9074 131.153 84.0435 132.264C85.1795 133.376 86.7203 134 88.3269 134H131.942C133.549 134 135.09 133.376 136.226 132.264C137.362 131.153 138 129.646 138 128.074V75.9259C138 74.3543 137.362 72.847 136.226 71.7357C135.09 70.6243 133.549 70 131.942 70ZM130.731 126.889H89.5385V77.1111H130.731V126.889ZM99.4731 114.85C100.834 113.414 102.483 112.269 104.318 111.485C106.153 110.702 108.133 110.297 110.135 110.297C112.136 110.297 114.117 110.702 115.951 111.485C117.786 112.269 119.435 113.414 120.796 114.85C121.452 115.542 122.361 115.95 123.324 115.986C124.288 116.021 125.226 115.681 125.933 115.04C126.64 114.399 127.058 113.509 127.094 112.567C127.13 111.624 126.782 110.706 126.127 110.015C124.452 108.254 122.485 106.784 120.309 105.665C121.95 103.767 123.002 101.449 123.341 98.9857C123.68 96.522 123.292 94.0147 122.222 91.7596C121.153 89.5044 119.447 87.5954 117.305 86.2576C115.163 84.9199 112.674 84.2091 110.133 84.2091C107.592 84.2091 105.104 84.9199 102.962 86.2576C100.82 87.5954 99.1133 89.5044 98.0438 91.7596C96.9743 94.0147 96.5863 96.522 96.9254 98.9857C97.2645 101.449 98.3166 103.767 99.9577 105.665C97.7829 106.785 95.8169 108.255 94.1423 110.015C93.4868 110.706 93.139 111.624 93.1753 112.567C93.2117 113.509 93.6292 114.399 94.3362 115.04C95.0431 115.681 95.9814 116.021 96.9448 115.986C97.9081 115.95 98.8176 115.542 99.4731 114.85ZM104.077 97.2593C104.077 96.0872 104.432 94.9415 105.098 93.967C105.763 92.9925 106.71 92.2329 107.816 91.7844C108.923 91.3359 110.141 91.2185 111.316 91.4472C112.491 91.6759 113.571 92.2402 114.418 93.069C115.265 93.8978 115.842 94.9537 116.076 96.1032C116.31 97.2527 116.19 98.4442 115.731 99.527C115.273 100.61 114.496 101.535 113.5 102.186C112.504 102.838 111.333 103.185 110.135 103.185C108.528 103.185 106.987 102.561 105.851 101.45C104.715 100.338 104.077 98.8309 104.077 97.2593Z" fill="black"/>
</svg>
