<svg width="204" height="204" viewBox="0 0 204 204" fill="none" xmlns="http://www.w3.org/2000/svg">
<rect x="0.5" y="0.5" width="203" height="203" fill="#D9D9D9"/>
<rect x="0.5" y="0.5" width="203" height="203" stroke="#929292"/>
<path d="M138 109.68V130.16C138 131.178 137.602 132.155 136.893 132.875C136.184 133.595 135.223 134 134.22 134H78.78C77.7775 134 76.816 133.595 76.1071 132.875C75.3982 132.155 75 131.178 75 130.16V109.68C75 108.662 75.3982 107.685 76.1071 106.965C76.816 106.245 77.7775 105.84 78.78 105.84C79.7825 105.84 80.744 106.245 81.4529 106.965C82.1618 107.685 82.56 108.662 82.56 109.68V126.32H130.44V109.68C130.44 108.662 130.838 107.685 131.547 106.965C132.256 106.245 133.217 105.84 134.22 105.84C135.223 105.84 136.184 106.245 136.893 106.965C137.602 107.685 138 108.662 138 109.68ZM103.826 112.397C104.177 112.755 104.594 113.039 105.054 113.233C105.513 113.426 106.006 113.526 106.503 113.526C107.001 113.526 107.493 113.426 107.953 113.233C108.412 113.039 108.829 112.755 109.181 112.397L121.781 99.5968C122.491 98.8754 122.89 97.897 122.89 96.8768C122.89 95.8566 122.491 94.8782 121.781 94.1568C121.071 93.4354 120.107 93.0301 119.103 93.0301C118.099 93.0301 117.136 93.4354 116.426 94.1568L110.28 100.4V73.84C110.28 72.8216 109.882 71.8448 109.173 71.1247C108.464 70.4046 107.503 70 106.5 70C105.497 70 104.536 70.4046 103.827 71.1247C103.118 71.8448 102.72 72.8216 102.72 73.84V100.4L96.5743 94.1632C96.2227 93.806 95.8053 93.5227 95.3459 93.3293C94.8865 93.136 94.3941 93.0365 93.8968 93.0365C92.8926 93.0365 91.9295 93.4418 91.2193 94.1632C90.8677 94.5204 90.5888 94.9444 90.3985 95.4111C90.2082 95.8778 90.1103 96.378 90.1103 96.8832C90.1103 97.9034 90.5092 98.8818 91.2193 99.6032L103.826 112.397Z" fill="black"/>
</svg>
