<svg width="204" height="204" viewBox="0 0 204 204" fill="none" xmlns="http://www.w3.org/2000/svg">
<rect x="0.5" y="0.5" width="203" height="203" fill="#D9D9D9"/>
<rect x="0.5" y="0.5" width="203" height="203" stroke="#929292"/>
<path d="M95.4516 70C94.348 70 93.2895 70.4397 92.5091 71.2225C91.7287 72.0053 91.2903 73.0669 91.2903 74.1739V78.3478H64.9355C64.0247 78.3478 63.1228 78.5278 62.2814 78.8774C61.4399 79.227 60.6754 79.7394 60.0314 80.3853C58.7307 81.6899 58 83.4594 58 85.3043V118.696C58 120.541 58.7307 122.31 60.0314 123.615C60.6754 124.261 61.4399 124.773 62.2814 125.123C63.1228 125.472 64.0247 125.652 64.9355 125.652H91.2903V129.826C91.2903 130.933 91.7287 131.995 92.5091 132.777C93.2895 133.56 94.348 134 95.4516 134C96.5553 134 97.6137 133.56 98.3941 132.777C99.1745 131.995 99.6129 130.933 99.6129 129.826V74.1739C99.6129 73.0669 99.1745 72.0053 98.3941 71.2225C97.6137 70.4397 96.5553 70 95.4516 70ZM66.3226 117.304V86.6957H91.2903V117.304H66.3226ZM144 85.3043V118.696C144 120.541 143.269 122.31 141.969 123.615C140.668 124.919 138.904 125.652 137.065 125.652H109.323C108.219 125.652 107.16 125.212 106.38 124.43C105.6 123.647 105.161 122.585 105.161 121.478C105.161 120.371 105.6 119.31 106.38 118.527C107.16 117.744 108.219 117.304 109.323 117.304H135.677V86.6957H109.323C108.219 86.6957 107.16 86.2559 106.38 85.4731C105.6 84.6904 105.161 83.6287 105.161 82.5217C105.161 81.4147 105.6 80.3531 106.38 79.5703C107.16 78.7876 108.219 78.3478 109.323 78.3478H137.065C138.904 78.3478 140.668 79.0807 141.969 80.3853C143.269 81.6899 144 83.4594 144 85.3043ZM87.129 96.4348C87.129 97.5418 86.6906 98.6034 85.9102 99.3862C85.1298 100.169 84.0714 100.609 82.9677 100.609V107.565C82.9677 108.672 82.5293 109.734 81.7489 110.517C80.9685 111.299 79.9101 111.739 78.8065 111.739C77.7028 111.739 76.6444 111.299 75.864 110.517C75.0836 109.734 74.6452 108.672 74.6452 107.565V100.609C73.5415 100.609 72.4831 100.169 71.7027 99.3862C70.9223 98.6034 70.4839 97.5418 70.4839 96.4348C70.4839 95.3278 70.9223 94.2661 71.7027 93.4834C72.4831 92.7006 73.5415 92.2609 74.6452 92.2609H82.9677C84.0714 92.2609 85.1298 92.7006 85.9102 93.4834C86.6906 94.2661 87.129 95.3278 87.129 96.4348Z" fill="black"/>
</svg>
