<svg width="204" height="204" viewBox="0 0 204 204" fill="none" xmlns="http://www.w3.org/2000/svg">
<rect x="0.5" y="0.5" width="203" height="203" fill="#D9D9D9"/>
<rect x="0.5" y="0.5" width="203" height="203" stroke="#929292"/>
<path d="M136.183 96.4164L111.383 71.8017C110.221 70.6481 108.644 70 107 70C105.356 70 103.779 70.6481 102.617 71.8017L77.8166 96.4164C77.2386 96.9866 76.7803 97.6651 76.4685 98.4125C76.1566 99.1599 75.9974 99.9612 76 100.77V130.308C76 131.287 76.392 132.226 77.0896 132.919C77.7872 133.611 78.7334 134 79.72 134H99.56C100.547 134 101.493 133.611 102.19 132.919C102.888 132.226 103.28 131.287 103.28 130.308V114.308H110.72V130.308C110.72 131.287 111.112 132.226 111.81 132.919C112.507 133.611 113.453 134 114.44 134H134.28C135.267 134 136.213 133.611 136.91 132.919C137.608 132.226 138 131.287 138 130.308V100.77C138.003 99.9612 137.843 99.1599 137.532 98.4125C137.22 97.6651 136.761 96.9866 136.183 96.4164ZM130.56 126.616H118.16V110.616C118.16 109.637 117.768 108.698 117.07 108.005C116.373 107.313 115.427 106.924 114.44 106.924H99.56C98.5734 106.924 97.6272 107.313 96.9296 108.005C96.2319 108.698 95.84 109.637 95.84 110.616V126.616H83.44V101.278L107 77.8939L130.56 101.278V126.616Z" fill="black"/>
</svg>
