<svg width="204" height="204" viewBox="0 0 204 204" fill="none" xmlns="http://www.w3.org/2000/svg">
<rect x="0.5" y="0.5" width="203" height="203" fill="#D9D9D9"/>
<rect x="0.5" y="0.5" width="203" height="203" stroke="#929292"/>
<path d="M109.056 90.8696C109.056 89.7689 109.381 88.6929 109.992 87.7777C110.602 86.8625 111.47 86.1492 112.485 85.728C113.5 85.3068 114.617 85.1965 115.695 85.4113C116.773 85.626 117.763 86.1561 118.539 86.9344C119.316 87.7127 119.846 88.7043 120.06 89.7838C120.274 90.8634 120.164 91.9824 119.744 92.9993C119.323 94.0162 118.611 94.8854 117.698 95.4969C116.784 96.1084 115.71 96.4348 114.611 96.4348C113.138 96.4348 111.725 95.8484 110.683 94.8048C109.641 93.7611 109.056 92.3456 109.056 90.8696ZM141 76.9565V127.043C141 128.888 140.268 130.658 138.966 131.962C137.664 133.267 135.897 134 134.056 134H72.9444C71.1027 134 69.3363 133.267 68.034 131.962C66.7316 130.658 66 128.888 66 127.043V76.9565C66 75.1115 66.7316 73.3421 68.034 72.0375C69.3363 70.7329 71.1027 70 72.9444 70H134.056C135.897 70 137.664 70.7329 138.966 72.0375C140.268 73.3421 141 75.1115 141 76.9565ZM74.3333 78.3478V106.077L86.0903 94.2991C87.3926 92.995 89.1586 92.2624 91 92.2624C92.8414 92.2624 94.6074 92.995 95.9097 94.2991L110.205 108.609L116.17 102.637C117.472 101.332 119.238 100.6 121.08 100.6C122.921 100.6 124.687 101.332 125.99 102.637L132.667 109.336V78.3478H74.3333ZM74.3333 125.652H115.424L91 101.186L74.3333 117.882V125.652ZM132.667 125.652V121.13L121.08 109.523L116.097 114.522L127.208 125.652H132.667Z" fill="black"/>
</svg>
