<svg width="204" height="204" viewBox="0 0 204 204" fill="none" xmlns="http://www.w3.org/2000/svg">
<rect x="0.5" y="0.5" width="203" height="203" fill="#D9D9D9"/>
<rect x="0.5" y="0.5" width="203" height="203" stroke="#929292"/>
<path d="M114.611 88.087C114.611 86.9863 114.937 85.9103 115.547 84.9951C116.158 84.0799 117.025 83.3666 118.041 82.9454C119.056 82.5241 120.173 82.4139 121.25 82.6287C122.328 82.8434 123.318 83.3734 124.095 84.1518C124.872 84.9301 125.401 85.9217 125.615 87.0012C125.83 88.0808 125.72 89.1998 125.299 90.2167C124.879 91.2336 124.167 92.1028 123.253 92.7143C122.34 93.3258 121.265 93.6522 120.167 93.6522C118.693 93.6522 117.28 93.0658 116.238 92.0222C115.196 90.9785 114.611 89.5629 114.611 88.087ZM141 76.9565V113.13C141 114.975 140.268 116.745 138.966 118.049C137.664 119.354 135.897 120.087 134.056 120.087H129.889V127.043C129.889 128.888 129.157 130.658 127.855 131.962C126.553 133.267 124.786 134 122.944 134H72.9444C71.1027 134 69.3363 133.267 68.034 131.962C66.7316 130.658 66 128.888 66 127.043V88.087C66 86.242 66.7316 84.4726 68.034 83.168C69.3363 81.8634 71.1027 81.1304 72.9444 81.1304H79.8889V76.9565C79.8889 75.1115 80.6205 73.3421 81.9229 72.0375C83.2252 70.7329 84.9916 70 86.8333 70H134.056C135.897 70 137.664 70.7329 138.966 72.0375C140.268 73.3421 141 75.1115 141 76.9565ZM121.556 120.087H86.8333C84.9916 120.087 83.2252 119.354 81.9229 118.049C80.6205 116.745 79.8889 114.975 79.8889 113.13V89.4783H74.3333V125.652H121.556V120.087ZM114.035 111.739L102.111 99.7948L90.1875 111.739H114.035ZM132.667 78.3478H88.2222V101.903L97.2014 92.9078C98.5037 91.6037 100.27 90.8711 102.111 90.8711C103.953 90.8711 105.719 91.6037 107.021 92.9078L125.819 111.739H132.667V78.3478Z" fill="black"/>
</svg>
