<svg width="204" height="204" viewBox="0 0 204 204" fill="none" xmlns="http://www.w3.org/2000/svg">
<rect x="0.5" y="0.5" width="203" height="203" fill="#D9D9D9"/>
<rect x="0.5" y="0.5" width="203" height="203" stroke="#929292"/>
<path d="M99.555 121.437C99.9118 121.794 100.195 122.217 100.388 122.684C100.581 123.151 100.681 123.651 100.681 124.157C100.681 124.662 100.581 125.163 100.388 125.629C100.195 126.096 99.9118 126.52 99.555 126.877L97.9222 128.515C96.1889 130.261 94.128 131.644 91.8585 132.586C89.589 133.527 87.1561 134.008 84.7003 134C81.0021 134.001 77.3865 132.902 74.3112 130.84C71.2358 128.779 68.8388 125.849 67.4234 122.421C66.0079 118.993 65.6377 115.22 66.3595 111.58C67.0814 107.941 68.8628 104.598 71.4784 101.975L82.5605 90.8547C84.9176 88.4898 87.8619 86.8001 91.0884 85.9605C94.3149 85.1209 97.7065 85.1618 100.912 86.0792C104.117 86.9965 107.02 88.7569 109.32 91.178C111.62 93.5991 113.233 96.5931 113.992 99.8498C114.118 100.345 114.144 100.86 114.068 101.366C113.993 101.871 113.818 102.356 113.553 102.793C113.289 103.23 112.94 103.609 112.528 103.908C112.115 104.208 111.647 104.422 111.151 104.538C110.655 104.654 110.141 104.669 109.639 104.583C109.137 104.497 108.657 104.311 108.228 104.037C107.798 103.762 107.428 103.405 107.138 102.985C106.848 102.564 106.644 102.091 106.539 101.591C106.089 99.6681 105.134 97.9013 103.775 96.4728C102.416 95.0443 100.702 94.0059 98.8089 93.465C96.916 92.9241 94.9135 92.9003 93.0084 93.3961C91.1032 93.8918 89.3646 94.8892 87.9723 96.285L76.8903 107.405C75.3455 108.954 74.2932 110.927 73.8664 113.076C73.4395 115.225 73.6574 117.453 74.4924 119.478C75.3273 121.502 76.7419 123.233 78.5572 124.451C80.3725 125.669 82.507 126.319 84.6908 126.32C86.1417 126.324 87.5791 126.039 88.9196 125.482C90.2602 124.925 91.4774 124.107 92.5008 123.075L94.1304 121.437C94.486 121.078 94.9087 120.794 95.3741 120.6C95.8396 120.406 96.3387 120.306 96.8427 120.306C97.3468 120.306 97.8458 120.406 98.3113 120.6C98.7768 120.794 99.1994 121.078 99.555 121.437ZM134.523 75.4948C131.016 71.9765 126.259 70 121.3 70C116.34 70 111.584 71.9765 108.076 75.4948L106.447 77.13C105.728 77.8514 105.324 78.8298 105.324 79.85C105.324 80.8701 105.728 81.8486 106.447 82.5699C107.166 83.2913 108.141 83.6966 109.157 83.6966C110.174 83.6966 111.149 83.2913 111.868 82.5699L113.501 80.9315C115.573 78.8523 118.384 77.6841 121.314 77.6841C124.245 77.6841 127.055 78.8523 129.127 80.9315C131.199 83.0108 132.364 85.8309 132.364 88.7715C132.364 91.712 131.199 94.5321 129.127 96.6114L118.026 107.715C117.003 108.748 115.786 109.566 114.445 110.123C113.105 110.68 111.667 110.965 110.216 110.96C107.727 110.958 105.311 110.113 103.361 108.561C101.411 107.009 100.041 104.841 99.4721 102.41C99.242 101.418 98.6286 100.558 97.7668 100.02C96.905 99.4813 95.8654 99.3085 94.8766 99.5394C93.8879 99.7702 93.0311 100.386 92.4946 101.25C91.9581 102.115 91.786 103.158 92.0161 104.151C92.9763 108.269 95.2948 111.94 98.5954 114.57C101.896 117.2 105.985 118.634 110.2 118.64H110.216C112.673 118.647 115.107 118.165 117.377 117.222C119.647 116.279 121.708 114.893 123.441 113.146L134.523 102.026C136.26 100.284 137.637 98.2158 138.577 95.9397C139.516 93.6636 140 91.224 140 88.7603C140 86.2966 139.516 83.857 138.577 81.5809C137.637 79.3048 136.26 77.2367 134.523 75.4948Z" fill="black"/>
</svg>
