<svg width="204" height="204" viewBox="0 0 204 204" fill="none" xmlns="http://www.w3.org/2000/svg">
<rect x="0.5" y="0.5" width="203" height="203" fill="#D9D9D9"/>
<rect x="0.5" y="0.5" width="203" height="203" stroke="#929292"/>
<path d="M135.328 97.0769H107.172V92.1538H108.397C109.2 92.1538 109.996 91.9947 110.739 91.6854C111.481 91.3762 112.156 90.9229 112.725 90.3514C113.293 89.78 113.744 89.1016 114.051 88.355C114.359 87.6084 114.517 86.8081 114.517 86V76.1538C114.517 75.3457 114.359 74.5455 114.051 73.7989C113.744 73.0523 113.293 72.3739 112.725 71.8024C112.156 71.231 111.481 70.7777 110.739 70.4684C109.996 70.1592 109.2 70 108.397 70H98.6034C96.9801 70 95.4233 70.6483 94.2755 71.8024C93.1276 72.9565 92.4828 74.5217 92.4828 76.1538V86C92.4828 86.8081 92.6411 87.6084 92.9487 88.355C93.2563 89.1016 93.7071 89.78 94.2755 90.3514C95.4233 91.5055 96.9801 92.1538 98.6034 92.1538H99.8276V97.0769H71.6724C70.6984 97.0769 69.7643 97.4659 69.0756 98.1584C68.3869 98.8508 68 99.79 68 100.769C68 101.748 68.3869 102.688 69.0756 103.38C69.7643 104.073 70.6984 104.462 71.6724 104.462H80.2414V111.846H79.0172C77.3939 111.846 75.8371 112.495 74.6893 113.649C73.5414 114.803 72.8966 116.368 72.8966 118V127.846C72.8966 129.478 73.5414 131.044 74.6893 132.198C75.8371 133.352 77.3939 134 79.0172 134H88.8103C90.4337 134 91.9905 133.352 93.1383 132.198C94.2862 131.044 94.931 129.478 94.931 127.846V118C94.931 116.368 94.2862 114.803 93.1383 113.649C91.9905 112.495 90.4337 111.846 88.8103 111.846H87.5862V104.462H119.414V111.846H118.19C116.566 111.846 115.01 112.495 113.862 113.649C112.714 114.803 112.069 116.368 112.069 118V127.846C112.069 129.478 112.714 131.044 113.862 132.198C115.01 133.352 116.566 134 118.19 134H127.983C129.606 134 131.163 133.352 132.311 132.198C133.459 131.044 134.103 129.478 134.103 127.846V118C134.103 116.368 133.459 114.803 132.311 113.649C131.163 112.495 129.606 111.846 127.983 111.846H126.759V104.462H135.328C136.302 104.462 137.236 104.073 137.924 103.38C138.613 102.688 139 101.748 139 100.769C139 99.79 138.613 98.8508 137.924 98.1584C137.236 97.4659 136.302 97.0769 135.328 97.0769ZM99.8276 77.3846H107.172V84.7692H99.8276V77.3846ZM87.5862 126.615H80.2414V119.231H87.5862V126.615ZM126.759 126.615H119.414V119.231H126.759V126.615Z" fill="black"/>
</svg>
