<svg width="204" height="204" viewBox="0 0 204 204" fill="none" xmlns="http://www.w3.org/2000/svg">
<rect x="0.5" y="0.5" width="203" height="203" fill="#D9D9D9"/>
<rect x="0.5" y="0.5" width="203" height="203" stroke="#929292"/>
<path d="M129.077 104.462V127.846C129.077 129.478 128.429 131.044 127.275 132.198C126.12 133.352 124.555 134 122.923 134H76.1538C74.5217 134 72.9565 133.352 71.8024 132.198C70.6483 131.044 70 129.478 70 127.846V81.0769C70 79.4448 70.6483 77.8796 71.8024 76.7255C72.9565 75.5714 74.5217 74.9231 76.1538 74.9231H99.5385C100.518 74.9231 101.457 75.3121 102.149 76.0045C102.842 76.697 103.231 77.6361 103.231 78.6154C103.231 79.5946 102.842 80.5338 102.149 81.2262C101.457 81.9187 100.518 82.3077 99.5385 82.3077H77.3846V126.615H121.692V104.462C121.692 103.482 122.081 102.543 122.774 101.851C123.466 101.158 124.405 100.769 125.385 100.769C126.364 100.769 127.303 101.158 127.995 101.851C128.688 102.543 129.077 103.482 129.077 104.462ZM134 82.3077C134 84.7419 133.278 87.1215 131.926 89.1455C130.573 91.1695 128.651 92.747 126.402 93.6785C124.153 94.6101 121.679 94.8538 119.291 94.3789C116.904 93.904 114.711 92.7318 112.989 91.0105C111.268 89.2893 110.096 87.0963 109.621 84.7088C109.146 82.3213 109.39 79.8467 110.321 77.5977C111.253 75.3488 112.831 73.4266 114.855 72.0742C116.879 70.7218 119.258 70 121.692 70C124.957 70 128.087 71.2967 130.395 73.6048C132.703 75.913 134 79.0435 134 82.3077ZM126.615 82.3077C126.615 81.334 126.327 80.3822 125.786 79.5726C125.245 78.763 124.476 78.132 123.576 77.7594C122.677 77.3867 121.687 77.2893 120.732 77.4792C119.777 77.6692 118.9 78.138 118.211 78.8266C117.523 79.5151 117.054 80.3923 116.864 81.3472C116.674 82.3022 116.771 83.2921 117.144 84.1917C117.517 85.0912 118.148 85.8601 118.957 86.4011C119.767 86.942 120.719 87.2308 121.692 87.2308C122.998 87.2308 124.25 86.7121 125.173 85.7888C126.097 84.8656 126.615 83.6134 126.615 82.3077Z" fill="black"/>
</svg>
