<svg width="204" height="204" viewBox="0 0 204 204" fill="none" xmlns="http://www.w3.org/2000/svg">
<rect x="0.5" y="0.5" width="203" height="203" fill="#D9D9D9"/>
<rect x="0.5" y="0.5" width="203" height="203" stroke="#929292"/>
<path d="M138.389 70H64.6111C63.3882 70 62.2153 70.4816 61.3506 71.3389C60.4858 72.1962 60 73.359 60 74.5714V129.429C60 130.641 60.4858 131.804 61.3506 132.661C62.2153 133.518 63.3882 134 64.6111 134H138.389C139.612 134 140.785 133.518 141.649 132.661C142.514 131.804 143 130.641 143 129.429V74.5714C143 73.359 142.514 72.1962 141.649 71.3389C140.785 70.4816 139.612 70 138.389 70ZM87.6667 106.571V97.4286H115.333V106.571H87.6667ZM69.2222 106.571V97.4286H78.4444V106.571H69.2222ZM124.556 97.4286H133.778V106.571H124.556V97.4286ZM133.778 88.2857H106.111V79.1429H133.778V88.2857ZM96.8889 79.1429V88.2857H69.2222V79.1429H96.8889ZM69.2222 115.714H96.8889V124.857H69.2222V115.714ZM106.111 124.857V115.714H133.778V124.857H106.111Z" fill="black"/>
</svg>
