<svg width="204" height="204" viewBox="0 0 204 204" fill="none" xmlns="http://www.w3.org/2000/svg">
<rect x="0.5" y="0.5" width="203" height="203" fill="#D9D9D9"/>
<rect x="0.5" y="0.5" width="203" height="203" stroke="#929292"/>
<path d="M110.571 87.0667C110.571 85.9351 111.023 84.8498 111.827 84.0497C112.63 83.2495 113.721 82.8 114.857 82.8H137.714C138.851 82.8 139.941 83.2495 140.745 84.0497C141.548 84.8498 142 85.9351 142 87.0667C142 88.1983 141.548 89.2835 140.745 90.0837C139.941 90.8838 138.851 91.3333 137.714 91.3333H114.857C113.721 91.3333 112.63 90.8838 111.827 90.0837C111.023 89.2835 110.571 88.1983 110.571 87.0667ZM137.714 97.0222H114.857C113.721 97.0222 112.63 97.4717 111.827 98.2719C111.023 99.0721 110.571 100.157 110.571 101.289C110.571 102.42 111.023 103.506 111.827 104.306C112.63 105.106 113.721 105.556 114.857 105.556H137.714C138.851 105.556 139.941 105.106 140.745 104.306C141.548 103.506 142 102.42 142 101.289C142 100.157 141.548 99.0721 140.745 98.2719C139.941 97.4717 138.851 97.0222 137.714 97.0222ZM137.714 111.244H83.4286C82.2919 111.244 81.2018 111.694 80.3981 112.494C79.5944 113.294 79.1429 114.38 79.1429 115.511C79.1429 116.643 79.5944 117.728 80.3981 118.528C81.2018 119.328 82.2919 119.778 83.4286 119.778H137.714C138.851 119.778 139.941 119.328 140.745 118.528C141.548 117.728 142 116.643 142 115.511C142 114.38 141.548 113.294 140.745 112.494C139.941 111.694 138.851 111.244 137.714 111.244ZM137.714 125.467H83.4286C82.2919 125.467 81.2018 125.916 80.3981 126.716C79.5944 127.517 79.1429 128.602 79.1429 129.733C79.1429 130.865 79.5944 131.95 80.3981 132.75C81.2018 133.55 82.2919 134 83.4286 134H137.714C138.851 134 139.941 133.55 140.745 132.75C141.548 131.95 142 130.865 142 129.733C142 128.602 141.548 127.517 140.745 126.716C139.941 125.916 138.851 125.467 137.714 125.467ZM89.1429 105.556C90.2795 105.556 91.3696 105.106 92.1733 104.306C92.977 103.506 93.4286 102.42 93.4286 101.289C93.4286 100.157 92.977 99.0721 92.1733 98.2719C91.3696 97.4717 90.2795 97.0222 89.1429 97.0222H87.7143V78.5333H96.2857V79.9556C96.2857 81.0871 96.7372 82.1724 97.541 82.9725C98.3447 83.7727 99.4348 84.2222 100.571 84.2222C101.708 84.2222 102.798 83.7727 103.602 82.9725C104.406 82.1724 104.857 81.0871 104.857 79.9556V74.2667C104.857 73.1351 104.406 72.0498 103.602 71.2497C102.798 70.4495 101.708 70 100.571 70H66.2857C65.1491 70 64.059 70.4495 63.2553 71.2497C62.4515 72.0498 62 73.1351 62 74.2667V79.9556C62 81.0871 62.4515 82.1724 63.2553 82.9725C64.059 83.7727 65.1491 84.2222 66.2857 84.2222C67.4224 84.2222 68.5124 83.7727 69.3162 82.9725C70.1199 82.1724 70.5714 81.0871 70.5714 79.9556V78.5333H79.1429V97.0222H77.7143C76.5776 97.0222 75.4876 97.4717 74.6838 98.2719C73.8801 99.0721 73.4286 100.157 73.4286 101.289C73.4286 102.42 73.8801 103.506 74.6838 104.306C75.4876 105.106 76.5776 105.556 77.7143 105.556H89.1429Z" fill="black"/>
</svg>
