<svg width="204" height="204" viewBox="0 0 204 204" fill="none" xmlns="http://www.w3.org/2000/svg">
<rect x="0.5" y="0.5" width="203" height="203" fill="#D9D9D9"/>
<rect x="0.5" y="0.5" width="203" height="203" stroke="#929292"/>
<path d="M94.3077 76.0952C94.3077 77.3008 93.9468 78.4792 93.2706 79.4816C92.5944 80.4839 91.6333 81.2652 90.5088 81.7265C89.3844 82.1878 88.147 82.3085 86.9533 82.0734C85.7596 81.8382 84.6631 81.2577 83.8024 80.4052C82.9418 79.5528 82.3557 78.4667 82.1182 77.2844C81.8808 76.102 82.0027 74.8765 82.4684 73.7627C82.9342 72.6489 83.723 71.697 84.735 71.0272C85.747 70.3575 86.9367 70 88.1538 70C89.786 70 91.3512 70.6422 92.5053 71.7853C93.6593 72.9283 94.3077 74.4787 94.3077 76.0952ZM115.846 82.1905C117.063 82.1905 118.253 81.833 119.265 81.1632C120.277 80.4935 121.066 79.5415 121.532 78.4278C121.997 77.314 122.119 76.0885 121.882 74.9061C121.644 73.7238 121.058 72.6377 120.198 71.7853C119.337 70.9328 118.24 70.3523 117.047 70.1171C115.853 69.8819 114.616 70.0026 113.491 70.464C112.367 70.9253 111.406 71.7066 110.729 72.7089C110.053 73.7113 109.692 74.8897 109.692 76.0952C109.692 77.7118 110.341 79.2621 111.495 80.4052C112.649 81.5483 114.214 82.1905 115.846 82.1905ZM88.1538 95.9048C86.9367 95.9048 85.747 96.2622 84.735 96.932C83.723 97.6017 82.9342 98.5537 82.4684 99.6675C82.0027 100.781 81.8808 102.007 82.1182 103.189C82.3557 104.371 82.9418 105.458 83.8024 106.31C84.6631 107.162 85.7596 107.743 86.9533 107.978C88.147 108.213 89.3844 108.093 90.5088 107.631C91.6333 107.17 92.5944 106.389 93.2706 105.386C93.9468 104.384 94.3077 103.206 94.3077 102C94.3077 100.383 93.6593 98.8331 92.5053 97.69C91.3512 96.5469 89.786 95.9048 88.1538 95.9048ZM115.846 95.9048C114.629 95.9048 113.439 96.2622 112.427 96.932C111.415 97.6017 110.627 98.5537 110.161 99.6675C109.695 100.781 109.573 102.007 109.811 103.189C110.048 104.371 110.634 105.458 111.495 106.31C112.355 107.162 113.452 107.743 114.646 107.978C115.839 108.213 117.077 108.093 118.201 107.631C119.326 107.17 120.287 106.389 120.963 105.386C121.639 104.384 122 103.206 122 102C122 100.383 121.352 98.8331 120.198 97.69C119.044 96.5469 117.478 95.9048 115.846 95.9048ZM88.1538 121.81C86.9367 121.81 85.747 122.167 84.735 122.837C83.723 123.507 82.9342 124.458 82.4684 125.572C82.0027 126.686 81.8808 127.912 82.1182 129.094C82.3557 130.276 82.9418 131.362 83.8024 132.215C84.6631 133.067 85.7596 133.648 86.9533 133.883C88.147 134.118 89.3844 133.997 90.5088 133.536C91.6333 133.075 92.5944 132.293 93.2706 131.291C93.9468 130.289 94.3077 129.11 94.3077 127.905C94.3077 126.288 93.6593 124.738 92.5053 123.595C91.3512 122.452 89.786 121.81 88.1538 121.81ZM115.846 121.81C114.629 121.81 113.439 122.167 112.427 122.837C111.415 123.507 110.627 124.458 110.161 125.572C109.695 126.686 109.573 127.912 109.811 129.094C110.048 130.276 110.634 131.362 111.495 132.215C112.355 133.067 113.452 133.648 114.646 133.883C115.839 134.118 117.077 133.997 118.201 133.536C119.326 133.075 120.287 132.293 120.963 131.291C121.639 130.289 122 129.11 122 127.905C122 126.288 121.352 124.738 120.198 123.595C119.044 122.452 117.478 121.81 115.846 121.81Z" fill="black"/>
</svg>
