<svg width="204" height="204" viewBox="0 0 204 204" fill="none" xmlns="http://www.w3.org/2000/svg">
<rect x="0.5" y="0.5" width="203" height="203" fill="#D9D9D9"/>
<rect x="0.5" y="0.5" width="203" height="203" stroke="#929292"/>
<path d="M131.043 70H80.9565C79.1115 70 77.3421 70.7329 76.0375 72.0375C74.7329 73.3421 74 75.1115 74 76.9565V127.043C74 128.888 74.7329 130.658 76.0375 131.962C77.3421 133.267 79.1115 134 80.9565 134H131.043C132.888 134 134.658 133.267 135.962 131.962C137.267 130.658 138 128.888 138 127.043V76.9565C138 75.1115 137.267 73.3421 135.962 72.0375C134.658 70.7329 132.888 70 131.043 70ZM82.3478 78.3478H101.826V125.652H82.3478V78.3478ZM129.652 125.652H110.174V78.3478H129.652V125.652Z" fill="black"/>
</svg>
