<svg width="204" height="204" viewBox="0 0 204 204" fill="none" xmlns="http://www.w3.org/2000/svg">
<rect x="0.5" y="0.5" width="203" height="203" fill="#D9D9D9"/>
<rect x="0.5" y="0.5" width="203" height="203" stroke="#929292"/>
<path d="M133.963 70H72.037C70.1707 70 68.3808 70.7329 67.0611 72.0375C65.7414 73.3421 65 75.1115 65 76.9565V113.13C65 114.975 65.7414 116.745 67.0611 118.049C68.3808 119.354 70.1707 120.087 72.037 120.087H133.963C135.829 120.087 137.619 119.354 138.939 118.049C140.259 116.745 141 114.975 141 113.13V76.9565C141 75.1115 140.259 73.3421 138.939 72.0375C137.619 70.7329 135.829 70 133.963 70ZM132.556 111.739H73.4444V78.3478H132.556V111.739ZM141 129.826C141 130.933 140.555 131.995 139.763 132.777C138.972 133.56 137.898 134 136.778 134H69.2222C68.1024 134 67.0285 133.56 66.2367 132.777C65.4448 131.995 65 130.933 65 129.826C65 128.719 65.4448 127.657 66.2367 126.875C67.0285 126.092 68.1024 125.652 69.2222 125.652H136.778C137.898 125.652 138.972 126.092 139.763 126.875C140.555 127.657 141 128.719 141 129.826ZM94.5556 102V88.087C94.5553 87.3418 94.7569 86.6101 95.1393 85.968C95.5217 85.3258 96.0711 84.7966 96.7304 84.4352C97.3896 84.0739 98.1347 83.8936 98.8882 83.9131C99.6418 83.9326 100.376 84.1511 101.016 84.5461L112.275 91.5026C112.883 91.8777 113.384 92.3995 113.732 93.0189C114.079 93.6384 114.262 94.3351 114.262 95.0435C114.262 95.7518 114.079 96.4486 113.732 97.068C113.384 97.6875 112.883 98.2093 112.275 98.5843L101.016 105.541C100.376 105.936 99.6418 106.154 98.8882 106.174C98.1347 106.193 97.3896 106.013 96.7304 105.652C96.0711 105.29 95.5217 104.761 95.1393 104.119C94.7569 103.477 94.5553 102.745 94.5556 102Z" fill="black"/>
</svg>
