<svg viewBox="0 0 32 32" fill="none" xmlns="http://www.w3.org/2000/svg">
<style>path{fill:#243E8C}@media (prefers-color-scheme:dark){path{fill:#fff}}</style>
<path d="M28.4572 18.701C28.4572 19.002 28.5259 19.0968 28.8236 19.1034C29.262 19.1099 29.7069 19.1295 30.1387 19.0674C30.7472 18.9791 31.1528 18.5832 31.3785 18.0206C31.493 17.7327 31.5552 17.4219 31.6468 17.1111H32.0001C31.9674 17.9126 31.9379 18.7075 31.9085 19.5123H26.1477V19.123C26.2818 19.123 26.4127 19.123 26.5403 19.123C26.622 19.123 26.7071 19.123 26.7889 19.1099C27.0048 19.0805 27.1062 18.9594 27.1062 18.737C27.1062 17.1177 27.1062 15.5017 27.1062 13.8824C27.1062 13.6992 27.0048 13.5912 26.8052 13.5781C26.6351 13.5683 26.465 13.5716 26.2949 13.5683C26.2491 13.5683 26.2 13.5683 26.1477 13.5683V13.1725H31.6697C31.7122 13.902 31.7515 14.6315 31.794 15.3741H31.4243C31.3654 15.1385 31.3164 14.8997 31.2509 14.6675C31.0448 13.9511 30.5836 13.5945 29.841 13.5749C29.4877 13.565 29.1344 13.5683 28.7811 13.5749C28.5521 13.5781 28.4572 13.6861 28.4572 13.9118C28.4572 14.5824 28.4572 15.2563 28.4572 15.9269C28.4572 15.9695 28.4572 16.012 28.4572 16.0611C28.8334 16.084 29.1998 16.0905 29.4942 15.8288C29.7854 15.5704 29.8377 15.2072 29.8835 14.8409H30.2597V17.7818H29.8868C29.8279 17.3663 29.8181 16.9214 29.4223 16.6433C29.1344 16.4405 28.8007 16.4503 28.454 16.4569V18.701H28.4572Z" />
<path d="M15.228 19.6005C14.9336 19.5122 14.6424 19.4501 14.3742 19.3356C13.6872 19.0444 13.3601 18.4916 13.347 17.7621C13.3339 17.0129 13.3404 16.2605 13.3404 15.5114C13.3404 15.0142 13.3404 14.5169 13.3404 14.0197C13.3404 13.6795 13.2488 13.5846 12.9086 13.5748C12.7581 13.5715 12.6044 13.5748 12.4441 13.5748V13.179H15.6238V13.5715C15.4341 13.5715 15.2509 13.5813 15.071 13.5715C14.7765 13.5552 14.6948 13.7154 14.6948 13.951C14.6948 14.4744 14.6948 14.9978 14.6948 15.5212C14.6948 16.2409 14.6784 16.9606 14.7111 17.6803C14.7471 18.5014 15.3163 18.9594 16 18.9757C16.2454 18.9823 16.4972 18.9692 16.736 18.9136C17.3609 18.7729 17.6684 18.328 17.7698 17.7228C17.7927 17.5789 17.7992 17.4284 17.7992 17.2812C17.7992 16.3914 17.8025 15.5016 17.7992 14.6118C17.7992 14.4679 17.7829 14.3239 17.7502 14.1865C17.6586 13.807 17.3936 13.5977 17.0043 13.5781C16.9618 13.5781 16.9192 13.5715 16.8702 13.5682V13.179H19.2811V13.565C19.2059 13.5682 19.1306 13.5715 19.0554 13.5781C18.8101 13.5911 18.6269 13.7056 18.5091 13.9215C18.4044 14.1178 18.3488 14.3206 18.3488 14.5464C18.3521 15.531 18.3488 16.519 18.3488 17.5036C18.3488 18.5472 17.6716 19.3683 16.651 19.5744C16.1832 19.6692 15.7154 19.666 15.2345 19.6005H15.228Z" />
<path d="M2.45675 13.4145C1.98895 13.3622 1.56696 13.4342 1.22674 13.7777C0.778571 14.2291 0.860354 14.8834 1.40339 15.2105C1.73052 15.41 2.10018 15.4755 2.46329 15.5671C2.88529 15.6717 3.31383 15.7535 3.72929 15.8877C4.32467 16.0774 4.79573 16.434 4.96911 17.0686C5.23409 18.0402 4.83499 18.9332 3.91248 19.3585C2.86894 19.8394 1.86464 19.7445 0.932322 19.051C0.893067 19.0216 0.857082 18.9954 0.811284 18.9594C0.686974 19.1132 0.552851 19.2538 0.45144 19.4141C0.336945 19.6006 0.183193 19.6039 0 19.5711V17.2289C0.107953 17.2289 0.212635 17.2223 0.314045 17.2322C0.343487 17.2322 0.3762 17.2812 0.389285 17.3139C0.50051 17.5724 0.585564 17.8472 0.719687 18.0925C1.14496 18.8809 1.8123 19.2571 2.70864 19.2375C3.0096 19.2309 3.29748 19.1819 3.56572 19.0412C4.10222 18.7631 4.30504 18.0892 3.99426 17.5887C3.84378 17.3434 3.60498 17.2125 3.34 17.1406C2.86894 17.0163 2.39132 16.9116 1.92026 16.7905C1.68799 16.7317 1.459 16.6597 1.23655 16.5746C0.189736 16.1755 -0.0981392 15.325 0.166837 14.373C0.3762 13.6174 0.922508 13.2019 1.67491 13.0547C2.46984 12.9009 3.19607 13.0711 3.84378 13.5683C3.86996 13.5879 3.8994 13.6108 3.92884 13.6305C3.92884 13.6305 3.93865 13.6305 3.95828 13.637C4.04006 13.5192 4.14147 13.4047 4.21017 13.2706C4.30504 13.0874 4.44243 13.0449 4.6518 13.0972C4.66488 13.8104 4.67797 14.5333 4.69105 15.2759C4.57656 15.2759 4.4686 15.2825 4.36065 15.2726C4.32794 15.2694 4.29195 15.2203 4.2756 15.1843C4.15456 14.9292 4.05642 14.6609 3.91248 14.4188C3.61152 13.9118 3.17644 13.565 2.59087 13.4309C2.54835 13.4211 2.50582 13.4178 2.45021 13.4113L2.45675 13.4145Z" />
<path d="M21.9833 15.4101C21.9833 14.9128 21.9833 14.4287 21.9833 13.9445C21.9833 13.6926 21.8851 13.5847 21.63 13.5781C21.2309 13.5683 20.9266 13.7482 20.6944 14.0623C20.3967 14.4679 20.2593 14.9423 20.1513 15.4231C20.1415 15.4722 20.1284 15.5246 20.1154 15.5769H19.7424C19.7882 14.7722 19.834 13.9772 19.8798 13.1725H25.4345C25.4803 13.974 25.5294 14.7722 25.5752 15.5769H25.1957C25.1368 15.3446 25.0845 15.1124 25.0223 14.8834C24.934 14.5661 24.8031 14.2684 24.597 14.0099C24.3681 13.7221 24.0671 13.5749 23.7007 13.5814C23.4357 13.5847 23.3441 13.6861 23.3441 13.9511C23.3441 15.5442 23.3441 17.134 23.3441 18.7272C23.3441 19.0249 23.4456 19.1263 23.7432 19.1263C23.9428 19.1263 24.1456 19.1263 24.355 19.1263V19.5123H20.9724V19.123C21.1851 19.123 21.3912 19.123 21.6005 19.123C21.7216 19.123 21.8557 19.1165 21.9244 18.9954C21.9636 18.9267 21.9865 18.8417 21.9865 18.7632C21.9898 17.6509 21.9865 16.5387 21.9865 15.4133L21.9833 15.4101Z" fill="#"/>
<path d="M10.4158 16.2966C10.7495 17.0915 11.0799 17.8799 11.407 18.665C11.4234 18.701 11.4397 18.737 11.4561 18.773C11.5542 19.0151 11.7374 19.1296 11.9958 19.123C12.058 19.123 12.1169 19.123 12.1856 19.123V19.5123H9.22176V19.1328C9.39187 19.123 9.55543 19.1165 9.719 19.1034C9.7648 19.1034 9.81387 19.0936 9.85967 19.0805C10.0494 19.0281 10.1181 18.9104 10.0494 18.7239C9.96435 18.4851 9.85967 18.2561 9.7648 18.0239C9.69937 17.8636 9.63395 17.7 9.55871 17.543C9.53908 17.5037 9.48019 17.4612 9.43767 17.4612C8.7049 17.4546 7.97212 17.4579 7.23935 17.4612C7.20337 17.4612 7.15102 17.4874 7.13794 17.5135C7.02671 17.7785 6.89913 18.0402 6.82062 18.3117C6.69958 18.7239 6.93512 19.051 7.36039 19.1034C7.4847 19.1197 7.61228 19.123 7.7464 19.1328V19.5123H5.35181V19.1394C5.35181 19.1394 5.36816 19.1263 5.37798 19.1263C5.84905 19.1459 6.10421 18.8515 6.2645 18.4753C6.90568 16.9803 7.52723 15.4755 8.15859 13.974C8.27963 13.6861 8.40394 13.3982 8.5217 13.1071C8.55114 13.0351 8.58713 13.0122 8.66564 13.0122C9.04184 13.0122 9.04184 13.0089 9.18251 13.3492C9.59142 14.3273 10.0036 15.3087 10.4158 16.2966ZM9.25447 16.7906C8.95679 16.0742 8.6591 15.361 8.35159 14.6217C8.00811 15.4395 7.67771 16.2312 7.34403 17.0261H9.34934C9.31663 16.9443 9.29046 16.8789 9.25447 16.7906Z" />
</svg>
