<svg width="17" height="16" viewBox="0 0 17 16" fill="none" xmlns="http://www.w3.org/2000/svg">
<path d="M10.7781 2H6.22188C6.1562 1.99995 6.09115 2.01284 6.03045 2.03793C5.96975 2.06303 5.91459 2.09983 5.86813 2.14625L2.64625 5.36813C2.59983 5.41459 2.56303 5.46975 2.53793 5.53045C2.51284 5.59115 2.49995 5.6562 2.5 5.72188V10.2781C2.49995 10.3438 2.51284 10.4089 2.53793 10.4696C2.56303 10.5302 2.59983 10.5854 2.64625 10.6319L5.86813 13.8538C5.91459 13.9002 5.96975 13.937 6.03045 13.9621C6.09115 13.9872 6.1562 14.0001 6.22188 14H10.7781C10.8438 14.0001 10.9089 13.9872 10.9696 13.9621C11.0302 13.937 11.0854 13.9002 11.1319 13.8538L14.3538 10.6319C14.4002 10.5854 14.437 10.5302 14.4621 10.4696C14.4872 10.4089 14.5001 10.3438 14.5 10.2781V5.72188C14.5001 5.6562 14.4872 5.59115 14.4621 5.53045C14.437 5.46975 14.4002 5.41459 14.3538 5.36813L11.1319 2.14625C11.0854 2.09983 11.0302 2.06303 10.9696 2.03793C10.9089 2.01284 10.8438 1.99995 10.7781 2Z" fill="#1E3241" stroke="#1E3241" stroke-width="1.5" stroke-linecap="round" stroke-linejoin="round"/>
<path d="M8.5 11.375C8.84518 11.375 9.125 11.0952 9.125 10.75C9.125 10.4048 8.84518 10.125 8.5 10.125C8.15482 10.125 7.875 10.4048 7.875 10.75C7.875 11.0952 8.15482 11.375 8.5 11.375Z" fill="white"/>
<path d="M8.5 8.5V5" stroke="white" stroke-width="1.5" stroke-linecap="round" stroke-linejoin="round"/>
</svg>
