<svg viewBox="0 0 32 32" xmlns="http://www.w3.org/2000/svg">
<style>path{fill:#0662AF}@media (prefers-color-scheme:dark){path{fill:#fff}}</style>
<path d="M3.11816 16.2008C3.11816 8.046 7.89853 1.62667 14.1974 1C11.2488 3.06479 8.81446 8.046 8.81446 16.2008C8.81446 24.3555 11.2488 29.3367 14.1974 31.4015C7.89853 30.7748 3.11816 24.3555 3.11816 16.2008Z"/>
<path d="M11.168 16.2008C11.168 24.3555 13.4256 29.8268 16.0367 31.4015C14.7512 29.3367 13.1444 24.3555 13.1444 16.2008C13.1444 8.046 14.7512 3.06479 16.0367 1C13.4336 2.5747 11.168 8.046 11.168 16.2008Z"/>
<path d="M1.173 16.2004C1.173 11.7896 2.71557 7.95728 5.14994 5.46667C2.0889 7.44309 0 11.4521 0 16.2004C0 20.9486 2.06479 24.9576 5.14994 26.9341C2.69146 24.4434 1.173 20.6111 1.173 16.2004Z"/>
<path d="M30.3689 16.2006C30.3689 11.0748 28.8504 6.60777 25.9902 3.71545C29.5976 5.97307 31.9998 10.6409 31.9998 16.2006C31.9998 21.7603 29.5976 26.4201 25.9902 28.6857C28.8504 25.7934 30.3689 21.3264 30.3689 16.2006Z"/>
<path d="M18.6074 1.08862C21.8131 4.8406 22.8736 10.0468 22.8736 16.2893C22.8736 22.5319 21.8131 27.7702 18.6074 31.4901C23.444 28.9432 25.3883 23.0461 25.3883 16.2893C25.3883 9.53257 23.444 3.61136 18.6074 1.08862Z"/>
</svg>
