<svg width="600" height="206" viewBox="0 0 600 206" fill="none" xmlns="http://www.w3.org/2000/svg">
<rect width="600" height="206" fill="white"/>
<path d="M175.829 50.9606H176.979C176.979 51.3121 177.203 51.6316 177.331 51.9831C177.555 52.2068 177.778 52.4304 178.258 52.6541C178.705 52.8778 179.056 52.8778 179.632 52.8778C180.207 52.8778 180.43 52.8778 180.782 52.6541C181.133 52.5263 181.357 52.3026 181.581 52.079C181.708 51.8553 181.804 51.6316 181.804 51.2801C181.804 50.9287 181.804 50.705 181.581 50.6091C181.453 50.3855 181.133 50.2577 180.782 50.034C180.558 50.034 179.983 49.8103 179.184 49.5866C178.385 49.363 177.81 49.2352 177.491 49.0115C177.043 48.7878 176.82 48.5641 176.564 48.2127C176.34 47.8612 176.213 47.5417 176.213 47.0624C176.213 46.5831 176.34 46.1357 176.564 45.8162C176.788 45.4647 177.139 45.1452 177.714 44.8896C178.162 44.6659 178.737 44.5381 179.312 44.5381C179.887 44.5381 180.558 44.5381 181.005 44.8896C181.453 45.1132 181.932 45.4647 182.156 45.8162C182.379 46.2635 182.603 46.7428 182.603 47.1902H181.453C181.453 46.7428 181.229 46.2635 180.878 46.0399C180.526 45.8162 179.951 45.5925 179.408 45.5925C178.865 45.5925 178.162 45.7203 177.81 45.944C177.459 46.1677 177.363 46.5192 177.363 46.8706C177.363 47.2221 177.491 47.4458 177.714 47.6695C177.938 47.8931 178.513 48.1168 179.408 48.3405C180.303 48.5641 181.005 48.7878 181.357 48.9156C181.932 49.1393 182.284 49.4908 182.507 49.8423C182.731 50.1937 182.859 50.6411 182.859 51.0884C182.859 51.5358 182.731 52.0151 182.411 52.4624C182.092 52.9097 181.74 53.1334 181.261 53.4849C180.814 53.7086 180.239 53.8364 179.568 53.8364C178.897 53.8364 178.098 53.7086 177.523 53.4849C176.947 53.2612 176.596 52.9097 176.276 52.4624C175.957 52.0151 175.829 51.4399 175.829 50.8648L175.957 50.9926L175.829 50.9606Z" fill="black"/>
<path d="M184.041 49.4898C184.041 48.02 184.392 46.8697 185.191 46.0709C185.99 45.272 187.013 44.8247 188.259 44.8247C189.505 44.8247 189.856 45.0484 190.432 45.3999C191.103 45.7513 191.582 46.3265 191.901 46.9975C192.221 47.6685 192.477 48.4673 192.477 49.394C192.477 50.3206 192.253 51.0875 191.901 51.7904C191.55 52.4934 190.975 53.0366 190.432 53.3881C189.761 53.7396 189.058 53.9632 188.259 53.9632C187.46 53.9632 186.661 53.7396 185.99 53.3881C185.319 52.9407 184.84 52.4614 184.52 51.7904C184.201 51.1194 184.073 50.3206 184.073 49.6176V49.4898H184.041ZM185.287 49.5857C185.287 50.6082 185.639 51.5348 186.214 52.078C186.789 52.6212 187.46 53.0046 188.387 53.0046C189.313 53.0046 189.984 52.6532 190.559 52.078C191.135 51.5029 191.358 50.6082 191.358 49.4579C191.358 48.3076 191.23 48.0839 191.007 47.6366C190.783 47.1892 190.432 46.7099 189.984 46.3904C189.537 46.0389 188.962 45.9431 188.387 45.9431C187.811 45.9431 186.917 46.1667 186.214 46.7419C185.639 47.317 185.287 48.2117 185.287 49.5857Z" fill="black"/>
<path d="M200.309 50.736L201.46 51.0875C201.236 52.0141 200.789 52.781 200.086 53.2603C199.415 53.7076 198.712 54.0591 197.817 54.0591C196.922 54.0591 196.124 53.8354 195.548 53.4839C194.973 53.1325 194.526 52.5573 194.174 51.7904C193.823 51.1194 193.727 50.3206 193.727 49.394C193.727 48.4673 193.951 47.7005 194.302 46.9975C194.654 46.2945 195.101 45.7513 195.772 45.3999C196.443 45.0484 197.146 44.8247 197.945 44.8247C198.744 44.8247 199.542 45.0484 200.213 45.4957C200.789 45.9431 201.236 46.5182 201.46 47.4448L200.309 47.6685C200.086 46.9975 199.862 46.5182 199.383 46.2945C199.031 45.9431 198.456 45.8472 197.913 45.8472C197.37 45.8472 196.667 45.975 196.219 46.2945C195.772 46.6141 195.421 47.0934 195.293 47.5407C195.069 48.1159 195.069 48.691 195.069 49.2342C195.069 49.7774 195.069 50.6082 195.421 51.1833C195.644 51.7585 195.996 52.2058 196.443 52.4295C196.89 52.6532 197.37 52.8768 197.913 52.8768C198.456 52.8768 199.159 52.6532 199.606 52.3017C200.054 51.9502 200.405 51.375 200.533 50.6082H200.309V50.736Z" fill="black"/>
<path d="M203.057 53.8044V45.0493H204.207V53.8044H203.057Z" fill="black"/>
<path d="M206.346 53.8047V45.0497H212.737V46.0722H207.496V48.8201H212.385V49.8426H207.496V52.8142H212.96V53.8367H206.346V53.8047ZM208.743 44.4745L209.541 42.781H210.915L209.541 44.4745H208.615H208.743Z" fill="black"/>
<path d="M216.731 53.8044V46.0718H213.76V45.0493H220.694V46.0718H217.722V53.8044H216.572H216.699H216.731Z" fill="black"/>
<path d="M222.066 53.8047V45.0497H228.457V46.0722H223.217V48.8201H228.106V49.8426H223.217V52.8142H228.681V53.8367H222.066V53.8047ZM224.463 44.4745L225.262 42.781H226.636L225.262 44.4745H224.335H224.463Z" fill="black"/>
<path d="M233.219 50.9606H234.369C234.369 51.3121 234.593 51.6316 234.721 51.9831C234.944 52.2068 235.168 52.4304 235.647 52.6541C236.094 52.8778 236.446 52.8778 237.021 52.8778C237.596 52.8778 237.82 52.8778 238.171 52.6541C238.523 52.5263 238.747 52.3026 238.97 52.079C239.098 51.8553 239.194 51.6316 239.194 51.2801C239.194 50.9287 239.194 50.705 238.97 50.6091C238.842 50.3855 238.523 50.2577 238.171 50.034C237.948 50.034 237.373 49.8103 236.574 49.5866C235.775 49.363 235.2 49.2352 234.88 49.0115C234.433 48.7878 234.209 48.5641 233.954 48.2127C233.73 47.8612 233.602 47.5417 233.602 47.0624C233.602 46.5831 233.73 46.1357 233.954 45.8162C234.177 45.4647 234.529 45.1452 235.104 44.8896C235.551 44.6659 236.126 44.5381 236.702 44.5381C237.277 44.5381 237.948 44.5381 238.395 44.8896C238.842 45.1132 239.322 45.4647 239.545 45.8162C239.769 46.2635 239.993 46.7428 239.993 47.1902H238.842C238.842 46.7428 238.619 46.2635 238.267 46.0399C237.916 45.8162 237.341 45.5925 236.797 45.5925C236.254 45.5925 235.551 45.7203 235.2 45.944C234.848 46.1677 234.752 46.5192 234.752 46.8706C234.752 47.2221 234.88 47.4458 235.104 47.6695C235.328 47.8931 235.903 48.1168 236.797 48.3405C237.692 48.5641 238.395 48.7878 238.747 48.9156C239.322 49.1393 239.673 49.4908 239.897 49.8423C240.121 50.1937 240.248 50.6411 240.248 51.0884C240.248 51.5358 240.121 52.0151 239.801 52.4624C239.482 52.9097 239.13 53.1334 238.651 53.4849C238.203 53.7086 237.628 53.8364 236.957 53.8364C236.286 53.8364 235.487 53.7086 234.912 53.4849C234.337 53.2612 233.986 52.9097 233.666 52.4624C233.347 52.0151 233.219 51.4399 233.219 50.8648L233.347 50.9926L233.219 50.9606Z" fill="black"/>
<path d="M247.693 45.0493H248.843V50.1618C248.843 51.0884 248.843 51.7594 248.492 52.3346C248.268 52.9097 247.916 53.2612 247.341 53.5807C246.766 53.9322 246.095 54.0281 245.296 54.0281C244.497 54.0281 243.826 53.9003 243.251 53.5807C242.676 53.3571 242.325 52.9097 242.101 52.3346C241.877 51.7594 241.75 51.0884 241.75 50.1618V45.0493H242.9V50.1618C242.9 50.9606 242.9 51.5357 243.123 51.8553C243.347 52.1748 243.475 52.5263 243.794 52.6541C244.146 52.8778 244.593 53.0056 245.041 53.0056C245.967 53.0056 246.51 52.7819 246.862 52.4304C247.213 52.0789 247.437 51.2801 247.437 50.1618V45.0493H247.661H247.693Z" fill="black"/>
<path d="M250.986 53.8044V45.0493H252.136V53.8044H250.986Z" fill="black"/>
<path d="M253.826 50.9606H254.976C254.976 51.3121 255.2 51.6316 255.328 51.9831C255.552 52.2068 255.775 52.4304 256.255 52.6541C256.702 52.8778 257.053 52.8778 257.629 52.8778C258.204 52.8778 258.427 52.8778 258.779 52.6541C259.13 52.5263 259.354 52.3026 259.578 52.079C259.706 51.8553 259.801 51.6316 259.801 51.2801C259.801 50.9287 259.801 50.705 259.578 50.6091C259.45 50.3855 259.13 50.2577 258.779 50.034C258.555 50.034 257.98 49.8103 257.181 49.5866C256.382 49.363 255.807 49.2352 255.488 49.0115C255.04 48.7878 254.817 48.5641 254.561 48.2127C254.337 47.8612 254.21 47.5417 254.21 47.0624C254.21 46.5831 254.337 46.1357 254.561 45.8162C254.785 45.4647 255.136 45.1452 255.711 44.8896C256.159 44.6659 256.734 44.5381 257.309 44.5381C257.884 44.5381 258.555 44.5381 259.003 44.8896C259.45 45.1132 259.929 45.4647 260.153 45.8162C260.377 46.2635 260.6 46.7428 260.6 47.1902H259.45C259.45 46.7428 259.226 46.2635 258.875 46.0399C258.523 45.8162 257.948 45.5925 257.405 45.5925C256.862 45.5925 256.159 45.7203 255.807 45.944C255.456 46.1677 255.36 46.5192 255.36 46.8706C255.36 47.2221 255.488 47.4458 255.711 47.6695C255.935 47.8931 256.51 48.1168 257.405 48.3405C258.3 48.5641 259.003 48.7878 259.354 48.9156C259.929 49.1393 260.281 49.4908 260.504 49.8423C260.728 50.1937 260.856 50.6411 260.856 51.0884C260.856 51.5358 260.728 52.0151 260.408 52.4624C260.089 52.9097 259.737 53.1334 259.258 53.4849C258.811 53.7086 258.236 53.8364 257.565 53.8364C256.894 53.8364 256.095 53.7086 255.52 53.4849C254.945 53.2612 254.593 52.9097 254.274 52.4624C253.954 52.0151 253.826 51.4399 253.826 50.8648L253.954 50.9926L253.826 50.9606Z" fill="black"/>
<path d="M262.038 50.9606H263.188C263.188 51.3121 263.412 51.6316 263.54 51.9831C263.764 52.2068 263.987 52.4304 264.466 52.6541C264.914 52.8778 265.265 52.8778 265.84 52.8778C266.416 52.8778 266.639 52.8778 266.991 52.6541C267.342 52.5263 267.566 52.3026 267.79 52.079C267.917 51.8553 268.013 51.6316 268.013 51.2801C268.013 50.9287 268.013 50.705 267.79 50.6091C267.662 50.3855 267.342 50.2577 266.991 50.034C266.767 50.034 266.192 49.8103 265.393 49.5866C264.594 49.363 264.019 49.2352 263.7 49.0115C263.252 48.7878 263.029 48.5641 262.773 48.2127C262.549 47.8612 262.422 47.5417 262.422 47.0624C262.422 46.5831 262.549 46.1357 262.773 45.8162C262.997 45.4647 263.348 45.1452 263.923 44.8896C264.371 44.6659 264.946 44.5381 265.521 44.5381C266.096 44.5381 266.767 44.5381 267.214 44.8896C267.662 45.1132 268.141 45.4647 268.365 45.8162C268.588 46.2635 268.812 46.7428 268.812 47.1902H267.662C267.662 46.7428 267.438 46.2635 267.087 46.0399C266.735 45.8162 266.16 45.5925 265.617 45.5925C265.074 45.5925 264.371 45.7203 264.019 45.944C263.668 46.1677 263.572 46.5192 263.572 46.8706C263.572 47.2221 263.7 47.4458 263.923 47.6695C264.147 47.8931 264.722 48.1168 265.617 48.3405C266.511 48.5641 267.214 48.7878 267.566 48.9156C268.141 49.1393 268.493 49.4908 268.716 49.8423C268.94 50.1937 269.068 50.6411 269.068 51.0884C269.068 51.5358 268.94 52.0151 268.62 52.4624C268.301 52.9097 267.949 53.1334 267.47 53.4849C267.023 53.7086 266.448 53.8364 265.777 53.8364C265.106 53.8364 264.307 53.7086 263.732 53.4849C263.156 53.2612 262.805 52.9097 262.485 52.4624C262.166 52.0151 262.038 51.4399 262.038 50.8648L262.166 50.9926L262.038 50.9606Z" fill="black"/>
<path d="M270.67 53.8044V45.0493H277.061V46.0718H271.82V48.8198H276.709V49.8422H271.82V52.8139H277.284V53.8364H270.67V53.8044Z" fill="black"/>
<path d="M282.171 53.8044V45.0493H285.239C285.91 45.0493 286.485 45.0493 286.837 45.1771C287.284 45.3049 287.763 45.5286 288.083 45.8481C288.53 46.1996 288.881 46.7748 289.105 47.318C289.329 47.8612 289.457 48.6919 289.457 49.363C289.457 50.034 289.457 50.6091 289.233 51.1843C289.009 51.7594 288.881 52.1109 288.658 52.4304C288.434 52.7819 288.21 53.0056 287.859 53.2293C287.508 53.4529 287.188 53.5807 286.837 53.6766C286.485 53.7724 285.91 53.8044 285.463 53.8044H282.171ZM283.45 52.7819H285.399C285.974 52.7819 286.421 52.7819 286.773 52.6541C287.124 52.6541 287.348 52.4304 287.571 52.2068C287.795 51.9831 288.019 51.5357 288.242 51.0565C288.37 50.6091 288.466 50.034 288.466 49.363C288.466 48.6919 288.338 47.7653 288.019 47.1902C287.667 46.7428 287.348 46.3913 286.868 46.1677C286.517 46.0399 286.07 45.944 285.399 45.944H283.577V52.6541L283.45 52.7819Z" fill="black"/>
<path d="M290.958 48.1168L290.734 46.5191V45.0493H291.98V46.5191L291.629 48.1168H290.958Z" fill="black"/>
<path d="M293.449 53.8047V45.0497H299.839V46.0722H294.599V48.8201H299.488V49.8426H294.599V52.8142H300.063V53.8367H293.449V53.8047ZM295.973 44.4745L296.772 42.781H298.146L296.772 44.4745H295.845H295.973Z" fill="black"/>
<path d="M303.928 53.8044V46.0718H300.956V45.0493H307.89V46.0718H304.918V53.8044H303.768H303.896H303.928Z" fill="black"/>
<path d="M314.988 45.0493H316.138V50.1618C316.138 51.0884 316.138 51.7594 315.787 52.3346C315.563 52.9097 315.212 53.2612 314.637 53.5807C314.062 53.9322 313.391 54.0281 312.592 54.0281C311.793 54.0281 311.122 53.9003 310.547 53.5807C309.972 53.3571 309.62 52.9097 309.396 52.3346C309.173 51.7594 309.045 51.0884 309.045 50.1618V45.0493H310.195V50.1618C310.195 50.9606 310.195 51.5357 310.419 51.8553C310.643 52.1748 310.77 52.5263 311.09 52.6541C311.441 52.8778 311.889 53.0056 312.336 53.0056C313.263 53.0056 313.806 52.7819 314.157 52.4304C314.509 52.0789 314.733 51.2801 314.733 50.1618V45.0493H314.956H314.988Z" fill="black"/>
<path d="M318.056 53.8044V45.0493H321.124C321.795 45.0493 322.37 45.0493 322.721 45.1771C323.169 45.3049 323.648 45.5286 323.967 45.8481C324.415 46.1996 324.766 46.7748 324.99 47.318C325.214 47.8931 325.341 48.6919 325.341 49.363C325.341 50.034 325.341 50.6091 325.118 51.1843C324.99 51.7594 324.766 52.1109 324.543 52.4304C324.319 52.75 324.095 53.0056 323.744 53.2293C323.392 53.4529 323.073 53.5807 322.721 53.6766C322.274 53.6766 321.795 53.8044 321.347 53.8044H318.056ZM319.302 52.7819H321.251C321.827 52.7819 322.274 52.7819 322.625 52.6541C322.977 52.6541 323.201 52.4304 323.424 52.2068C323.648 51.9831 323.872 51.5357 324.095 51.0565C324.223 50.6091 324.319 50.034 324.319 49.363C324.319 48.6919 324.191 47.7653 323.872 47.1902C323.552 46.615 323.201 46.3913 322.721 46.1677C322.37 46.0399 321.922 45.944 321.251 45.944H319.43V52.6541H319.302V52.7819Z" fill="black"/>
<path d="M327.031 53.8044V45.0493H333.421V46.0718H328.181V48.8198H333.07V49.8422H328.181V52.8139H333.645V53.8364H327.031V53.8044Z" fill="black"/>
<path d="M334.794 50.9606H335.944C335.944 51.3121 336.168 51.6316 336.296 51.9831C336.424 52.3346 336.743 52.4304 337.222 52.6541C337.702 52.8778 338.021 52.8778 338.596 52.8778C339.171 52.8778 339.395 52.8778 339.747 52.6541C340.098 52.5263 340.322 52.3026 340.545 52.079C340.673 51.8553 340.769 51.6316 340.769 51.2801C340.769 50.9287 340.769 50.705 340.545 50.6091C340.418 50.3855 340.098 50.2577 339.747 50.034C339.523 50.034 338.948 49.8103 338.149 49.5866C337.35 49.363 336.775 49.2352 336.455 49.0115C336.008 48.7878 335.784 48.5641 335.529 48.2127C335.305 47.8612 335.177 47.5417 335.177 47.0624C335.177 46.5831 335.305 46.1357 335.529 45.8162C335.753 45.4967 336.104 45.1452 336.679 44.8896C337.126 44.6659 337.702 44.5381 338.277 44.5381C338.852 44.5381 339.523 44.5381 339.97 44.8896C340.418 45.1132 340.897 45.4647 341.121 45.8162C341.344 46.2635 341.568 46.7428 341.568 47.1902H340.418C340.418 46.7428 340.194 46.2635 339.842 46.0399C339.491 45.8162 338.916 45.5925 338.373 45.5925C337.829 45.5925 337.126 45.7203 336.775 45.944C336.424 46.1677 336.328 46.5192 336.328 46.8706C336.328 47.2221 336.455 47.4458 336.679 47.6695C336.903 47.8931 337.478 48.1168 338.373 48.3405C339.267 48.5641 339.97 48.7878 340.322 48.9156C340.897 49.1393 341.248 49.4908 341.472 49.8423C341.696 50.1937 341.824 50.6411 341.824 51.0884C341.824 51.5358 341.696 52.0151 341.376 52.4624C341.153 52.9097 340.705 53.1334 340.226 53.4849C339.779 53.7086 339.203 53.8364 338.532 53.8364C337.861 53.8364 337.063 53.7086 336.487 53.4849C335.912 53.2612 335.561 52.9097 335.241 52.4624C334.89 52.0151 334.794 51.4399 334.794 50.8648L334.922 50.9926L334.794 50.9606Z" fill="black"/>
<path d="M346.745 53.8044V45.0493H347.895V52.7819H352.209V53.8044H346.745Z" fill="black"/>
<path d="M352.66 53.8044L356.079 45.0493H357.325L360.968 53.8044H359.594L358.571 51.1843H354.929L353.906 53.8044H352.66ZM355.28 50.1618H358.252L357.325 47.7653C357.102 46.9665 356.878 46.3913 356.75 45.944C356.75 46.5191 356.526 47.0943 356.303 47.6375L355.376 50.2576H355.248V50.1298L355.28 50.1618Z" fill="black"/>
<path d="M363.236 53.8044V46.0718H360.393V45.0493H367.326V46.0718H364.355V53.8044H363.204H363.236Z" fill="black"/>
<path d="M368.7 53.8044V45.0493H369.851V53.8044H368.7Z" fill="black"/>
<path d="M371.896 53.8044V45.0493H373.142L377.807 51.9831V45.0493H378.957V53.8044H377.711L373.046 46.8706V53.8044H371.896Z" fill="black"/>
<path d="M380.428 49.4898C380.428 48.02 380.779 46.8697 381.578 46.0709C382.377 45.272 383.399 44.8247 384.646 44.8247C385.892 44.8247 386.243 45.0484 386.818 45.3999C387.489 45.7513 387.969 46.3265 388.288 46.9975C388.608 47.6685 388.863 48.4673 388.863 49.394C388.863 50.3206 388.64 51.0875 388.288 51.7904C387.937 52.4934 387.362 53.0366 386.818 53.3881C386.147 53.7396 385.444 53.9632 384.646 53.9632C383.847 53.9632 383.048 53.7396 382.377 53.3881C381.706 52.9407 381.227 52.4614 380.907 51.7904C380.588 51.1194 380.46 50.3206 380.46 49.6176V49.4898H380.428ZM381.706 49.5857C381.706 50.6082 381.93 51.5348 382.632 52.078C383.208 52.6532 383.879 53.0046 384.805 53.0046C385.732 53.0046 386.403 52.6532 386.978 52.078C387.553 51.5029 387.777 50.6082 387.777 49.4579C387.777 48.3076 387.649 48.0839 387.425 47.6366C387.202 47.1892 386.85 46.7099 386.403 46.3904C385.956 46.0709 385.38 45.9431 384.805 45.9431C384.23 45.9431 383.335 46.1667 382.632 46.7419C382.057 47.317 381.706 48.2117 381.706 49.5857Z" fill="black"/>
<path d="M389.789 51.183V50.0327H393.08V51.183H389.789Z" fill="black"/>
<path d="M393.527 53.8044L396.946 45.0493H398.192L401.835 53.8044H400.461L399.439 51.1843H395.796L394.774 53.8044H393.527ZM396.052 50.1618H399.023L398.097 47.7653C397.873 46.9665 397.649 46.3913 397.521 45.944C397.521 46.5191 397.298 47.0943 397.074 47.6375L396.147 50.2576H396.02V50.1298L396.052 50.1618Z" fill="black"/>
<path d="M402.63 53.8044V45.0493H404.324L406.369 51.3121C406.593 51.8872 406.72 52.3346 406.816 52.5582C406.816 52.2068 407.04 51.7594 407.264 51.1843L409.436 45.0493H411.034V53.8044H409.884V46.3913L407.391 53.8044H406.369L403.877 46.2955V53.8044H402.63Z" fill="black"/>
<path d="M412.984 53.8047V45.0497H419.374V46.0722H414.134V48.8201H419.023V49.8426H414.134V52.8142H419.598V53.8367H412.984V53.8047ZM415.38 44.4745L416.179 42.781H417.553L416.179 44.4745H415.253H415.38Z" fill="black"/>
<path d="M421.199 53.8044V45.0493H425.065C425.864 45.0493 426.439 45.0493 426.887 45.273C427.334 45.4008 427.558 45.7203 427.909 46.0718C428.261 46.4233 428.261 46.8706 428.261 47.4458C428.261 48.0209 428.037 48.5961 427.685 49.0434C427.238 49.4908 426.663 49.7144 425.864 49.8422C426.216 49.9701 426.439 50.1937 426.535 50.2896C426.887 50.6411 427.206 50.9606 427.558 51.4399L429.027 53.8364H427.558L426.407 52.015C426.056 51.4399 425.832 51.0884 425.608 50.7689C425.385 50.5452 425.161 50.3215 425.033 50.1937C424.81 50.1937 424.682 49.9701 424.458 49.9701H422.413V53.8364H421.167L421.199 53.8044ZM422.349 48.9156H424.842C425.417 48.9156 425.768 48.9156 426.088 48.7878C426.439 48.7878 426.663 48.4363 426.759 48.2127C426.855 47.989 426.982 47.7653 426.982 47.4138C426.982 47.0623 426.855 46.615 426.535 46.3913C426.216 46.1677 425.736 45.944 425.065 45.944H422.221V48.9156H422.349Z" fill="black"/>
<path d="M430.177 53.8044V45.0493H431.328V53.8044H430.177Z" fill="black"/>
<path d="M439.764 50.736L440.914 51.0875C440.691 52.0141 440.243 52.781 439.54 53.2603C438.837 53.7396 438.166 54.0591 437.272 54.0591C436.377 54.0591 435.578 53.8354 435.003 53.4839C434.428 53.1325 433.98 52.5573 433.629 51.7904C433.277 51.1194 433.182 50.3206 433.182 49.394C433.182 48.4673 433.405 47.7005 433.757 46.9975C434.108 46.2945 434.556 45.7513 435.227 45.3999C435.898 45.0484 436.601 44.8247 437.399 44.8247C438.198 44.8247 438.997 45.0484 439.668 45.4957C440.243 45.9431 440.691 46.5182 440.914 47.4448L439.764 47.6685C439.54 46.9975 439.317 46.5182 438.837 46.2945C438.486 45.9431 437.911 45.8472 437.367 45.8472C436.824 45.8472 436.121 45.975 435.674 46.2945C435.227 46.6141 434.875 47.0934 434.747 47.5407C434.524 48.1159 434.524 48.691 434.524 49.2342C434.524 49.7774 434.524 50.6082 434.875 51.1833C435.099 51.7585 435.45 52.2058 435.898 52.4295C436.345 52.6532 436.824 52.8768 437.367 52.8768C437.911 52.8768 438.614 52.6532 439.061 52.3017C439.508 51.9502 439.86 51.375 439.988 50.6082H439.764V50.736Z" fill="black"/>
<path d="M441.361 53.8044L444.78 45.0493H446.026L449.669 53.8044H448.295L447.273 51.1843H443.63L442.607 53.8044H441.361ZM443.981 50.1618H446.953L446.026 47.7653C445.803 46.9665 445.579 46.3913 445.451 45.944C445.451 46.5191 445.228 47.0943 445.004 47.6375L444.077 50.2576H443.95V50.1298L443.981 50.1618Z" fill="black"/>
<path d="M450.784 53.8044V45.0493H451.934V53.8044H450.784Z" fill="black"/>
<path d="M453.979 53.8044V45.0493H455.226L459.891 51.9831V45.0493H461.041V53.8044H459.795L455.13 46.8706V53.8044H453.979Z" fill="black"/>
<path d="M462.862 53.8044V45.0493H469.253V46.0718H464.013V48.8198H468.901V49.8422H464.013V52.8139H469.477V53.8364H462.862V53.8044Z" fill="black"/>
<path d="M470.726 50.9606H471.876C471.876 51.3121 472.1 51.6316 472.227 51.9831C472.355 52.3346 472.675 52.4304 473.154 52.6541C473.633 52.8778 473.953 52.8778 474.528 52.8778C475.103 52.8778 475.327 52.8778 475.678 52.6541C476.03 52.5263 476.253 52.3026 476.477 52.079C476.605 51.8553 476.701 51.6316 476.701 51.2801C476.701 50.9287 476.701 50.705 476.477 50.6091C476.349 50.3855 476.03 50.2577 475.678 50.034C475.455 50.034 474.879 49.8103 474.081 49.5866C473.282 49.363 472.707 49.2352 472.387 49.0115C471.94 48.7878 471.716 48.5641 471.461 48.2127C471.237 47.8612 471.109 47.5417 471.109 47.0624C471.109 46.5831 471.237 46.1357 471.461 45.8162C471.684 45.4967 472.036 45.1452 472.611 44.8896C473.058 44.6659 473.633 44.5381 474.208 44.5381C474.784 44.5381 475.455 44.5381 475.902 44.8896C476.349 45.1132 476.829 45.4647 477.052 45.8162C477.276 46.2635 477.5 46.7428 477.5 47.1902H476.349C476.349 46.7428 476.126 46.2635 475.774 46.0399C475.423 45.8162 474.848 45.5925 474.304 45.5925C473.761 45.5925 473.058 45.7203 472.707 45.944C472.355 46.1677 472.259 46.5192 472.259 46.8706C472.259 47.2221 472.387 47.4458 472.611 47.6695C472.835 47.8931 473.41 48.1168 474.304 48.3405C475.199 48.5641 475.902 48.7878 476.253 48.9156C476.829 49.1393 477.18 49.4908 477.404 49.8423C477.627 50.1937 477.755 50.6411 477.755 51.0884C477.755 51.5358 477.627 52.0151 477.308 52.4624C477.084 52.9097 476.637 53.1334 476.158 53.4849C475.71 53.7086 475.135 53.8364 474.464 53.8364C473.793 53.8364 472.994 53.7086 472.419 53.4849C471.844 53.2612 471.493 52.9097 471.173 52.4624C470.821 52.0151 470.726 51.4399 470.726 50.8648L470.853 50.9926L470.726 50.9606Z" fill="black"/>
<path d="M175.829 79.5277H176.979C176.979 79.8792 177.203 80.1988 177.331 80.5502C177.555 80.7739 177.778 80.9976 178.258 81.2213C178.705 81.4449 179.056 81.4449 179.632 81.4449C180.207 81.4449 180.43 81.4449 180.782 81.2213C181.133 81.2213 181.357 80.8698 181.581 80.6461C181.708 80.4224 181.804 80.1988 181.804 79.8473C181.804 79.4958 181.804 79.2721 181.581 79.1763C181.453 78.9526 181.133 78.8248 180.782 78.6011C180.558 78.6011 179.983 78.3774 179.184 78.1538C178.385 77.9301 177.81 77.8023 177.491 77.5786C177.043 77.355 176.82 77.1313 176.564 76.7798C176.308 76.4283 176.213 76.1088 176.213 75.6295C176.213 75.1502 176.34 74.7029 176.564 74.3833C176.788 74.0638 177.139 73.7123 177.714 73.4567C178.162 73.233 178.737 73.1052 179.312 73.1052C179.887 73.1052 180.558 73.1052 181.005 73.4567C181.453 73.6804 181.932 74.0319 182.156 74.3833C182.379 74.8307 182.603 75.31 182.603 75.7573H181.453C181.453 75.31 181.229 74.8307 180.878 74.607C180.526 74.3833 179.951 74.1597 179.408 74.1597C178.865 74.1597 178.162 74.1597 177.81 74.5111C177.459 74.7348 177.363 75.0863 177.363 75.4378C177.363 75.7893 177.491 76.0129 177.714 76.2366C177.938 76.4603 178.513 76.6839 179.408 76.9076C180.334 77.1313 181.005 77.355 181.357 77.4828C181.932 77.7064 182.284 78.0579 182.507 78.4094C182.731 78.7609 182.859 79.2082 182.859 79.6556C182.859 80.1029 182.731 80.5822 182.411 81.0295C182.092 81.4769 181.74 81.7005 181.261 82.052C180.814 82.2757 180.239 82.4035 179.568 82.4035C178.897 82.4035 178.098 82.4035 177.523 82.052C176.947 81.7005 176.596 81.4769 176.276 81.0295C175.957 80.5822 175.829 80.007 175.829 79.4319L175.957 79.5597L175.829 79.5277Z" fill="black"/>
<path d="M190.655 79.3031L191.805 79.6546C191.581 80.5812 191.134 81.3481 190.431 81.8274C189.76 82.2747 189.057 82.6262 188.162 82.6262C187.268 82.6262 186.469 82.4026 185.894 82.0511C185.319 81.6996 184.871 81.1244 184.52 80.3576C184.168 79.6866 184.073 78.8877 184.073 77.9611C184.073 77.0345 184.296 76.2676 184.648 75.5646C184.999 74.8617 185.446 74.3185 186.117 73.967C186.788 73.6155 187.491 73.3918 188.29 73.3918C189.089 73.3918 189.888 73.6155 190.559 74.0629C191.134 74.5102 191.581 75.0853 191.805 76.012L190.655 76.2357C190.431 75.5646 190.207 75.0853 189.728 74.8617C189.377 74.5102 188.801 74.4143 188.258 74.4143C187.715 74.4143 187.012 74.4143 186.565 74.8617C186.117 75.2132 185.766 75.6605 185.638 76.1078C185.414 76.683 185.414 77.2581 185.414 77.8013C185.414 78.3445 185.414 79.1753 185.766 79.7505C185.99 80.3256 186.341 80.773 186.788 80.9966C187.236 81.2203 187.715 81.444 188.258 81.444C188.801 81.444 189.504 81.2203 189.952 80.8688C190.399 80.5173 190.751 79.9422 190.878 79.1753H190.655V79.3031Z" fill="black"/>
<path d="M193.371 82.3718V73.6167H194.521V77.2593H199.091V73.6167H200.241V82.3718H199.091V78.2818H194.521V82.3718H193.371Z" fill="black"/>
<path d="M203.725 82.3718L201.328 73.6167H202.574L203.948 79.4321C204.076 80.0073 204.172 80.6783 204.3 81.2534C204.523 80.3268 204.651 79.7836 204.651 79.6558L206.345 73.7445H207.719L208.965 78.186C209.316 79.3363 209.54 80.3588 209.636 81.2534C209.636 80.6783 209.86 80.0073 210.083 79.3043L211.457 73.6167H212.608L210.211 82.3718H209.061L207.239 75.6617C207.112 75.0865 207.016 74.735 207.016 74.6392C207.016 75.0865 206.792 75.438 206.792 75.6617L204.971 82.3718H203.725Z" fill="black"/>
<path d="M213.854 82.3718V73.6167H220.244V74.6392H215.004V77.3871H219.893V78.4096H215.004V81.3812H220.468V82.4037H213.854V82.3718Z" fill="black"/>
<path d="M222.197 82.3718V73.6167H223.348V82.3718H222.197Z" fill="black"/>
<path d="M224.688 82.3719V81.2216L229.257 75.534C229.609 75.0867 229.832 74.7352 230.184 74.5115H225.295V73.489H231.558V74.5115L226.669 80.6465L226.094 81.2216H231.686V82.2441H224.752V82.3719H224.688Z" fill="black"/>
<path d="M232.994 82.3718V73.6167H239.385V74.6392H234.144V77.3871H239.033V78.4096H234.144V81.3812H239.608V82.4037H232.994V82.3718Z" fill="black"/>
<path d="M241.208 82.3718V73.6167H245.074C245.873 73.6167 246.448 73.6167 246.895 73.8404C247.343 73.8404 247.566 74.2877 247.918 74.6392C248.142 75.0865 248.269 75.438 248.269 76.0132C248.269 76.5883 248.046 77.1635 247.694 77.6108C247.247 78.0581 246.672 78.2818 245.873 78.4096C246.224 78.4096 246.448 78.7611 246.544 78.857C246.895 79.2085 247.215 79.528 247.566 80.0073L249.037 82.4037H247.566L246.416 80.5824C246.065 80.0073 245.841 79.6558 245.618 79.3363C245.394 79.1126 245.17 78.8889 245.042 78.7611C244.819 78.7611 244.691 78.5374 244.467 78.5374H242.422V82.4037H241.176L241.208 82.3718ZM242.326 77.483H246.097C246.448 77.483 246.672 77.1315 246.768 76.9078C246.863 76.6842 246.992 76.4605 246.992 76.109C246.992 75.7575 246.863 75.3102 246.544 75.0865C246.192 74.8629 245.745 74.6392 245.074 74.6392H242.326V77.6108V77.483Z" fill="black"/>
<path d="M250.312 82.3718V73.6167H251.463V82.3718H250.312Z" fill="black"/>
<path d="M253.027 79.5277H254.177C254.177 79.8792 254.401 80.1988 254.529 80.5502C254.752 80.7739 254.976 80.9976 255.455 81.2213C255.903 81.4449 256.254 81.4449 256.829 81.4449C257.404 81.4449 257.628 81.4449 257.98 81.2213C258.331 81.2213 258.555 80.8698 258.778 80.6461C258.906 80.4224 259.002 80.1988 259.002 79.8473C259.002 79.4958 259.002 79.2721 258.778 79.1763C258.651 78.9526 258.331 78.8248 257.98 78.6011C257.756 78.6011 257.181 78.3774 256.382 78.1538C255.583 77.9301 255.008 77.8023 254.688 77.5786C254.241 77.355 254.017 77.1313 253.762 76.7798C253.506 76.4283 253.41 76.1088 253.41 75.6295C253.41 75.1502 253.538 74.7029 253.762 74.3833C253.985 74.0638 254.337 73.7123 254.912 73.4567C255.359 73.233 255.935 73.1052 256.51 73.1052C257.085 73.1052 257.756 73.1052 258.203 73.4567C258.651 73.6804 259.13 74.0319 259.354 74.3833C259.577 74.8307 259.801 75.31 259.801 75.7573H258.651C258.651 75.31 258.427 74.8307 258.075 74.607C257.724 74.3833 257.149 74.1597 256.606 74.1597C256.062 74.1597 255.359 74.1597 255.008 74.5111C254.656 74.7348 254.561 75.0863 254.561 75.4378C254.561 75.7893 254.688 76.0129 254.912 76.2366C255.136 76.4603 255.711 76.6839 256.606 76.9076C257.532 77.1313 258.203 77.355 258.555 77.4828C259.13 77.7064 259.481 78.0579 259.705 78.4094C259.929 78.7609 260.057 79.2082 260.057 79.6556C260.057 80.1029 259.929 80.5822 259.609 81.0295C259.29 81.4769 258.938 81.7005 258.459 82.052C258.012 82.2757 257.436 82.4035 256.765 82.4035C256.094 82.4035 255.296 82.4035 254.72 82.052C254.145 81.7005 253.794 81.4769 253.474 81.0295C253.155 80.5822 253.027 80.007 253.027 79.4319L253.155 79.5597L253.027 79.5277Z" fill="black"/>
<path d="M267.953 79.3031L269.103 79.6546C268.88 80.5812 268.432 81.3481 267.729 81.8274C267.058 82.2747 266.355 82.6262 265.461 82.6262C264.566 82.6262 263.767 82.4026 263.192 82.0511C262.617 81.6996 262.169 81.1244 261.818 80.3576C261.466 79.6866 261.371 78.8877 261.371 77.9611C261.371 77.0345 261.594 76.2676 261.945 75.5646C262.297 74.8617 262.745 74.3185 263.416 73.967C264.087 73.6155 264.79 73.3918 265.588 73.3918C266.387 73.3918 267.186 73.6155 267.857 74.0629C268.432 74.5102 268.88 75.0853 269.103 76.012L267.953 76.2357C267.729 75.5646 267.505 75.0853 267.026 74.8617C266.674 74.5102 266.1 74.4143 265.556 74.4143C265.013 74.4143 264.31 74.4143 263.863 74.8617C263.416 75.2132 263.064 75.6605 262.936 76.1078C262.713 76.683 262.713 77.2581 262.713 77.8013C262.713 78.3445 262.713 79.1753 263.064 79.7505C263.288 80.3256 263.639 80.773 264.087 80.9966C264.534 81.2203 265.013 81.444 265.556 81.444C266.1 81.444 266.803 81.2203 267.25 80.8688C267.697 80.5173 268.048 79.9422 268.176 79.1753H267.953V79.3031Z" fill="black"/>
<path d="M270.57 82.3718V73.6167H271.72V77.2593H276.289V73.6167H277.44V82.3718H276.289V78.2818H271.72V82.3718H270.57Z" fill="black"/>
<path d="M279.457 82.3718V73.6167H285.847V74.6392H280.607V77.3871H285.496V78.4096H280.607V81.3812H286.071V82.4037H279.457V82.3718Z" fill="black"/>
<path d="M295.269 78.8559V77.8334H299.039V81.1246C298.464 81.5719 297.889 81.9234 297.218 82.1471C296.643 82.3707 295.972 82.4985 295.396 82.4985C294.821 82.4985 293.703 82.2749 293 81.9234C292.297 81.5719 291.754 80.9968 291.402 80.3257C291.051 79.6547 290.827 78.8559 290.827 77.9293C290.827 77.0026 291.051 76.2358 291.402 75.5328C291.754 74.8299 292.329 74.2867 293 73.8393C293.671 73.4878 294.47 73.2642 295.269 73.2642C296.067 73.2642 296.515 73.2642 296.962 73.6156C297.409 73.9671 297.889 74.063 298.208 74.5423C298.56 74.8938 298.783 75.3411 298.879 76.0121L297.857 76.3636C297.729 75.9162 297.505 75.5648 297.409 75.3411C297.186 75.1174 296.962 74.8938 296.611 74.7659C296.259 74.6381 295.812 74.5423 295.364 74.5423C294.917 74.5423 294.342 74.5423 293.99 74.7659C293.639 74.9896 293.319 75.1174 293.064 75.437C292.84 75.6606 292.617 76.0121 292.489 76.3636C292.265 76.9387 292.137 77.5139 292.137 78.1849C292.137 78.8559 292.265 79.6547 292.585 80.134C292.808 80.7092 293.256 81.0607 293.735 81.2843C294.214 81.508 294.757 81.6358 295.333 81.6358C295.908 81.6358 296.355 81.6358 296.802 81.2843C297.25 81.0607 297.601 80.837 297.953 80.7092V79.1115H295.333V78.8879H295.205L295.269 78.8559Z" fill="black"/>
<path d="M300.738 82.3718V73.6167H307.128V74.6392H301.888V77.3871H306.777V78.4096H301.888V81.3812H307.352V82.4037H300.738V82.3718Z" fill="black"/>
<path d="M308.471 79.5277H309.621C309.621 79.8792 309.845 80.1988 309.972 80.5502C310.1 80.9017 310.42 80.9976 310.899 81.2213C311.346 81.4449 311.698 81.4449 312.273 81.4449C312.848 81.4449 313.072 81.4449 313.423 81.2213C313.775 81.2213 313.999 80.8698 314.222 80.6461C314.35 80.4224 314.446 80.1988 314.446 79.8473C314.446 79.4958 314.446 79.2721 314.222 79.1763C314.094 78.9526 313.775 78.8248 313.423 78.6011C313.2 78.6011 312.625 78.3774 311.826 78.1538C311.027 77.9301 310.452 77.8023 310.132 77.5786C309.685 77.355 309.461 77.1313 309.206 76.7798C308.95 76.4283 308.854 76.1088 308.854 75.6295C308.854 75.1502 308.982 74.7029 309.206 74.3833C309.429 74.0638 309.781 73.7123 310.356 73.4567C310.803 73.233 311.378 73.1052 311.954 73.1052C312.529 73.1052 313.2 73.1052 313.647 73.4567C314.094 73.6804 314.574 74.0319 314.797 74.3833C315.021 74.8307 315.245 75.31 315.245 75.7573H314.094C314.094 75.31 313.871 74.8307 313.519 74.607C313.168 74.3833 312.593 74.1597 312.049 74.1597C311.506 74.1597 310.803 74.1597 310.452 74.5111C310.1 74.7348 310.004 75.0863 310.004 75.4378C310.004 75.7893 310.132 76.0129 310.356 76.2366C310.58 76.4603 311.155 76.6839 312.049 76.9076C312.976 77.1313 313.647 77.355 313.999 77.4828C314.574 77.7064 314.925 78.0579 315.149 78.4094C315.373 78.7609 315.5 79.2082 315.5 79.6556C315.5 80.1029 315.373 80.5822 315.053 81.0295C314.829 81.4769 314.382 81.7005 313.903 82.052C313.455 82.2757 312.88 82.4035 312.209 82.4035C311.538 82.4035 310.739 82.4035 310.164 82.052C309.589 81.7005 309.238 81.4769 308.918 81.0295C308.599 80.5822 308.471 80.007 308.471 79.4319L308.599 79.5597L308.471 79.5277Z" fill="black"/>
<path d="M317.126 82.3718V73.6167H323.517V74.6392H318.277V77.3871H323.166V78.4096H318.277V81.3812H323.741V82.4037H317.126V82.3718Z" fill="black"/>
<path d="M325.208 82.3718V73.6167H326.358V81.3493H330.672V82.3718H325.208Z" fill="black"/>
<path d="M332.179 82.3718V73.6167H333.33V81.3493H337.643V82.3718H332.179Z" fill="black"/>
<path d="M338.663 79.5277H339.813C339.813 79.8792 340.037 80.1988 340.165 80.5502C340.293 80.9017 340.612 80.9976 341.091 81.2213C341.539 81.4449 341.89 81.4449 342.465 81.4449C343.041 81.4449 343.264 81.4449 343.616 81.2213C343.967 81.2213 344.191 80.8698 344.415 80.6461C344.542 80.4224 344.638 80.1988 344.638 79.8473C344.638 79.4958 344.638 79.2721 344.415 79.1763C344.287 78.9526 343.967 78.8248 343.616 78.6011C343.392 78.6011 342.817 78.3774 342.018 78.1538C341.219 77.9301 340.644 77.8023 340.325 77.5786C339.877 77.355 339.654 77.1313 339.398 76.7798C339.174 76.4283 339.047 76.1088 339.047 75.6295C339.047 75.1502 339.174 74.7029 339.398 74.3833C339.622 74.0638 339.973 73.7123 340.548 73.4567C340.996 73.233 341.571 73.1052 342.146 73.1052C342.721 73.1052 343.392 73.1052 343.839 73.4567C344.287 73.6804 344.766 74.0319 344.99 74.3833C345.213 74.8307 345.437 75.31 345.437 75.7573H344.287C344.287 75.31 344.063 74.8307 343.712 74.607C343.36 74.3833 342.785 74.1597 342.242 74.1597C341.699 74.1597 340.996 74.1597 340.644 74.5111C340.293 74.8626 340.197 75.0863 340.197 75.4378C340.197 75.7893 340.325 76.0129 340.548 76.2366C340.772 76.4603 341.347 76.6839 342.242 76.9076C343.168 77.1313 343.839 77.355 344.191 77.4828C344.766 77.7064 345.118 78.0579 345.341 78.4094C345.565 78.7609 345.693 79.2082 345.693 79.6556C345.693 80.1029 345.565 80.5822 345.245 81.0295C345.022 81.4769 344.574 81.7005 344.095 82.052C343.648 82.2757 343.073 82.4035 342.402 82.4035C341.731 82.4035 340.932 82.4035 340.357 82.052C339.781 81.7005 339.43 81.4769 339.11 81.0295C338.759 80.5822 338.663 80.007 338.663 79.4319L338.791 79.5597L338.663 79.5277Z" fill="black"/>
<path d="M353.459 79.3031L354.609 79.6546C354.385 80.5812 353.938 81.3481 353.235 81.8274C352.532 82.3067 351.861 82.6262 350.966 82.6262C350.072 82.6262 349.272 82.4026 348.697 82.0511C348.122 81.6996 347.675 81.1244 347.323 80.3576C346.972 79.6866 346.876 78.8877 346.876 77.9611C346.876 77.0345 347.1 76.2676 347.451 75.5646C347.803 74.8617 348.25 74.3185 348.921 73.967C349.592 73.6155 350.295 73.3918 351.094 73.3918C351.893 73.3918 352.692 73.6155 353.363 74.0629C353.938 74.5102 354.385 75.0853 354.609 76.012L353.459 76.2357C353.235 75.5646 353.011 75.0853 352.532 74.8617C352.18 74.5102 351.605 74.4143 351.062 74.4143C350.519 74.4143 349.816 74.4143 349.368 74.8617C348.921 75.309 348.569 75.6605 348.442 76.1078C348.218 76.683 348.218 77.2581 348.218 77.8013C348.218 78.3445 348.218 79.1753 348.569 79.7505C348.793 80.3256 349.145 80.773 349.592 80.9966C350.04 81.2203 350.519 81.444 351.062 81.444C351.605 81.444 352.308 81.2203 352.756 80.8688C353.203 80.5173 353.554 79.9422 353.682 79.1753H353.459V79.3031Z" fill="black"/>
<path d="M356.174 82.3718V73.6167H357.325V77.2593H361.894V73.6167H363.044V82.3718H361.894V78.2818H357.325V82.3718H356.174Z" fill="black"/>
<path d="M364.032 82.3718L367.451 73.6167H368.697L372.339 82.3718H370.966L369.943 79.7516H366.3L365.278 82.3718H364.032ZM366.556 78.7292H369.528L368.601 76.3327C368.377 75.5339 368.154 74.9587 368.026 74.5114C368.026 75.0865 367.802 75.6617 367.579 76.2049L366.652 78.825H366.524V78.6972L366.556 78.7292Z" fill="black"/>
<path d="M373.27 82.3718V73.6167H379.181V74.6392H374.388V77.3871H378.478V78.4096H374.388V82.4037H373.238L373.27 82.3718Z" fill="black"/>
<path d="M382.952 82.3718V74.6392H380.108V73.6167H387.042V74.6392H384.07V82.3718H382.92H382.952Z" fill="black"/>
<path d="M391.48 82.3718V73.6167H397.391V74.6392H392.598V77.3871H396.688V78.4096H392.598V82.4037H391.448L391.48 82.3718Z" fill="black"/>
<path d="M404.804 73.4877H405.954V78.6002C405.954 79.5268 405.954 80.1978 405.603 80.7729C405.379 81.3481 405.028 81.6996 404.453 82.0191C403.877 82.3386 403.206 82.4664 402.408 82.4664C401.609 82.4664 400.938 82.4664 400.363 82.0191C399.787 81.7954 399.436 81.3481 399.212 80.7729C398.989 80.1978 398.861 79.5268 398.861 78.6002V73.4877H400.011V78.6002C400.011 79.399 400.011 79.9741 400.235 80.2937C400.458 80.6132 400.586 80.9647 400.906 81.0925C401.257 81.3161 401.705 81.444 402.152 81.444C403.079 81.444 403.622 81.2203 403.973 80.8688C404.325 80.5173 404.548 79.7185 404.548 78.6002V73.4877H404.772H404.804ZM400.714 73.0404V71.7942H401.864V73.0404H400.714ZM402.983 73.0404V71.7942H404.133V73.0404H402.983Z" fill="black"/>
<path d="M407.874 82.3718V73.6167H411.741C412.539 73.6167 413.115 73.6167 413.562 73.8404C414.009 73.8404 414.233 74.2877 414.584 74.6392C414.936 74.9907 414.936 75.438 414.936 76.0132C414.936 76.5883 414.712 77.1635 414.361 77.6108C413.913 78.0581 413.338 78.2818 412.539 78.4096C412.891 78.4096 413.115 78.7611 413.21 78.857C413.562 79.2085 413.881 79.528 414.233 80.0073L415.703 82.4037H414.233L413.083 80.5824C412.731 80.0073 412.507 79.6558 412.284 79.3363C412.06 79.1126 411.836 78.8889 411.709 78.7611C411.485 78.7611 411.357 78.5374 411.133 78.5374H409.088V82.4037H407.842L407.874 82.3718ZM409.025 77.483H412.795C413.146 77.483 413.37 77.1315 413.466 76.9078C413.562 76.6842 413.69 76.4605 413.69 76.109C413.69 75.7575 413.562 75.3102 413.242 75.0865C412.923 74.8629 412.444 74.6392 411.773 74.6392H408.929V77.6108L409.056 77.483H409.025Z" fill="black"/>
<path d="M420.173 82.3718V73.6167H421.324V81.3493H425.637V82.3718H420.173Z" fill="black"/>
<path d="M426.084 82.3718L429.503 73.6167H430.749L434.392 82.3718H433.018L431.995 79.7516H428.353L427.33 82.3718H426.084ZM428.608 78.7292H431.58L430.653 76.3327C430.43 75.5339 430.206 74.9587 430.078 74.5114C430.078 75.0865 429.854 75.6617 429.631 76.2049L428.704 78.825H428.576V78.6972L428.608 78.7292Z" fill="black"/>
<path d="M436.568 82.3718V74.6392H433.725V73.6167H440.658V74.6392H437.687V82.3718H436.536H436.568Z" fill="black"/>
<path d="M441.805 82.3718V73.6167H448.196V74.6392H442.955V77.3871H447.844V78.4096H442.955V81.3812H448.419V82.4037H441.805V82.3718Z" fill="black"/>
<path d="M450.244 82.3718V73.6167H451.394V82.3718H450.244Z" fill="black"/>
<path d="M453.407 82.3718V73.6167H454.653L459.318 80.5505V73.6167H460.468V82.3718H459.222L454.557 75.438V82.3718H453.407Z" fill="black"/>
<path d="M461.396 82.3718L464.814 73.6167H466.061L469.703 82.3718H468.329L467.307 79.7516H463.664L462.642 82.3718H461.396ZM463.888 78.7292H466.859L465.933 76.3327C465.709 75.5339 465.485 74.9587 465.358 74.5114C465.358 75.0865 465.134 75.6617 464.91 76.2049L463.984 78.825H463.856V78.6972L463.888 78.7292Z" fill="black"/>
<path d="M470.499 82.3718V73.6167H472.193L474.238 79.8795C474.461 80.4546 474.589 80.902 474.685 81.1256C474.685 80.7741 474.909 80.3268 475.132 79.7516L477.305 73.6167H478.903V82.3718H477.752V74.9587L475.26 82.3718H474.238L471.745 74.8629V82.3718H470.499Z" fill="black"/>
<path d="M480.854 82.3718V73.6167H487.245V74.6392H482.005V77.3871H486.894V78.4096H482.005V81.3812H487.469V82.4037H480.854V82.3718Z" fill="black"/>
<path d="M489.067 82.3718V73.6167H492.933C493.732 73.6167 494.307 73.6167 494.755 73.8404C495.202 73.8404 495.426 74.2877 495.777 74.6392C496.129 74.9907 496.129 75.438 496.129 76.0132C496.129 76.5883 495.905 77.1635 495.554 77.6108C495.106 78.0581 494.531 78.2818 493.732 78.4096C494.084 78.4096 494.307 78.7611 494.403 78.857C494.755 79.2085 495.074 79.528 495.426 80.0073L496.896 82.4037H495.426L494.275 80.5824C493.924 80.0073 493.7 79.6558 493.477 79.3363C493.253 79.1126 493.029 78.8889 492.901 78.7611C492.678 78.7611 492.55 78.5374 492.326 78.5374H490.281V82.4037H489.035L489.067 82.3718ZM490.185 77.483H493.956C494.307 77.483 494.531 77.1315 494.627 76.9078C494.723 76.6842 494.851 76.4605 494.851 76.109C494.851 75.7575 494.723 75.3102 494.403 75.0865C494.084 74.8629 493.604 74.6392 492.933 74.6392H490.09V77.6108L490.217 77.483H490.185Z" fill="black"/>
<path d="M498.173 82.3718V73.6167H499.324V82.3718H498.173Z" fill="black"/>
<path d="M501.333 82.3718V73.6167H502.484V77.9303L506.797 73.6167H508.395L504.752 77.1315L508.619 82.3718H507.021L503.826 77.9303L502.356 79.3043V82.3718H501.206H501.333Z" fill="black"/>
<path d="M508.619 82.3718L512.038 73.6167H513.284L516.926 82.3718H515.552L514.53 79.7516H510.887L509.865 82.3718H508.619ZM511.143 78.7292H514.115L513.188 76.3327C512.964 75.5339 512.741 74.9587 512.613 74.5114C512.613 75.0865 512.389 75.6617 512.165 76.2049L511.239 78.825H511.111V78.6972L511.143 78.7292Z" fill="black"/>
<path d="M517.406 79.5277H518.556C518.556 79.8792 518.78 80.1988 518.908 80.5502C519.035 80.9017 519.355 80.9976 519.834 81.2213C520.282 81.4449 520.633 81.4449 521.208 81.4449C521.783 81.4449 522.007 81.4449 522.358 81.2213C522.71 81.2213 522.934 80.8698 523.157 80.6461C523.285 80.4224 523.381 80.1988 523.381 79.8473C523.381 79.4958 523.381 79.2721 523.157 79.1763C523.029 78.9526 522.71 78.8248 522.358 78.6011C522.135 78.6011 521.56 78.3774 520.761 78.1538C519.962 77.9301 519.387 77.8023 519.067 77.5786C518.62 77.355 518.396 77.1313 518.141 76.7798C517.917 76.4283 517.789 76.1088 517.789 75.6295C517.789 75.1502 517.917 74.7029 518.141 74.3833C518.364 74.0638 518.716 73.7123 519.291 73.4567C519.738 73.233 520.313 73.1052 520.889 73.1052C521.464 73.1052 522.135 73.1052 522.582 73.4567C523.029 73.6804 523.509 74.0319 523.732 74.3833C523.956 74.8307 524.18 75.31 524.18 75.7573H523.029C523.029 75.31 522.806 74.8307 522.454 74.607C522.103 74.3833 521.528 74.1597 520.984 74.1597C520.441 74.1597 519.738 74.1597 519.387 74.5111C519.035 74.8626 518.939 75.0863 518.939 75.4378C518.939 75.7893 519.067 76.0129 519.291 76.2366C519.515 76.4603 520.09 76.6839 520.984 76.9076C521.911 77.1313 522.582 77.355 522.934 77.4828C523.509 77.7064 523.86 78.0579 524.084 78.4094C524.308 78.7609 524.435 79.2082 524.435 79.6556C524.435 80.1029 524.308 80.5822 523.988 81.0295C523.764 81.4769 523.317 81.7005 522.838 82.052C522.39 82.2757 521.815 82.4035 521.144 82.4035C520.473 82.4035 519.674 82.4035 519.099 82.052C518.524 81.7005 518.173 81.4769 517.853 81.0295C517.502 80.5822 517.406 80.007 517.406 79.4319L517.534 79.5597L517.406 79.5277Z" fill="black"/>
<path d="M528.206 82.3718V74.6392H525.362V73.6167H532.296V74.6392H529.324V82.3718H528.174H528.206Z" fill="black"/>
<path d="M539.265 73.489H540.415V78.6015C540.415 79.5281 540.415 80.1991 540.063 80.7743C539.84 81.3494 539.488 81.7009 538.913 82.0204C538.338 82.34 537.667 82.4678 536.868 82.4678C536.069 82.4678 535.398 82.4678 534.823 82.0204C534.248 81.7968 533.896 81.3494 533.673 80.7743C533.449 80.1991 533.321 79.5281 533.321 78.6015V73.489H534.472V78.6015C534.472 79.4003 534.472 79.9754 534.695 80.295C534.919 80.6145 535.047 80.966 535.366 81.0938C535.718 81.3175 536.165 81.4453 536.612 81.4453C537.539 81.4453 538.082 81.2216 538.434 80.8701C538.785 80.5186 539.009 79.7198 539.009 78.6015V73.489H539.233H539.265Z" fill="black"/>
<path d="M542.332 82.3718V73.6167H546.997C547.445 73.6167 547.924 73.9682 548.243 74.2877C548.691 74.6392 549.042 75.2143 549.266 75.7575C549.489 76.3327 549.617 77.1315 549.617 77.8025C549.617 78.4735 549.617 79.0487 549.394 79.6238C549.266 80.199 549.042 80.5505 548.818 80.87C548.595 81.1895 548.371 81.4451 548.02 81.6688C547.668 81.8925 547.349 82.0203 546.997 82.1162H542.332V82.3398V82.3718ZM543.578 81.3493H546.869C547.221 81.3493 547.444 81.1256 547.668 80.902C547.892 80.6783 548.116 80.2309 548.339 79.7516C548.467 79.3043 548.563 78.7292 548.563 78.0581C548.563 77.3871 548.435 76.4605 548.115 75.8854C547.796 75.3102 547.444 75.0865 546.965 74.8629C546.614 74.8629 546.166 74.6392 545.495 74.6392H543.674V81.3493H543.546H543.578Z" fill="black"/>
<path d="M551.435 82.3718V73.6167H552.585V82.3718H551.435Z" fill="black"/>
<path d="M554.762 82.3718V73.6167H561.152V74.6392H555.912V77.3871H560.801V78.4096H555.912V81.3812H561.376V82.4037H554.762V82.3718Z" fill="black"/>
<path d="M562.938 82.3718V73.6167H564.185L568.85 80.5505V73.6167H570V82.3718H568.754L564.089 75.438V82.3718H562.938Z" fill="black"/>
<path d="M175.829 108.126H176.979C176.979 108.478 177.203 108.797 177.331 109.149C177.555 109.372 177.778 109.596 178.258 109.82C178.705 110.043 179.056 110.043 179.632 110.043C180.207 110.043 180.43 110.043 180.782 109.82C181.133 109.82 181.357 109.468 181.581 109.244C181.708 109.021 181.804 108.797 181.804 108.446C181.804 108.094 181.804 107.871 181.581 107.775C181.453 107.551 181.133 107.423 180.782 107.2C180.558 107.2 179.983 106.976 179.184 106.752C178.385 106.528 177.81 106.401 177.491 106.177C177.043 105.953 176.82 105.73 176.564 105.378C176.34 105.027 176.213 104.707 176.213 104.228C176.213 103.749 176.34 103.301 176.564 102.982C176.788 102.63 177.139 102.311 177.714 102.055C178.162 101.831 178.737 101.704 179.312 101.704C179.887 101.704 180.558 101.704 181.005 102.055C181.453 102.279 181.932 102.63 182.156 102.982C182.379 103.429 182.603 103.908 182.603 104.356H181.453C181.453 103.908 181.229 103.429 180.878 103.205C180.526 102.982 179.951 102.758 179.408 102.758C178.865 102.758 178.162 102.758 177.81 103.11C177.459 103.333 177.363 103.685 177.363 104.036C177.363 104.388 177.491 104.611 177.714 104.835C177.938 105.059 178.513 105.282 179.408 105.506C180.303 105.73 181.005 105.953 181.357 106.081C181.932 106.305 182.284 106.656 182.507 107.008C182.731 107.359 182.859 107.807 182.859 108.254C182.859 108.701 182.731 109.181 182.411 109.628C182.092 110.075 181.74 110.299 181.261 110.555C180.814 110.778 180.239 110.906 179.568 110.906C178.897 110.906 178.098 110.906 177.523 110.555C176.947 110.331 176.596 109.979 176.276 109.532C175.957 109.085 175.829 108.51 175.829 107.934V108.158H175.957L175.829 108.126Z" fill="black"/>
<path d="M184.041 106.621C184.041 105.152 184.392 104.001 185.191 103.202C185.99 102.404 187.013 101.956 188.259 101.956C189.505 101.956 189.856 102.18 190.432 102.531C191.103 102.883 191.582 103.458 191.901 104.129C192.221 104.8 192.477 105.599 192.477 106.526C192.477 107.452 192.253 108.219 191.901 108.922C191.55 109.625 190.975 110.168 190.432 110.52C189.761 110.871 189.058 111.095 188.259 111.095C187.46 111.095 186.661 110.871 185.99 110.52C185.319 110.072 184.84 109.593 184.52 108.922C184.201 108.251 184.073 107.452 184.073 106.749V106.621H184.041ZM185.287 106.621C185.287 107.644 185.639 108.571 186.214 109.114C186.789 109.657 187.46 110.04 188.387 110.04C189.313 110.04 189.984 109.689 190.559 109.114C191.135 108.539 191.358 107.644 191.358 106.494C191.358 105.343 191.23 105.12 191.007 104.672C190.783 104.225 190.432 103.746 189.984 103.426C189.537 103.075 188.962 102.979 188.387 102.979C187.811 102.979 186.917 103.202 186.214 103.778C185.639 104.353 185.287 105.247 185.287 106.621Z" fill="black"/>
<path d="M200.309 107.774L201.46 108.125C201.236 109.052 200.789 109.819 200.086 110.298C199.415 110.745 198.712 111.097 197.817 111.097C196.922 111.097 196.124 110.873 195.548 110.522C194.973 110.17 194.526 109.595 194.174 108.828C193.823 108.157 193.727 107.358 193.727 106.432C193.727 105.505 193.951 104.738 194.302 104.035C194.654 103.332 195.101 102.789 195.772 102.437C196.443 102.086 197.146 101.862 197.945 101.862C198.744 101.862 199.542 102.086 200.213 102.533C200.789 102.981 201.236 103.556 201.46 104.482L200.309 104.706C200.086 104.035 199.862 103.556 199.383 103.332C199.031 102.981 198.456 102.885 197.913 102.885C197.37 102.885 196.667 102.885 196.219 103.332C195.772 103.779 195.421 104.131 195.293 104.578C195.069 105.153 195.069 105.729 195.069 106.272C195.069 106.815 195.069 107.646 195.421 108.221C195.644 108.796 195.996 109.243 196.443 109.467C196.89 109.691 197.37 109.914 197.913 109.914C198.456 109.914 199.159 109.691 199.606 109.339C200.054 108.988 200.405 108.413 200.533 107.646H200.309V107.774Z" fill="black"/>
<path d="M203.057 110.839V102.084H204.207V110.839H203.057Z" fill="black"/>
<path d="M206.346 110.839V102.084H212.737V103.107H207.496V105.855H212.385V106.877H207.496V109.849H212.96V110.871H206.346V110.839Z" fill="black"/>
<path d="M214.559 110.839V102.084H219.224C219.672 102.084 220.151 102.436 220.47 102.755C220.918 103.107 221.269 103.682 221.493 104.225C221.717 104.768 221.844 105.599 221.844 106.27C221.844 106.941 221.844 107.516 221.621 108.091C221.397 108.667 221.269 109.018 221.046 109.338C220.822 109.689 220.598 109.913 220.247 110.136C219.895 110.36 219.576 110.488 219.224 110.584C218.873 110.68 218.298 110.584 217.85 110.584H214.559V110.807V110.839ZM215.677 109.817H218.969C219.32 109.817 219.544 109.593 219.767 109.369C219.991 109.146 220.215 108.698 220.438 108.219C220.566 107.772 220.662 107.197 220.662 106.526C220.662 105.855 220.534 104.928 220.215 104.353C219.863 103.906 219.544 103.554 219.064 103.33C218.713 103.33 218.266 103.107 217.595 103.107H215.773V109.817H215.645H215.677Z" fill="black"/>
<path d="M222.417 110.839L225.835 102.084H227.081L230.724 110.839H229.35L228.327 108.219H224.685L223.662 110.839H222.417ZM225.036 107.324H228.008L227.081 104.928C226.858 104.129 226.634 103.554 226.506 103.107C226.506 103.682 226.282 104.257 226.059 104.8L225.036 107.42V107.293V107.324Z" fill="black"/>
<path d="M231.621 110.839V102.084H236.286C236.734 102.084 237.213 102.436 237.532 102.755C237.98 103.107 238.331 103.682 238.555 104.225C238.779 104.768 238.906 105.599 238.906 106.27C238.906 106.941 238.906 107.516 238.683 108.091C238.459 108.667 238.331 109.018 238.108 109.338C237.884 109.689 237.66 109.913 237.309 110.136C236.957 110.36 236.638 110.488 236.286 110.584C235.935 110.68 235.36 110.584 234.912 110.584H231.621V110.807V110.839ZM232.771 109.817H236.063C236.414 109.817 236.638 109.593 236.861 109.369C237.085 109.146 237.309 108.698 237.532 108.219C237.66 107.772 237.756 107.197 237.756 106.526C237.756 105.855 237.628 104.928 237.309 104.353C236.957 103.906 236.638 103.554 236.158 103.33C235.807 103.33 235.36 103.107 234.689 103.107H232.867V109.817H232.739H232.771Z" fill="black"/>
<path d="M243.478 108.126H244.628C244.628 108.478 244.852 108.797 244.98 109.149C245.203 109.372 245.427 109.596 245.906 109.82C246.354 110.043 246.705 110.043 247.28 110.043C247.856 110.043 248.079 110.043 248.431 109.82C248.782 109.82 249.006 109.468 249.23 109.244C249.357 109.021 249.453 108.797 249.453 108.446C249.453 108.094 249.453 107.871 249.23 107.775C249.102 107.551 248.782 107.423 248.431 107.2C248.207 107.2 247.632 106.976 246.833 106.752C246.034 106.528 245.459 106.401 245.14 106.177C244.693 105.953 244.469 105.73 244.213 105.378C243.99 105.027 243.861 104.707 243.861 104.228C243.861 103.749 243.99 103.301 244.213 102.982C244.437 102.63 244.788 102.311 245.364 102.055C245.811 101.831 246.386 101.704 246.961 101.704C247.536 101.704 248.207 101.704 248.654 102.055C249.102 102.279 249.581 102.63 249.805 102.982C250.029 103.429 250.252 103.908 250.252 104.356H249.102C249.102 103.908 248.878 103.429 248.527 103.205C248.175 102.982 247.6 102.758 247.057 102.758C246.514 102.758 245.811 102.758 245.459 103.11C245.108 103.333 245.012 103.685 245.012 104.036C245.012 104.388 245.14 104.611 245.364 104.835C245.587 105.059 246.162 105.282 247.057 105.506C247.951 105.73 248.655 105.953 249.006 106.081C249.581 106.305 249.933 106.656 250.156 107.008C250.38 107.359 250.508 107.807 250.508 108.254C250.508 108.701 250.38 109.181 250.061 109.628C249.741 110.075 249.39 110.299 248.91 110.555C248.463 110.778 247.888 110.906 247.217 110.906C246.546 110.906 245.747 110.906 245.172 110.555C244.596 110.331 244.245 109.979 243.925 109.532C243.606 109.085 243.478 108.51 243.478 107.934V108.158H243.606L243.478 108.126Z" fill="black"/>
<path d="M257.915 102.084H259.066V107.197C259.066 108.123 259.066 108.794 258.714 109.369C258.491 109.945 258.139 110.296 257.564 110.616C256.988 110.967 256.318 111.063 255.519 111.063C254.72 111.063 254.049 111.063 253.474 110.616C252.899 110.392 252.547 109.945 252.324 109.369C252.1 108.794 251.972 108.123 251.972 107.197V102.084H253.122V107.197C253.122 107.996 253.122 108.571 253.346 108.89C253.57 109.21 253.697 109.561 254.017 109.689C254.368 109.913 254.816 110.04 255.263 110.04C256.19 110.04 256.733 109.817 257.084 109.465C257.436 109.114 257.659 108.315 257.659 107.197V102.084H257.883H257.915Z" fill="black"/>
<path d="M261.24 110.839V102.084H262.39V110.839H261.24Z" fill="black"/>
<path d="M263.736 110.839V109.689L268.306 104.001C268.657 103.554 268.881 103.202 269.232 102.979H264.343V101.956H270.606V102.979L265.717 109.114L265.142 109.689H270.734V110.711H263.8V110.839H263.736Z" fill="black"/>
<path d="M271.019 110.839L274.438 102.084H275.684L279.327 110.839H277.953L276.93 108.219H273.288L272.265 110.839H271.019ZM273.543 107.324H276.515L275.588 104.928C275.365 104.129 275.141 103.554 275.013 103.107C275.013 103.682 274.789 104.257 274.566 104.8L273.543 107.42V107.293V107.324Z" fill="black"/>
<path d="M280.125 110.839V102.084H284.79C285.237 102.084 285.717 102.436 286.036 102.755C286.484 103.107 286.835 103.682 287.059 104.225C287.282 104.768 287.41 105.599 287.41 106.27C287.41 106.941 287.41 107.516 287.187 108.091C286.963 108.667 286.835 109.018 286.611 109.338C286.388 109.689 286.164 109.913 285.813 110.136C285.461 110.36 285.142 110.488 284.79 110.584C284.439 110.68 283.864 110.584 283.416 110.584H280.125V110.807V110.839ZM281.371 109.817H284.662C285.014 109.817 285.237 109.593 285.461 109.369C285.685 109.146 285.908 108.698 286.132 108.219C286.26 107.772 286.356 107.197 286.356 106.526C286.356 105.855 286.228 104.928 285.908 104.353C285.557 103.906 285.237 103.554 284.758 103.33C284.407 103.33 283.959 103.107 283.288 103.107H281.467V109.817H281.339H281.371Z" fill="black"/>
<path d="M289.136 110.839V102.084H295.527V103.107H290.287V105.855H295.175V106.877H290.287V109.849H295.75V110.871H289.136V110.839Z" fill="black"/>
<path d="M300.738 110.839V102.084H307.128V103.107H301.888V105.855H306.777V106.877H301.888V109.849H307.352V110.871H300.738V110.839Z" fill="black"/>
<path d="M308.471 108.126H309.621C309.621 108.478 309.845 108.797 309.972 109.149C310.1 109.5 310.42 109.596 310.899 109.82C311.346 110.043 311.698 110.043 312.273 110.043C312.848 110.043 313.072 110.043 313.423 109.82C313.775 109.82 313.999 109.468 314.222 109.244C314.35 109.021 314.446 108.797 314.446 108.446C314.446 108.094 314.446 107.871 314.222 107.775C314.094 107.551 313.775 107.423 313.423 107.2C313.2 107.2 312.625 106.976 311.826 106.752C311.027 106.528 310.452 106.401 310.132 106.177C309.685 105.953 309.461 105.73 309.206 105.378C308.982 105.027 308.854 104.707 308.854 104.228C308.854 103.749 308.982 103.301 309.206 102.982C309.429 102.662 309.781 102.311 310.356 102.055C310.803 101.831 311.378 101.704 311.954 101.704C312.529 101.704 313.2 101.704 313.647 102.055C314.094 102.279 314.574 102.63 314.797 102.982C315.021 103.429 315.245 103.908 315.245 104.356H314.094C314.094 103.908 313.871 103.429 313.519 103.205C313.168 102.982 312.593 102.758 312.049 102.758C311.506 102.758 310.803 102.758 310.452 103.11C310.1 103.333 310.004 103.685 310.004 104.036C310.004 104.388 310.132 104.611 310.356 104.835C310.58 105.059 311.155 105.282 312.049 105.506C312.944 105.73 313.647 105.953 313.999 106.081C314.574 106.305 314.925 106.656 315.149 107.008C315.373 107.359 315.5 107.807 315.5 108.254C315.5 108.701 315.373 109.181 315.053 109.628C314.829 110.075 314.382 110.299 313.903 110.555C313.455 110.778 312.88 110.906 312.209 110.906C311.538 110.906 310.739 110.906 310.164 110.555C309.589 110.331 309.238 109.979 308.918 109.532C308.599 109.085 308.471 108.51 308.471 107.934V108.158H308.599L308.471 108.126Z" fill="black"/>
<path d="M319.427 110.839V103.107H316.583V102.084H323.517V103.107H320.545V110.839H319.395H319.427Z" fill="black"/>
<path d="M330.453 102.084H331.603V107.197C331.603 108.123 331.603 108.794 331.251 109.369C331.028 109.945 330.676 110.296 330.101 110.616C329.526 110.967 328.855 111.063 328.056 111.063C327.257 111.063 326.586 111.063 326.011 110.616C325.436 110.168 325.084 109.945 324.861 109.369C324.637 108.794 324.509 108.123 324.509 107.197V102.084H325.66V107.197C325.66 107.996 325.66 108.571 325.883 108.89C326.107 109.21 326.235 109.561 326.554 109.689C326.906 109.913 327.353 110.04 327.8 110.04C328.727 110.04 329.27 109.817 329.622 109.465C329.973 109.114 330.197 108.315 330.197 107.197V102.084H330.421H330.453Z" fill="black"/>
<path d="M333.521 110.839V102.084H338.186C338.633 102.084 339.113 102.436 339.432 102.755C339.88 103.107 340.231 103.682 340.455 104.225C340.678 104.8 340.806 105.599 340.806 106.27C340.806 106.941 340.806 107.516 340.583 108.091C340.455 108.667 340.231 109.018 340.007 109.338C339.784 109.689 339.56 109.913 339.209 110.136C338.857 110.36 338.538 110.488 338.186 110.584H333.521V110.807V110.839ZM334.671 109.817H337.962C338.314 109.817 338.538 109.593 338.761 109.369C338.985 109.146 339.209 108.698 339.432 108.219C339.56 107.772 339.656 107.197 339.656 106.526C339.656 105.855 339.528 104.928 339.209 104.353C338.889 103.778 338.538 103.554 338.058 103.33C337.707 103.33 337.26 103.107 336.588 103.107H334.767V109.817H334.639H334.671Z" fill="black"/>
<path d="M342.626 110.839V102.084H343.777V110.839H342.626Z" fill="black"/>
<path d="M345.472 106.621C345.472 105.152 345.824 104.001 346.622 103.202C347.421 102.404 348.444 101.956 349.688 101.956C350.935 101.956 351.286 102.18 351.861 102.531C352.532 102.883 353.011 103.458 353.331 104.129C353.651 104.8 353.906 105.599 353.906 106.526C353.906 107.452 353.682 108.219 353.331 108.922C352.98 109.625 352.404 110.168 351.861 110.52C351.19 110.871 350.487 111.095 349.688 111.095C348.891 111.095 348.092 110.871 347.421 110.52C346.75 110.072 346.271 109.593 345.951 108.922C345.632 108.251 345.504 107.452 345.504 106.749V106.621H345.472ZM346.75 106.621C346.75 107.644 346.974 108.571 347.677 109.114C348.38 109.657 348.923 110.04 349.848 110.04C350.775 110.04 351.446 109.689 352.021 109.114C352.596 108.539 352.82 107.644 352.82 106.494C352.82 105.343 352.692 105.12 352.468 104.672C352.245 104.225 351.893 103.746 351.446 103.426C350.998 103.107 350.423 102.979 349.848 102.979C349.275 102.979 348.38 103.202 347.677 103.778C347.102 104.353 346.75 105.247 346.75 106.621Z" fill="black"/>
<path d="M355.057 108.126H356.207C356.207 108.478 356.431 108.797 356.558 109.149C356.686 109.5 357.006 109.596 357.485 109.82C357.964 110.043 358.284 110.043 358.859 110.043C359.434 110.043 359.658 110.043 360.009 109.82C360.361 109.82 360.584 109.468 360.808 109.244C360.936 109.021 361.032 108.797 361.032 108.446C361.032 108.094 361.032 107.871 360.808 107.775C360.68 107.551 360.361 107.423 360.009 107.2C359.786 107.2 359.211 106.976 358.412 106.752C357.613 106.528 357.038 106.401 356.718 106.177C356.271 105.953 356.047 105.73 355.792 105.378C355.568 105.027 355.44 104.707 355.44 104.228C355.44 103.749 355.568 103.301 355.792 102.982C356.015 102.662 356.367 102.311 356.942 102.055C357.389 101.831 357.964 101.704 358.539 101.704C359.115 101.704 359.786 101.704 360.233 102.055C360.68 102.279 361.16 102.63 361.383 102.982C361.607 103.429 361.831 103.908 361.831 104.356H360.68C360.68 103.908 360.457 103.429 360.105 103.205C359.754 102.982 359.179 102.758 358.635 102.758C358.092 102.758 357.389 102.758 357.038 103.11C356.686 103.333 356.59 103.685 356.59 104.036C356.59 104.388 356.718 104.611 356.942 104.835C357.166 105.059 357.741 105.282 358.635 105.506C359.53 105.73 360.233 105.953 360.584 106.081C361.16 106.305 361.511 106.656 361.735 107.008C361.958 107.359 362.086 107.807 362.086 108.254C362.086 108.701 361.958 109.181 361.639 109.628C361.415 110.075 360.968 110.299 360.489 110.555C360.041 110.778 359.466 110.906 358.795 110.906C358.124 110.906 357.325 110.906 356.75 110.555C356.175 110.331 355.824 109.979 355.504 109.532C355.152 109.085 355.057 108.51 355.057 107.934V108.158H355.184L355.057 108.126Z" fill="black"/>
<path d="M367.004 110.839V102.084H368.154V109.817H372.468V110.839H367.004Z" fill="black"/>
<path d="M372.918 110.839L376.337 102.084H377.583L381.226 110.839H379.852L378.829 108.219H375.187L374.164 110.839H372.918ZM375.442 107.324H378.414L377.487 104.928C377.264 104.129 377.04 103.554 376.912 103.107C376.912 103.682 376.688 104.257 376.465 104.8L375.538 107.42H375.41V107.293L375.442 107.324Z" fill="black"/>
<path d="M383.395 110.839V103.107H380.551V102.084H387.485V103.107H384.513V110.839H383.363H383.395Z" fill="black"/>
<path d="M388.866 110.839V102.084H390.017V110.839H388.866Z" fill="black"/>
<path d="M392.154 110.839V102.084H393.4L398.065 109.018V102.084H399.215V110.839H397.969L393.304 103.906V110.839H392.154Z" fill="black"/>
<path d="M400.717 106.621C400.717 105.152 401.069 104.001 401.868 103.202C402.666 102.404 403.689 101.956 404.935 101.956C406.181 101.956 406.533 102.18 407.108 102.531C407.779 102.883 408.258 103.458 408.578 104.129C408.897 104.8 409.153 105.599 409.153 106.526C409.153 107.452 408.929 108.219 408.578 108.922C408.226 109.625 407.651 110.168 407.108 110.52C406.437 110.871 405.734 111.095 404.935 111.095C404.136 111.095 403.337 110.871 402.666 110.52C401.995 110.072 401.516 109.593 401.197 108.922C400.877 108.251 400.749 107.452 400.749 106.749V106.621H400.717ZM401.836 106.621C401.836 107.644 402.059 108.571 402.762 109.114C403.465 109.657 404.008 110.04 404.935 110.04C405.862 110.04 406.533 109.689 407.108 109.114C407.683 108.539 407.907 107.644 407.907 106.494C407.907 105.343 407.779 105.12 407.555 104.672C407.332 104.225 406.98 103.746 406.533 103.426C406.085 103.107 405.51 102.979 404.935 102.979C404.36 102.979 403.465 103.202 402.762 103.778C402.187 104.353 401.836 105.247 401.836 106.621Z" fill="black"/>
<path d="M409.597 110.839L413.016 102.084H414.262L417.904 110.839H416.53L415.508 108.219H411.865L410.843 110.839H409.597ZM412.185 107.324H415.156L414.23 104.928C414.006 104.129 413.782 103.554 413.655 103.107C413.655 103.682 413.431 104.257 413.207 104.8L412.281 107.42H412.153V107.293L412.185 107.324Z" fill="black"/>
<path d="M418.802 110.839V102.084H420.496L422.541 108.347C422.764 108.922 422.892 109.369 422.988 109.593C422.988 109.242 423.212 108.794 423.435 108.219L425.608 102.084H427.206V110.839H426.056V103.426L423.563 110.839H422.541L420.048 103.33V110.839H418.802Z" fill="black"/>
<path d="M429.056 110.839V102.084H435.447V103.107H430.206V105.855H435.095V106.877H430.206V109.849H435.67V110.871H429.056V110.839Z" fill="black"/>
<path d="M437.236 110.839V102.084H441.102C441.901 102.084 442.476 102.084 442.923 102.308C443.371 102.308 443.594 102.755 443.946 103.107C444.297 103.458 444.297 103.906 444.297 104.481C444.297 105.056 444.073 105.631 443.722 106.078C443.275 106.526 442.699 106.749 441.901 106.877C442.252 106.877 442.476 107.229 442.572 107.324C442.923 107.676 443.243 107.996 443.594 108.475L445.064 110.871H443.594L442.444 109.05C442.092 108.475 441.869 108.123 441.645 107.804C441.421 107.58 441.198 107.356 441.07 107.229C440.846 107.229 440.718 107.005 440.495 107.005H438.45V110.871H437.204L437.236 110.839ZM438.514 105.951H442.284C442.636 105.951 442.859 105.599 442.955 105.375C443.051 105.152 443.179 104.928 443.179 104.577C443.179 104.225 443.051 103.778 442.731 103.554C442.412 103.33 441.933 103.107 441.262 103.107H438.418V106.078L438.546 105.951H438.514Z" fill="black"/>
<path d="M446.342 110.839V102.084H447.493V110.839H446.342Z" fill="black"/>
<path d="M455.932 107.774L457.082 108.125C456.859 109.052 456.411 109.819 455.708 110.298C455.005 110.777 454.334 111.097 453.44 111.097C452.545 111.097 451.746 110.873 451.171 110.522C450.596 110.17 450.148 109.595 449.797 108.828C449.445 108.157 449.35 107.358 449.35 106.432C449.35 105.505 449.573 104.738 449.925 104.035C450.276 103.332 450.724 102.789 451.395 102.437C452.066 102.086 452.769 101.862 453.567 101.862C454.366 101.862 455.165 102.086 455.836 102.533C456.411 102.981 456.859 103.556 457.082 104.482L455.932 104.706C455.708 104.035 455.485 103.556 455.005 103.332C454.654 102.981 454.079 102.885 453.535 102.885C452.992 102.885 452.289 102.885 451.842 103.332C451.395 103.779 451.043 104.131 450.915 104.578C450.692 105.153 450.692 105.729 450.692 106.272C450.692 106.815 450.692 107.646 451.043 108.221C451.267 108.796 451.618 109.243 452.066 109.467C452.513 109.691 452.992 109.914 453.535 109.914C454.079 109.914 454.782 109.691 455.229 109.339C455.676 108.988 456.028 108.413 456.156 107.646H455.932V107.774Z" fill="black"/>
<path d="M457.526 110.839L460.945 102.084H462.191L465.834 110.839H464.46L463.437 108.219H459.795L458.772 110.839H457.526ZM460.018 107.324H462.99L462.063 104.928C461.84 104.129 461.616 103.554 461.488 103.107C461.488 103.682 461.264 104.257 461.041 104.8L460.114 107.42H459.986V107.293L460.018 107.324Z" fill="black"/>
<path d="M466.636 110.839V102.084H467.882L472.547 109.018V102.084H473.697V110.839H472.451L467.786 103.906V110.839H466.636Z" fill="black"/>
<path d="M475.167 106.621C475.167 105.152 475.518 104.001 476.317 103.202C477.116 102.404 478.139 101.956 479.385 101.956C480.631 101.956 480.982 102.18 481.558 102.531C482.229 102.883 482.708 103.458 483.027 104.129C483.347 104.8 483.603 105.599 483.603 106.526C483.603 107.452 483.379 108.219 483.027 108.922C482.676 109.625 482.101 110.168 481.558 110.52C480.887 110.871 480.184 111.095 479.385 111.095C478.586 111.095 477.787 110.871 477.116 110.52C476.445 110.072 475.966 109.593 475.646 108.922C475.327 108.251 475.199 107.452 475.199 106.749V106.621H475.167ZM476.413 106.621C476.413 107.644 476.637 108.571 477.34 109.114C478.043 109.657 478.586 110.04 479.513 110.04C480.439 110.04 481.11 109.689 481.685 109.114C482.261 108.539 482.484 107.644 482.484 106.494C482.484 105.343 482.356 105.12 482.133 104.672C481.909 104.225 481.558 103.746 481.11 103.426C480.663 103.107 480.088 102.979 479.513 102.979C478.937 102.979 478.043 103.202 477.34 103.778C476.765 104.353 476.413 105.247 476.413 106.621Z" fill="black"/>
<path d="M484.725 108.126H485.875C485.875 108.478 486.099 108.797 486.226 109.149C486.354 109.5 486.674 109.596 487.153 109.82C487.632 110.043 487.952 110.043 488.527 110.043C489.102 110.043 489.326 110.043 489.677 109.82C490.029 109.82 490.252 109.468 490.476 109.244C490.604 109.021 490.7 108.797 490.7 108.446C490.7 108.094 490.7 107.871 490.476 107.775C490.348 107.551 490.029 107.423 489.677 107.2C489.454 107.2 488.878 106.976 488.08 106.752C487.281 106.528 486.706 106.401 486.386 106.177C485.939 105.953 485.715 105.73 485.46 105.378C485.236 105.027 485.108 104.707 485.108 104.228C485.108 103.749 485.236 103.301 485.46 102.982C485.683 102.662 486.035 102.311 486.61 102.055C487.057 101.831 487.632 101.704 488.207 101.704C488.783 101.704 489.454 101.704 489.901 102.055C490.348 102.279 490.828 102.63 491.051 102.982C491.275 103.429 491.499 103.908 491.499 104.356H490.348C490.348 103.908 490.125 103.429 489.773 103.205C489.422 102.982 488.847 102.758 488.303 102.758C487.76 102.758 487.057 102.758 486.706 103.11C486.354 103.333 486.258 103.685 486.258 104.036C486.258 104.388 486.386 104.611 486.61 104.835C486.833 105.059 487.409 105.282 488.303 105.506C489.198 105.73 489.901 105.953 490.252 106.081C490.828 106.305 491.179 106.656 491.403 107.008C491.626 107.359 491.754 107.807 491.754 108.254C491.754 108.701 491.626 109.181 491.307 109.628C491.083 110.075 490.636 110.299 490.157 110.555C489.709 110.778 489.134 110.906 488.463 110.906C487.792 110.906 486.993 110.906 486.418 110.555C485.843 110.331 485.491 109.979 485.172 109.532C484.82 109.085 484.725 108.51 484.725 107.934V108.158H484.852L484.725 108.126Z" fill="black"/>
<path d="M175.829 136.562H176.979C176.979 136.914 177.203 137.233 177.331 137.585C177.555 137.808 177.778 138.032 178.258 138.256C178.705 138.479 179.056 138.479 179.632 138.479C180.207 138.479 180.43 138.479 180.782 138.256C181.133 138.256 181.357 137.904 181.581 137.68C181.708 137.457 181.804 137.233 181.804 136.882C181.804 136.53 181.804 136.306 181.581 136.211C181.453 135.987 181.133 135.859 180.782 135.635C180.558 135.635 179.983 135.412 179.184 135.188C178.385 134.964 177.81 134.837 177.491 134.613C177.043 134.389 176.82 134.166 176.564 133.814C176.308 133.463 176.213 133.143 176.213 132.664C176.213 132.185 176.34 131.737 176.564 131.418C176.788 131.066 177.139 130.747 177.714 130.491C178.162 130.267 178.737 130.14 179.312 130.14C179.887 130.14 180.558 130.14 181.005 130.491C181.453 130.715 181.932 131.066 182.156 131.418C182.379 131.865 182.603 132.344 182.603 132.792H181.453C181.453 132.344 181.229 131.865 180.878 131.641C180.526 131.418 179.951 131.194 179.408 131.194C178.865 131.194 178.162 131.194 177.81 131.545C177.459 131.769 177.363 132.121 177.363 132.472C177.363 132.824 177.491 133.047 177.714 133.271C177.938 133.495 178.513 133.718 179.408 133.942C180.303 134.166 181.005 134.389 181.357 134.517C181.932 134.741 182.284 135.092 182.507 135.444C182.731 135.795 182.859 136.243 182.859 136.69C182.859 137.137 182.731 137.616 182.411 138.064C182.092 138.511 181.74 138.735 181.261 138.99C180.814 139.214 180.239 139.342 179.568 139.342C178.897 139.342 178.098 139.342 177.523 138.99C176.947 138.767 176.596 138.415 176.276 137.968C175.957 137.521 175.829 136.945 175.829 136.37V136.594H175.957L175.829 136.562Z" fill="black"/>
<path d="M185.995 139.437L183.598 130.682H184.844L186.218 136.498C186.346 137.073 186.442 137.744 186.57 138.319C186.793 137.392 186.921 136.849 186.921 136.721L188.615 130.81H189.989L191.235 135.252C191.586 136.402 191.81 137.424 191.906 138.319C191.906 137.744 192.13 137.073 192.353 136.37L193.727 130.682H194.878L192.481 139.437H191.331L189.509 132.727C189.382 132.152 189.286 131.801 189.286 131.705C189.286 132.152 189.062 132.504 189.062 132.727L187.241 139.437H185.995Z" fill="black"/>
<path d="M196.217 139.437V130.682H197.367V139.437H196.217Z" fill="black"/>
<path d="M199.063 136.562H200.213C200.213 136.914 200.437 137.233 200.564 137.585C200.788 137.808 201.012 138.032 201.491 138.256C201.939 138.479 202.29 138.479 202.865 138.479C203.441 138.479 203.664 138.479 204.016 138.256C204.367 138.256 204.591 137.904 204.815 137.68C204.942 137.457 205.038 137.233 205.038 136.882C205.038 136.53 205.038 136.306 204.815 136.211C204.687 135.987 204.367 135.859 204.016 135.635C203.792 135.635 203.217 135.412 202.418 135.188C201.619 134.964 201.044 134.837 200.725 134.613C200.277 134.389 200.054 134.166 199.798 133.814C199.542 133.463 199.446 133.143 199.446 132.664C199.446 132.185 199.574 131.737 199.798 131.418C200.022 131.066 200.373 130.747 200.948 130.491C201.396 130.267 201.971 130.14 202.546 130.14C203.121 130.14 203.792 130.14 204.239 130.491C204.687 130.715 205.166 131.066 205.39 131.418C205.613 131.865 205.837 132.344 205.837 132.792H204.687C204.687 132.344 204.463 131.865 204.112 131.641C203.76 131.418 203.185 131.194 202.642 131.194C202.099 131.194 201.396 131.194 201.044 131.545C200.693 131.769 200.597 132.121 200.597 132.472C200.597 132.824 200.725 133.047 200.948 133.271C201.172 133.495 201.747 133.718 202.642 133.942C203.536 134.166 204.239 134.389 204.591 134.517C205.166 134.741 205.517 135.092 205.741 135.444C205.965 135.795 206.093 136.243 206.093 136.69C206.093 137.137 205.965 137.616 205.645 138.064C205.326 138.511 204.974 138.735 204.495 138.99C204.048 139.214 203.472 139.342 202.801 139.342C202.13 139.342 201.332 139.342 200.757 138.99C200.181 138.767 199.83 138.415 199.51 137.968C199.191 137.521 199.063 136.945 199.063 136.37V136.594H199.19L199.063 136.562Z" fill="black"/>
<path d="M207.275 136.562H208.426C208.426 136.914 208.649 137.233 208.777 137.585C209.001 137.808 209.225 138.032 209.704 138.256C210.151 138.479 210.503 138.479 211.078 138.479C211.653 138.479 211.877 138.479 212.228 138.256C212.58 138.256 212.803 137.904 213.027 137.68C213.155 137.457 213.251 137.233 213.251 136.882C213.251 136.53 213.251 136.306 213.027 136.211C212.899 135.987 212.58 135.859 212.228 135.635C212.004 135.635 211.429 135.412 210.63 135.188C209.832 134.964 209.256 134.837 208.937 134.613C208.49 134.389 208.266 134.166 208.01 133.814C207.755 133.463 207.659 133.143 207.659 132.664C207.659 132.185 207.787 131.737 208.01 131.418C208.234 131.066 208.585 130.747 209.161 130.491C209.608 130.267 210.183 130.14 210.758 130.14C211.333 130.14 212.004 130.14 212.452 130.491C212.899 130.715 213.378 131.066 213.602 131.418C213.826 131.865 214.049 132.344 214.049 132.792H212.899C212.899 132.344 212.675 131.865 212.324 131.641C211.972 131.418 211.397 131.194 210.854 131.194C210.311 131.194 209.608 131.194 209.256 131.545C208.905 131.769 208.809 132.121 208.809 132.472C208.809 132.824 208.937 133.047 209.161 133.271C209.384 133.495 209.959 133.718 210.854 133.942C211.749 134.166 212.452 134.389 212.803 134.517C213.378 134.741 213.73 135.092 213.954 135.444C214.177 135.795 214.305 136.243 214.305 136.69C214.305 137.137 214.177 137.616 213.858 138.064C213.538 138.511 213.187 138.735 212.707 138.99C212.26 139.214 211.685 139.342 211.014 139.342C210.343 139.342 209.544 139.342 208.969 138.99C208.394 138.767 208.042 138.415 207.723 137.968C207.403 137.521 207.275 136.945 207.275 136.37V136.594H207.403L207.275 136.562Z" fill="black"/>
<path d="M218.871 136.562H220.021C220.021 136.914 220.245 137.233 220.373 137.585C220.597 137.808 220.82 138.032 221.3 138.256C221.747 138.479 222.098 138.479 222.673 138.479C223.249 138.479 223.472 138.479 223.824 138.256C224.175 138.256 224.399 137.904 224.623 137.68C224.75 137.457 224.846 137.233 224.846 136.882C224.846 136.53 224.846 136.306 224.623 136.211C224.495 135.987 224.175 135.859 223.824 135.635C223.6 135.635 223.025 135.412 222.226 135.188C221.427 134.964 220.852 134.837 220.533 134.613C220.085 134.389 219.862 134.166 219.606 133.814C219.35 133.463 219.255 133.143 219.255 132.664C219.255 132.185 219.382 131.737 219.606 131.418C219.83 131.066 220.181 130.747 220.756 130.491C221.204 130.267 221.779 130.14 222.354 130.14C222.929 130.14 223.6 130.14 224.047 130.491C224.495 130.715 224.974 131.066 225.198 131.418C225.421 131.865 225.645 132.344 225.645 132.792H224.495C224.495 132.344 224.271 131.865 223.92 131.641C223.568 131.418 222.993 131.194 222.45 131.194C221.907 131.194 221.204 131.194 220.852 131.545C220.501 131.769 220.405 132.121 220.405 132.472C220.405 132.824 220.533 133.047 220.756 133.271C220.98 133.495 221.555 133.718 222.45 133.942C223.344 134.166 224.047 134.389 224.399 134.517C224.974 134.741 225.326 135.092 225.549 135.444C225.773 135.795 225.901 136.243 225.901 136.69C225.901 137.137 225.773 137.616 225.453 138.064C225.134 138.511 224.782 138.735 224.303 138.99C223.856 139.214 223.281 139.342 222.61 139.342C221.939 139.342 221.14 139.342 220.565 138.99C219.989 138.767 219.638 138.415 219.318 137.968C218.999 137.521 218.871 136.945 218.871 136.37V136.594H218.999L218.871 136.562Z" fill="black"/>
<path d="M227.177 135.092C227.177 133.622 227.529 132.471 228.328 131.673C229.126 130.874 230.149 130.427 231.395 130.427C232.641 130.427 232.993 130.65 233.568 131.002C234.239 131.353 234.718 131.928 235.038 132.599C235.357 133.27 235.613 134.069 235.613 134.996C235.613 135.922 235.389 136.689 235.038 137.392C234.686 138.095 234.111 138.638 233.568 138.99C232.897 139.341 232.194 139.565 231.395 139.565C230.596 139.565 229.797 139.341 229.126 138.99C228.455 138.543 227.976 138.063 227.657 137.392C227.337 136.721 227.209 135.922 227.209 135.219V135.092H227.177ZM228.328 135.219C228.328 136.242 228.679 137.169 229.254 137.712C229.829 138.255 230.5 138.638 231.427 138.638C232.354 138.638 233.025 138.287 233.6 137.712C234.175 137.137 234.399 136.242 234.399 135.092C234.399 133.941 234.271 133.718 234.047 133.143C233.823 132.568 233.472 132.216 233.025 131.896C232.577 131.545 232.002 131.449 231.427 131.449C230.852 131.449 229.957 131.673 229.254 132.248C228.679 132.823 228.328 133.718 228.328 135.092V135.219Z" fill="black"/>
<path d="M243.346 136.338L244.496 136.689C244.273 137.616 243.825 138.383 243.122 138.862C242.451 139.309 241.748 139.661 240.854 139.661C239.959 139.661 239.16 139.437 238.585 139.086C238.01 138.734 237.562 138.159 237.211 137.392C236.86 136.721 236.764 135.922 236.764 134.996C236.764 134.069 236.987 133.302 237.339 132.599C237.69 131.896 238.138 131.353 238.809 131.002C239.48 130.65 240.183 130.427 240.981 130.427C241.78 130.427 242.579 130.65 243.25 131.098C243.825 131.545 244.273 132.12 244.496 133.047L243.346 133.27C243.122 132.599 242.899 132.12 242.419 131.896C242.068 131.545 241.493 131.449 240.949 131.449C240.406 131.449 239.703 131.449 239.256 131.896C238.809 132.344 238.457 132.695 238.329 133.143C238.106 133.718 238.106 134.293 238.106 134.836C238.106 135.379 238.106 136.21 238.457 136.785C238.681 137.361 239.032 137.808 239.48 138.031C239.927 138.255 240.406 138.479 240.949 138.479C241.493 138.479 242.196 138.255 242.643 137.903C243.09 137.552 243.442 136.977 243.57 136.21H243.346V136.338Z" fill="black"/>
<path d="M246.193 139.437V130.682H247.343V139.437H246.193Z" fill="black"/>
<path d="M249.389 139.437V130.682H255.78V131.705H250.539V134.453H255.428V135.475H250.539V138.447H256.003V139.469H249.389V139.437Z" fill="black"/>
<path d="M259.868 139.437V131.705H256.896V130.682H263.83V131.705H260.858V139.437H259.708H259.836H259.868Z" fill="black"/>
<path d="M267.598 139.437V135.667L264.179 130.554H265.553L267.247 133.174C267.598 133.622 267.822 134.197 268.173 134.644C268.397 134.197 268.748 133.622 269.1 133.047L270.793 130.427H272.167L268.653 135.539V139.309H267.502H267.63V139.437H267.598Z" fill="black"/>
<path d="M276.162 135.092C276.162 133.622 276.514 132.471 277.312 131.673C278.111 130.874 279.134 130.427 280.38 130.427C281.626 130.427 281.978 130.65 282.553 131.002C283.224 131.353 283.703 131.928 284.023 132.599C284.342 133.27 284.598 134.069 284.598 134.996C284.598 135.922 284.374 136.689 284.023 137.392C283.671 138.095 283.096 138.638 282.553 138.99C281.882 139.341 281.179 139.565 280.38 139.565C279.581 139.565 278.782 139.341 278.111 138.99C277.44 138.543 276.961 138.063 276.641 137.392C276.322 136.721 276.194 135.922 276.194 135.219V135.092H276.162ZM277.408 135.219C277.408 136.242 277.76 137.169 278.335 137.712C278.91 138.255 279.581 138.638 280.508 138.638C281.434 138.638 282.105 138.287 282.681 137.712C283.256 137.137 283.479 136.242 283.479 135.092C283.479 133.941 283.352 133.718 283.128 133.143C282.904 132.568 282.553 132.216 282.105 131.896C281.658 131.545 281.083 131.449 280.508 131.449C279.933 131.449 279.038 131.673 278.335 132.248C277.76 132.823 277.408 133.718 277.408 135.092V135.219Z" fill="black"/>
<path d="M286.167 139.437V130.682H292.078V131.705H287.286V134.453H291.376V135.475H287.286V139.469H286.135L286.167 139.437Z" fill="black"/>
<path d="M297 139.437V130.682H298.15V138.415H302.464V139.437H297Z" fill="black"/>
<path d="M302.909 139.437L306.328 130.682H307.574L311.217 139.437H309.843L308.82 136.817H305.178L304.155 139.437H302.909ZM305.529 135.795H308.501L307.574 133.398C307.35 132.6 307.127 132.024 306.999 131.577C306.999 132.152 306.775 132.727 306.552 133.271L305.625 135.891H305.497V135.763L305.529 135.795Z" fill="black"/>
<path d="M313.386 139.437V131.705H310.542V130.682H317.476V131.705H314.504V139.437H313.354H313.386Z" fill="black"/>
<path d="M318.949 139.437V130.682H320.1V139.437H318.949Z" fill="black"/>
<path d="M322.144 139.437V130.682H323.39L328.055 137.616V130.682H329.205V139.437H327.959L323.294 132.504V139.437H322.144Z" fill="black"/>
<path d="M332.848 139.437L336.267 130.682H337.513L341.155 139.437H339.781L338.759 136.817H335.116L334.094 139.437H332.848ZM335.34 135.795H338.312L337.385 133.398C337.161 132.6 336.938 132.024 336.81 131.577C336.81 132.152 336.586 132.727 336.362 133.271L335.436 135.891H335.308V135.763L335.34 135.795Z" fill="black"/>
<path d="M341.952 139.437V130.682H343.646L345.691 136.945C345.914 137.52 346.042 137.968 346.138 138.191C346.138 137.84 346.362 137.392 346.585 136.817L348.758 130.682H350.356V139.437H349.205V132.024L346.713 139.437H345.691L343.198 131.929V139.437H341.952Z" fill="black"/>
<path d="M352.212 139.437V130.682H358.603V131.705H353.363V134.453H358.252V135.475H353.363V138.447H358.827V139.469H352.212V139.437Z" fill="black"/>
<path d="M360.389 139.437V130.682H364.256C365.055 130.682 365.63 130.682 366.077 130.906C366.524 130.906 366.748 131.353 367.099 131.705C367.451 132.056 367.451 132.504 367.451 133.079C367.451 133.654 367.227 134.229 366.876 134.676C366.428 135.124 365.853 135.347 365.055 135.475C365.406 135.475 365.63 135.827 365.726 135.923C366.077 136.274 366.397 136.594 366.748 137.073L368.218 139.469H366.748L365.598 137.648C365.246 137.073 365.023 136.721 364.799 136.402C364.575 136.178 364.352 135.955 364.224 135.827C364.096 135.699 363.872 135.603 363.649 135.603H361.604V139.469H360.357L360.389 139.437ZM361.636 134.517H365.406C365.757 134.517 365.981 134.165 366.077 133.942C366.173 133.718 366.301 133.494 366.301 133.143C366.301 132.791 366.173 132.344 365.853 132.12C365.502 131.897 365.055 131.673 364.383 131.673H361.54V134.645L361.668 134.517H361.636Z" fill="black"/>
<path d="M369.499 139.437V130.682H370.649V139.437H369.499Z" fill="black"/>
<path d="M379.081 136.338L380.232 136.689C380.008 137.616 379.561 138.383 378.858 138.862C378.155 139.341 377.484 139.661 376.589 139.661C375.694 139.661 374.895 139.437 374.32 139.086C373.745 138.734 373.298 138.159 372.946 137.392C372.595 136.721 372.499 135.922 372.499 134.996C372.499 134.069 372.723 133.302 373.074 132.599C373.426 131.896 373.873 131.353 374.544 131.002C375.215 130.65 375.918 130.427 376.717 130.427C377.516 130.427 378.314 130.65 378.985 131.098C379.561 131.545 380.008 132.12 380.232 133.047L379.081 133.27C378.858 132.599 378.634 132.12 378.155 131.896C377.803 131.545 377.228 131.449 376.685 131.449C376.142 131.449 375.439 131.449 374.991 131.896C374.544 132.344 374.193 132.695 374.065 133.143C373.841 133.718 373.841 134.293 373.841 134.836C373.841 135.379 373.841 136.21 374.193 136.785C374.416 137.361 374.768 137.808 375.215 138.031C375.662 138.255 376.142 138.479 376.685 138.479C377.228 138.479 377.931 138.255 378.378 137.903C378.826 137.552 379.177 136.977 379.305 136.21H379.081V136.338Z" fill="black"/>
<path d="M380.65 139.437L384.069 130.682H385.316L388.958 139.437H387.584L386.562 136.817H382.919L381.897 139.437H380.65ZM383.175 135.795H386.146L385.22 133.398C384.996 132.6 384.772 132.024 384.645 131.577C384.645 132.152 384.421 132.727 384.197 133.271L383.271 135.891H383.143V135.763L383.175 135.795Z" fill="black"/>
<path d="M389.881 139.437V130.682H391.128L395.793 137.616V130.682H396.943V139.437H395.697L391.032 132.504V139.437H389.881Z" fill="black"/>
<path d="M401.74 136.562H402.89C402.89 136.914 403.114 137.233 403.242 137.585C403.369 137.936 403.689 138.032 404.168 138.256C404.647 138.479 404.967 138.479 405.542 138.479C406.117 138.479 406.341 138.479 406.692 138.256C407.044 138.256 407.268 137.904 407.491 137.68C407.619 137.457 407.715 137.233 407.715 136.882C407.715 136.53 407.715 136.306 407.491 136.211C407.363 135.987 407.044 135.859 406.692 135.635C406.469 135.635 405.894 135.412 405.095 135.188C404.296 134.964 403.721 134.837 403.401 134.613C402.954 134.389 402.73 134.166 402.475 133.814C402.251 133.463 402.123 133.143 402.123 132.664C402.123 132.185 402.251 131.737 402.475 131.418C402.698 131.066 403.05 130.747 403.625 130.491C404.072 130.267 404.647 130.14 405.223 130.14C405.798 130.14 406.469 130.14 406.916 130.491C407.363 130.842 407.843 131.066 408.066 131.418C408.29 131.865 408.514 132.344 408.514 132.792H407.363C407.363 132.344 407.14 131.865 406.788 131.641C406.437 131.418 405.862 131.194 405.318 131.194C404.775 131.194 404.072 131.194 403.721 131.545C403.369 131.769 403.273 132.121 403.273 132.472C403.273 132.824 403.401 133.047 403.625 133.271C403.849 133.495 404.424 133.718 405.318 133.942C406.213 134.166 406.916 134.389 407.268 134.517C407.843 134.741 408.194 135.092 408.418 135.444C408.642 135.795 408.769 136.243 408.769 136.69C408.769 137.137 408.642 137.616 408.322 138.064C408.098 138.511 407.651 138.735 407.172 138.99C406.724 139.214 406.149 139.342 405.478 139.342C404.807 139.342 404.008 139.342 403.433 138.99C402.858 138.767 402.507 138.415 402.187 137.968C401.836 137.521 401.74 136.945 401.74 136.37V136.594H401.868L401.74 136.562Z" fill="black"/>
<path d="M412.665 139.437V131.705H409.821V130.682H416.755V131.705H413.783V139.437H412.633H412.665Z" fill="black"/>
<path d="M423.691 130.651H424.842V135.764C424.842 136.69 424.842 137.361 424.49 137.937C424.266 138.512 423.915 138.863 423.34 139.183C422.765 139.534 422.094 139.63 421.295 139.63C420.496 139.63 419.825 139.63 419.25 139.183C418.675 138.735 418.323 138.512 418.1 137.937C417.876 137.361 417.748 136.69 417.748 135.764V130.651H418.898V135.764C418.898 136.563 418.898 137.138 419.122 137.457C419.346 137.777 419.474 138.128 419.793 138.256C420.145 138.48 420.592 138.608 421.039 138.608C421.966 138.608 422.509 138.384 422.861 138.032C423.212 137.681 423.436 136.882 423.436 135.764V130.651H423.659H423.691Z" fill="black"/>
<path d="M426.791 139.437V130.682H431.456C431.903 130.682 432.382 131.034 432.702 131.353C433.149 131.705 433.501 132.28 433.724 132.823C433.948 133.398 434.076 134.069 434.076 134.868C434.076 135.667 434.076 136.114 433.852 136.69C433.724 137.265 433.501 137.616 433.277 137.936C433.053 138.287 432.83 138.511 432.478 138.734C432.127 138.958 431.807 139.086 431.456 139.182H426.791V139.406V139.437ZM427.909 138.383H431.2C431.552 138.383 431.775 138.159 431.999 137.936C432.223 137.712 432.446 137.265 432.67 136.785C432.798 136.338 432.894 135.763 432.894 135.092C432.894 134.421 432.766 133.494 432.446 132.919C432.095 132.472 431.775 132.12 431.296 131.897C430.944 131.897 430.497 131.673 429.826 131.673H428.005V138.383H427.877H427.909Z" fill="black"/>
<path d="M435.894 139.437V130.682H437.044V139.437H435.894Z" fill="black"/>
<path d="M439.061 139.437V130.682H445.451V131.705H440.211V134.453H445.1V135.475H440.211V138.447H445.675V139.469H439.061V139.437Z" fill="black"/>
<path d="M446.921 136.562H448.072C448.072 136.914 448.295 137.233 448.423 137.585C448.551 137.936 448.871 138.032 449.35 138.256C449.829 138.479 450.149 138.479 450.724 138.479C451.299 138.479 451.523 138.479 451.874 138.256C452.226 138.256 452.449 137.904 452.673 137.68C452.801 137.457 452.897 137.233 452.897 136.882C452.897 136.53 452.897 136.306 452.673 136.211C452.545 135.987 452.226 135.859 451.874 135.635C451.65 135.635 451.075 135.412 450.276 135.188C449.478 134.964 448.902 134.837 448.583 134.613C448.136 134.389 447.912 134.166 447.656 133.814C447.433 133.463 447.305 133.143 447.305 132.664C447.305 132.185 447.433 131.737 447.656 131.418C447.88 131.066 448.231 130.747 448.807 130.491C449.254 130.267 449.829 130.14 450.404 130.14C450.979 130.14 451.65 130.14 452.098 130.491C452.545 130.842 453.024 131.066 453.248 131.418C453.472 131.865 453.695 132.344 453.695 132.792H452.545C452.545 132.344 452.321 131.865 451.97 131.641C451.618 131.418 451.043 131.194 450.5 131.194C449.957 131.194 449.254 131.194 448.902 131.545C448.551 131.769 448.455 132.121 448.455 132.472C448.455 132.824 448.583 133.047 448.807 133.271C449.03 133.495 449.605 133.718 450.5 133.942C451.395 134.166 452.098 134.389 452.449 134.517C453.024 134.741 453.376 135.092 453.6 135.444C453.823 135.795 453.951 136.243 453.951 136.69C453.951 137.137 453.823 137.616 453.504 138.064C453.28 138.511 452.833 138.735 452.353 138.99C451.906 139.214 451.331 139.342 450.66 139.342C449.989 139.342 449.19 139.342 448.615 138.99C448.04 138.767 447.688 138.415 447.369 137.968C447.017 137.521 446.921 136.945 446.921 136.37V136.594H447.049L446.921 136.562Z" fill="black"/>
<path d="M176.087 169.825L179.282 169.474C179.506 170.624 179.857 171.423 180.433 171.87C181.008 172.318 181.807 172.669 182.829 172.669C183.852 172.669 184.778 172.446 185.226 171.998C185.801 171.551 186.024 170.976 186.024 170.401C186.024 169.825 185.897 169.73 185.673 169.378C185.449 169.027 185.002 168.803 184.427 168.707C184.075 168.707 183.181 168.356 181.807 168.036C179.985 167.589 178.739 167.014 178.036 166.438C177.014 165.512 176.566 164.393 176.566 163.147C176.566 161.901 176.79 161.55 177.237 160.751C177.685 160.08 178.388 159.505 179.282 159.057C180.209 158.706 181.231 158.482 182.573 158.482C184.618 158.482 186.216 158.93 187.239 159.856C188.261 160.783 188.836 162.029 188.836 163.499H185.545C185.417 162.828 185.098 162.125 184.618 161.805C184.139 161.486 183.468 161.23 182.446 161.23C181.423 161.23 180.752 161.454 180.177 161.805C179.826 162.029 179.602 162.38 179.602 162.828C179.602 163.275 179.73 163.499 180.049 163.85C180.497 164.202 181.519 164.521 183.117 165.001C184.714 165.48 185.96 165.799 186.759 166.151C187.558 166.502 188.133 167.173 188.581 167.844C189.028 168.515 189.252 169.442 189.252 170.465C189.252 171.487 189.028 172.286 188.453 173.085C187.878 173.883 187.207 174.554 186.184 174.906C185.162 175.257 184.011 175.481 182.542 175.481C181.072 175.481 178.899 175.034 177.749 174.011C176.598 173.085 175.927 171.615 175.704 169.793H176.055V169.921L176.087 169.825Z" fill="#0662AF"/>
<path d="M191.327 169.825L194.523 169.474C194.746 170.624 195.098 171.423 195.673 171.87C196.248 172.318 197.047 172.669 198.069 172.669C199.092 172.669 200.018 172.446 200.466 171.998C201.041 171.551 201.265 170.976 201.265 170.401C201.265 169.825 201.137 169.73 200.913 169.378C200.689 169.027 200.242 168.803 199.667 168.707C199.316 168.707 198.421 168.356 197.047 168.036C195.226 167.589 193.979 167.014 193.276 166.438C192.254 165.512 191.807 164.393 191.807 163.147C191.807 161.901 192.03 161.55 192.478 160.751C192.925 160.08 193.628 159.505 194.523 159.057C195.449 158.706 196.472 158.482 197.814 158.482C199.859 158.482 201.456 158.93 202.479 159.856C203.501 160.783 204.076 162.029 204.076 163.499H200.785C200.658 162.828 200.338 162.125 199.859 161.805C199.379 161.486 198.708 161.23 197.686 161.23C196.663 161.23 195.992 161.454 195.417 161.805C195.066 162.029 194.842 162.38 194.842 162.828C194.842 163.275 194.97 163.499 195.289 163.85C195.737 164.202 196.759 164.521 198.357 165.001C199.955 165.48 201.201 165.799 202 166.151C202.798 166.502 203.374 167.173 203.821 167.844C204.268 168.515 204.492 169.442 204.492 170.465C204.492 171.487 204.268 172.286 203.693 173.085C203.118 173.883 202.447 174.554 201.424 174.906C200.402 175.257 199.252 175.481 197.782 175.481C196.312 175.481 194.139 175.034 192.989 174.011C191.839 173.085 191.168 171.615 190.944 169.793H191.295V169.921L191.327 169.825Z" fill="#0662AF"/>
<path d="M207.494 175.289V158.897H210.785V172.445H219.093V175.193H207.494V175.321V175.289Z" fill="#0662AF"/>
<path d="M236.286 175.289H232.643L231.173 171.519H224.559L223.185 175.289H219.67L226.061 158.77H229.576L236.19 175.289H236.318H236.286ZM230.151 168.675L227.882 162.54L225.614 168.675H230.183H230.151Z" fill="#0662AF"/>
<path d="M237.084 169.825L240.28 169.474C240.503 170.624 240.855 171.423 241.43 171.87C242.005 172.318 242.804 172.669 243.826 172.669C244.849 172.669 245.775 172.446 246.223 171.998C246.798 171.551 247.022 170.976 247.022 170.401C247.022 169.825 246.894 169.73 246.67 169.378C246.446 169.027 245.999 168.803 245.424 168.707C245.073 168.707 244.178 168.356 242.804 168.036C240.983 167.589 239.736 167.014 239.033 166.438C238.011 165.512 237.564 164.393 237.564 163.147C237.564 161.901 237.787 161.55 238.235 160.751C238.682 160.08 239.385 159.505 240.28 159.057C241.206 158.706 242.229 158.482 243.571 158.482C245.616 158.482 247.214 158.93 248.236 159.856C249.259 160.783 249.834 162.029 249.834 163.499H246.542C246.415 162.828 246.095 162.125 245.616 161.805C245.137 161.486 244.466 161.23 243.443 161.23C242.421 161.23 241.749 161.454 241.174 161.805C240.823 162.029 240.599 162.38 240.599 162.828C240.599 163.275 240.727 163.499 241.047 163.85C241.494 164.202 242.517 164.521 244.114 165.001C245.712 165.48 246.958 165.799 247.757 166.151C248.556 166.502 249.131 167.173 249.578 167.844C250.026 168.515 250.249 169.442 250.249 170.465C250.249 171.487 250.026 172.286 249.45 173.085C248.875 173.883 248.204 174.554 247.182 174.906C246.159 175.257 245.009 175.481 243.539 175.481C242.069 175.481 239.896 175.034 238.746 174.011C237.596 173.085 236.925 171.615 236.701 169.793H237.053V169.921L237.084 169.825Z" fill="#0662AF"/>
<path d="M259.069 170.848V167.653H265.332V170.848H259.069Z" fill="#0662AF"/>
<path d="M272.489 169.825L275.684 169.474C275.908 170.624 276.259 171.423 276.834 171.87C277.41 172.318 278.208 172.669 279.231 172.669C280.253 172.669 281.18 172.446 281.627 171.998C282.203 171.551 282.426 170.976 282.426 170.401C282.426 169.825 282.298 169.73 282.075 169.378C281.851 169.027 281.404 168.803 280.829 168.707C280.477 168.707 279.582 168.356 278.208 168.036C276.387 167.589 275.141 167.014 274.438 166.438C273.416 165.512 272.968 164.393 272.968 163.147C272.968 161.901 273.192 161.55 273.639 160.751C274.087 160.08 274.79 159.505 275.684 159.057C276.611 158.706 277.633 158.482 278.975 158.482C281.02 158.482 282.618 158.93 283.64 159.856C284.663 160.783 285.238 162.029 285.238 163.499H281.947C281.819 162.828 281.5 162.125 281.02 161.805C280.541 161.486 279.87 161.23 278.848 161.23C277.825 161.23 277.154 161.454 276.579 161.805C276.227 162.029 276.004 162.38 276.004 162.828C276.004 163.275 276.132 163.499 276.451 163.85C276.898 164.202 277.921 164.521 279.519 165.001C281.116 165.48 282.362 165.799 283.161 166.151C283.96 166.502 284.535 167.173 284.982 167.844C285.43 168.515 285.653 169.442 285.653 170.465C285.653 171.487 285.43 172.286 284.855 173.085C284.28 173.883 283.609 174.554 282.586 174.906C281.564 175.257 280.413 175.481 278.943 175.481C277.474 175.481 275.301 175.034 274.15 174.011C273 173.085 272.329 171.615 272.105 169.793H272.457V169.921L272.489 169.825Z" fill="#0662AF"/>
<path d="M303.48 175.289H299.838L298.368 171.519H291.754L290.38 175.289H286.865L293.255 158.77H296.77L303.384 175.289H303.512H303.48ZM297.313 168.675L295.045 162.54L292.776 168.675H297.345H297.313Z" fill="#0662AF"/>
<path d="M312.817 169.156V166.408H319.974V173.022C319.303 173.693 318.281 174.269 316.907 174.844C315.533 175.419 314.287 175.643 312.913 175.643C311.539 175.643 309.717 175.291 308.343 174.492C307.097 173.821 306.075 172.799 305.5 171.425C304.829 170.051 304.477 168.581 304.477 166.983C304.477 165.386 304.829 163.692 305.5 162.414C306.171 161.04 307.321 160.018 308.695 159.347C309.717 158.771 311.091 158.548 312.689 158.548C314.287 158.548 316.332 158.995 317.482 159.794C318.632 160.721 319.431 161.839 319.751 163.309L316.459 163.884C316.236 163.085 315.788 162.414 315.085 161.935C314.414 161.487 313.616 161.264 312.689 161.264C311.219 161.264 310.069 161.711 309.27 162.638C308.343 163.564 308.024 164.906 308.024 166.728C308.024 168.549 308.471 170.147 309.27 171.169C310.069 172.192 311.315 172.639 312.689 172.639C314.063 172.639 314.063 172.639 314.734 172.192C315.405 171.744 315.98 171.616 316.555 171.169V169.124H312.689H312.817V169.156Z" fill="#0662AF"/>
<path d="M325.34 175.289L321.346 158.77H324.765L327.257 170.145L330.324 158.77H334.319L337.162 170.273L339.655 158.77H342.946L338.952 175.289H335.437L332.146 162.987L328.855 175.289H325.212H325.34Z" fill="#0662AF"/>
<path d="M42.3999 90.455C42.3999 58.0227 61.4119 32.4923 86.4631 30C74.7364 38.2119 65.0546 58.0227 65.0546 90.455C65.0546 122.887 74.7364 142.698 86.4631 150.91C61.4119 148.417 42.3999 122.887 42.3999 90.455Z" fill="#0662AF"/>
<path d="M74.416 90.4549C74.416 122.887 83.3948 144.647 93.7795 150.91C88.667 142.698 82.2764 122.887 82.2764 90.4549C82.2764 58.0227 88.667 38.2119 93.7795 30C83.4267 36.2628 74.416 58.0227 74.416 90.4549Z" fill="#0662AF"/>
<path d="M34.6651 90.4533C34.6651 72.9112 40.8001 57.6698 50.4818 47.7644C38.3078 55.6248 30 71.5692 30 90.4533C30 109.337 38.2119 125.282 50.4818 133.142C40.7042 123.237 34.6651 107.995 34.6651 90.4533Z" fill="#0662AF"/>
<path d="M150.781 90.4542C150.781 70.0683 144.742 52.3026 133.367 40.7996C147.714 49.7783 157.267 68.3428 157.267 90.4542C157.267 112.566 147.714 131.098 133.367 140.109C144.742 128.606 150.781 110.84 150.781 90.4542Z" fill="#0662AF"/>
<path d="M104.003 30.3525C116.753 45.2745 120.97 65.9799 120.97 90.8073C120.97 115.635 116.753 136.468 104.003 151.262C123.239 141.133 130.972 117.68 130.972 90.8073C130.972 63.935 123.239 40.3857 104.003 30.3525Z" fill="#0662AF"/>
</svg>
