<svg viewBox="0 0 32 32" fill="none" xmlns="http://www.w3.org/2000/svg">
<style>path{fill:#000}@media (prefers-color-scheme:dark){path{fill:#fff}}</style>
<path d="M11.127 12.3625L12.3766 9.62964L13.5709 12.3625H11.127ZM16.2357 15.4566L12.3978 6.90953L8.41968 15.4566H9.72873L10.6255 13.5015H14.0681L14.9139 15.4566H16.2442H16.2357Z" />
<path d="M20.2011 20.7863L21.4506 18.0535L22.6449 20.7863H20.2011ZM21.2424 15.8264L18.025 22.7372H15.4154V20.0511H18.2843V18.912H15.4154V16.9782H18.6413V15.8391H14.2041V23.8805H17.4937H18.8028L19.6996 21.9254H23.1422L23.988 23.8805H25.3183L21.7014 15.8264H21.2509H21.2424Z" />
<path d="M27.9321 13.6801C26.9716 13.7736 26.2576 13.5228 26.2576 13.5228C26.2576 13.5228 27.0821 14.8446 27.8599 14.7256C29.0117 14.5513 29.4622 14.7256 29.4622 14.7256C29.2327 14.3686 28.8969 13.5865 27.9321 13.6801Z" />
<path d="M31.9019 17.6625C31.4557 16.3109 30.1041 12.558 30.1041 12.558C31.0221 18.1215 30.9159 18.1045 30.4271 18.1385C29.9383 18.1725 30.2911 17.5647 30.2911 17.5647H29.4666C29.1478 18.4062 29.6068 18.8483 30.9074 18.7803C32.0082 18.7208 32.1314 18.3382 31.9062 17.6582" />
<path d="M30.8392 19.7365C30.6437 19.643 30.4099 19.6685 29.9807 19.8045C29.6661 19.9023 28.7694 20.2933 28.5271 20.1701C28.5271 20.1701 30.3844 21.0626 30.7414 20.9606C31.1027 20.8586 30.8349 20.1956 30.8349 20.1956C30.8349 20.1956 31.0134 19.8173 30.8349 19.7323" />
<path d="M28.3825 12.711C29.7766 12.9958 29.7808 11.878 28.0935 11.674C26.4062 11.4657 25.0886 12.7578 25.0886 12.7578C25.7261 12.3965 26.9884 12.4305 28.3825 12.711Z" />
<path d="M17.383 15.4354L19.3934 10.1184L21.3272 15.4354H21.6459L25.0843 7.24955H23.7583L21.5269 12.6515L19.4231 6.85853L17.2215 12.6515L15.1177 7.24955H13.7959L17.0643 15.4354H17.383Z" />
<path d="M30.4908 23.0304C29.7088 23.2854 26.1982 22.0104 25.9729 21.7384V22.5799C27.1587 23.1452 29.3348 23.8635 30.5801 23.7445C31.7616 23.6339 30.9753 21.4239 30.9753 21.4239C31.0476 21.6916 30.9116 22.8902 30.4866 23.0262" />
<path d="M31.4129 9.68065C31.6551 8.87736 31.2046 8.32059 30.3248 8.17609L30.1548 8.86886C30.4736 8.86886 30.8688 8.96662 30.8263 9.41288C30.7838 9.81665 30.2951 9.84215 30.1421 9.68915C29.9891 9.53614 30.0741 9.22163 30.2866 9.25988C30.5076 9.29813 30.3801 9.52339 30.3801 9.52339C30.6648 9.44264 30.6606 9.06862 30.2908 9.00062C30.0188 8.94962 29.6958 9.11962 29.6958 9.52339C29.6958 10.4584 31.1239 10.6454 31.4129 9.6764" />
<path d="M29.5471 9.52339L28.8883 8.69886C28.7268 8.90287 28.1445 9.23013 27.7068 8.86036C27.252 8.4736 27.4985 7.75957 28.0128 7.82332C28.2805 7.85732 28.34 8.11233 28.3018 8.29509C28.238 8.6096 27.8215 8.5841 27.8215 8.5841C28.034 8.71161 28.2763 8.77111 28.5228 8.66061C29.0923 8.40135 29.0498 7.58106 28.6673 7.27505C27.6855 6.48452 26.1257 7.54281 26.776 9.10262C27.3752 10.5392 29.2453 9.8464 29.5513 9.52339" />
<path d="M4.45417 13.6843C4.95144 13.1955 5.2022 12.5793 5.2022 11.8312C5.2022 11.2745 5.04919 10.8027 4.74318 10.4202C4.43717 10.0377 3.9569 9.7104 3.29813 9.44264L2.48634 9.11112C1.89557 8.86886 1.60231 8.5501 1.60231 8.15484C1.60231 7.86582 1.71282 7.62781 1.93807 7.44081C2.16333 7.24955 2.44384 7.1518 2.78386 7.1518C3.06012 7.1518 3.30238 7.1858 3.48513 7.29205C3.77414 7.46206 3.9059 7.60231 4.0589 7.95083L7.30178 15.8986L10.9144 7.2538H9.58411L7.32728 12.8258L5.10444 7.2538C4.70918 6.26351 3.73164 6 2.79661 6C2.10383 6 1.52156 6.20826 1.05829 6.62052C0.590772 7.02854 0.361264 7.53856 0.361264 8.15059C0.361264 9.05587 0.918035 9.74015 2.02733 10.2119L2.80936 10.5392C3.01336 10.6284 3.18762 10.7177 3.33638 10.8154C3.48513 10.9132 3.60414 11.0152 3.69764 11.1257C3.79114 11.2362 3.85915 11.3552 3.90165 11.487C3.94415 11.6187 3.96965 11.7632 3.96965 11.9205C3.96965 12.3115 3.84215 12.6345 3.59139 12.8938C3.34063 13.1488 3.02186 13.2763 2.63935 13.2763C2.15483 13.2763 1.78932 13.102 1.53431 12.7493C1.39405 12.5665 1.2963 12.2392 1.24105 11.759L0 12.031C0.110504 12.7875 0.395265 13.3783 0.845782 13.7948C1.3048 14.2156 1.88707 14.4238 2.5926 14.4238C3.33638 14.4238 3.9569 14.1773 4.45842 13.6886" />
<path d="M5.12567 20.4633L6.37521 17.7305L7.56951 20.4633H5.12567ZM12.0662 20.3868L11.2629 20.0596C10.6806 19.8173 10.3874 19.5028 10.3874 19.1118C10.3874 18.827 10.4979 18.589 10.7189 18.402C10.9399 18.2107 11.2204 18.1172 11.5562 18.1172C11.8324 18.1172 12.0534 18.1725 12.2277 18.283C12.3934 18.3807 12.5677 18.589 12.7547 18.9078L13.7407 18.3255C13.218 17.4245 12.4954 16.9782 11.5689 16.9782C10.8804 16.9782 10.3066 17.1822 9.84334 17.5902C9.38008 17.9982 9.15057 18.4997 9.15057 19.1033C9.15057 20.0001 9.70309 20.6801 10.8039 21.1434L11.5817 21.4664C11.7814 21.5556 11.9557 21.6449 12.1044 21.7384C12.2489 21.8319 12.3679 21.9381 12.4614 22.0444C12.5549 22.1549 12.6229 22.2739 12.6655 22.4057C12.708 22.5374 12.7292 22.6777 12.7292 22.8349C12.7292 23.2259 12.6059 23.5447 12.3552 23.7997C12.1044 24.0547 11.7899 24.178 11.4117 24.178C10.9314 24.178 10.5744 23.9995 10.3236 23.651C10.1919 23.4809 10.0729 23.1877 9.8901 22.7924L6.39221 15.0061L2.41406 23.5532H3.72311L4.6199 21.5981H8.06253L8.7978 23.3024C9.02731 23.8507 9.25682 24.3437 9.63084 24.6922C10.0856 25.1088 10.6636 25.317 11.3607 25.317C12.0959 25.317 12.7122 25.0748 13.2095 24.586C13.7025 24.1015 13.949 23.4894 13.949 22.7499C13.949 22.1974 13.796 21.7299 13.4942 21.3516C13.1925 20.9691 12.7165 20.6503 12.0619 20.3826" />
</svg>
