<svg width="32" height="32" viewBox="0 0 32 32" fill="none" xmlns="http://www.w3.org/2000/svg">
<g clip-path="url(#clip0_2638_154)">
<path d="M16.0037 2C7.16152 2 0 9.16152 0 18.0037C0 26.1841 5.07181 29.3967 8.56705 29.5454C12.6647 29.7165 15.5575 27.2475 16.0855 22.6665C16.2789 21.0156 16.502 19.3498 17.4464 17.8847C18.7702 15.8322 20.8673 14.4044 23.5966 14.4044C27.7314 14.4044 31.0779 17.7583 31.0779 21.8857C31.0779 22.9417 30.8473 23.9456 30.4532 24.8529C31.4423 22.7781 31.9926 20.4578 31.9926 18.0037C31.9926 9.16152 24.831 2 15.9888 2H16.0037Z" fill="#B1B3B4"/>
<path d="M15.3345 2.01476C11.4526 2.21555 8.37378 5.42076 8.37378 9.35476C8.37378 13.2888 11.6682 16.7096 15.7286 16.7096C17.1639 16.7096 18.5546 16.2486 19.685 15.5421C20.8228 14.8281 22.1614 14.4117 23.6041 14.4117C27.7389 14.4117 31.0854 17.7656 31.0854 21.893C31.0854 22.949 30.8548 23.9529 30.4607 24.8602C31.4498 22.7854 32.0001 20.4651 32.0001 18.011C32.0001 9.16884 24.8386 2.00732 15.9964 2.00732C15.7956 2.00732 15.6022 2.00732 15.4014 2.01476H15.3345Z" fill="#004A99"/>
</g>
<defs>
<clipPath id="clip0_2638_154">
<rect width="32" height="32" fill="white"/>
</clipPath>
</defs>
</svg>
