<svg viewBox="0 0 32 32" fill="none" xmlns="http://www.w3.org/2000/svg">
<style>path{fill:#000}@media (prefers-color-scheme:dark){path{fill:#fff}}</style>
<path d="M7.61287 2.48422C7.56221 2.59277 7.48985 2.68684 7.39577 2.75921C7.3017 2.80987 7.20039 2.83881 7.09907 2.83158C6.96158 2.83158 6.82408 2.78092 6.71553 2.70132L6.20174 2.40462C5.98464 2.28883 5.75307 2.18752 5.51426 2.10792C5.21757 2.00661 4.89916 1.96319 4.58798 1.97042C4.29852 1.97042 4.01629 2.00661 3.74131 2.09345C3.51697 2.15857 3.31435 2.27436 3.13343 2.41909C2.97423 2.55659 2.85121 2.72303 2.77161 2.91841C2.692 3.12104 2.64858 3.33813 2.64858 3.55523C2.64858 3.82298 2.72819 4.0835 2.89463 4.29336C3.07554 4.50322 3.29987 4.6769 3.55315 4.79268C3.84985 4.94465 4.16103 5.06767 4.47944 5.16175L5.54321 5.51634C5.8978 5.6466 6.25963 5.79133 6.60699 5.95053C6.9471 6.10974 7.25828 6.3196 7.53327 6.57288C7.80826 6.8334 8.03259 7.14457 8.18456 7.49916C8.36547 7.91888 8.44507 8.36755 8.4306 8.82345C8.4306 9.36619 8.33653 9.90893 8.14114 10.4155C7.95299 10.9003 7.66353 11.3345 7.29446 11.7036C6.90369 12.0799 6.44055 12.3766 5.93399 12.572C5.34059 12.7963 4.71824 12.9049 4.08866 12.8904C3.69789 12.8904 3.31435 12.847 2.93081 12.7746C2.54727 12.695 2.17821 12.5865 1.81638 12.4417C1.46902 12.3042 1.13614 12.1306 0.824969 11.9207C0.52827 11.7253 0.246043 11.501 0 11.2477L0.673001 10.126C0.73813 10.0464 0.810496 9.9813 0.897334 9.92341C0.99141 9.87275 1.09272 9.84381 1.19403 9.84381C1.36771 9.85104 1.52692 9.91617 1.66441 10.0247C1.83085 10.1405 2.02624 10.2708 2.24334 10.4155C2.49662 10.5747 2.76437 10.705 3.0466 10.8063C3.40119 10.9365 3.78472 10.9944 4.16103 10.9872C4.71824 11.0234 5.26098 10.8569 5.70242 10.5168C6.07872 10.1695 6.28134 9.67013 6.25239 9.15633C6.25963 8.86687 6.17279 8.58464 6.00635 8.35307C5.82544 8.13598 5.60834 7.95506 5.35506 7.8248C5.05836 7.67284 4.74719 7.55705 4.42878 7.47021C4.08142 7.3689 3.72683 7.26035 3.37224 7.14457C3.01041 7.02878 2.65582 6.89129 2.3157 6.73208C1.97558 6.57288 1.66441 6.36302 1.38942 6.1025C1.10719 5.82751 0.882861 5.49463 0.730893 5.12557C0.557216 4.66243 0.477614 4.17758 0.48485 3.67825C0.48485 3.22235 0.578925 2.76645 0.75984 2.34673C0.940754 1.91253 1.20851 1.51452 1.55586 1.18888C1.92493 0.834284 2.36636 0.566531 2.84397 0.37838C3.39395 0.16852 3.98735 0.0672078 4.57351 0.0816809C5.26822 0.0744443 5.96293 0.190229 6.61422 0.429036C7.20762 0.638896 7.75036 0.971778 8.20627 1.39874L7.63458 2.49869L7.61287 2.48422Z" />
<path d="M15.9421 11.0233C16.398 11.0233 16.8539 10.9727 17.2953 10.8641C17.6788 10.77 18.0551 10.6398 18.4097 10.4733V8.16488H16.8394C16.7091 8.17212 16.5861 8.1287 16.4848 8.04186C16.398 7.96226 16.3545 7.84647 16.3545 7.73069V6.41363H20.5228V11.4865C20.2116 11.7036 19.8787 11.8989 19.5314 12.0654C19.1768 12.2391 18.8077 12.3838 18.4314 12.4851C18.019 12.6009 17.6065 12.6805 17.1867 12.7312C16.7091 12.789 16.2315 12.8108 15.7467 12.8108C14.8855 12.818 14.0244 12.6588 13.2211 12.3331C11.7014 11.7253 10.5074 10.5095 9.92123 8.98261C9.59559 8.16488 9.43638 7.28925 9.45086 6.40639C9.44362 5.52353 9.59559 4.64791 9.914 3.8157C10.4929 2.26708 11.7159 1.0441 13.2645 0.472412C14.1257 0.146767 15.0447 -0.0124378 15.9638 0.00203528C16.8683 -0.0196744 17.7729 0.132293 18.6196 0.457939C19.3215 0.725692 19.9656 1.11647 20.5228 1.61579L19.8715 2.77364C19.7702 2.97626 19.5676 3.09928 19.3432 3.09928C19.1913 3.09928 19.0393 3.04863 18.9163 2.96179L18.3374 2.63614C18.1347 2.52036 17.9176 2.42628 17.6933 2.34668C17.4328 2.25984 17.1723 2.19471 16.9045 2.15129C16.5716 2.0934 16.2388 2.06446 15.8986 2.07169C15.3269 2.06446 14.7553 2.173 14.2198 2.38286C13.7349 2.58549 13.3007 2.88942 12.9461 3.2802C12.5843 3.68545 12.3093 4.15582 12.1284 4.66962C11.933 5.25578 11.8389 5.87089 11.8462 6.486C11.8317 7.14452 11.933 7.79581 12.1429 8.41816C12.3238 8.94643 12.6132 9.43128 12.9895 9.84376C13.3514 10.2273 13.8 10.5312 14.2921 10.7339C14.8204 10.9365 15.3848 11.0378 15.9493 11.0306L15.9421 11.0233Z" />
<path d="M22.7156 12.7384V0.211878H27.043C27.7522 0.197405 28.4542 0.277007 29.1416 0.443448C29.6554 0.573707 30.1475 0.79804 30.5745 1.11645C30.9291 1.39144 31.2113 1.74603 31.3922 2.15851C31.5659 2.59994 31.6527 3.07032 31.6455 3.54793C31.6455 3.8374 31.6021 4.11962 31.5152 4.39461C31.4284 4.6696 31.2909 4.92288 31.11 5.14721C30.9146 5.39326 30.683 5.61035 30.4153 5.78403C30.1041 5.97942 29.7712 6.13862 29.4166 6.24717C31.1389 6.63071 32.0001 7.56423 32.0001 9.03325C32.0001 9.53981 31.8988 10.0391 31.7034 10.5023C31.5008 10.9509 31.1968 11.3417 30.8205 11.6601C30.4008 12.0075 29.9087 12.268 29.3877 12.4272C28.7581 12.6226 28.1068 12.7167 27.4483 12.7022L22.7156 12.7384ZM25.0313 5.63206H26.8911C27.5207 5.67548 28.1502 5.52352 28.693 5.19787C29.1199 4.87223 29.3515 4.35119 29.3081 3.81569C29.366 3.28742 29.1561 2.77362 28.7581 2.42627C28.2371 2.10786 27.6292 1.96313 27.0286 2.01378H25.0385V5.63206H25.0313ZM25.0313 7.24582V10.922H27.3904C27.7595 10.9292 28.1285 10.8786 28.4759 10.7628C28.7364 10.676 28.9752 10.5385 29.1778 10.3503C29.3515 10.1766 29.4818 9.974 29.5614 9.74243C29.641 9.50363 29.6772 9.25758 29.6772 9.0043C29.6772 8.75826 29.641 8.51222 29.5469 8.27341C29.4601 8.04908 29.3226 7.84645 29.1344 7.69449C28.9246 7.52805 28.6857 7.40502 28.4252 7.33989C28.0851 7.25306 27.7305 7.20964 27.3832 7.21687L25.024 7.23858L25.0313 7.24582Z" />
<path d="M8.0541 21.3572C8.00344 21.4657 7.93108 21.5598 7.82977 21.6249C7.74293 21.6756 7.64162 21.7045 7.53307 21.7045C7.39557 21.6973 7.25808 21.6466 7.14229 21.5743C6.99756 21.4802 6.83112 21.3861 6.63573 21.2776C6.4114 21.1545 6.17983 21.0605 5.94102 20.9809C5.63709 20.8868 5.32591 20.8434 5.01474 20.8506C4.73252 20.8506 4.44305 20.8868 4.16806 20.9664C3.9582 21.0387 3.76282 21.1473 3.58914 21.292C3.4227 21.4295 3.29968 21.596 3.22007 21.7914C3.14047 21.994 3.09705 22.2111 3.09705 22.4282C3.08981 22.6959 3.17665 22.9564 3.34309 23.1591C3.52401 23.3689 3.74834 23.5426 3.99439 23.6584C4.29109 23.8104 4.60226 23.9334 4.92067 24.0347C5.26802 24.1432 5.62261 24.259 5.97721 24.3893C6.33903 24.5123 6.69363 24.657 7.04098 24.8235C7.3811 24.9827 7.69227 25.1925 7.96726 25.4458C8.24949 25.7063 8.47382 26.0175 8.62579 26.3649C8.79947 26.7846 8.88631 27.2405 8.87183 27.6964C8.87183 28.2391 8.77776 28.7819 8.57513 29.2812C8.38698 29.766 8.09752 30.2075 7.72846 30.5765C7.33768 30.9528 6.87454 31.2495 6.36798 31.4449C5.78182 31.662 5.15224 31.7706 4.52266 31.7561C4.13188 31.7561 3.74834 31.7199 3.3648 31.6403C2.98127 31.568 2.6122 31.4522 2.25037 31.3074C1.90302 31.1699 1.57014 30.9963 1.25173 30.7864C0.955027 30.591 0.672801 30.3667 0.426758 30.1134L1.09976 28.999C1.16489 28.9194 1.24449 28.847 1.33133 28.7963C1.41817 28.7385 1.52672 28.7095 1.62803 28.7095C1.80171 28.724 1.96091 28.7819 2.09841 28.8904C2.26485 29.0134 2.46023 29.1365 2.67733 29.2812C2.93061 29.4404 3.2056 29.5707 3.48783 29.6792C3.84965 29.8022 4.22596 29.8601 4.60226 29.8529C5.15224 29.8891 5.70222 29.7226 6.14365 29.3825C6.51995 29.0352 6.72257 28.5358 6.68639 28.022C6.70086 27.7326 6.61402 27.4431 6.44035 27.2115C6.26667 26.9944 6.04233 26.8135 5.78905 26.6905C5.49236 26.5385 5.18842 26.4155 4.86277 26.3287C4.50818 26.2274 4.16083 26.1261 3.799 26.0103C3.43717 25.8945 3.08981 25.757 2.7497 25.5978C2.40958 25.4386 2.09117 25.2215 1.82342 24.961C1.54119 24.686 1.31686 24.3531 1.17212 23.9913C0.99121 23.5281 0.911608 23.0433 0.926081 22.544C0.926081 22.0881 1.02016 21.6321 1.20107 21.2124C1.38922 20.7782 1.65697 20.3875 1.99709 20.0546C2.37339 19.7072 2.80759 19.4322 3.2852 19.2513C3.83518 19.0415 4.42858 18.9401 5.01474 18.9474C5.70945 18.9401 6.40416 19.0559 7.05545 19.2947C7.64885 19.5046 8.1916 19.8375 8.6475 20.2644L8.04686 21.3644L8.0541 21.3572Z" />
<path d="M19.4231 21.3571C19.3724 21.4657 19.3001 21.5525 19.206 21.6249C19.1119 21.6755 19.0106 21.7045 18.9093 21.7045C18.7718 21.6972 18.6343 21.6538 18.5257 21.5742L18.012 21.2775C17.7949 21.1617 17.5633 21.0604 17.3245 20.9808C17.0205 20.8867 16.7094 20.8433 16.391 20.8505C16.1087 20.8505 15.8193 20.8867 15.5443 20.9663C15.3344 21.0387 15.139 21.1472 14.9654 21.292C14.8062 21.4295 14.6759 21.6031 14.5963 21.7913C14.5167 21.9939 14.4733 22.211 14.4733 22.4281C14.466 22.6959 14.5529 22.9564 14.7193 23.159C14.9002 23.3689 15.1246 23.5353 15.3706 23.6583C15.6673 23.8103 15.9785 23.9333 16.2969 24.0346C16.6442 24.1432 16.9988 24.259 17.3607 24.3892C17.7225 24.5122 18.0771 24.657 18.4172 24.8234C18.7573 24.9826 19.0685 25.1925 19.3435 25.4458C19.6257 25.7063 19.8428 26.0174 19.9948 26.3648C20.1685 26.7845 20.2553 27.2404 20.2408 27.6963C20.2408 28.2391 20.1467 28.7746 19.9514 29.2811C19.7632 29.766 19.4737 30.2074 19.1047 30.5765C18.7139 30.9528 18.2435 31.2495 17.737 31.4449C17.1508 31.662 16.5212 31.7705 15.8916 31.756C15.5009 31.756 15.1173 31.7199 14.7338 31.6403C14.3502 31.5679 13.9812 31.4521 13.6194 31.3074C13.272 31.1699 12.9391 30.9962 12.6279 30.7863C12.324 30.591 12.049 30.3666 11.803 30.1133L12.476 28.9989C12.5411 28.9193 12.6207 28.8469 12.7075 28.7963C12.7944 28.7384 12.9029 28.7094 13.0042 28.7094C13.1779 28.7239 13.3371 28.7818 13.4746 28.8904C13.6411 29.0134 13.8365 29.1364 14.0536 29.2811C14.3068 29.4403 14.5746 29.5706 14.8568 29.6791C15.2186 29.8022 15.5949 29.8601 15.9712 29.8528C16.5212 29.889 17.0712 29.7226 17.5126 29.3825C17.8889 29.0351 18.0916 28.5358 18.0554 28.022C18.0698 27.7325 17.983 27.4503 17.8093 27.2115C17.6284 26.9944 17.4041 26.8135 17.1508 26.6905C16.8541 26.5385 16.5502 26.4155 16.2245 26.3286C15.8772 26.2273 15.5226 26.126 15.168 26.0102C14.8062 25.8944 14.4516 25.7569 14.1114 25.5977C13.7713 25.4385 13.4602 25.2214 13.1852 24.9609C12.9029 24.6859 12.6786 24.353 12.5266 23.9912C12.353 23.5281 12.2734 23.0432 12.2806 22.5439C12.2806 21.6031 12.6714 20.7058 13.3516 20.0545C13.7207 19.7072 14.1621 19.4322 14.6397 19.2513C15.1897 19.0414 15.7831 18.9329 16.3693 18.9473C17.064 18.9401 17.7587 19.0559 18.41 19.2947C19.0034 19.5045 19.5461 19.8374 20.002 20.2644L19.4014 21.3643L19.4231 21.3571Z" />
<path d="M31.9856 19.0776V20.9302H26.4279V24.3965H30.806V26.1839H26.4279V29.7299H31.9856V31.5897H24.0833V19.0776H31.9856Z" />
</svg>
