<svg viewBox="0 0 32 32" fill="none" xmlns="http://www.w3.org/2000/svg">
<style>path{fill:#000}@media (prefers-color-scheme:dark){path{fill:#fff}}</style>
<path d="M31.9941 11C31.5778 12.4078 31.1616 13.8184 30.7424 15.2262C30.7193 15.3042 30.6933 15.3823 30.6702 15.4603H17.5985C17.6534 15.3014 17.7025 15.1539 17.7661 15.0152C17.7806 14.9834 17.8586 14.9689 17.9078 14.9689C18.3096 14.966 18.7085 14.9689 19.1103 14.9689H22.5155C24.2788 14.9689 26.0451 14.9603 27.8113 14.9574C28.6698 14.9574 29.5312 14.9574 30.4071 14.9574C30.7627 13.7346 31.1124 12.5263 31.468 11.3064H18.6189C18.509 11.6938 18.3963 12.084 18.2864 12.4771C17.954 13.6594 17.6187 14.8417 17.292 16.0269C17.2574 16.1512 17.2111 16.2148 17.0695 16.1975C16.9625 16.183 16.8527 16.1975 16.7168 16.1975C16.7659 16.0211 16.8093 15.8593 16.8555 15.7003C17.2892 14.1884 17.7228 12.6766 18.1564 11.1648C18.1708 11.1127 18.1766 11.0578 18.1853 11.0058H31.9999L31.9941 11Z" />
<path d="M31.9941 11C31.5778 12.4078 31.1616 13.8184 30.7424 15.2262C30.7193 15.3042 30.6933 15.3823 30.6702 15.4603H17.5985C17.6534 15.3014 17.7025 15.1539 17.7661 15.0152C17.7806 14.9834 17.8586 14.9689 17.9078 14.9689C18.3096 14.966 18.7085 14.9689 19.1103 14.9689H22.5155C24.2788 14.9689 26.0451 14.9603 27.8113 14.9574C28.6698 14.9574 29.5312 14.9574 30.4071 14.9574C30.7627 13.7346 31.1124 12.5263 31.468 11.3064H18.6189C18.509 11.6938 18.3963 12.084 18.2864 12.4771C17.954 13.6594 17.6187 14.8417 17.292 16.0269C17.2574 16.1512 17.2111 16.2148 17.0695 16.1975C16.9625 16.183 16.8527 16.1975 16.7168 16.1975C16.7659 16.0211 16.8093 15.8593 16.8555 15.7003C17.2892 14.1884 17.7228 12.6766 18.1564 11.1648C18.1708 11.1127 18.1766 11.0578 18.1853 11.0058H31.9999L31.9941 11Z" />
<path d="M31.9941 11C31.5778 12.4078 31.1616 13.8184 30.7424 15.2262C30.7193 15.3042 30.6933 15.3823 30.6702 15.4603H17.5985C17.6534 15.3014 17.7025 15.1539 17.7661 15.0152C17.7806 14.9834 17.8586 14.9689 17.9078 14.9689C18.3096 14.966 18.7085 14.9689 19.1103 14.9689H22.5155C24.2788 14.9689 26.0451 14.9603 27.8113 14.9574C28.6698 14.9574 29.5312 14.9574 30.4071 14.9574C30.7627 13.7346 31.1124 12.5263 31.468 11.3064H18.6189C18.509 11.6938 18.3963 12.084 18.2864 12.4771C17.954 13.6594 17.6187 14.8417 17.292 16.0269C17.2574 16.1512 17.2111 16.2148 17.0695 16.1975C16.9625 16.183 16.8527 16.1975 16.7168 16.1975C16.7659 16.0211 16.8093 15.8593 16.8555 15.7003C17.2892 14.1884 17.7228 12.6766 18.1564 11.1648C18.1708 11.1127 18.1766 11.0578 18.1853 11.0058H31.9999L31.9941 11Z" />
<path d="M16.6014 11C16.5118 11.3295 16.4251 11.6649 16.3297 11.9915C16.0695 12.8818 15.8065 13.7722 15.5492 14.6625C15.5203 14.7666 15.4798 14.8186 15.3613 14.807C15.2197 14.7955 15.078 14.807 14.9046 14.807C15.2428 13.6305 15.5752 12.4714 15.9134 11.3006H3.05275C2.70587 12.5147 2.35609 13.7346 2.00343 14.9718H16.8211C16.7749 15.1221 16.7402 15.258 16.6881 15.391C16.6766 15.4228 16.6217 15.4488 16.5812 15.4632C16.5465 15.4748 16.506 15.4632 16.4684 15.4632H1.56982C1.69123 15.0354 1.80975 14.622 1.92827 14.2087C2.22312 13.1738 2.51797 12.1389 2.81571 11.107C2.82438 11.0694 2.83884 11.0347 2.85329 11H16.6014Z" />
<path d="M16.6014 11C16.5118 11.3295 16.4251 11.6649 16.3297 11.9915C16.0695 12.8818 15.8065 13.7722 15.5492 14.6625C15.5203 14.7666 15.4798 14.8186 15.3613 14.807C15.2197 14.7955 15.078 14.807 14.9046 14.807C15.2428 13.6305 15.5752 12.4714 15.9134 11.3006H3.05275C2.70587 12.5147 2.35609 13.7346 2.00343 14.9718H16.8211C16.7749 15.1221 16.7402 15.258 16.6881 15.391C16.6766 15.4228 16.6217 15.4488 16.5812 15.4632C16.5465 15.4748 16.506 15.4632 16.4684 15.4632H1.56982C1.69123 15.0354 1.80975 14.622 1.92827 14.2087C2.22312 13.1738 2.51797 12.1389 2.81571 11.107C2.82438 11.0694 2.83884 11.0347 2.85329 11H16.6014Z" />
<path d="M16.6014 11C16.5118 11.3295 16.4251 11.6649 16.3297 11.9915C16.0695 12.8818 15.8065 13.7722 15.5492 14.6625C15.5203 14.7666 15.4798 14.8186 15.3613 14.807C15.2197 14.7955 15.078 14.807 14.9046 14.807C15.2428 13.6305 15.5752 12.4714 15.9134 11.3006H3.05275C2.70587 12.5147 2.35609 13.7346 2.00343 14.9718H16.8211C16.7749 15.1221 16.7402 15.258 16.6881 15.391C16.6766 15.4228 16.6217 15.4488 16.5812 15.4632C16.5465 15.4748 16.506 15.4632 16.4684 15.4632H1.56982C1.69123 15.0354 1.80975 14.622 1.92827 14.2087C2.22312 13.1738 2.51797 12.1389 2.81571 11.107C2.82438 11.0694 2.83884 11.0347 2.85329 11H16.6014Z" />
<path d="M15.3727 20.7879C15.5057 20.334 15.6271 19.9062 15.7543 19.4784C15.9827 18.7037 16.211 17.929 16.4336 17.1514C16.4683 17.0329 16.5145 16.978 16.6446 16.9895C16.7776 17.0011 16.9163 16.9895 17.084 16.9895C16.7458 18.1631 16.4163 19.3136 16.0809 20.4815H28.9387C29.2827 19.2789 29.6325 18.0649 29.9852 16.8276H15.1675C15.2224 16.6455 15.2744 16.4865 15.3236 16.3275H30.4217C30.332 16.6484 30.2453 16.9606 30.1557 17.2728C29.8377 18.3857 29.5169 19.4986 29.2047 20.6116C29.1671 20.7445 29.118 20.7908 28.9734 20.7908C24.5073 20.7879 20.0383 20.7879 15.5722 20.7879H15.3785H15.3727Z" />
<path d="M15.3727 20.7879C15.5057 20.334 15.6271 19.9062 15.7543 19.4784C15.9827 18.7037 16.211 17.929 16.4336 17.1514C16.4683 17.0329 16.5145 16.978 16.6446 16.9895C16.7776 17.0011 16.9163 16.9895 17.084 16.9895C16.7458 18.1631 16.4163 19.3136 16.0809 20.4815H28.9387C29.2827 19.2789 29.6325 18.0649 29.9852 16.8276H15.1675C15.2224 16.6455 15.2744 16.4865 15.3236 16.3275H30.4217C30.332 16.6484 30.2453 16.9606 30.1557 17.2728C29.8377 18.3857 29.5169 19.4986 29.2047 20.6116C29.1671 20.7445 29.118 20.7908 28.9734 20.7908C24.5073 20.7879 20.0383 20.7879 15.5722 20.7879H15.3785H15.3727Z" />
<path d="M15.3727 20.7879C15.5057 20.334 15.6271 19.9062 15.7543 19.4784C15.9827 18.7037 16.211 17.929 16.4336 17.1514C16.4683 17.0329 16.5145 16.978 16.6446 16.9895C16.7776 17.0011 16.9163 16.9895 17.084 16.9895C16.7458 18.1631 16.4163 19.3136 16.0809 20.4815H28.9387C29.2827 19.2789 29.6325 18.0649 29.9852 16.8276H15.1675C15.2224 16.6455 15.2744 16.4865 15.3236 16.3275H30.4217C30.332 16.6484 30.2453 16.9606 30.1557 17.2728C29.8377 18.3857 29.5169 19.4986 29.2047 20.6116C29.1671 20.7445 29.118 20.7908 28.9734 20.7908C24.5073 20.7879 20.0383 20.7879 15.5722 20.7879H15.3785H15.3727Z" />
<path d="M14.3928 16.3304C14.3234 16.5154 14.2598 16.6773 14.1962 16.845H1.5841C1.23143 18.0591 0.881661 19.2645 0.523215 20.493H0.71111C4.87082 20.493 9.03341 20.493 13.1931 20.493C13.329 20.493 13.3868 20.4612 13.4244 20.3196C13.8435 18.8049 14.2771 17.2902 14.6992 15.7783C14.7367 15.6425 14.7859 15.5702 14.9391 15.5933C15.0403 15.6078 15.1472 15.5933 15.2744 15.5933C15.2397 15.7234 15.2108 15.8419 15.179 15.9604C14.731 17.5185 14.2829 19.0795 13.8377 20.6376C13.8059 20.7503 13.7597 20.7908 13.6383 20.7908C9.14326 20.7879 4.64823 20.7908 0.153207 20.7908C0.109846 20.7908 0.0664859 20.7879 0 20.785C0.439385 19.2934 0.87588 17.8134 1.31237 16.3333H14.3899L14.3928 16.3304Z" />
<path d="M14.3928 16.3304C14.3234 16.5154 14.2598 16.6773 14.1962 16.845H1.5841C1.23143 18.0591 0.881661 19.2645 0.523215 20.493H0.71111C4.87082 20.493 9.03341 20.493 13.1931 20.493C13.329 20.493 13.3868 20.4612 13.4244 20.3196C13.8435 18.8049 14.2771 17.2902 14.6992 15.7783C14.7367 15.6425 14.7859 15.5702 14.9391 15.5933C15.0403 15.6078 15.1472 15.5933 15.2744 15.5933C15.2397 15.7234 15.2108 15.8419 15.179 15.9604C14.731 17.5185 14.2829 19.0795 13.8377 20.6376C13.8059 20.7503 13.7597 20.7908 13.6383 20.7908C9.14326 20.7879 4.64823 20.7908 0.153207 20.7908C0.109846 20.7908 0.0664859 20.7879 0 20.785C0.439385 19.2934 0.87588 17.8134 1.31237 16.3333H14.3899L14.3928 16.3304Z" />
<path d="M14.3928 16.3304C14.3234 16.5154 14.2598 16.6773 14.1962 16.845H1.5841C1.23143 18.0591 0.881661 19.2645 0.523215 20.493H0.71111C4.87082 20.493 9.03341 20.493 13.1931 20.493C13.329 20.493 13.3868 20.4612 13.4244 20.3196C13.8435 18.8049 14.2771 17.2902 14.6992 15.7783C14.7367 15.6425 14.7859 15.5702 14.9391 15.5933C15.0403 15.6078 15.1472 15.5933 15.2744 15.5933C15.2397 15.7234 15.2108 15.8419 15.179 15.9604C14.731 17.5185 14.2829 19.0795 13.8377 20.6376C13.8059 20.7503 13.7597 20.7908 13.6383 20.7908C9.14326 20.7879 4.64823 20.7908 0.153207 20.7908C0.109846 20.7908 0.0664859 20.7879 0 20.785C0.439385 19.2934 0.87588 17.8134 1.31237 16.3333H14.3899L14.3928 16.3304Z" />
<path d="M13.4561 12.6997C13.3347 12.7113 13.2219 12.7229 13.1034 12.7344C12.9618 12.3557 12.6525 12.2806 12.3027 12.3008C11.8691 12.3297 11.5135 12.5089 11.3459 12.931C11.2852 13.0871 11.2678 13.2721 11.2765 13.4426C11.2909 13.7346 11.5453 13.9514 11.9038 13.9456C12.1726 13.9427 12.4385 13.8676 12.7045 13.8126C12.7478 13.804 12.797 13.7404 12.8143 13.6912C12.8548 13.5901 12.875 13.4831 12.9126 13.353H12.109C12.1148 13.1102 12.1206 13.1044 12.3374 13.1044H13.3636C13.2826 13.3906 13.2104 13.6594 13.1323 13.9225C13.1236 13.9485 13.0774 13.9716 13.0427 13.9861C12.586 14.1711 12.1148 14.2434 11.6291 14.1509C11.0337 14.0381 10.7475 13.5698 10.9354 12.9946C11.1088 12.4627 11.5077 12.1881 12.0425 12.0869C12.3547 12.0291 12.664 12.0407 12.9646 12.1476C13.2248 12.2401 13.404 12.4078 13.459 12.6968L13.4561 12.6997Z" />
<path d="M13.4561 12.6997C13.3347 12.7113 13.2219 12.7229 13.1034 12.7344C12.9618 12.3557 12.6525 12.2806 12.3027 12.3008C11.8691 12.3297 11.5135 12.5089 11.3459 12.931C11.2852 13.0871 11.2678 13.2721 11.2765 13.4426C11.2909 13.7346 11.5453 13.9514 11.9038 13.9456C12.1726 13.9427 12.4385 13.8676 12.7045 13.8126C12.7478 13.804 12.797 13.7404 12.8143 13.6912C12.8548 13.5901 12.875 13.4831 12.9126 13.353H12.109C12.1148 13.1102 12.1206 13.1044 12.3374 13.1044H13.3636C13.2826 13.3906 13.2104 13.6594 13.1323 13.9225C13.1236 13.9485 13.0774 13.9716 13.0427 13.9861C12.586 14.1711 12.1148 14.2434 11.6291 14.1509C11.0337 14.0381 10.7475 13.5698 10.9354 12.9946C11.1088 12.4627 11.5077 12.1881 12.0425 12.0869C12.3547 12.0291 12.664 12.0407 12.9646 12.1476C13.2248 12.2401 13.404 12.4078 13.459 12.6968L13.4561 12.6997Z" />
<path d="M13.4561 12.6997C13.3347 12.7113 13.2219 12.7229 13.1034 12.7344C12.9618 12.3557 12.6525 12.2806 12.3027 12.3008C11.8691 12.3297 11.5135 12.5089 11.3459 12.931C11.2852 13.0871 11.2678 13.2721 11.2765 13.4426C11.2909 13.7346 11.5453 13.9514 11.9038 13.9456C12.1726 13.9427 12.4385 13.8676 12.7045 13.8126C12.7478 13.804 12.797 13.7404 12.8143 13.6912C12.8548 13.5901 12.875 13.4831 12.9126 13.353H12.109C12.1148 13.1102 12.1206 13.1044 12.3374 13.1044H13.3636C13.2826 13.3906 13.2104 13.6594 13.1323 13.9225C13.1236 13.9485 13.0774 13.9716 13.0427 13.9861C12.586 14.1711 12.1148 14.2434 11.6291 14.1509C11.0337 14.0381 10.7475 13.5698 10.9354 12.9946C11.1088 12.4627 11.5077 12.1881 12.0425 12.0869C12.3547 12.0291 12.664 12.0407 12.9646 12.1476C13.2248 12.2401 13.404 12.4078 13.459 12.6968L13.4561 12.6997Z" />
<path d="M3.77248 19.039C3.75803 19.2992 3.88811 19.4524 4.10202 19.4813C4.36218 19.516 4.63391 19.5044 4.89696 19.4957C4.97212 19.4957 5.05016 19.4379 5.11376 19.3888C5.27853 19.2645 5.26986 19.0882 5.08774 18.9957C4.93743 18.9205 4.77266 18.8743 4.61367 18.8135C4.40554 18.7326 4.18296 18.6748 3.99217 18.5649C3.64818 18.3713 3.65685 17.9752 4.0153 17.8047C4.51539 17.5677 5.03282 17.5792 5.53869 17.8047C5.74104 17.8972 5.81909 18.0475 5.81909 18.2643C5.70346 18.273 5.58494 18.2817 5.46932 18.2903C5.3797 17.9088 5.07329 17.8914 4.78422 17.8856C4.61945 17.8827 4.4489 17.9232 4.2928 17.9781C4.22632 18.0042 4.15405 18.1111 4.14827 18.1863C4.14827 18.2499 4.22343 18.3481 4.28991 18.3771C4.50382 18.4696 4.73219 18.536 4.95477 18.617C5.09353 18.6661 5.23517 18.7124 5.36525 18.7789C5.71502 18.961 5.73815 19.3223 5.4115 19.5536C5.134 19.7501 4.81024 19.7906 4.48648 19.7761C4.26101 19.7675 4.02975 19.7241 3.81006 19.6663C3.53544 19.594 3.40536 19.3888 3.3938 19.0824C3.51521 19.0679 3.63662 19.0564 3.78115 19.039H3.77826H3.77248Z" />
<path d="M3.77248 19.039C3.75803 19.2992 3.88811 19.4524 4.10202 19.4813C4.36218 19.516 4.63391 19.5044 4.89696 19.4957C4.97212 19.4957 5.05016 19.4379 5.11376 19.3888C5.27853 19.2645 5.26986 19.0882 5.08774 18.9957C4.93743 18.9205 4.77266 18.8743 4.61367 18.8135C4.40554 18.7326 4.18296 18.6748 3.99217 18.5649C3.64818 18.3713 3.65685 17.9752 4.0153 17.8047C4.51539 17.5677 5.03282 17.5792 5.53869 17.8047C5.74104 17.8972 5.81909 18.0475 5.81909 18.2643C5.70346 18.273 5.58494 18.2817 5.46932 18.2903C5.3797 17.9088 5.07329 17.8914 4.78422 17.8856C4.61945 17.8827 4.4489 17.9232 4.2928 17.9781C4.22632 18.0042 4.15405 18.1111 4.14827 18.1863C4.14827 18.2499 4.22343 18.3481 4.28991 18.3771C4.50382 18.4696 4.73219 18.536 4.95477 18.617C5.09353 18.6661 5.23517 18.7124 5.36525 18.7789C5.71502 18.961 5.73815 19.3223 5.4115 19.5536C5.134 19.7501 4.81024 19.7906 4.48648 19.7761C4.26101 19.7675 4.02975 19.7241 3.81006 19.6663C3.53544 19.594 3.40536 19.3888 3.3938 19.0824C3.51521 19.0679 3.63662 19.0564 3.78115 19.039H3.77826H3.77248Z" />
<path d="M3.77248 19.039C3.75803 19.2992 3.88811 19.4524 4.10202 19.4813C4.36218 19.516 4.63391 19.5044 4.89696 19.4957C4.97212 19.4957 5.05016 19.4379 5.11376 19.3888C5.27853 19.2645 5.26986 19.0882 5.08774 18.9957C4.93743 18.9205 4.77266 18.8743 4.61367 18.8135C4.40554 18.7326 4.18296 18.6748 3.99217 18.5649C3.64818 18.3713 3.65685 17.9752 4.0153 17.8047C4.51539 17.5677 5.03282 17.5792 5.53869 17.8047C5.74104 17.8972 5.81909 18.0475 5.81909 18.2643C5.70346 18.273 5.58494 18.2817 5.46932 18.2903C5.3797 17.9088 5.07329 17.8914 4.78422 17.8856C4.61945 17.8827 4.4489 17.9232 4.2928 17.9781C4.22632 18.0042 4.15405 18.1111 4.14827 18.1863C4.14827 18.2499 4.22343 18.3481 4.28991 18.3771C4.50382 18.4696 4.73219 18.536 4.95477 18.617C5.09353 18.6661 5.23517 18.7124 5.36525 18.7789C5.71502 18.961 5.73815 19.3223 5.4115 19.5536C5.134 19.7501 4.81024 19.7906 4.48648 19.7761C4.26101 19.7675 4.02975 19.7241 3.81006 19.6663C3.53544 19.594 3.40536 19.3888 3.3938 19.0824C3.51521 19.0679 3.63662 19.0564 3.78115 19.039H3.77826H3.77248Z" />
<path d="M8.53926 18.2672C8.40629 18.2759 8.28777 18.2845 8.16058 18.2932C8.13168 18.0504 7.96691 17.9406 7.75878 17.9203C7.5333 17.9001 7.30494 17.9116 7.07657 17.9377C6.95806 17.9521 6.84243 18.0215 6.83376 18.166C6.82219 18.3163 6.94071 18.3742 7.05345 18.4146C7.2847 18.4985 7.52174 18.5707 7.753 18.6517C7.85706 18.6864 7.96113 18.7239 8.05652 18.776C8.40629 18.9639 8.42942 19.3136 8.10566 19.5507C8.0623 19.5825 8.01605 19.6143 7.96402 19.6316C7.45236 19.834 6.93782 19.834 6.42906 19.6316C6.18913 19.5362 6.08796 19.3397 6.09374 19.0708C6.21804 19.0593 6.33656 19.0477 6.45219 19.039C6.50422 19.3512 6.59094 19.4408 6.90313 19.5044C7.16619 19.5565 7.42635 19.5622 7.67784 19.4611C7.80214 19.4119 7.92644 19.3425 7.92644 19.1864C7.92644 19.0303 7.80214 18.9783 7.68073 18.935C7.46104 18.8569 7.23267 18.7875 7.01298 18.7066C6.90024 18.6661 6.78751 18.6199 6.68633 18.5563C6.35101 18.3481 6.35679 17.9579 6.71813 17.796C6.93493 17.6977 7.1922 17.6428 7.42924 17.6399C7.68073 17.6399 7.938 17.6948 8.18082 17.7729C8.38317 17.8336 8.51036 18.0013 8.53348 18.2556L8.53926 18.2672Z" />
<path d="M8.53926 18.2672C8.40629 18.2759 8.28777 18.2845 8.16058 18.2932C8.13168 18.0504 7.96691 17.9406 7.75878 17.9203C7.5333 17.9001 7.30494 17.9116 7.07657 17.9377C6.95806 17.9521 6.84243 18.0215 6.83376 18.166C6.82219 18.3163 6.94071 18.3742 7.05345 18.4146C7.2847 18.4985 7.52174 18.5707 7.753 18.6517C7.85706 18.6864 7.96113 18.7239 8.05652 18.776C8.40629 18.9639 8.42942 19.3136 8.10566 19.5507C8.0623 19.5825 8.01605 19.6143 7.96402 19.6316C7.45236 19.834 6.93782 19.834 6.42906 19.6316C6.18913 19.5362 6.08796 19.3397 6.09374 19.0708C6.21804 19.0593 6.33656 19.0477 6.45219 19.039C6.50422 19.3512 6.59094 19.4408 6.90313 19.5044C7.16619 19.5565 7.42635 19.5622 7.67784 19.4611C7.80214 19.4119 7.92644 19.3425 7.92644 19.1864C7.92644 19.0303 7.80214 18.9783 7.68073 18.935C7.46104 18.8569 7.23267 18.7875 7.01298 18.7066C6.90024 18.6661 6.78751 18.6199 6.68633 18.5563C6.35101 18.3481 6.35679 17.9579 6.71813 17.796C6.93493 17.6977 7.1922 17.6428 7.42924 17.6399C7.68073 17.6399 7.938 17.6948 8.18082 17.7729C8.38317 17.8336 8.51036 18.0013 8.53348 18.2556L8.53926 18.2672Z" />
<path d="M8.53926 18.2672C8.40629 18.2759 8.28777 18.2845 8.16058 18.2932C8.13168 18.0504 7.96691 17.9406 7.75878 17.9203C7.5333 17.9001 7.30494 17.9116 7.07657 17.9377C6.95806 17.9521 6.84243 18.0215 6.83376 18.166C6.82219 18.3163 6.94071 18.3742 7.05345 18.4146C7.2847 18.4985 7.52174 18.5707 7.753 18.6517C7.85706 18.6864 7.96113 18.7239 8.05652 18.776C8.40629 18.9639 8.42942 19.3136 8.10566 19.5507C8.0623 19.5825 8.01605 19.6143 7.96402 19.6316C7.45236 19.834 6.93782 19.834 6.42906 19.6316C6.18913 19.5362 6.08796 19.3397 6.09374 19.0708C6.21804 19.0593 6.33656 19.0477 6.45219 19.039C6.50422 19.3512 6.59094 19.4408 6.90313 19.5044C7.16619 19.5565 7.42635 19.5622 7.67784 19.4611C7.80214 19.4119 7.92644 19.3425 7.92644 19.1864C7.92644 19.0303 7.80214 18.9783 7.68073 18.935C7.46104 18.8569 7.23267 18.7875 7.01298 18.7066C6.90024 18.6661 6.78751 18.6199 6.68633 18.5563C6.35101 18.3481 6.35679 17.9579 6.71813 17.796C6.93493 17.6977 7.1922 17.6428 7.42924 17.6399C7.68073 17.6399 7.938 17.6948 8.18082 17.7729C8.38317 17.8336 8.51036 18.0013 8.53348 18.2556L8.53926 18.2672Z" />
<path d="M19.7435 13.4773C19.8505 13.4715 19.9574 13.4658 20.0817 13.4571C20.0875 13.8329 20.3534 13.9225 20.6454 13.9369C20.8535 13.9456 21.0674 13.908 21.2727 13.8589C21.3854 13.8329 21.5097 13.7317 21.475 13.5987C21.4519 13.5062 21.3536 13.4022 21.264 13.3617C21.0357 13.2576 20.7899 13.1911 20.5587 13.0986C20.4488 13.0553 20.339 13.0004 20.2407 12.9281C20.0152 12.7604 20.0123 12.4627 20.2263 12.2777C20.2725 12.2401 20.3216 12.1996 20.3766 12.1794C20.8304 12.0002 21.2843 11.9915 21.7323 12.1852C21.9462 12.2777 22.0474 12.4396 22.0561 12.6679C21.9462 12.6766 21.8335 12.6882 21.7092 12.6968C21.6658 12.4107 21.4606 12.321 21.2178 12.3008C21.0472 12.2892 20.8709 12.3008 20.7003 12.3297C20.5731 12.3499 20.4546 12.4135 20.4402 12.5668C20.4257 12.7257 20.55 12.7836 20.6685 12.8298C20.8622 12.905 21.0617 12.9628 21.2553 13.035C21.3912 13.0871 21.5357 13.1362 21.6571 13.2143C21.9289 13.3906 21.9549 13.7259 21.6889 13.9109C21.5213 14.0294 21.3103 14.1075 21.1079 14.148C20.7553 14.2202 20.3968 14.1913 20.0615 14.0439C19.8216 13.9398 19.7088 13.7346 19.7406 13.4686L19.7435 13.4773Z" />
<path d="M6.04446 12.6824C5.91727 12.6911 5.81031 12.6997 5.6889 12.7084C5.65132 12.4222 5.44319 12.3268 5.20327 12.3153C5.0067 12.3066 4.80146 12.3326 4.61068 12.3789C4.53841 12.3962 4.44591 12.5118 4.44302 12.5841C4.44012 12.6564 4.52395 12.7691 4.59622 12.8009C4.81302 12.9021 5.04717 12.9686 5.26975 13.0524C5.39116 13.0986 5.51835 13.142 5.6282 13.2114C5.91727 13.3906 5.94328 13.7375 5.66578 13.9312C5.50679 14.0439 5.30733 14.1191 5.11366 14.1566C4.77834 14.226 4.43723 14.2029 4.11059 14.0786C3.83597 13.9716 3.72612 13.8011 3.73191 13.4831C3.84175 13.4744 3.95449 13.4658 4.06433 13.4571C4.14238 13.7982 4.22332 13.8994 4.56732 13.9312C4.78412 13.9514 5.01248 13.9196 5.22928 13.8762C5.35647 13.8502 5.4721 13.7519 5.46921 13.5987C5.46921 13.46 5.35358 13.3964 5.23507 13.353C5.02115 13.2721 4.80146 13.2027 4.58755 13.1218C4.48059 13.0813 4.37364 13.0322 4.28114 12.9686C3.97472 12.7633 3.99207 12.3962 4.31583 12.2112C4.58755 12.058 4.88818 12.0291 5.1917 12.0609C5.36804 12.0811 5.54726 12.1216 5.71203 12.1881C5.91149 12.269 6.03001 12.428 6.04446 12.6766V12.6824Z" />
<path d="M6.04446 12.6824C5.91727 12.6911 5.81031 12.6997 5.6889 12.7084C5.65132 12.4222 5.44319 12.3268 5.20327 12.3153C5.0067 12.3066 4.80146 12.3326 4.61068 12.3789C4.53841 12.3962 4.44591 12.5118 4.44302 12.5841C4.44012 12.6564 4.52395 12.7691 4.59622 12.8009C4.81302 12.9021 5.04717 12.9686 5.26975 13.0524C5.39116 13.0986 5.51835 13.142 5.6282 13.2114C5.91727 13.3906 5.94328 13.7375 5.66578 13.9312C5.50679 14.0439 5.30733 14.1191 5.11366 14.1566C4.77834 14.226 4.43723 14.2029 4.11059 14.0786C3.83597 13.9716 3.72612 13.8011 3.73191 13.4831C3.84175 13.4744 3.95449 13.4658 4.06433 13.4571C4.14238 13.7982 4.22332 13.8994 4.56732 13.9312C4.78412 13.9514 5.01248 13.9196 5.22928 13.8762C5.35647 13.8502 5.4721 13.7519 5.46921 13.5987C5.46921 13.46 5.35358 13.3964 5.23507 13.353C5.02115 13.2721 4.80146 13.2027 4.58755 13.1218C4.48059 13.0813 4.37364 13.0322 4.28114 12.9686C3.97472 12.7633 3.99207 12.3962 4.31583 12.2112C4.58755 12.058 4.88818 12.0291 5.1917 12.0609C5.36804 12.0811 5.54726 12.1216 5.71203 12.1881C5.91149 12.269 6.03001 12.428 6.04446 12.6766V12.6824Z" />
<path d="M6.04446 12.6824C5.91727 12.6911 5.81031 12.6997 5.6889 12.7084C5.65132 12.4222 5.44319 12.3268 5.20327 12.3153C5.0067 12.3066 4.80146 12.3326 4.61068 12.3789C4.53841 12.3962 4.44591 12.5118 4.44302 12.5841C4.44012 12.6564 4.52395 12.7691 4.59622 12.8009C4.81302 12.9021 5.04717 12.9686 5.26975 13.0524C5.39116 13.0986 5.51835 13.142 5.6282 13.2114C5.91727 13.3906 5.94328 13.7375 5.66578 13.9312C5.50679 14.0439 5.30733 14.1191 5.11366 14.1566C4.77834 14.226 4.43723 14.2029 4.11059 14.0786C3.83597 13.9716 3.72612 13.8011 3.73191 13.4831C3.84175 13.4744 3.95449 13.4658 4.06433 13.4571C4.14238 13.7982 4.22332 13.8994 4.56732 13.9312C4.78412 13.9514 5.01248 13.9196 5.22928 13.8762C5.35647 13.8502 5.4721 13.7519 5.46921 13.5987C5.46921 13.46 5.35358 13.3964 5.23507 13.353C5.02115 13.2721 4.80146 13.2027 4.58755 13.1218C4.48059 13.0813 4.37364 13.0322 4.28114 12.9686C3.97472 12.7633 3.99207 12.3962 4.31583 12.2112C4.58755 12.058 4.88818 12.0291 5.1917 12.0609C5.36804 12.0811 5.54726 12.1216 5.71203 12.1881C5.91149 12.269 6.03001 12.428 6.04446 12.6766V12.6824Z" />
<path d="M24.6375 12.6737C24.5103 12.6824 24.4034 12.691 24.2848 12.6997C24.2559 12.4309 24.0651 12.3268 23.8426 12.3153C23.6286 12.3037 23.409 12.3268 23.2008 12.3702C23.1286 12.3846 23.0361 12.5032 23.0303 12.5783C23.0303 12.6506 23.1112 12.7604 23.1864 12.7951C23.3945 12.8905 23.6142 12.9541 23.831 13.035C23.9669 13.0871 24.1114 13.1362 24.2328 13.2114C24.5103 13.3848 24.5305 13.697 24.2848 13.9138C24.2212 13.9716 24.1461 14.0208 24.0651 14.0526C23.5968 14.2405 23.1257 14.2318 22.6545 14.0526C22.455 13.9745 22.3452 13.8213 22.3134 13.6074C22.296 13.4947 22.3336 13.4542 22.4406 13.4629C22.5099 13.4658 22.5822 13.4629 22.6516 13.4629C22.6921 13.8358 22.9118 13.9687 23.5246 13.9369C23.6749 13.9283 23.8339 13.8589 23.9582 13.7779C24.1201 13.671 24.0969 13.486 23.9206 13.3993C23.7616 13.3183 23.5853 13.2663 23.4176 13.1998C23.2355 13.1275 23.0447 13.0697 22.8771 12.9686C22.5562 12.7749 22.5533 12.3875 22.8857 12.2199C23.3772 11.9684 23.8888 11.9742 24.3831 12.2314C24.545 12.3153 24.6375 12.4656 24.6288 12.6737H24.6375Z" />
<path d="M19.7579 19.0766C19.8504 19.065 19.9458 19.0535 20.0528 19.0419C20.0586 19.2703 20.1453 19.4379 20.365 19.4957C20.6367 19.5651 20.9113 19.5911 21.1512 19.409C21.3391 19.2703 21.3189 19.0708 21.1079 18.9639C20.9229 18.8714 20.7234 18.8049 20.5355 18.721C20.4315 18.6748 20.3245 18.6256 20.2349 18.5592C19.9747 18.3655 19.9776 18.0157 20.2349 17.8191C20.5529 17.5792 21.2669 17.5879 21.5733 17.8336C21.7062 17.9405 21.767 18.0735 21.7612 18.2672C21.6687 18.2759 21.5733 18.2845 21.4837 18.2932C21.342 17.9088 20.8419 17.7498 20.495 17.9723C20.3187 18.0851 20.31 18.273 20.4893 18.3799C20.6049 18.4493 20.735 18.4956 20.8622 18.5476C20.998 18.6054 21.1397 18.6517 21.2726 18.7124C21.4548 18.7962 21.5964 18.9176 21.608 19.1402C21.6224 19.3714 21.501 19.5304 21.3131 19.6287C20.9287 19.8311 20.5211 19.8224 20.1221 19.6807C19.8533 19.5825 19.7464 19.3946 19.7579 19.0766Z" />
<path d="M19.7579 19.0766C19.8504 19.065 19.9458 19.0535 20.0528 19.0419C20.0586 19.2703 20.1453 19.4379 20.365 19.4957C20.6367 19.5651 20.9113 19.5911 21.1512 19.409C21.3391 19.2703 21.3189 19.0708 21.1079 18.9639C20.9229 18.8714 20.7234 18.8049 20.5355 18.721C20.4315 18.6748 20.3245 18.6256 20.2349 18.5592C19.9747 18.3655 19.9776 18.0157 20.2349 17.8191C20.5529 17.5792 21.2669 17.5879 21.5733 17.8336C21.7062 17.9405 21.767 18.0735 21.7612 18.2672C21.6687 18.2759 21.5733 18.2845 21.4837 18.2932C21.342 17.9088 20.8419 17.7498 20.495 17.9723C20.3187 18.0851 20.31 18.273 20.4893 18.3799C20.6049 18.4493 20.735 18.4956 20.8622 18.5476C20.998 18.6054 21.1397 18.6517 21.2726 18.7124C21.4548 18.7962 21.5964 18.9176 21.608 19.1402C21.6224 19.3714 21.501 19.5304 21.3131 19.6287C20.9287 19.8311 20.5211 19.8224 20.1221 19.6807C19.8533 19.5825 19.7464 19.3946 19.7579 19.0766Z" />
<path d="M19.7579 19.0766C19.8504 19.065 19.9458 19.0535 20.0528 19.0419C20.0586 19.2703 20.1453 19.4379 20.365 19.4957C20.6367 19.5651 20.9113 19.5911 21.1512 19.409C21.3391 19.2703 21.3189 19.0708 21.1079 18.9639C20.9229 18.8714 20.7234 18.8049 20.5355 18.721C20.4315 18.6748 20.3245 18.6256 20.2349 18.5592C19.9747 18.3655 19.9776 18.0157 20.2349 17.8191C20.5529 17.5792 21.2669 17.5879 21.5733 17.8336C21.7062 17.9405 21.767 18.0735 21.7612 18.2672C21.6687 18.2759 21.5733 18.2845 21.4837 18.2932C21.342 17.9088 20.8419 17.7498 20.495 17.9723C20.3187 18.0851 20.31 18.273 20.4893 18.3799C20.6049 18.4493 20.735 18.4956 20.8622 18.5476C20.998 18.6054 21.1397 18.6517 21.2726 18.7124C21.4548 18.7962 21.5964 18.9176 21.608 19.1402C21.6224 19.3714 21.501 19.5304 21.3131 19.6287C20.9287 19.8311 20.5211 19.8224 20.1221 19.6807C19.8533 19.5825 19.7464 19.3946 19.7579 19.0766Z" />
<path d="M24.0651 19.0737C24.1634 19.0621 24.2559 19.0535 24.3629 19.0419C24.3629 19.2674 24.4496 19.4379 24.6693 19.4958C24.9381 19.5651 25.2156 19.5911 25.4584 19.4119C25.6463 19.2761 25.629 19.0708 25.4209 18.9668C25.2416 18.8743 25.048 18.8135 24.8629 18.7297C24.7387 18.6748 24.6115 18.6141 24.5103 18.5303C24.2848 18.3424 24.2993 18.0186 24.5305 17.8336C24.8456 17.5792 25.5798 17.5821 25.892 17.8452C26.0134 17.9492 26.0886 18.0793 26.077 18.2672C25.9816 18.2759 25.8891 18.2874 25.7966 18.2961C25.6319 17.9174 25.2358 17.7642 24.8658 17.9463C24.782 17.9868 24.6895 18.0995 24.6808 18.1834C24.6751 18.2585 24.7704 18.3684 24.8514 18.4117C25.0219 18.5042 25.2127 18.5621 25.3948 18.6372C25.4816 18.6719 25.5683 18.7066 25.6492 18.7528C25.9816 18.9378 26.0134 19.3281 25.7186 19.5651C25.5018 19.7386 25.2416 19.7877 24.9757 19.7761C24.7878 19.7675 24.5941 19.7357 24.4149 19.6721C24.1489 19.5796 24.0478 19.3859 24.0651 19.0737Z" />
<path d="M24.0651 19.0737C24.1634 19.0621 24.2559 19.0535 24.3629 19.0419C24.3629 19.2674 24.4496 19.4379 24.6693 19.4958C24.9381 19.5651 25.2156 19.5911 25.4584 19.4119C25.6463 19.2761 25.629 19.0708 25.4209 18.9668C25.2416 18.8743 25.048 18.8135 24.8629 18.7297C24.7387 18.6748 24.6115 18.6141 24.5103 18.5303C24.2848 18.3424 24.2993 18.0186 24.5305 17.8336C24.8456 17.5792 25.5798 17.5821 25.892 17.8452C26.0134 17.9492 26.0886 18.0793 26.077 18.2672C25.9816 18.2759 25.8891 18.2874 25.7966 18.2961C25.6319 17.9174 25.2358 17.7642 24.8658 17.9463C24.782 17.9868 24.6895 18.0995 24.6808 18.1834C24.6751 18.2585 24.7704 18.3684 24.8514 18.4117C25.0219 18.5042 25.2127 18.5621 25.3948 18.6372C25.4816 18.6719 25.5683 18.7066 25.6492 18.7528C25.9816 18.9378 26.0134 19.3281 25.7186 19.5651C25.5018 19.7386 25.2416 19.7877 24.9757 19.7761C24.7878 19.7675 24.5941 19.7357 24.4149 19.6721C24.1489 19.5796 24.0478 19.3859 24.0651 19.0737Z" />
<path d="M24.0651 19.0737C24.1634 19.0621 24.2559 19.0535 24.3629 19.0419C24.3629 19.2674 24.4496 19.4379 24.6693 19.4958C24.9381 19.5651 25.2156 19.5911 25.4584 19.4119C25.6463 19.2761 25.629 19.0708 25.4209 18.9668C25.2416 18.8743 25.048 18.8135 24.8629 18.7297C24.7387 18.6748 24.6115 18.6141 24.5103 18.5303C24.2848 18.3424 24.2993 18.0186 24.5305 17.8336C24.8456 17.5792 25.5798 17.5821 25.892 17.8452C26.0134 17.9492 26.0886 18.0793 26.077 18.2672C25.9816 18.2759 25.8891 18.2874 25.7966 18.2961C25.6319 17.9174 25.2358 17.7642 24.8658 17.9463C24.782 17.9868 24.6895 18.0995 24.6808 18.1834C24.6751 18.2585 24.7704 18.3684 24.8514 18.4117C25.0219 18.5042 25.2127 18.5621 25.3948 18.6372C25.4816 18.6719 25.5683 18.7066 25.6492 18.7528C25.9816 18.9378 26.0134 19.3281 25.7186 19.5651C25.5018 19.7386 25.2416 19.7877 24.9757 19.7761C24.7878 19.7675 24.5941 19.7357 24.4149 19.6721C24.1489 19.5796 24.0478 19.3859 24.0651 19.0737Z" />
<path d="M28.7249 14.148H28.3809C28.4647 13.8473 28.5543 13.5583 28.6266 13.2663C28.6526 13.1536 28.6902 12.9946 28.6353 12.9165C28.5427 12.7836 28.3693 12.8356 28.2219 12.8674C27.9473 12.9281 27.768 13.1015 27.69 13.3675C27.6119 13.6219 27.5397 13.8791 27.4616 14.1422H27.1147C27.3084 13.4542 27.4992 12.7749 27.69 12.0898H28.0369C27.9704 12.3355 27.9068 12.5725 27.8461 12.8067C28.0427 12.746 28.2277 12.6824 28.4184 12.6275C28.4647 12.613 28.5167 12.6159 28.5659 12.6217C28.985 12.6593 29.1035 12.8327 28.9937 13.2316C28.9128 13.5207 28.8318 13.8098 28.748 14.0959C28.7451 14.1104 28.7364 14.1248 28.7278 14.148H28.7249Z" />
<path d="M28.7249 14.148H28.3809C28.4647 13.8473 28.5543 13.5583 28.6266 13.2663C28.6526 13.1536 28.6902 12.9946 28.6353 12.9165C28.5427 12.7836 28.3693 12.8356 28.2219 12.8674C27.9473 12.9281 27.768 13.1015 27.69 13.3675C27.6119 13.6219 27.5397 13.8791 27.4616 14.1422H27.1147C27.3084 13.4542 27.4992 12.7749 27.69 12.0898H28.0369C27.9704 12.3355 27.9068 12.5725 27.8461 12.8067C28.0427 12.746 28.2277 12.6824 28.4184 12.6275C28.4647 12.613 28.5167 12.6159 28.5659 12.6217C28.985 12.6593 29.1035 12.8327 28.9937 13.2316C28.9128 13.5207 28.8318 13.8098 28.748 14.0959C28.7451 14.1104 28.7364 14.1248 28.7278 14.148H28.7249Z" />
<path d="M28.7249 14.148H28.3809C28.4647 13.8473 28.5543 13.5583 28.6266 13.2663C28.6526 13.1536 28.6902 12.9946 28.6353 12.9165C28.5427 12.7836 28.3693 12.8356 28.2219 12.8674C27.9473 12.9281 27.768 13.1015 27.69 13.3675C27.6119 13.6219 27.5397 13.8791 27.4616 14.1422H27.1147C27.3084 13.4542 27.4992 12.7749 27.69 12.0898H28.0369C27.9704 12.3355 27.9068 12.5725 27.8461 12.8067C28.0427 12.746 28.2277 12.6824 28.4184 12.6275C28.4647 12.613 28.5167 12.6159 28.5659 12.6217C28.985 12.6593 29.1035 12.8327 28.9937 13.2316C28.9128 13.5207 28.8318 13.8098 28.748 14.0959C28.7451 14.1104 28.7364 14.1248 28.7278 14.148H28.7249Z" />
<path d="M9.06804 12.0985H9.41492C9.34844 12.3471 9.28484 12.5812 9.22703 12.8067C9.42938 12.746 9.62016 12.665 9.81673 12.6361C9.9497 12.6159 10.1 12.6564 10.2301 12.7026C10.3804 12.7575 10.444 12.8934 10.4035 13.0495C10.3168 13.3935 10.2214 13.7346 10.1231 14.0757C10.1145 14.1075 10.0595 14.1451 10.022 14.1508C9.94103 14.1624 9.86009 14.1537 9.75603 14.1537C9.84564 13.8329 9.93236 13.5322 10.0162 13.2287C10.1058 12.9021 10.0046 12.7951 9.6693 12.8529C9.37445 12.905 9.16632 13.0639 9.07671 13.353C9.01601 13.5496 8.94952 13.749 8.90905 13.9514C8.87436 14.1162 8.8021 14.1913 8.63444 14.1566C8.59686 14.1508 8.55928 14.1508 8.50146 14.1451C8.69514 13.4542 8.88593 12.7749 9.07382 12.0956L9.06804 12.0985Z" />
<path d="M9.06804 12.0985H9.41492C9.34844 12.3471 9.28484 12.5812 9.22703 12.8067C9.42938 12.746 9.62016 12.665 9.81673 12.6361C9.9497 12.6159 10.1 12.6564 10.2301 12.7026C10.3804 12.7575 10.444 12.8934 10.4035 13.0495C10.3168 13.3935 10.2214 13.7346 10.1231 14.0757C10.1145 14.1075 10.0595 14.1451 10.022 14.1508C9.94103 14.1624 9.86009 14.1537 9.75603 14.1537C9.84564 13.8329 9.93236 13.5322 10.0162 13.2287C10.1058 12.9021 10.0046 12.7951 9.6693 12.8529C9.37445 12.905 9.16632 13.0639 9.07671 13.353C9.01601 13.5496 8.94952 13.749 8.90905 13.9514C8.87436 14.1162 8.8021 14.1913 8.63444 14.1566C8.59686 14.1508 8.55928 14.1508 8.50146 14.1451C8.69514 13.4542 8.88593 12.7749 9.07382 12.0956L9.06804 12.0985Z" />
<path d="M9.06804 12.0985H9.41492C9.34844 12.3471 9.28484 12.5812 9.22703 12.8067C9.42938 12.746 9.62016 12.665 9.81673 12.6361C9.9497 12.6159 10.1 12.6564 10.2301 12.7026C10.3804 12.7575 10.444 12.8934 10.4035 13.0495C10.3168 13.3935 10.2214 13.7346 10.1231 14.0757C10.1145 14.1075 10.0595 14.1451 10.022 14.1508C9.94103 14.1624 9.86009 14.1537 9.75603 14.1537C9.84564 13.8329 9.93236 13.5322 10.0162 13.2287C10.1058 12.9021 10.0046 12.7951 9.6693 12.8529C9.37445 12.905 9.16632 13.0639 9.07671 13.353C9.01601 13.5496 8.94952 13.749 8.90905 13.9514C8.87436 14.1162 8.8021 14.1913 8.63444 14.1566C8.59686 14.1508 8.55928 14.1508 8.50146 14.1451C8.69514 13.4542 8.88593 12.7749 9.07382 12.0956L9.06804 12.0985Z" />
<path d="M9.95839 17.9261H9.04493C9.03625 17.6949 9.04782 17.6833 9.26173 17.6833H11.3459C11.3372 17.8452 11.2621 17.9232 11.1176 17.9232H10.3602C10.259 18.2643 10.1578 18.5996 10.0596 18.9378C9.99886 19.1489 9.92659 19.3541 9.87745 19.568C9.84565 19.7039 9.78494 19.7646 9.6433 19.7415C9.5797 19.7328 9.51322 19.7415 9.4265 19.7415C9.60572 19.1315 9.77916 18.5389 9.95839 17.9261Z" />
<path d="M9.95839 17.9261H9.04493C9.03625 17.6949 9.04782 17.6833 9.26173 17.6833H11.3459C11.3372 17.8452 11.2621 17.9232 11.1176 17.9232H10.3602C10.259 18.2643 10.1578 18.5996 10.0596 18.9378C9.99886 19.1489 9.92659 19.3541 9.87745 19.568C9.84565 19.7039 9.78494 19.7646 9.6433 19.7415C9.5797 19.7328 9.51322 19.7415 9.4265 19.7415C9.60572 19.1315 9.77916 18.5389 9.95839 17.9261Z" />
<path d="M9.95839 17.9261H9.04493C9.03625 17.6949 9.04782 17.6833 9.26173 17.6833H11.3459C11.3372 17.8452 11.2621 17.9232 11.1176 17.9232H10.3602C10.259 18.2643 10.1578 18.5996 10.0596 18.9378C9.99886 19.1489 9.92659 19.3541 9.87745 19.568C9.84565 19.7039 9.78494 19.7646 9.6433 19.7415C9.5797 19.7328 9.51322 19.7415 9.4265 19.7415C9.60572 19.1315 9.77916 18.5389 9.95839 17.9261Z" />
<path d="M25.8775 14.1451H25.4988C25.6665 13.5438 25.8313 12.9512 26.0047 12.3355H25.1057C25.1288 12.2372 25.1462 12.1678 25.1635 12.0898H27.3344C27.3229 12.2488 27.2362 12.3297 27.0801 12.3297C26.8922 12.3297 26.7072 12.3355 26.5222 12.3297C26.4123 12.3239 26.3718 12.3702 26.3429 12.4685C26.1897 13.0264 26.0336 13.5814 25.8746 14.148L25.8775 14.1451Z" />
<path d="M6.89149 14.148C7.06204 13.538 7.22392 12.9512 7.39447 12.3471H6.52148C6.52438 12.1043 6.53883 12.0898 6.75274 12.0898H8.73864C8.71263 12.1823 8.6895 12.2603 8.66638 12.3413C8.40622 12.3413 8.15473 12.3442 7.90324 12.3413C7.80206 12.3413 7.76159 12.3702 7.73557 12.4714C7.6026 12.9657 7.45229 13.4571 7.33088 13.9543C7.28752 14.1335 7.20658 14.1884 7.03892 14.1624C6.99556 14.1566 6.9522 14.1566 6.8886 14.1538L6.89149 14.148Z" />
<path d="M6.89149 14.148C7.06204 13.538 7.22392 12.9512 7.39447 12.3471H6.52148C6.52438 12.1043 6.53883 12.0898 6.75274 12.0898H8.73864C8.71263 12.1823 8.6895 12.2603 8.66638 12.3413C8.40622 12.3413 8.15473 12.3442 7.90324 12.3413C7.80206 12.3413 7.76159 12.3702 7.73557 12.4714C7.6026 12.9657 7.45229 13.4571 7.33088 13.9543C7.28752 14.1335 7.20658 14.1884 7.03892 14.1624C6.99556 14.1566 6.9522 14.1566 6.8886 14.1538L6.89149 14.148Z" />
<path d="M6.89149 14.148C7.06204 13.538 7.22392 12.9512 7.39447 12.3471H6.52148C6.52438 12.1043 6.53883 12.0898 6.75274 12.0898H8.73864C8.71263 12.1823 8.6895 12.2603 8.66638 12.3413C8.40622 12.3413 8.15473 12.3442 7.90324 12.3413C7.80206 12.3413 7.76159 12.3702 7.73557 12.4714C7.6026 12.9657 7.45229 13.4571 7.33088 13.9543C7.28752 14.1335 7.20658 14.1884 7.03892 14.1624C6.99556 14.1566 6.9522 14.1566 6.8886 14.1538L6.89149 14.148Z" />
<path d="M24.1201 17.6804C24.1316 17.8885 24.0391 17.9377 23.8715 17.9232C23.6836 17.9088 23.4899 17.9232 23.2962 17.9232C23.1459 18.536 22.9985 19.1315 22.851 19.7328H22.5215C22.6689 19.1315 22.8135 18.5389 22.9609 17.9232H22.1978C22.1978 17.7642 22.27 17.6833 22.4117 17.6833H24.123L24.1201 17.6804Z" />
<path d="M24.1201 17.6804C24.1316 17.8885 24.0391 17.9377 23.8715 17.9232C23.6836 17.9088 23.4899 17.9232 23.2962 17.9232C23.1459 18.536 22.9985 19.1315 22.851 19.7328H22.5215C22.6689 19.1315 22.8135 18.5389 22.9609 17.9232H22.1978C22.1978 17.7642 22.27 17.6833 22.4117 17.6833H24.123L24.1201 17.6804Z" />
<path d="M24.1201 17.6804C24.1316 17.8885 24.0391 17.9377 23.8715 17.9232C23.6836 17.9088 23.4899 17.9232 23.2962 17.9232C23.1459 18.536 22.9985 19.1315 22.851 19.7328H22.5215C22.6689 19.1315 22.8135 18.5389 22.9609 17.9232H22.1978C22.1978 17.7642 22.27 17.6833 22.4117 17.6833H24.123L24.1201 17.6804Z" />
</svg>
