<svg viewBox="0 0 32 32" fill="none" xmlns="http://www.w3.org/2000/svg">
<style>path{fill:#000}@media (prefers-color-scheme:dark){path{fill:#fff}}</style>
<path d="M4.19835 2.27727C4.70357 2.27727 5.23015 2.32708 5.6571 2.36978C6.17655 2.44805 6.40426 1.90013 6.40426 1.29529C6.40426 0.839876 6.36157 0.605054 6.00577 0.384463C5.64287 0.149641 4.88147 0.00732422 3.72159 0.00732422C1.71492 0.00732422 0.177896 0.718907 0.177896 2.93904C0.177896 4.01354 0.740048 4.84609 1.91416 6.02731C3.11674 7.22277 3.30175 7.50741 3.30175 7.93436C3.30175 8.54632 2.88903 8.72421 2.09917 8.72421C1.64376 8.72421 1.20258 8.69575 0.747164 8.63171C0.263286 8.55343 0 9.08712 0 9.68485C0 10.2043 0.128085 10.5174 0.469646 10.7238C0.128085 10.9301 0 11.2432 0 11.7627C0 12.3604 0.25617 12.9012 0.747164 12.8158C1.20258 12.7518 1.64376 12.7233 2.09917 12.7233C2.88903 12.7233 3.30175 12.8941 3.30175 13.5132C3.30175 13.9401 3.11674 14.2247 1.91416 15.4202C0.740048 16.6014 0.177896 17.4411 0.177896 18.5085C0.177896 20.0313 0.896597 20.8425 1.99955 21.2054C0.896597 21.5683 0.177896 22.3795 0.177896 23.9023C0.177896 24.9768 0.740048 25.8093 1.91416 26.9905C3.11674 28.186 3.30175 28.4706 3.30175 28.8976C3.30175 29.5095 2.88903 29.6874 2.09917 29.6874C1.64376 29.6874 1.20258 29.659 0.747164 29.5949C0.263286 29.5167 0 30.0503 0 30.6481C0 31.1818 0.135201 31.502 0.505225 31.7012C0.917944 31.9218 1.72203 32.0001 2.57594 32.0001C4.67511 32.0001 6.31887 31.3098 6.31887 29.0968C6.31887 27.9441 5.98443 27.1756 4.52568 25.7382C3.44407 24.6992 3.17367 24.3363 3.17367 23.8952C3.17367 23.3757 3.55081 23.2334 4.20546 23.2334C4.71069 23.2334 5.23726 23.2832 5.66421 23.3259C6.18367 23.4042 6.41138 22.8562 6.41138 22.2514C6.41138 21.796 6.36868 21.5612 6.01289 21.3406C5.93462 21.2908 5.82788 21.241 5.70691 21.1983C5.82788 21.1556 5.9275 21.1058 6.01289 21.0559C6.36157 20.8354 6.41138 20.6005 6.41138 20.1451C6.41138 19.5474 6.18367 18.9923 5.66421 19.0706C5.23726 19.1204 4.70357 19.1631 4.20546 19.1631C3.55081 19.1631 3.17367 19.0208 3.17367 18.5014C3.17367 18.0602 3.44407 17.6973 4.52568 16.6584C5.98443 15.221 6.31887 14.4525 6.31887 13.2997C6.31887 11.8979 5.6571 11.108 4.63242 10.7166C5.64998 10.3253 6.31887 9.53542 6.31887 8.1336C6.31887 6.98083 5.98443 6.21233 4.52568 4.77493C3.44407 3.73602 3.17367 3.37311 3.17367 2.93193C3.17367 2.41247 3.55081 2.27016 4.20546 2.27016L4.19835 2.27727Z" />
<path d="M14.5162 4.39055H12.5237C12.1466 4.39055 11.9616 4.84596 11.9616 5.57178C11.9616 6.24778 12.1466 6.62492 12.4953 6.62492H12.8937C13.1215 6.62492 13.1855 6.7032 13.1855 7.03764V8.48927C13.1855 8.58177 13.1713 8.63158 13.093 8.64582C12.9578 8.69563 12.7443 8.70986 12.5308 8.70986C11.1788 8.70986 10.7021 8.07655 10.7021 5.62159C10.7021 2.882 11.556 2.32696 13.0503 2.32696C13.5199 2.32696 14.1319 2.40524 14.5446 2.46928C14.9218 2.53332 15.2277 2.10637 15.2277 1.39479C15.2277 0.747248 15.0925 0.512426 14.7723 0.341646C14.4379 0.170866 13.4488 0.00720215 12.5664 0.00720215C9.10811 0.00720215 7.7561 2.17041 7.7561 5.60024C7.7561 8.27579 8.53885 10.0405 10.4317 10.7165C8.53885 11.3996 7.7561 13.1573 7.7561 15.8328C7.7561 18.5084 8.63847 20.5435 10.7946 21.191C8.63847 21.8386 7.7561 23.7741 7.7561 26.5492C7.7561 30.0502 9.07965 31.9857 12.4881 31.9857C13.5057 31.9857 14.4094 31.8434 15.121 31.5588C15.4697 31.4165 15.5622 31.1816 15.5622 30.8472V26.5279C15.5622 25.738 15.4697 25.3324 14.5304 25.3324H12.538C12.1608 25.3324 11.9758 25.7878 11.9758 26.5137C11.9758 27.1897 12.1608 27.5668 12.5095 27.5668H12.908C13.1357 27.5668 13.1997 27.6451 13.1997 27.9795V29.4311C13.1997 29.5237 13.1855 29.5735 13.1072 29.5877C12.972 29.6375 12.7585 29.6517 12.5451 29.6517C11.1931 29.6517 10.7163 29.0184 10.7163 26.5635C10.7163 23.8239 11.5702 23.2688 13.0645 23.2688C13.5342 23.2688 14.1461 23.3471 14.5589 23.4112C14.936 23.4752 15.242 23.0483 15.242 22.3367C15.242 21.6891 15.1068 21.4543 14.7866 21.2835C14.7225 21.2479 14.63 21.2195 14.5304 21.191C14.63 21.1626 14.7225 21.127 14.7866 21.0985C15.1068 20.9277 15.242 20.6858 15.242 20.0454C15.242 19.3338 14.936 18.9068 14.5589 18.9709C14.1461 19.0349 13.5413 19.1132 13.0645 19.1132C11.5702 19.1132 10.7163 18.5582 10.7163 15.8186C10.7163 13.3565 11.1859 12.7303 12.5451 12.7303C12.7585 12.7303 12.972 12.7445 13.1072 12.7943C13.1855 12.8086 13.1997 12.8584 13.1997 12.9509V14.4025C13.1997 14.737 13.1357 14.8152 12.908 14.8152H12.5095C12.1608 14.8152 11.9758 15.1924 11.9758 15.8684C11.9758 16.5942 12.1608 17.0496 12.538 17.0496H14.5304C15.4768 17.0496 15.5622 16.6369 15.5622 15.8541V11.5348C15.5622 11.2004 15.4697 10.9656 15.121 10.8233C15.0214 10.7806 14.9075 10.7521 14.7937 10.7165C14.9004 10.6809 15.0143 10.6525 15.121 10.6098C15.4697 10.4675 15.5622 10.2326 15.5622 9.8982V5.5789C15.5622 4.78904 15.4697 4.38344 14.5304 4.38344L14.5162 4.39055Z" />
<path d="M21.3405 2.27715C21.8457 2.27715 22.3723 2.32696 22.7992 2.36966C23.3187 2.44793 23.5464 1.90001 23.5464 1.29517C23.5464 0.839754 23.5037 0.604932 23.1479 0.384341C22.785 0.149519 22.0236 0.00720215 20.8637 0.00720215C18.857 0.00720215 17.3129 0.718785 17.3129 2.93892C17.3129 4.01341 17.8751 4.84596 19.0492 6.02719C20.2518 7.22265 20.4368 7.50728 20.4368 7.93423C20.4368 8.54619 20.024 8.72409 19.2342 8.72409C18.7788 8.72409 18.3376 8.69563 17.8822 8.63159C17.3983 8.55331 17.135 9.087 17.135 9.68473C17.135 10.2042 17.2631 10.5173 17.6047 10.7236C17.2631 10.93 17.135 11.2431 17.135 11.7625C17.135 12.3603 17.3912 12.9011 17.8822 12.8157C18.3376 12.7516 18.7788 12.7232 19.2342 12.7232C20.024 12.7232 20.4368 12.894 20.4368 13.513C20.4368 13.94 20.2518 14.2246 19.0492 15.4201C17.8751 16.6013 17.3129 17.441 17.3129 18.5084C17.3129 20.0311 18.0316 20.8423 19.1346 21.2052C18.0316 21.5682 17.3129 22.3794 17.3129 23.9021C17.3129 24.9766 17.8751 25.8092 19.0492 26.9904C20.2518 28.1859 20.4368 28.4705 20.4368 28.8975C20.4368 29.5094 20.024 29.6873 19.2342 29.6873C18.7788 29.6873 18.3376 29.6589 17.8822 29.5948C17.3983 29.5165 17.135 30.0502 17.135 30.648C17.135 31.1816 17.2702 31.5019 17.6402 31.7011C18.053 31.9217 18.857 32 19.7109 32C21.8101 32 23.4539 31.3097 23.4539 29.0967C23.4539 27.9439 23.1194 27.1754 21.6607 25.738C20.5791 24.6991 20.3087 24.3362 20.3087 23.895C20.3087 23.3756 20.6858 23.2333 21.3405 23.2333C21.8457 23.2333 22.3723 23.2831 22.7992 23.3258C23.3187 23.404 23.5464 22.8561 23.5464 22.2513C23.5464 21.7959 23.5037 21.561 23.1479 21.3405C23.0696 21.2906 22.9629 21.2408 22.8419 21.1981C22.9629 21.1554 23.0625 21.1056 23.1479 21.0558C23.4966 20.8352 23.5464 20.6004 23.5464 20.145C23.5464 19.5473 23.3187 18.9922 22.7992 19.0705C22.3723 19.1203 21.8386 19.163 21.3405 19.163C20.6858 19.163 20.3087 19.0207 20.3087 18.5012C20.3087 18.0601 20.5791 17.6971 21.6607 16.6582C23.1194 15.2208 23.4539 14.4523 23.4539 13.2996C23.4539 11.8977 22.7921 11.1079 21.7674 10.7165C22.785 10.3252 23.4539 9.53529 23.4539 8.13348C23.4539 6.98071 23.1194 6.2122 21.6607 4.77481C20.5791 3.7359 20.3087 3.37299 20.3087 2.93181C20.3087 2.41235 20.6858 2.27004 21.3405 2.27004V2.27715Z" />
<path d="M29.424 23.2332C29.9292 23.2332 30.4558 23.283 30.8827 23.3257C31.4022 23.404 31.6299 22.856 31.6299 22.2512C31.6299 21.7958 31.5872 21.561 31.2314 21.3404C31.1531 21.2906 31.0464 21.2407 30.9254 21.198C31.0464 21.1554 31.146 21.1055 31.2314 21.0557C31.5801 20.8351 31.6299 20.6003 31.6299 20.1449C31.6299 19.5472 31.4022 18.9921 30.8827 19.0704C30.4558 19.1202 29.9221 19.1629 29.424 19.1629C28.7693 19.1629 28.3922 19.0206 28.3922 18.5011C28.3922 18.06 28.6626 17.6971 29.7442 16.6581C31.2029 15.2208 31.5374 14.4522 31.5374 13.2995C31.5374 11.8977 30.8756 11.1078 29.8509 10.7164C30.8685 10.3251 31.5374 9.53521 31.5374 8.13339C31.5374 6.98063 31.2029 6.21212 29.7442 4.77472C28.6626 3.73581 28.3922 3.3729 28.3922 2.93172C28.3922 2.41227 28.7693 2.26995 29.424 2.26995C29.9292 2.26995 30.4558 2.31976 30.8827 2.36245C31.4022 2.44073 31.6299 1.89281 31.6299 1.28796C31.6299 0.832552 31.5872 0.597729 31.2314 0.377139C30.8685 0.142317 30.1071 0 28.9472 0C26.9405 0 25.3964 0.711583 25.3964 2.93172C25.3964 4.00621 25.9586 4.83876 27.1327 6.01999C28.3352 7.21545 28.5203 7.50008 28.5203 7.92703C28.5203 8.53899 28.1075 8.71689 27.3177 8.71689C26.8623 8.71689 26.4211 8.68842 25.9657 8.62438C25.4818 8.54611 25.2185 9.07979 25.2185 9.67752C25.2185 10.197 25.3466 10.5101 25.6882 10.7164C25.3466 10.9228 25.2185 11.2359 25.2185 11.7553C25.2185 12.3531 25.4747 12.8939 25.9657 12.8085C26.4211 12.7444 26.8623 12.716 27.3177 12.716C28.1075 12.716 28.5203 12.8868 28.5203 13.5058C28.5203 13.9328 28.3352 14.2174 27.1327 15.4129C25.9586 16.5941 25.3964 17.4338 25.3964 18.5011C25.3964 20.0239 26.1151 20.8351 27.2181 21.198C26.1151 21.561 25.3964 22.3722 25.3964 23.8949C25.3964 24.9694 25.9586 25.802 27.1327 26.9832C28.3352 28.1787 28.5203 28.4633 28.5203 28.8903C28.5203 29.5022 28.1075 29.6801 27.3177 29.6801C26.8623 29.6801 26.4211 29.6517 25.9657 29.5876C25.4818 29.5093 25.2185 30.043 25.2185 30.6408C25.2185 31.1744 25.3537 31.4946 25.7237 31.6939C26.1364 31.9145 26.9405 31.9928 27.7944 31.9928C29.8936 31.9928 31.5374 31.3025 31.5374 29.0895C31.5374 27.9367 31.2029 27.1682 29.7442 25.7308C28.6626 24.6919 28.3922 24.329 28.3922 23.8878C28.3922 23.3684 28.7693 23.2261 29.424 23.2261V23.2332Z" />
</svg>
