<svg viewBox="0 0 32 32" fill="none" xmlns="http://www.w3.org/2000/svg">
<style>@media (prefers-color-scheme:dark){path{fill:#fff}}</style>
<path d="M13.7382 11.7219C13.0147 20.5495 8.32952 28.527 0.00842377 32.0001C-0.0639336 31.9097 0.352121 29.7389 0.406389 29.6304C0.442568 29.5761 1.50984 29.0335 1.72691 28.8706C4.71165 26.7723 7.3527 23.7514 7.31652 19.8983H3.91572L6.05026 11.7039H13.7382V11.7219Z" fill="#C1C41D"/>
<path d="M28.4812 0C28.4812 0 27.9928 2.09836 27.83 2.31543C27.6129 2.62295 25.9125 3.78067 25.4422 4.21482C23.9227 5.62579 21.1912 8.84569 20.938 10.926C20.8837 11.4144 20.938 11.7581 21.0284 12.2103C24.6463 10.9802 26.202 14.0735 24.6282 17.1306C23.8504 18.6501 22.4936 20.0611 20.7028 20.2601C15.8368 20.8389 15.7463 16.0814 16.7051 12.6264C17.4286 10.0396 18.4235 8.50199 20.142 6.49408C22.3308 3.92539 25.2432 1.17581 28.4631 0H28.4812Z" fill="#C00077"/>
</svg>
