<svg width="32" height="32" viewBox="0 0 32 32" fill="none" xmlns="http://www.w3.org/2000/svg">
<path d="M23.2647 17.0192C24.7894 16.5962 25.783 15.9615 26.6781 15.2212C27.5832 14.4808 28.075 13.5192 28.0357 12.3654C28.016 11.5481 27.652 10.7404 27.288 10.25C26.8454 9.65385 26.1371 9.19231 25.2616 8.82692C24.4845 8.5 23.5795 8.28846 22.6056 8.16346C21.6317 8.03846 20.4218 8 18.956 8H12.5423L5.98094 8.04808C4.31848 8.16346 2.79373 8.51923 1.71165 9.33654C0.629573 10.1538 0.127882 11.2019 0.186904 12.4808C0.245927 13.625 0.550876 14.5096 1.15094 15.1827C1.79035 15.8942 2.72487 16.4038 4.08239 16.6923C4.75131 16.8269 5.39072 16.9423 5.99078 17.0288C6.59084 17.1154 7.13188 17.2692 7.66308 17.3654C8.45988 17.5096 8.84353 17.7981 9.17799 18.1154C9.51245 18.4423 9.7387 18.9135 9.7387 19.5962C9.7387 20.3846 9.32555 21.1731 8.61728 21.6538C7.91884 22.125 6.93514 22.2308 5.67599 22.2308C4.79065 22.2308 3.83646 22.0577 2.82324 21.7019C1.12143 21.1346 0 20.2115 0 20.2115V22.7692C0.914848 23.1731 1.81002 23.4615 2.68552 23.6635C3.56102 23.8654 4.55456 24 5.65632 24C6.67937 24 7.56471 23.875 8.29265 23.625C9.0206 23.375 9.62066 23.1635 10.2207 22.6346C10.6929 22.2212 11.1159 21.7019 11.352 21.1058C11.5389 20.6442 11.716 19.9423 11.716 19.3462C11.716 18.25 11.4602 17.4327 10.8896 16.8173C10.3191 16.2019 9.4731 15.7596 8.332 15.4615C7.77129 15.3173 7.07286 15.2212 6.25638 15.0769C5.44974 14.9423 4.83 14.8365 4.40701 14.6923C3.55118 14.4038 3.04949 14.1154 2.71503 13.75C2.39041 13.3846 2.2035 12.9327 2.2035 12.2885C2.2035 11.5769 2.51829 11.0096 3.18721 10.5577C3.8463 10.1058 4.7218 9.85577 5.80387 9.85577C6.79742 9.85577 12.5226 9.86538 12.5226 9.86538L15.3753 9.84615H19.1626C20.0283 9.84615 20.7857 9.84615 21.4251 9.92308C22.0646 10.0096 22.5662 10.1827 23.0286 10.3942C23.5893 10.6346 23.9631 10.9904 24.209 11.3462C24.4058 11.625 24.5828 12 24.6222 12.5192C24.6615 13.1346 24.5632 13.625 24.3271 14.0096C24.091 14.4038 23.727 14.7019 23.2253 14.9808C22.6941 15.2692 22.035 15.4327 21.2874 15.5673C20.53 15.6923 19.6545 15.7692 18.6413 15.7692H17.6871C17.8248 15.8462 19.8414 17.5385 19.9299 17.6058L27.8979 23.9712L32 23.9519L23.2647 16.9808V17.0192Z" fill="#2C3178"/>
</svg>
