<svg width="32" height="32" viewBox="0 0 32 32" fill="none" xmlns="http://www.w3.org/2000/svg">
<path fill-rule="evenodd" clip-rule="evenodd" d="M12.4445 26.2791C13.5936 27.5173 14.5602 28.7618 15.2603 29.9429H17.2467C16.8091 28.9924 16.1926 27.9912 15.3897 26.9508C17.475 27.3424 19.4322 27.5046 21.0798 27.4032C21.2549 28.3816 21.1141 29.2446 20.5991 29.9429H22.3698C22.8188 29.1255 23.0028 28.1991 22.8937 27.1726C23.1968 27.1257 23.4784 27.0712 23.7499 27.0053C24.9117 26.729 25.9671 26.2474 26.6216 25.6264C27.8951 24.42 28.4544 22.9296 28.2832 21.234C29.1546 21.0046 29.8738 20.6954 30.4218 20.2886C35.9178 16.2142 26.118 7.97924 15.5242 3.90486C27.5462 9.3061 33.8947 17.5854 28.9986 19.9147C28.7221 20.0465 28.4329 20.1618 28.1107 20.2607C27.0782 16.1521 22.2684 11.4073 14.5221 7.14915C9.65647 4.47261 4.09446 3 0 3V4.2559C3.40697 4.71466 8.18511 6.25697 13.2207 8.87269C19.1531 11.9548 24.7164 16.6894 26.1256 20.6573C24.0733 20.8538 21.5149 20.5991 18.7751 19.9717C16.6277 17.7261 13.7357 15.45 10.2196 13.2829C6.96996 11.2793 3.13553 10.0095 0 9.55957V12.5453C1.50561 13.8861 3.42473 15.2384 5.63305 16.531C9.02226 18.5156 13.0064 19.9857 16.8598 20.8424C18.798 22.7966 20.2478 24.7875 20.8731 26.5566C19.044 26.6466 16.7723 26.3108 14.304 25.6062C12.2986 23.4403 9.61081 21.1529 6.28882 18.8882C4.31516 17.5423 2.10684 16.4828 0 15.7478V17.3864C1.6667 18.1696 3.4501 19.1569 5.2132 20.3012C7.10568 21.5293 8.91698 22.8941 10.5152 24.2907C7.96313 23.2629 5.31087 21.9056 2.75881 20.2746C1.78593 19.6524 0.859988 19.0175 0 18.3838V20.2556C0.660846 20.7385 1.35974 21.22 2.09416 21.6953C5.2335 23.7268 8.9081 25.2982 12.4457 26.2778L12.4445 26.2791ZM6.3459 14.9887C4.08177 13.6834 2.05611 12.3033 0.490878 11.0056C3.01123 11.7558 6.05036 13.0928 9.03748 14.8404C10.9883 15.9823 12.9074 17.3319 14.6249 18.7792C11.894 17.8351 9.06412 16.5551 6.3459 14.9874V14.9887ZM20.0778 21.4025C22.3635 21.7117 24.5122 21.7827 26.3273 21.5888C26.5493 22.8308 26.2689 23.9219 25.3785 24.7659C24.8851 25.2348 24.2052 25.6556 23.5279 25.9699C23.2806 26.0839 23.0218 26.2107 22.7364 26.293C22.366 24.7824 21.4972 23.1375 20.0791 21.4025H20.0778Z" fill="#F5333F"/>
<path fill-rule="evenodd" clip-rule="evenodd" d="M9.49792 29.943C7.72213 28.0205 5.45039 25.9915 2.71695 23.9549C1.84935 23.3086 0.932288 22.7206 0 22.1959V24.0703C0.57713 24.4416 1.15553 24.8332 1.73266 25.2425C3.48815 26.4895 5.16881 27.8608 6.65032 29.251C4.46864 28.2486 2.20324 26.9749 0 25.4757V27.1853C1.67051 28.2587 3.4501 29.18 5.24745 29.943H9.49919H9.49792Z" fill="#F5333F"/>
</svg>
