<svg width="32" height="32" viewBox="0 0 32 32" fill="none" xmlns="http://www.w3.org/2000/svg">
<path d="M4.70019 6.90404C4.47024 6.77527 4.14831 6.71088 3.7436 6.71088C3.32049 6.71088 2.99856 6.78446 2.77781 6.94083C2.55705 7.088 2.45588 7.28116 2.45588 7.51111C2.45588 7.66748 2.52026 7.81465 2.63983 7.95262C2.75941 8.09059 2.97097 8.20097 3.2745 8.28375L5.1233 8.82644C5.80396 9.0196 6.31905 9.35073 6.65938 9.81063C6.99971 10.2705 7.17447 10.8224 7.17447 11.4571C7.17447 12.0458 7.03649 12.5609 6.74216 13.0024C6.45702 13.4439 6.0523 13.775 5.51882 14.0142C4.98533 14.2533 4.35987 14.3729 3.65162 14.3729C2.84219 14.3729 2.11555 14.2257 1.45329 13.9406C0.791029 13.6462 0.331127 13.2599 0.055186 12.7632C0.0183938 12.6804 0 12.616 0 12.5793C0 12.5149 0.0459896 12.4505 0.128772 12.3861L1.15895 11.6227C1.24173 11.5675 1.31532 11.5399 1.3797 11.5399C1.45329 11.5399 1.51768 11.5767 1.56367 11.641C1.83961 12.0182 2.11555 12.2849 2.39149 12.4413C2.66743 12.5976 3.03535 12.6712 3.49525 12.6712C3.95515 12.6712 4.32307 12.5976 4.59901 12.4505C4.86576 12.3033 5.00373 12.0918 5.00373 11.8158C5.00373 11.4387 4.72779 11.1719 4.16671 11.0064L2.42828 10.5189C1.75682 10.3349 1.23253 9.99459 0.855414 9.51629C0.478295 9.03799 0.285137 8.48611 0.285137 7.86064C0.285137 7.32715 0.42311 6.84885 0.708249 6.41654C0.993388 5.98423 1.3889 5.6439 1.90399 5.39555C2.41908 5.14721 3.00776 5.01843 3.68841 5.01843C4.36906 5.01843 4.94854 5.13801 5.50962 5.37716C6.0707 5.61631 6.49381 5.92904 6.76056 6.32456C6.81575 6.42574 6.84334 6.49012 6.84334 6.53611C6.84334 6.58211 6.81575 6.6189 6.76056 6.67409L5.6384 7.5479C5.6384 7.5479 5.57401 7.59389 5.53722 7.59389C5.49123 7.59389 5.42684 7.5479 5.33486 7.44673C5.1417 7.22597 4.93014 7.05121 4.70019 6.92243V6.90404Z" fill="black"/>
<path d="M9.7684 13.7842C9.17973 13.3978 8.71983 12.8552 8.3979 12.1469C8.07596 11.4387 7.9104 10.6384 7.9104 9.71861C7.9104 8.79881 8.07596 7.95258 8.41629 7.23513C8.75662 6.52688 9.22572 5.975 9.83279 5.57948C10.4399 5.19316 11.1389 5 11.9299 5C12.5646 5 13.1257 5.12877 13.6316 5.37712C14.1375 5.62547 14.5422 5.9566 14.8549 6.36132C15.1676 6.76603 15.37 7.19834 15.462 7.64905L15.4896 7.84221C15.4896 7.91579 15.4804 7.96178 15.4528 7.98937C15.4252 8.01697 15.3792 8.02617 15.324 8.03537L13.5856 8.32051C13.512 8.32051 13.4568 8.30211 13.4384 8.27452C13.42 8.24692 13.3924 8.18254 13.374 8.09975C13.3096 7.69504 13.1533 7.36391 12.9049 7.10636C12.6566 6.84881 12.3163 6.71084 11.9023 6.71084C11.3873 6.71084 10.9917 6.94079 10.725 7.4007C10.4583 7.8606 10.3295 8.60565 10.3295 9.64503C10.3295 10.6844 10.4675 11.503 10.7526 11.9629C11.0377 12.4137 11.4424 12.6436 11.9851 12.6436C12.3622 12.6436 12.675 12.5424 12.9049 12.3401C13.1441 12.1377 13.3096 11.871 13.4108 11.5214L13.4292 11.2915C13.4476 11.2455 13.4568 11.2087 13.4568 11.1903C13.4568 11.1259 13.4108 11.0891 13.328 11.0891H12.1047C12.0311 11.0891 11.9759 11.0707 11.9483 11.0431C11.9207 11.0063 11.9023 10.942 11.9023 10.85V9.7922C11.9023 9.67262 11.9759 9.60824 12.1231 9.60824L15.2504 9.63583C15.37 9.63583 15.462 9.66342 15.5264 9.72781C15.5908 9.7922 15.6276 9.86578 15.6276 9.96696V14.0417C15.6276 14.0969 15.6092 14.1429 15.5724 14.1797C15.5356 14.2165 15.4896 14.2349 15.4436 14.2349H15.0481C14.9009 14.2349 14.7905 14.1613 14.7169 14.0141L14.3214 13.2323C14.3214 13.2323 14.2846 13.1863 14.2662 13.1863C14.2478 13.1863 14.2294 13.2047 14.2019 13.2415C13.9167 13.5818 13.5948 13.8485 13.2453 14.0509C12.8957 14.2533 12.4266 14.3544 11.8288 14.3544C11.0561 14.3544 10.3663 14.1613 9.7776 13.775L9.7684 13.7842Z" fill="black"/>
<path d="M17.0993 14.1705C17.0533 14.1245 17.0349 14.0601 17.0349 13.9957V5.42312C17.0349 5.33114 17.0625 5.25756 17.0993 5.21157C17.1361 5.16558 17.2097 5.12878 17.2833 5.12878H20.5486C21.6983 5.12878 22.5721 5.33114 23.17 5.73586C23.7679 6.14057 24.0714 6.73845 24.0714 7.52028C24.0714 7.96179 23.961 8.33891 23.7311 8.65165C23.5103 8.96438 23.124 9.24952 22.5721 9.50707C22.5537 9.50707 22.5537 9.52546 22.5537 9.55306C22.5537 9.58065 22.5537 9.58985 22.5721 9.59905C23.1792 9.829 23.6115 10.1141 23.8782 10.4545C24.145 10.7948 24.2738 11.2363 24.2738 11.779C24.2738 12.616 23.9794 13.2323 23.3908 13.637C22.8021 14.0417 21.9099 14.2441 20.7049 14.2441H17.2557C17.1913 14.2441 17.1361 14.2165 17.0901 14.1705H17.0993ZM20.7233 8.78962C21.0361 8.78962 21.2936 8.69764 21.496 8.52288C21.6983 8.34811 21.7995 8.10896 21.7995 7.80542C21.7995 7.50189 21.6891 7.24434 21.4776 7.06038C21.2568 6.87642 20.9809 6.78444 20.6405 6.78444H19.592C19.5 6.78444 19.4356 6.80283 19.408 6.83043C19.3712 6.86722 19.3528 6.92241 19.3528 7.00519V8.53207C19.3528 8.62405 19.362 8.68844 19.3896 8.72523C19.408 8.76202 19.454 8.78962 19.5276 8.78962H20.7325H20.7233ZM20.6589 12.5884C21.0544 12.5884 21.358 12.4872 21.5695 12.2849C21.7811 12.0825 21.8915 11.825 21.8915 11.5214C21.8915 11.2179 21.7811 10.9512 21.5695 10.7672C21.358 10.5832 21.0729 10.4913 20.7233 10.4913H19.5828C19.4908 10.4913 19.4264 10.5097 19.3988 10.5465C19.362 10.5832 19.3436 10.6476 19.3436 10.7396V12.3493C19.3436 12.4413 19.3528 12.5056 19.3804 12.5424C19.3988 12.5792 19.4448 12.5976 19.5184 12.5976H20.6589V12.5884Z" fill="black"/>
<path d="M25.7177 5.12878H31.6873C31.8068 5.12878 31.8712 5.20237 31.8712 5.35874V6.63727C31.8712 6.72925 31.8528 6.80283 31.8068 6.84882C31.7608 6.89481 31.6965 6.93161 31.6045 6.93161H28.0816C27.9253 6.93161 27.8425 7.00519 27.8425 7.15236V8.54127C27.8425 8.61486 27.8609 8.67004 27.8977 8.71603C27.9345 8.75283 27.9712 8.78042 28.0264 8.78042H30.2524C30.3995 8.78042 30.4731 8.85401 30.4731 9.00118V10.3625C30.4731 10.4821 30.4087 10.5465 30.2892 10.5465H28.0172C27.9069 10.5465 27.8425 10.6016 27.8425 10.7212V12.2849C27.8425 12.3401 27.8517 12.3861 27.8701 12.4045C27.8885 12.4321 27.9253 12.4413 27.9712 12.4413H31.77C31.8436 12.4413 31.8988 12.4597 31.9448 12.4872C31.9816 12.524 32 12.57 32 12.6436V13.9957C32 14.1613 31.9172 14.2441 31.7608 14.2441H25.8189C25.7177 14.2441 25.6533 14.2257 25.6074 14.1797C25.5614 14.1337 25.543 14.0601 25.543 13.9681V5.39553C25.543 5.22076 25.6074 5.13798 25.7361 5.13798L25.7177 5.12878Z" fill="black"/>
<path d="M4.97632 18.7971C4.74637 18.6683 4.42444 18.6039 4.01972 18.6039C3.59661 18.6039 3.27468 18.6775 3.05393 18.8339C2.83317 18.9811 2.732 19.1742 2.732 19.4042C2.732 19.5605 2.79639 19.7077 2.91596 19.8457C3.03554 19.9837 3.24709 20.094 3.55062 20.1768L5.39943 20.7195C6.08008 20.9127 6.59517 21.2438 6.9355 21.7037C7.27583 22.1636 7.45059 22.7155 7.45059 23.3502C7.45059 23.9388 7.31262 24.4539 7.01828 24.8954C6.73315 25.3369 6.32843 25.6681 5.79494 25.9072C5.26146 26.1464 4.63599 26.2659 3.92774 26.2659C3.11832 26.2659 2.39167 26.1188 1.72941 25.8336C1.06716 25.5393 0.607254 25.153 0.331313 24.6563C0.29452 24.5735 0.276123 24.5091 0.276123 24.4723C0.276123 24.4079 0.322113 24.3435 0.404895 24.2792L1.43508 23.5157C1.51786 23.4605 1.59144 23.4329 1.65583 23.4329C1.72941 23.4329 1.7938 23.4697 1.83979 23.5341C2.11573 23.9112 2.39167 24.178 2.66761 24.3343C2.94355 24.4907 3.31148 24.5643 3.77138 24.5643C4.23128 24.5643 4.5992 24.4907 4.87514 24.3435C5.14188 24.1964 5.27986 23.9848 5.27986 23.7089C5.27986 23.3318 5.00391 23.065 4.44283 22.8994L2.7044 22.412C2.03295 22.228 1.50866 21.8877 1.13154 21.4094C0.754421 20.9311 0.56126 20.3792 0.56126 19.7537C0.56126 19.2202 0.69923 18.7419 0.984369 18.3096C1.26951 17.8773 1.66503 17.537 2.18012 17.2886C2.69521 17.0403 3.28388 16.9115 3.96454 16.9115C4.64519 16.9115 5.22466 17.0311 5.78574 17.2702C6.34682 17.5094 6.76993 17.8221 7.03668 18.2176C7.09187 18.3188 7.11946 18.3832 7.11946 18.4292C7.11946 18.4752 7.09187 18.512 7.03668 18.5672L5.91452 19.441C5.91452 19.441 5.85013 19.487 5.81334 19.487C5.76735 19.487 5.70297 19.441 5.61099 19.3398C5.41783 19.119 5.20627 18.9443 4.97632 18.8155V18.7971Z" fill="black"/>
<path d="M12.9509 18.7971C12.721 18.6683 12.399 18.6039 11.9943 18.6039C11.5712 18.6039 11.2493 18.6775 11.0285 18.8339C10.8078 18.9811 10.7066 19.1742 10.7066 19.4042C10.7066 19.5605 10.771 19.7077 10.8906 19.8457C11.0101 19.9837 11.2217 20.094 11.5252 20.1768L13.374 20.7195C14.0547 20.9127 14.5698 21.2438 14.9101 21.7037C15.2504 22.1636 15.4252 22.7155 15.4252 23.3502C15.4252 23.9388 15.2872 24.4539 14.9929 24.8954C14.7078 25.3369 14.303 25.6681 13.7696 25.9072C13.2361 26.1464 12.6106 26.2659 11.9024 26.2659C11.0929 26.2659 10.3663 26.1188 9.70402 25.8336C9.04177 25.5393 8.58187 25.153 8.30593 24.6563C8.26913 24.5735 8.25073 24.5091 8.25073 24.4723C8.25073 24.4079 8.29672 24.3435 8.3795 24.2792L9.40969 23.5157C9.49247 23.4605 9.56605 23.4329 9.63044 23.4329C9.70402 23.4329 9.76841 23.4697 9.8144 23.5341C10.0903 23.9112 10.3663 24.178 10.6422 24.3343C10.9182 24.4907 11.2861 24.5643 11.746 24.5643C12.2059 24.5643 12.5738 24.4907 12.8498 24.3435C13.1165 24.1964 13.2545 23.9848 13.2545 23.7089C13.2545 23.3318 12.9785 23.065 12.4174 22.8994L10.679 22.412C10.0076 22.228 9.48327 21.8877 9.10615 21.4094C8.72903 20.9311 8.53588 20.3792 8.53588 19.7537C8.53588 19.2202 8.67385 18.7419 8.95899 18.3096C9.24412 17.8773 9.63964 17.537 10.1547 17.2886C10.6698 17.0403 11.2585 16.9115 11.9391 16.9115C12.6198 16.9115 13.1993 17.0311 13.7604 17.2702C14.3214 17.5094 14.7445 17.8221 15.0113 18.2176C15.0665 18.3188 15.0941 18.3832 15.0941 18.4292C15.0941 18.4752 15.0665 18.512 15.0113 18.5672L13.8891 19.441C13.8891 19.441 13.8247 19.487 13.788 19.487C13.742 19.487 13.6776 19.441 13.5856 19.3398C13.3924 19.119 13.1809 18.9443 12.9509 18.8155V18.7971Z" fill="black"/>
<path d="M17.0717 17.0219H23.0413C23.1608 17.0219 23.2252 17.0954 23.2252 17.2518V18.5303C23.2252 18.6223 23.2068 18.6959 23.1608 18.7419C23.1148 18.7879 23.0505 18.8247 22.9585 18.8247H19.4356C19.2793 18.8247 19.1965 18.8983 19.1965 19.0454V20.4343C19.1965 20.5079 19.2149 20.5631 19.2517 20.6091C19.2885 20.6459 19.3253 20.6735 19.3804 20.6735H21.6064C21.7535 20.6735 21.8271 20.7471 21.8271 20.8942V22.2556C21.8271 22.3751 21.7627 22.4395 21.6432 22.4395H19.3712C19.2609 22.4395 19.1965 22.4947 19.1965 22.6143V24.178C19.1965 24.2331 19.2057 24.2791 19.2241 24.2975C19.2425 24.3251 19.2793 24.3343 19.3253 24.3343H23.124C23.1976 24.3343 23.2528 24.3527 23.2988 24.3803C23.3356 24.4171 23.354 24.4631 23.354 24.5367V25.8888C23.354 26.0544 23.2712 26.1371 23.1148 26.1371H17.1729C17.0717 26.1371 17.0073 26.1187 16.9614 26.0728C16.9154 26.0268 16.897 25.9532 16.897 25.8612V17.2886C16.897 17.1138 16.9614 17.031 17.0901 17.031L17.0717 17.0219Z" fill="black"/>
<path d="M24.6139 26.0636C24.568 26.0176 24.5496 25.9532 24.5496 25.8888V17.3162C24.5496 17.2242 24.5772 17.1506 24.6139 17.1046C24.6507 17.0586 24.7243 17.0219 24.7979 17.0219H28.0632C29.213 17.0219 30.0868 17.2242 30.6846 17.6289C31.2825 18.0336 31.5861 18.6315 31.5861 19.4134C31.5861 19.8549 31.4757 20.232 31.2457 20.5447C31.025 20.8574 30.6387 21.1426 30.0868 21.4001C30.0684 21.4001 30.0684 21.4185 30.0684 21.4461C30.0684 21.4737 30.0684 21.4829 30.0868 21.4921C30.6938 21.7221 31.1262 22.0072 31.3929 22.3475C31.6596 22.6879 31.7884 23.1294 31.7884 23.6721C31.7884 24.5091 31.4941 25.1254 30.9054 25.5301C30.3167 25.9348 29.4245 26.1371 28.2196 26.1371H24.7703C24.7059 26.1371 24.6507 26.1095 24.6047 26.0636H24.6139ZM28.238 20.6827C28.5507 20.6827 28.8082 20.5907 29.0106 20.4159C29.213 20.2412 29.3141 20.002 29.3141 19.6985C29.3141 19.395 29.2038 19.1374 28.9922 18.9534C28.7715 18.7695 28.4955 18.6775 28.1552 18.6775H27.1066C27.0146 18.6775 26.9502 18.6959 26.9227 18.7235C26.8859 18.7603 26.8675 18.8155 26.8675 18.8983V20.4251C26.8675 20.5171 26.8767 20.5815 26.9043 20.6183C26.9227 20.6551 26.9686 20.6827 27.0422 20.6827H28.2472H28.238ZM28.1736 24.4815C28.5691 24.4815 28.8726 24.3803 29.0842 24.178C29.2957 23.9756 29.4061 23.718 29.4061 23.4145C29.4061 23.111 29.2957 22.8442 29.0842 22.6603C28.8726 22.4763 28.5875 22.3843 28.238 22.3843H27.0974C27.0054 22.3843 26.941 22.4027 26.9135 22.4395C26.8767 22.4763 26.8583 22.5407 26.8583 22.6327V24.2423C26.8583 24.3343 26.8675 24.3987 26.8951 24.4355C26.9135 24.4723 26.9594 24.4907 27.033 24.4907H28.1736V24.4815Z" fill="black"/>
</svg>
