<svg viewBox="0 0 32 32" fill="none" xmlns="http://www.w3.org/2000/svg">
<style>.background path{fill:#CC1719}@media (prefers-color-scheme:dark){.background path{fill:none}}</style>
<path class="background" d="M32 0H0V31.9594H32V0Z" />
<path d="M5.65814 16.8869C5.65814 17.2727 5.50924 17.6043 5.2182 17.875C4.9204 18.1458 4.56846 18.2811 4.1556 18.2811C3.91194 18.2811 3.62091 18.2067 3.2825 18.0578C3.19452 18.0172 3.12683 17.9969 3.07946 17.9969C3.02531 17.9969 2.99147 18.0578 2.97793 18.1864C2.97793 18.2541 2.94409 18.2811 2.88995 18.2811C2.84257 18.2811 2.82227 18.2541 2.82227 18.1999C2.82227 18.1661 2.82227 18.139 2.82903 18.1187C2.86287 17.8412 2.88318 17.5908 2.88318 17.3539C2.88318 17.3065 2.88318 17.1847 2.86964 16.9749C2.86964 16.9478 2.86287 16.9139 2.86287 16.8666C2.86287 16.7989 2.88995 16.765 2.94409 16.765C2.99147 16.765 3.01854 16.8192 3.03885 16.9275C3.15391 17.7397 3.53969 18.1458 4.18267 18.1458C4.46017 18.1458 4.66998 18.0713 4.81888 17.9156C4.96778 17.76 5.04223 17.5434 5.04223 17.2591C5.04223 17.0087 4.96778 16.7921 4.82565 16.6161C4.67675 16.4402 4.42633 16.2642 4.07438 16.0882C3.64798 15.8784 3.35018 15.6686 3.18098 15.4723C3.01177 15.276 2.93056 15.0256 2.93056 14.7346C2.93056 14.3623 3.05238 14.051 3.28927 13.8074C3.53293 13.5637 3.83749 13.4419 4.20298 13.4419C4.35864 13.4419 4.56846 13.496 4.83919 13.5975C4.93394 13.6314 5.00162 13.6517 5.049 13.6517C5.09638 13.6517 5.13022 13.6449 5.14375 13.6246C5.15729 13.6043 5.17083 13.5569 5.18436 13.4825C5.19113 13.4351 5.2182 13.4148 5.25881 13.4148C5.30619 13.4148 5.3265 13.4419 5.3265 13.496C5.3265 13.5299 5.3265 13.5569 5.31973 13.5772C5.30619 13.6855 5.29942 13.8141 5.29942 13.9698C5.29942 14.1864 5.31296 14.3556 5.33326 14.4842V14.5925C5.3468 14.6398 5.3265 14.6669 5.27912 14.6669C5.23174 14.6669 5.1979 14.6128 5.1776 14.5112C5.13022 14.2473 5.00839 14.0239 4.82565 13.848C4.64291 13.672 4.43309 13.584 4.20298 13.584C3.97286 13.584 3.79688 13.6585 3.66829 13.8006C3.53293 13.9427 3.47201 14.139 3.47201 14.3894C3.47201 14.6804 3.56677 14.9106 3.76304 15.0865C3.87133 15.1881 4.10822 15.3234 4.46694 15.5062C4.89333 15.716 5.1979 15.9326 5.38064 16.1491C5.56338 16.3657 5.65814 16.6161 5.65814 16.8936V16.8869Z" fill="#F5F5F5"/>
<path d="M10.4974 16.7923C10.4974 16.8261 10.4432 16.8464 10.335 16.8464C10.0913 16.8464 9.95593 16.8803 9.92886 16.9547C9.90855 17.0021 9.90179 17.1984 9.90179 17.5436V17.7601C9.6649 17.9564 9.44155 18.0985 9.23174 18.1798C9.02192 18.261 8.76473 18.3016 8.46693 18.3016C7.75627 18.3016 7.18774 18.0918 6.76811 17.6654C6.34849 17.239 6.13867 16.6637 6.13867 15.9327C6.13867 15.2018 6.34172 14.5926 6.75458 14.1392C7.16744 13.6857 7.70889 13.4556 8.37894 13.4556C8.66998 13.4556 8.99485 13.5368 9.34003 13.6992C9.44155 13.7466 9.52954 13.7737 9.59722 13.7737C9.6852 13.7737 9.73935 13.7195 9.76642 13.6112C9.78673 13.5503 9.8138 13.5165 9.84764 13.5165C9.88148 13.5165 9.90179 13.5368 9.90179 13.5774C9.90179 13.5774 9.90179 13.6248 9.88825 13.706C9.86118 13.9699 9.84764 14.1662 9.85441 14.2948V14.6603C9.85441 14.843 9.85441 14.9581 9.84764 15.0055C9.84087 15.0529 9.8138 15.0732 9.77319 15.0732C9.73258 15.0732 9.71228 15.0393 9.70551 14.9784C9.6852 14.5452 9.55661 14.2001 9.32649 13.9496C9.09637 13.6992 8.7918 13.5706 8.41955 13.5706C7.95255 13.5706 7.5803 13.7804 7.30957 14.2001C7.03884 14.6197 6.90348 15.1882 6.90348 15.9124C6.90348 16.6366 7.03884 17.1713 7.31634 17.5774C7.59383 17.9835 7.96608 18.1933 8.43986 18.1933C8.79857 18.1933 9.04899 18.0918 9.18436 17.882C9.25204 17.7804 9.28588 17.5909 9.28588 17.3202C9.28588 17.0969 9.26558 16.9615 9.22497 16.9209C9.18436 16.8803 9.03546 16.86 8.78503 16.8667C8.72412 16.8667 8.68351 16.8667 8.66321 16.86C8.6429 16.86 8.63613 16.8397 8.63613 16.8194C8.63613 16.772 8.68351 16.7517 8.78503 16.7517H8.90686C9.00838 16.7517 9.25204 16.7517 9.65136 16.7517H10.3688C10.4568 16.7517 10.5042 16.772 10.5042 16.8126L10.4974 16.7923Z" fill="#F5F5F5"/>
<path d="M14.7275 18.1661C14.7275 18.2067 14.6937 18.227 14.626 18.227C14.5786 18.227 14.538 18.227 14.5041 18.2202L13.6446 18.1931L12.785 18.2202C12.785 18.2202 12.7173 18.227 12.6835 18.227C12.5955 18.227 12.5481 18.2067 12.5481 18.1593C12.5481 18.1052 12.609 18.0781 12.7309 18.0781C13.1302 18.0781 13.3265 18.0307 13.3265 17.9563C13.3265 17.9563 13.3265 17.9359 13.3129 17.9021L13.2588 17.7261L13.225 17.6314C13.1843 17.4892 13.0828 17.1847 12.9272 16.7041H11.4788C11.208 17.4283 11.0727 17.8412 11.0727 17.9495C11.0727 18.0104 11.0997 18.051 11.1539 18.0645C11.1674 18.0645 11.2825 18.0781 11.4923 18.0916C11.6209 18.0916 11.6886 18.1187 11.6886 18.1593C11.6886 18.2067 11.6277 18.227 11.5126 18.227C11.3028 18.227 11.0659 18.2202 10.7884 18.1999C10.7207 18.1999 10.653 18.1931 10.5786 18.1931C10.5041 18.1931 10.4365 18.1999 10.3688 18.2134C10.3349 18.2202 10.3011 18.227 10.2808 18.227C10.2199 18.227 10.186 18.2067 10.186 18.1661C10.186 18.1255 10.2537 18.1052 10.3958 18.0984C10.538 18.0984 10.6395 18.0713 10.7004 18.0307C10.7613 17.9901 10.8155 17.9156 10.8493 17.8074C11.4314 16.1424 11.8984 14.8023 12.2639 13.7938C12.2774 13.7397 12.2977 13.6788 12.3248 13.6111L12.3519 13.4892C12.3654 13.4419 12.3857 13.4148 12.406 13.4148C12.4195 13.4148 12.4331 13.4283 12.4398 13.4554C12.5008 13.6314 12.6294 13.9969 12.8392 14.5586C13.0016 14.9986 13.4077 16.095 14.0507 17.8547C14.0845 17.9563 14.1319 18.0239 14.186 18.051C14.2402 18.0781 14.3552 18.0984 14.5312 18.0984C14.6463 18.0984 14.7072 18.1255 14.7072 18.1593L14.7275 18.1661ZM12.8865 16.5417C12.8121 16.3387 12.6903 16.007 12.5211 15.5332L12.1962 14.5925C12.0067 15.0933 11.7833 15.7363 11.5194 16.5349H12.8865V16.5417Z" fill="#F5F5F5"/>
<path d="M18.8493 13.5502C18.8493 13.5841 18.8087 13.6044 18.7207 13.6112C18.5244 13.6112 18.3891 13.645 18.3214 13.6991C18.2537 13.7533 18.186 13.8819 18.1116 14.0782L17.8815 14.7076C17.3265 16.2304 16.9339 17.4013 16.7106 18.2135C16.697 18.2677 16.6767 18.2947 16.6429 18.2947C16.609 18.2947 16.5346 18.1255 16.4195 17.7871C16.2165 17.1712 16.0608 16.7042 15.9457 16.3929C15.8239 16.0477 15.6479 15.5401 15.4111 14.8565L15.0794 13.9428C15.032 13.8142 14.9847 13.733 14.9305 13.6924C14.8764 13.6518 14.7884 13.6247 14.6598 13.6247C14.5109 13.6247 14.4229 13.6179 14.3958 13.6112C14.3688 13.6112 14.3552 13.5908 14.3552 13.557C14.3552 13.5164 14.4026 13.4961 14.4906 13.4961H14.5515C14.6327 13.4961 14.7749 13.4961 14.9711 13.5096C15.1742 13.5164 15.3163 13.5232 15.3975 13.5232C15.4178 13.5232 15.5058 13.5232 15.6547 13.5096C15.8036 13.5029 16.0202 13.4961 16.2977 13.4961H16.3925C16.4737 13.4961 16.5143 13.5164 16.5143 13.557C16.5143 13.6044 16.4331 13.6247 16.2706 13.6315L15.8578 13.645C15.763 13.645 15.7156 13.6788 15.7156 13.7397C15.7156 13.7465 15.7156 13.7668 15.7292 13.7939L15.7765 13.9766C15.7833 14.0105 16.0067 14.6467 16.4398 15.8853C16.5143 16.0951 16.6496 16.5012 16.8527 17.0968C17.5972 14.9851 17.9762 13.8819 17.9762 13.7736C17.9762 13.6653 17.8679 13.6247 17.6446 13.6315H17.4348C17.3806 13.6315 17.3535 13.6112 17.3535 13.5705C17.3535 13.5232 17.4212 13.4961 17.5566 13.4961H17.7867C17.9153 13.5096 18.0033 13.5164 18.0642 13.5164H18.2808L18.7275 13.4961C18.8087 13.4961 18.8493 13.5164 18.8493 13.5502Z" fill="#F5F5F5"/>
<path d="M23.4721 6.5653C23.4721 6.60591 23.4383 6.62622 23.3706 6.62622C23.3232 6.62622 23.2826 6.62622 23.2488 6.61945L22.3892 6.59237L21.5297 6.61945C21.5297 6.61945 21.462 6.62622 21.4281 6.62622C21.3401 6.62622 21.2928 6.60591 21.2928 6.55853C21.2928 6.50439 21.3537 6.47732 21.4755 6.47732C21.8748 6.47732 22.0711 6.42994 22.0711 6.35549C22.0711 6.35549 22.0711 6.33518 22.0576 6.30134L22.0034 6.12537L21.9696 6.03061C21.929 5.88848 21.8275 5.58391 21.6718 5.10337H20.2234C19.9527 5.82757 19.8173 6.24043 19.8173 6.34872C19.8173 6.40963 19.8444 6.45024 19.8985 6.46378C19.9121 6.46378 20.0271 6.47731 20.2369 6.49085C20.3655 6.49085 20.4332 6.51792 20.4332 6.55853C20.4332 6.60591 20.3723 6.62622 20.2572 6.62622C20.0474 6.62622 19.8105 6.61945 19.533 6.59914C19.4654 6.59914 19.3977 6.59914 19.3232 6.59914C19.2488 6.59914 19.1811 6.60591 19.1134 6.61945C19.0796 6.62622 19.0457 6.63298 19.0254 6.63298C18.9645 6.63298 18.9307 6.61268 18.9307 6.57207C18.9307 6.53146 18.9983 6.51116 19.1405 6.50439C19.2826 6.50439 19.3841 6.47731 19.445 6.43671C19.506 6.3961 19.5601 6.32165 19.5939 6.21336C20.176 4.54838 20.643 3.20828 21.0085 2.19982C21.022 2.14567 21.0423 2.08476 21.0694 2.01708L21.0965 1.89525C21.11 1.84787 21.1303 1.8208 21.1506 1.8208C21.1642 1.8208 21.1777 1.83434 21.1845 1.86141C21.2454 2.03738 21.374 2.40287 21.5838 2.96462C21.7462 3.40456 22.1523 4.501 22.7953 6.26073C22.8291 6.36226 22.8765 6.42994 22.9307 6.45701C22.9848 6.48408 23.0999 6.50439 23.2758 6.50439C23.3909 6.50439 23.4518 6.53146 23.4518 6.5653H23.4721ZM21.6312 4.9477C21.5567 4.74466 21.4349 4.41302 21.2657 3.93924L20.9408 2.99847C20.7513 3.49931 20.528 4.14229 20.264 4.94094H21.6312V4.9477Z" fill="#F5F5F5"/>
<path d="M22.8698 28.3588C22.8698 28.3588 22.8698 28.413 22.8562 28.5416C22.8359 28.792 22.8291 29.0492 22.8291 29.2996C22.8291 29.3335 22.8291 29.3876 22.8427 29.4688C22.8494 29.55 22.8562 29.6516 22.8562 29.7666V29.8275C22.8562 29.8884 22.8359 29.9155 22.8021 29.9155C22.7682 29.9155 22.7344 29.8817 22.7073 29.814C22.6464 29.6583 22.5787 29.5568 22.5178 29.523C22.1929 29.8072 21.8004 29.9494 21.3469 29.9494C20.6836 29.9494 20.1354 29.7192 19.7022 29.259C19.2691 28.7988 19.0525 28.2167 19.0525 27.5128C19.0525 26.8089 19.2488 26.2269 19.6481 25.7802C20.0474 25.3335 20.5618 25.1101 21.1912 25.1101C21.4214 25.1101 21.6041 25.1304 21.7395 25.1643C21.8748 25.2049 22.044 25.2793 22.2471 25.3944C22.3486 25.4553 22.423 25.4824 22.4704 25.4824C22.511 25.4824 22.5516 25.4485 22.5855 25.3741C22.6464 25.2455 22.6938 25.1846 22.7276 25.1846C22.7615 25.1846 22.7818 25.2049 22.7818 25.2387C22.7818 25.259 22.7818 25.2861 22.7682 25.3267C22.7208 25.5433 22.6938 25.9494 22.6938 26.545C22.6938 26.6329 22.687 26.6803 22.6735 26.6939C22.6599 26.7074 22.6396 26.7142 22.6193 26.7142C22.5719 26.7142 22.5449 26.6736 22.5313 26.5856C22.4704 26.2269 22.3892 25.9561 22.2809 25.7802C22.0576 25.4214 21.7124 25.2387 21.2386 25.2387C20.8731 25.2387 20.5821 25.3605 20.3723 25.6042C19.9865 26.0441 19.797 26.6803 19.797 27.5264C19.797 28.2776 19.9527 28.8665 20.2708 29.2793C20.5483 29.638 20.9137 29.8208 21.3672 29.8208C21.6041 29.8208 21.8139 29.7599 22.0102 29.6448C22.2065 29.5297 22.3554 29.3673 22.4569 29.1643C22.5652 28.9612 22.6464 28.7108 22.7005 28.4265C22.7209 28.3182 22.7547 28.2641 22.7885 28.2641C22.8359 28.2641 22.8562 28.2979 22.8562 28.3656L22.8698 28.3588Z" fill="#F5F5F5"/>
<path d="M23.4178 22.8428C23.4178 22.8767 23.3637 22.897 23.2554 22.897C23.0117 22.897 22.8763 22.9308 22.8493 23.0053C22.829 23.0526 22.8222 23.2489 22.8222 23.5941V23.8107C22.5853 24.0069 22.362 24.1491 22.1521 24.2303C21.9423 24.3115 21.6851 24.3521 21.3873 24.3521C20.6767 24.3521 20.1082 24.1423 19.6885 23.7159C19.2689 23.2895 19.0591 22.7142 19.0591 21.9833C19.0591 21.2523 19.2621 20.6432 19.675 20.1897C20.0878 19.7362 20.6293 19.5061 21.2994 19.5061C21.5904 19.5061 21.9153 19.5873 22.2604 19.7498C22.362 19.7971 22.4499 19.8242 22.5176 19.8242C22.6056 19.8242 22.6598 19.7701 22.6868 19.6618C22.7071 19.6009 22.7342 19.567 22.768 19.567C22.8019 19.567 22.8222 19.5873 22.8222 19.6279C22.8222 19.6279 22.8222 19.6753 22.8087 19.7565C22.7816 20.0205 22.7681 20.2168 22.7748 20.3454V20.7108C22.7748 20.8936 22.7748 21.0086 22.768 21.056C22.7613 21.1034 22.7342 21.1237 22.6936 21.1237C22.653 21.1237 22.6327 21.0899 22.6259 21.0289C22.6056 20.5958 22.477 20.2506 22.2469 20.0002C22.0168 19.7498 21.7122 19.6212 21.34 19.6212C20.873 19.6212 20.5007 19.831 20.23 20.2506C19.9593 20.6702 19.8239 21.2388 19.8239 21.963C19.8239 22.6872 19.9593 23.2218 20.2367 23.6279C20.5142 24.034 20.8865 24.2438 21.3603 24.2438C21.719 24.2438 21.9694 24.1423 22.1048 23.9325C22.1724 23.831 22.2063 23.6415 22.2063 23.3707C22.2063 23.1474 22.186 23.012 22.1386 22.9714C22.098 22.9308 21.9491 22.9105 21.6987 22.9173C21.6378 22.9173 21.5972 22.9173 21.5768 22.9105C21.5565 22.9105 21.5498 22.8902 21.5498 22.8699C21.5498 22.8225 21.5972 22.8022 21.6987 22.8022H21.8205C21.922 22.8022 22.1657 22.8022 22.565 22.8022H23.2824C23.3704 22.8022 23.4178 22.8225 23.4178 22.8631V22.8428Z" fill="#F5F5F5"/>
<path d="M22.5854 10.8224C22.5854 11.2082 22.4365 11.5399 22.1455 11.8106C21.8477 12.0813 21.4957 12.2167 21.0828 12.2167C20.8392 12.2167 20.5482 12.1422 20.2097 11.9933C20.1218 11.9527 20.0541 11.9324 20.0067 11.9324C19.9526 11.9324 19.9187 11.9933 19.9052 12.1219C19.9052 12.1896 19.8713 12.2167 19.8172 12.2167C19.7698 12.2167 19.7495 12.1896 19.7495 12.1355C19.7495 12.1016 19.7495 12.0745 19.7563 12.0542C19.7901 11.7767 19.8104 11.5263 19.8104 11.2894C19.8104 11.2421 19.8104 11.1202 19.7969 10.9104C19.7969 10.8833 19.7901 10.8495 19.7901 10.8021C19.7901 10.7344 19.8172 10.7006 19.8713 10.7006C19.9187 10.7006 19.9458 10.7547 19.9661 10.863C20.0812 11.6752 20.4669 12.0813 21.1099 12.0813C21.3874 12.0813 21.5972 12.0069 21.7461 11.8512C21.895 11.6955 21.9695 11.4789 21.9695 11.1947C21.9695 10.9443 21.895 10.7277 21.7529 10.5517C21.604 10.3757 21.3536 10.1997 21.0016 10.0238C20.5752 9.81396 20.2774 9.60415 20.1082 9.40787C19.939 9.21159 19.8578 8.96117 19.8578 8.67014C19.8578 8.29789 19.9796 7.98655 20.2165 7.7429C20.4602 7.49924 20.7647 7.37741 21.1302 7.37741C21.2859 7.37741 21.4957 7.43156 21.7664 7.53308C21.8612 7.56692 21.9289 7.58723 21.9762 7.58723C22.0236 7.58723 22.0575 7.58046 22.071 7.56016C22.0845 7.53985 22.0981 7.49247 22.1116 7.41802C22.1184 7.37065 22.1454 7.35034 22.1861 7.35034C22.2334 7.35034 22.2537 7.37741 22.2537 7.43156C22.2537 7.4654 22.2537 7.49247 22.247 7.51278C22.2334 7.62107 22.2267 7.74966 22.2267 7.90533C22.2267 8.12192 22.2402 8.29112 22.2605 8.41972V8.52801C22.274 8.57538 22.2537 8.60246 22.2064 8.60246C22.159 8.60246 22.1251 8.54831 22.1048 8.44679C22.0575 8.18283 21.9356 7.95948 21.7529 7.78351C21.5702 7.60753 21.3603 7.51955 21.1302 7.51955C20.9001 7.51955 20.7241 7.594 20.5955 7.73613C20.4602 7.87826 20.3993 8.07454 20.3993 8.32496C20.3993 8.61599 20.494 8.84611 20.6903 9.02208C20.7986 9.12361 21.0355 9.25897 21.3942 9.44171C21.8206 9.65153 22.1251 9.86811 22.3079 10.0847C22.4906 10.3013 22.5854 10.5517 22.5854 10.8292V10.8224Z" fill="#F5F5F5"/>
<path class="background" d="M22.8969 17.3267C22.8969 17.4418 22.8901 17.6381 22.8766 17.9088H22.8022C22.8022 17.9088 22.7074 17.9088 22.6059 17.8953C22.5044 17.8885 22.3825 17.8817 22.2539 17.8817L19.4451 17.8614C19.3707 17.8614 19.3301 17.8411 19.3301 17.8005C19.3301 17.7667 19.391 17.7464 19.5128 17.7396C19.682 17.7328 19.7835 17.7125 19.8174 17.6855C19.8512 17.6584 19.8648 17.5704 19.8648 17.435V13.6313C19.8648 13.4621 19.8512 13.3674 19.8174 13.3403C19.7835 13.3132 19.6617 13.2997 19.4587 13.2997C19.3707 13.2997 19.3301 13.2726 19.3301 13.2252C19.3301 13.1846 19.3572 13.1643 19.4113 13.1643H19.4722C19.6211 13.1778 19.9189 13.1846 20.3588 13.1846C20.3995 13.1846 20.4807 13.1846 20.5957 13.1711C20.7108 13.1711 20.8123 13.1643 20.8868 13.1643H20.9612C21.0424 13.1643 21.083 13.1846 21.083 13.232C21.083 13.2591 21.0695 13.2726 21.0492 13.2794C21.0221 13.2794 20.9477 13.2929 20.8191 13.2929C20.6905 13.2929 20.6093 13.32 20.589 13.3538C20.5619 13.3944 20.5551 13.5095 20.5551 13.7058V17.699C20.6769 17.699 20.8462 17.699 21.0627 17.699C21.5907 17.699 21.9629 17.6719 22.1795 17.6178C22.3961 17.5636 22.545 17.4621 22.6194 17.3132C22.6939 17.1643 22.7412 16.9613 22.7548 16.7108C22.7548 16.6499 22.7819 16.6229 22.8292 16.6229C22.8834 16.6229 22.9105 16.6567 22.9037 16.7244V17.3132L22.8969 17.3267Z" />
<path d="M22.9307 17.9697H22.8021C22.8021 17.9697 22.7074 17.9697 22.5991 17.9562C22.4975 17.9494 22.3825 17.9427 22.2539 17.9427L19.4451 17.9224C19.2894 17.9224 19.2759 17.8411 19.2759 17.8073C19.2759 17.7193 19.3909 17.699 19.5128 17.6922C19.7429 17.6787 19.7835 17.6516 19.7903 17.6516C19.7903 17.6516 19.8241 17.6246 19.8241 17.4418V13.6381C19.8241 13.4283 19.797 13.3944 19.797 13.3877C19.797 13.3877 19.7429 13.3606 19.4722 13.3606C19.303 13.3606 19.2894 13.2658 19.2894 13.232C19.2894 13.1779 19.3233 13.1169 19.4248 13.1169H19.4857C19.6346 13.1305 19.9324 13.1372 20.3723 13.1372C20.4129 13.1372 20.4874 13.1372 20.6092 13.1305C20.731 13.1237 20.8258 13.1169 20.9002 13.1169H20.9747C21.1371 13.1169 21.1507 13.2049 21.1507 13.2388C21.1507 13.2929 21.1236 13.3335 21.0695 13.3471C21.0491 13.3471 21.0018 13.3606 20.8258 13.3674C20.6634 13.3674 20.6363 13.408 20.6363 13.408C20.6363 13.4147 20.6092 13.4621 20.6092 13.7328V17.6719C20.7243 17.6719 20.8732 17.6719 21.0627 17.6719C21.5838 17.6719 21.9561 17.6449 22.1659 17.5907C22.3689 17.5433 22.4975 17.4486 22.572 17.3132C22.6464 17.1711 22.687 16.9748 22.7006 16.7312C22.7006 16.6432 22.7547 16.589 22.8359 16.589C22.8901 16.589 22.9172 16.6093 22.9375 16.6296C22.9645 16.6567 22.9781 16.6973 22.9713 16.7515V17.3335C22.9713 17.4486 22.9645 17.6449 22.951 17.9156V17.9697H22.9307ZM19.4383 17.8073C19.4383 17.8073 19.4383 17.8073 19.4451 17.8073L22.2539 17.8276C22.3825 17.8276 22.5043 17.8276 22.6126 17.8411C22.7141 17.8479 22.7818 17.8547 22.8021 17.8547H22.8224C22.8359 17.611 22.8427 17.435 22.8427 17.3268V16.7379V16.6973C22.8427 16.6973 22.8427 16.6973 22.8292 16.6973C22.8156 16.6973 22.8089 16.6973 22.8089 16.7312C22.7953 16.9883 22.748 17.1982 22.6667 17.3538C22.5855 17.5163 22.4231 17.6313 22.193 17.6855C21.9696 17.7396 21.5974 17.7667 21.0627 17.7667C20.8461 17.7667 20.6769 17.7667 20.5551 17.7599H20.5009V13.7125C20.5009 13.435 20.5212 13.3606 20.5483 13.3268C20.5821 13.2726 20.6701 13.2455 20.8258 13.2388C20.9679 13.2388 21.0153 13.2252 21.0356 13.2252C21.0288 13.2252 21.0085 13.2185 20.9747 13.2185H20.9002C20.8258 13.2185 20.731 13.2185 20.616 13.2252C20.4942 13.232 20.4197 13.2388 20.3791 13.2388C19.9392 13.2388 19.6346 13.232 19.4857 13.2185H19.4315H19.4045C19.4045 13.2185 19.418 13.2388 19.4789 13.2388C19.77 13.2388 19.8444 13.2658 19.8782 13.2929C19.9121 13.32 19.9527 13.3809 19.9527 13.6246V17.4283C19.9527 17.5907 19.9324 17.6855 19.885 17.7261C19.8512 17.7532 19.7835 17.787 19.5466 17.8005C19.5128 17.8005 19.4857 17.8005 19.4654 17.8073H19.4383Z" fill="white"/>
<path d="M24.2775 17.9427C24.2775 18.0578 24.2708 18.254 24.2572 18.5248H24.1828C24.1828 18.5248 24.088 18.5248 23.9865 18.5112C23.885 18.5045 23.7631 18.4977 23.6345 18.4977L20.8258 18.4774C20.7513 18.4774 20.7107 18.4571 20.7107 18.4165C20.7107 18.3826 20.7716 18.3623 20.8934 18.3556C21.0626 18.3488 21.1642 18.3285 21.198 18.3014C21.2318 18.2744 21.2454 18.1864 21.2454 18.051V14.2473C21.2454 14.0781 21.2318 13.9833 21.198 13.9562C21.1642 13.9292 21.0423 13.9156 20.8393 13.9156C20.7513 13.9156 20.7107 13.8886 20.7107 13.8412C20.7107 13.8006 20.7378 13.7803 20.7919 13.7803H20.8528C21.0017 13.7938 21.2995 13.8006 21.7395 13.8006C21.7801 13.8006 21.8613 13.8006 21.9763 13.7938C22.0914 13.787 22.1929 13.787 22.2674 13.787H22.3418C22.423 13.787 22.4637 13.8073 22.4637 13.8547C22.4637 13.8818 22.4501 13.8953 22.4298 13.9021C22.4027 13.9089 22.3283 13.9156 22.1997 13.9156C22.0711 13.9156 21.9899 13.9427 21.9696 13.9833C21.9425 14.0239 21.9357 14.139 21.9357 14.3353V18.3285C22.0576 18.3285 22.2268 18.3353 22.4433 18.3353C22.9713 18.3353 23.3435 18.3082 23.5601 18.254C23.7767 18.1999 23.9256 18.0984 24 17.9495C24.0745 17.8006 24.1219 17.5975 24.1354 17.3471C24.1354 17.2862 24.1625 17.2591 24.2098 17.2591C24.264 17.2591 24.2911 17.293 24.2843 17.3606V17.9495L24.2775 17.9427Z" fill="#F5F5F5"/>
</svg>
