<svg width="32" height="32" viewBox="0 0 32 32" fill="none" xmlns="http://www.w3.org/2000/svg">
<mask id="mask0_2653_1481" style="mask-type:luminance" maskUnits="userSpaceOnUse" x="0" y="2" width="32" height="29">
<path d="M32 29.9651L0 30.0539V2.08247L32 2V29.9651Z" fill="white"/>
</mask>
<g mask="url(#mask0_2653_1481)">
<path d="M-1.62407 8.47731C-1.68751 8.41387 -1.7002 8.31871 -1.63676 8.25526L-1.26245 7.7858C-1.19901 7.70967 -1.10385 7.70967 -1.0404 7.77311C-0.336202 8.32505 0.780374 8.87065 2.02383 8.87065C3.73676 8.87065 4.78989 8.00784 4.78989 6.68825C4.78989 5.63512 4.19354 4.86748 2.23319 4.61371L1.74469 4.55027C-0.342546 4.28381 -1.33224 3.27509 -1.33224 1.72711C-1.33224 -0.125386 -0.012651 -1.27368 2.03017 -1.27368C3.21019 -1.27368 4.33945 -0.912064 5.07538 -0.379153C5.15151 -0.334744 5.17054 -0.239582 5.1071 -0.157107L4.79623 0.331394C4.73279 0.407524 4.65667 0.407524 4.57419 0.363115C3.72407 -0.157107 2.89298 -0.423563 1.98577 -0.423563C0.463167 -0.423563 -0.43136 0.426556 -0.43136 1.66367C-0.43136 2.74852 0.26015 3.45273 2.08093 3.68746L2.56943 3.7509C4.73279 4.03639 5.6971 5.03877 5.6971 6.62481C5.6971 8.4329 4.40924 9.72077 1.92867 9.72077C0.532955 9.72077 -0.869112 9.12442 -1.60504 8.48365L-1.62407 8.47731Z" fill="black"/>
<path d="M7.26416 4.22061C7.26416 2.36811 7.39104 1.66391 7.56234 1.12466C8.08256 -0.461387 9.30699 -1.27979 11.0453 -1.27979C12.7836 -1.27979 13.8748 -0.416978 14.3887 0.699596C14.4204 0.775726 14.4204 0.858201 14.3252 0.90261L13.824 1.15638C13.7479 1.1881 13.6654 1.17541 13.621 1.09293C13.0881 0.122277 12.3014 -0.429666 11.0326 -0.429666C9.76377 -0.429666 8.81848 0.198407 8.42514 1.37842C8.28557 1.78445 8.17138 2.44424 8.17138 4.22061C8.17138 5.99698 8.27923 6.65677 8.42514 7.0628C8.81848 8.24282 9.71301 8.87089 11.0326 8.87089C12.3522 8.87089 13.2467 8.2555 13.6401 7.09452C13.7796 6.68849 13.8938 6.07311 13.8938 5.0517C13.8938 4.98826 13.8621 4.95653 13.7987 4.95653H11.3815C11.2864 4.95653 11.2229 4.89309 11.2229 4.79793V4.27771C11.2229 4.18255 11.2864 4.1191 11.3815 4.1191H14.6297C14.7249 4.1191 14.7883 4.18255 14.7883 4.27771V4.91847C14.7883 5.98429 14.6615 6.80269 14.5029 7.29119C14.0017 8.87723 12.7582 9.70832 11.0453 9.70832C9.33236 9.70832 8.07621 8.88992 7.56234 7.30388C7.39104 6.77097 7.26416 6.06042 7.26416 4.20792V4.22061Z" fill="black"/>
<path d="M17.4275 -0.962734C17.4275 -1.0579 17.4909 -1.12134 17.5861 -1.12134H18.1634C18.2586 -1.12134 18.322 -1.0579 18.322 -0.962734V5.19111L23.41 -0.981766C23.5052 -1.07693 23.5687 -1.12134 23.6765 -1.12134H24.4124C24.5076 -1.12134 24.552 -1.02618 24.4759 -0.950045L21.1008 3.08485L24.7423 9.37827C24.8058 9.47343 24.755 9.54956 24.6662 9.54956H23.962C23.8541 9.54956 23.7907 9.50515 23.7272 9.40999L20.5108 3.80174L18.3284 6.40919V9.39095C18.3284 9.48612 18.2649 9.54956 18.1698 9.54956H17.5924C17.4973 9.54956 17.4338 9.48612 17.4338 9.39095V-0.962734H17.4275Z" fill="black"/>
<path d="M25.7446 8.47731C25.6811 8.41387 25.6685 8.31871 25.7319 8.25526L26.1062 7.7858C26.1696 7.70967 26.2648 7.70967 26.3282 7.77311C27.0325 8.32505 28.149 8.87065 29.3925 8.87065C31.1054 8.87065 32.1585 8.00784 32.1585 6.68825C32.1585 5.63512 31.5622 4.86748 29.6018 4.61371L29.1133 4.55027C27.0261 4.28381 26.0364 3.27509 26.0364 1.72711C26.0364 -0.125386 27.356 -1.27368 29.3988 -1.27368C30.5788 -1.27368 31.7081 -0.912064 32.444 -0.379153C32.5202 -0.334744 32.5392 -0.239582 32.4758 -0.157107L32.1649 0.331394C32.1014 0.407524 32.0253 0.407524 31.9428 0.363115C31.0927 -0.157107 30.2616 -0.423563 29.3544 -0.423563C27.8318 -0.423563 26.9373 0.426556 26.9373 1.66367C26.9373 2.74852 27.6288 3.45273 29.4496 3.68746L29.9381 3.7509C32.1014 4.03639 33.0658 5.03877 33.0658 6.62481C33.0658 8.4329 31.7779 9.72077 29.2973 9.72077C27.9016 9.72077 26.4995 9.12442 25.7636 8.48365L25.7446 8.47731Z" fill="black"/>
<path d="M1.57964 10.9328C1.61136 10.8376 1.67481 10.7742 1.76997 10.7742H2.3346C2.44245 10.7742 2.4932 10.8376 2.52492 10.9328L6.22992 21.2928C6.26164 21.388 6.21722 21.4514 6.12206 21.4514H5.50669C5.39884 21.4514 5.33539 21.4197 5.30367 21.2928L4.35838 18.6727H-0.285546L-1.23083 21.2928C-1.27524 21.4197 -1.33868 21.4514 -1.43384 21.4514H-2.04288C-2.13805 21.4514 -2.18245 21.388 -2.15073 21.2928L1.58598 10.9328H1.57964ZM4.06021 17.8099L2.06814 12.2206H2.02373L0.0126312 17.8099H4.06656H4.06021Z" fill="black"/>
<path d="M7.58125 20.3728C7.51781 20.3094 7.50513 20.2142 7.56857 20.1508L7.94287 19.6813C8.00631 19.6052 8.10147 19.6052 8.16491 19.6686C8.86912 20.2206 9.98569 20.7662 11.2291 20.7662C12.9421 20.7662 13.9952 19.9033 13.9952 18.5838C13.9952 17.5306 13.3989 16.763 11.4385 16.5092L10.95 16.4458C8.86277 16.1793 7.87309 15.1769 7.87309 13.6226C7.87309 11.7701 9.19268 10.6218 11.2355 10.6218C12.4155 10.6218 13.5448 10.9834 14.2807 11.5164C14.3568 11.5608 14.3759 11.6559 14.3124 11.7384L14.0016 12.2269C13.9381 12.303 13.862 12.303 13.7795 12.2586C12.9294 11.7384 12.0983 11.4719 11.1911 11.4719C9.66848 11.4719 8.77396 12.3221 8.77396 13.5592C8.77396 14.644 9.46548 15.3482 11.2863 15.583L11.7747 15.6464C13.9381 15.9256 14.9024 16.9343 14.9024 18.5203C14.9024 20.3284 13.6146 21.6163 11.134 21.6163C9.73827 21.6163 8.34255 21.0199 7.60028 20.3792L7.58125 20.3728Z" fill="black"/>
<path d="M16.4694 20.3728C16.406 20.3094 16.3933 20.2142 16.4567 20.1508L16.8311 19.6813C16.8945 19.6052 16.9897 19.6052 17.0531 19.6686C17.7573 20.2206 18.8739 20.7662 20.1173 20.7662C21.8303 20.7662 22.8834 19.9033 22.8834 18.5838C22.8834 17.5306 22.287 16.763 20.3267 16.5092L19.8382 16.4458C17.751 16.1793 16.7613 15.1769 16.7613 13.6226C16.7613 11.7701 18.0809 10.6218 20.1237 10.6218C21.3037 10.6218 22.433 10.9834 23.1689 11.5164C23.245 11.5608 23.264 11.6559 23.2006 11.7384L22.8897 12.2269C22.8263 12.303 22.7502 12.303 22.6677 12.2586C21.8176 11.7384 20.9865 11.4719 20.0793 11.4719C18.5567 11.4719 17.6621 12.3221 17.6621 13.5592C17.6621 14.644 18.3537 15.3482 20.1744 15.583L20.6629 15.6464C22.8263 15.9256 23.7906 16.9343 23.7906 18.5203C23.7906 20.3284 22.5027 21.6163 20.0222 21.6163C18.6265 21.6163 17.2244 21.0199 16.4885 20.3792L16.4694 20.3728Z" fill="black"/>
<path d="M25.9793 19.2118C25.789 18.6472 25.6685 17.9557 25.6685 16.1159C25.6685 14.2761 25.7953 13.5909 25.9793 13.0199C26.4995 11.4466 27.6922 10.6155 29.4369 10.6155C31.1815 10.6155 32.3552 11.4466 32.8754 13.0199C33.0658 13.5846 33.1863 14.2761 33.1863 16.1159C33.1863 17.9557 33.0594 18.6409 32.8754 19.2118C32.3552 20.7852 31.1625 21.6163 29.4369 21.6163C27.7113 21.6163 26.4995 20.7852 25.9793 19.2118ZM32.0126 13.2737C31.6193 12.0937 30.7565 11.4656 29.4369 11.4656C28.1173 11.4656 27.2418 12.0937 26.8485 13.2737C26.7089 13.6987 26.582 14.3903 26.582 16.1159C26.582 17.8415 26.7089 18.533 26.8485 18.9581C27.2418 20.1381 28.1046 20.7662 29.4369 20.7662C30.7692 20.7662 31.6193 20.1381 32.0126 18.9581C32.1522 18.533 32.2791 17.8415 32.2791 16.1159C32.2791 14.3903 32.1522 13.6987 32.0126 13.2737Z" fill="black"/>
<path d="M-1.62407 32.2681C-1.68751 32.2046 -1.7002 32.1095 -1.63676 32.046L-1.26245 31.5766C-1.19901 31.5004 -1.10385 31.5004 -1.0404 31.5639C-0.336202 32.1158 0.780374 32.6614 2.02383 32.6614C3.73676 32.6614 4.78989 31.7986 4.78989 30.479C4.78989 29.4259 4.19354 28.6582 2.23319 28.4045L1.74469 28.341C-0.342546 28.0746 -1.33224 27.0659 -1.33224 25.5179C-1.33224 23.6654 -0.012651 22.5171 2.03017 22.5171C3.21019 22.5171 4.33945 22.8787 5.07538 23.4116C5.15151 23.456 5.17054 23.5512 5.1071 23.6337L4.79623 24.1222C4.73279 24.1983 4.65667 24.1983 4.57419 24.1539C3.72407 23.6337 2.89298 23.3672 1.98577 23.3672C0.463167 23.3672 -0.43136 24.2173 -0.43136 25.4544C-0.43136 26.5393 0.26015 27.2435 2.08093 27.4782L2.56943 27.5417C4.73279 27.8208 5.6971 28.8295 5.6971 30.4156C5.6971 32.2237 4.40924 33.5115 1.92867 33.5115C0.532955 33.5115 -0.869112 32.9152 -1.60504 32.2681H-1.62407Z" fill="black"/>
<path d="M7.58125 32.2681C7.51781 32.2046 7.50513 32.1095 7.56857 32.046L7.94287 31.5766C8.00631 31.5004 8.10147 31.5004 8.16491 31.5639C8.86912 32.1158 9.98569 32.6614 11.2291 32.6614C12.9421 32.6614 13.9952 31.7986 13.9952 30.479C13.9952 29.4259 13.3989 28.6582 11.4385 28.4045L10.95 28.341C8.86277 28.0746 7.87309 27.0659 7.87309 25.5179C7.87309 23.6654 9.19268 22.5171 11.2355 22.5171C12.4155 22.5171 13.5448 22.8787 14.2807 23.4116C14.3568 23.456 14.3759 23.5512 14.3124 23.6337L14.0016 24.1222C13.9381 24.1983 13.862 24.1983 13.7795 24.1539C12.9294 23.6337 12.0983 23.3672 11.1911 23.3672C9.66848 23.3672 8.77396 24.2173 8.77396 25.4544C8.77396 26.5393 9.46548 27.2435 11.2863 27.4782L11.7747 27.5417C13.9381 27.8208 14.9024 28.8295 14.9024 30.4156C14.9024 32.2237 13.6146 33.5115 11.134 33.5115C9.73827 33.5115 8.34255 32.9152 7.60028 32.2681H7.58125Z" fill="black"/>
<path d="M16.6218 28.0111C16.6218 26.146 16.7297 25.4354 16.9073 24.9025C17.4402 23.3038 18.6012 22.5171 20.2824 22.5171C21.7416 22.5171 22.8899 23.1896 23.4989 24.4965C23.5306 24.5726 23.5306 24.6551 23.4545 24.6995L22.9343 24.9533C22.8581 24.9977 22.7757 24.9659 22.7313 24.8898C22.2428 23.9762 21.4878 23.3672 20.2824 23.3672C18.9819 23.3672 18.1761 23.9826 17.7701 25.1436C17.6305 25.5686 17.5354 26.2284 17.5354 28.0175C17.5354 29.8065 17.6305 30.4663 17.7701 30.8914C18.1761 32.0524 18.9819 32.6678 20.2824 32.6678C21.4942 32.6678 22.2428 32.0524 22.7313 31.1452C22.7757 31.069 22.8581 31.0373 22.9343 31.0817L23.4545 31.3355C23.5306 31.3799 23.5306 31.4624 23.4989 31.5385C22.8835 32.8391 21.7416 33.5179 20.2824 33.5179C18.6012 33.5179 17.4402 32.7312 16.9073 31.1325C16.736 30.5996 16.6218 29.889 16.6218 28.0238V28.0111Z" fill="black"/>
<path d="M25.8271 32.2681C25.7637 32.2046 25.751 32.1095 25.8144 32.046L26.1887 31.5766C26.2522 31.5004 26.3473 31.5004 26.4108 31.5639C27.115 32.1158 28.2315 32.6614 29.475 32.6614C31.1879 32.6614 32.2411 31.7986 32.2411 30.479C32.2411 29.4259 31.6447 28.6582 29.6844 28.4045L29.1959 28.341C27.1086 28.0746 26.1189 27.0659 26.1189 25.5179C26.1189 23.6654 27.4385 22.5171 29.4813 22.5171C30.6614 22.5171 31.7906 22.8787 32.5265 23.4116C32.6027 23.456 32.6217 23.5512 32.5583 23.6337L32.2474 24.1222C32.184 24.1983 32.1078 24.1983 32.0254 24.1539C31.1752 23.6337 30.3441 23.3672 29.4369 23.3672C27.9143 23.3672 27.0198 24.2173 27.0198 25.4544C27.0198 26.5393 27.7113 27.2435 29.5321 27.4782L30.0206 27.5417C32.184 27.8208 33.1483 28.8295 33.1483 30.4156C33.1483 32.2237 31.8604 33.5115 29.3798 33.5115C27.9841 33.5115 26.5884 32.9152 25.8461 32.2681H25.8271Z" fill="black"/>
</g>
</svg>
