<svg viewBox="0 0 32 32" fill="none" xmlns="http://www.w3.org/2000/svg">
<path class="shape" d="M7.34398 0.406127L1 7.07221L3.18468 13.8573L7.68009 14.9427L12.2105 14.3895L14.1011 21.9169L13.4919 23.9615L17.1751 32L20.193 31.3908L26.1869 23.7094L25.9348 18.9969L30.1851 13.8223L30.0801 11.0074L27.6223 11.7777L21.7825 2.40175L16.5589 2.70985L13.3869 1.2744L12.9737 0L7.34398 0.406127Z" fill="#AFB1A0"/>
<path class="label" d="M21.9576 6.29492H5.69849V22.554H21.9576V6.29492Z" fill="#EC1C24" />
<path d="M9.24161 11.2456C8.75846 11.2456 8.39435 11.1195 8.11426 10.8464L8.31732 10.6434C8.53439 10.8744 8.83548 10.9865 9.23461 10.9865C9.78078 10.9865 10.0749 10.7974 10.0749 10.4193C10.0749 10.1322 9.90682 9.98517 9.5427 9.95016L9.08056 9.90815C8.52038 9.85913 8.2403 9.61406 8.2403 9.17992C8.2403 8.69677 8.63242 8.38867 9.24161 8.38867C9.62673 8.38867 9.97684 8.50071 10.2219 8.68276L10.0259 8.87882C9.80879 8.72478 9.54971 8.64075 9.24161 8.64075C8.78647 8.64075 8.52739 8.83681 8.52739 9.17992C8.52739 9.46701 8.70244 9.61406 9.09456 9.64907L9.5427 9.69108C10.0048 9.73309 10.362 9.87314 10.362 10.4193C10.362 10.9305 9.92783 11.2456 9.24161 11.2456Z" fill="white"/>
<path d="M11.9862 11.2456C11.5031 11.2456 11.139 11.1195 10.8589 10.8464L11.062 10.6434C11.279 10.8744 11.5801 10.9865 11.9792 10.9865C12.5254 10.9865 12.8195 10.7974 12.8195 10.4193C12.8195 10.1322 12.6514 9.98517 12.2873 9.95016L11.8252 9.90815C11.265 9.85913 10.9849 9.61406 10.9849 9.17992C10.9849 8.69677 11.377 8.38867 11.9862 8.38867C12.3714 8.38867 12.7215 8.50071 12.9665 8.68276L12.7705 8.87882C12.5534 8.72478 12.2943 8.64075 11.9862 8.64075C11.5311 8.64075 11.272 8.83681 11.272 9.17992C11.272 9.46701 11.4471 9.61406 11.8392 9.64907L12.2873 9.69108C12.7495 9.73309 13.1066 9.87314 13.1066 10.4193C13.1066 10.9305 12.6725 11.2456 11.9862 11.2456Z" fill="white"/>
<path d="M15.6276 11.2176V10.9375C15.3896 11.1755 15.1725 11.2526 14.7804 11.2526C14.3883 11.2526 14.1362 11.1825 13.9611 11.0005C13.8351 10.8674 13.7581 10.6644 13.7581 10.4543C13.7581 9.94316 14.1222 9.64907 14.7314 9.64907H15.6346V9.33397C15.6346 8.88583 15.4176 8.64775 14.8504 8.64775C14.4583 8.64775 14.2552 8.74578 14.0802 8.99786L13.8631 8.81581C14.1012 8.4867 14.3953 8.38867 14.8434 8.38867C15.5786 8.38867 15.9287 8.71777 15.9287 9.30596V11.2176H15.6346H15.6276ZM15.6276 9.88014H14.7594C14.2762 9.88014 14.0451 10.0692 14.0451 10.4403C14.0451 10.8114 14.2692 10.9865 14.7734 10.9865C15.0255 10.9865 15.2705 10.9655 15.4666 10.7694C15.5716 10.6714 15.6206 10.4963 15.6206 10.2373V9.88014H15.6276Z" fill="white"/>
<path d="M17.8752 11.2456C17.392 11.2456 17.0279 11.1195 16.7478 10.8464L16.9509 10.6434C17.1679 10.8744 17.469 10.9865 17.8682 10.9865C18.4143 10.9865 18.7084 10.7974 18.7084 10.4193C18.7084 10.1322 18.5404 9.98517 18.1762 9.95016L17.7141 9.90815C17.1539 9.85913 16.8738 9.61406 16.8738 9.17992C16.8738 8.69677 17.266 8.38867 17.8752 8.38867C18.2603 8.38867 18.6104 8.50071 18.8555 8.68276L18.6594 8.87882C18.4423 8.72478 18.1833 8.64075 17.8752 8.64075C17.42 8.64075 17.1609 8.83681 17.1609 9.17992C17.1609 9.46701 17.336 9.61406 17.7281 9.64907L18.1762 9.69108C18.6384 9.73309 18.9955 9.87314 18.9955 10.4193C18.9955 10.9305 18.5614 11.2456 17.8752 11.2456Z" fill="white"/>
<path d="M9.24161 15.3488C8.75846 15.3488 8.39435 15.2228 8.11426 14.9497L8.31732 14.7466C8.53439 14.9777 8.83548 15.0898 9.23461 15.0898C9.78078 15.0898 10.0749 14.9007 10.0749 14.5226C10.0749 14.2355 9.90682 14.0884 9.5427 14.0534L9.08056 14.0114C8.52038 13.9624 8.2403 13.7173 8.2403 13.2832C8.2403 12.8 8.63242 12.4919 9.24161 12.4919C9.62673 12.4919 9.97684 12.604 10.2219 12.786L10.0259 12.9821C9.80879 12.828 9.54971 12.744 9.24161 12.744C8.78647 12.744 8.52739 12.9401 8.52739 13.2832C8.52739 13.5703 8.70244 13.7173 9.09456 13.7523L9.5427 13.7944C10.0048 13.8364 10.362 13.9764 10.362 14.5226C10.362 15.0337 9.92783 15.3488 9.24161 15.3488Z" fill="white"/>
<path d="M11.9862 15.3488C11.5031 15.3488 11.139 15.2228 10.8589 14.9497L11.062 14.7466C11.279 14.9777 11.5801 15.0898 11.9792 15.0898C12.5254 15.0898 12.8195 14.9007 12.8195 14.5226C12.8195 14.2355 12.6514 14.0884 12.2873 14.0534L11.8252 14.0114C11.265 13.9624 10.9849 13.7173 10.9849 13.2832C10.9849 12.8 11.377 12.4919 11.9862 12.4919C12.3714 12.4919 12.7215 12.604 12.9665 12.786L12.7705 12.9821C12.5534 12.828 12.2943 12.744 11.9862 12.744C11.5311 12.744 11.272 12.9401 11.272 13.2832C11.272 13.5703 11.4471 13.7173 11.8392 13.7523L12.2873 13.7944C12.7495 13.8364 13.1066 13.9764 13.1066 14.5226C13.1066 15.0337 12.6725 15.3488 11.9862 15.3488Z" fill="white"/>
<path d="M14.122 13.9834C14.122 14.6906 14.4371 15.0828 15.0323 15.0828C15.3614 15.0828 15.5644 14.9847 15.8025 14.7466L16.0196 14.9217C15.7325 15.2088 15.4734 15.3488 15.0113 15.3488C14.241 15.3488 13.8279 14.8517 13.8279 13.9204C13.8279 12.9891 14.248 12.4919 14.9482 12.4919C15.6485 12.4919 16.0686 13.0031 16.0686 13.8504V13.9834H14.129H14.122ZM15.6695 13.2202C15.5504 12.9331 15.2633 12.751 14.9482 12.751C14.6331 12.751 14.346 12.9331 14.227 13.2202C14.157 13.3952 14.143 13.4793 14.129 13.7453H15.7745C15.7605 13.4793 15.7465 13.3952 15.6765 13.2202H15.6695Z" fill="white"/>
<path d="M18.6523 15.3137V15.0337C18.4142 15.2717 18.1972 15.3488 17.805 15.3488C17.4129 15.3488 17.1608 15.2787 16.9858 15.0967C16.8597 14.9636 16.7827 14.7606 16.7827 14.5505C16.7827 14.0393 17.1468 13.7453 17.756 13.7453H18.6593V13.4302C18.6593 12.982 18.4422 12.7439 17.8751 12.7439C17.4829 12.7439 17.2799 12.842 17.1048 13.0941L16.8877 12.912C17.1258 12.5829 17.4199 12.4849 17.8681 12.4849C18.6033 12.4849 18.9534 12.814 18.9534 13.4022V15.3137H18.6593H18.6523ZM18.6523 13.9833H17.784C17.3009 13.9833 17.0698 14.1724 17.0698 14.5435C17.0698 14.9146 17.2939 15.0897 17.798 15.0897C18.0501 15.0897 18.2952 15.0687 18.4912 14.8726C18.5963 14.7746 18.6453 14.5995 18.6453 14.3404V13.9833H18.6523Z" fill="white"/>
<path d="M9.24161 19.445C8.75846 19.445 8.39435 19.319 8.11426 19.0459L8.31732 18.8428C8.53439 19.0739 8.83548 19.1859 9.23461 19.1859C9.78078 19.1859 10.0749 18.9969 10.0749 18.6188C10.0749 18.3317 9.90682 18.1846 9.5427 18.1496L9.08056 18.1076C8.52038 18.0586 8.2403 17.8135 8.2403 17.3794C8.2403 16.8962 8.63242 16.5881 9.24161 16.5881C9.62673 16.5881 9.97684 16.7002 10.2219 16.8822L10.0259 17.0783C9.80879 16.9242 9.54971 16.8402 9.24161 16.8402C8.78647 16.8402 8.52739 17.0363 8.52739 17.3794C8.52739 17.6665 8.70244 17.8135 9.09456 17.8485L9.5427 17.8905C10.0048 17.9326 10.362 18.0726 10.362 18.6188C10.362 19.1299 9.92783 19.445 9.24161 19.445Z" fill="white"/>
<path d="M12.1053 20.7754C11.6852 20.7754 11.4821 20.6634 11.188 20.4043L11.3841 20.2083C11.6012 20.4043 11.7552 20.5164 12.1053 20.5164C12.6865 20.5164 12.9526 20.0962 12.9526 19.5501V19.0529C12.7075 19.375 12.4344 19.445 12.1263 19.445C11.8392 19.445 11.5872 19.347 11.4401 19.2C11.16 18.9199 11.083 18.4507 11.083 18.0166C11.083 17.5824 11.16 17.1133 11.4401 16.8332C11.5872 16.6862 11.8322 16.5881 12.1263 16.5881C12.4414 16.5881 12.7075 16.6582 12.9526 16.9803V16.6231H13.2467V19.5711C13.2467 20.2713 12.8266 20.7824 12.1053 20.7824V20.7754ZM12.1683 16.8472C11.4821 16.8472 11.3841 17.4354 11.3841 18.0166C11.3841 18.5978 11.4891 19.1859 12.1683 19.1859C12.8476 19.1859 12.9526 18.5978 12.9526 18.0166C12.9526 17.4354 12.8476 16.8472 12.1683 16.8472Z" fill="white"/>
<path d="M16.0058 19.4099V19.1299C15.7677 19.3679 15.5507 19.4449 15.1585 19.4449C14.7664 19.4449 14.5143 19.3749 14.3393 19.1929C14.2133 19.0598 14.1362 18.8568 14.1362 18.6467C14.1362 18.1355 14.5003 17.8414 15.1095 17.8414H16.0128V17.5264C16.0128 17.0782 15.7957 16.8401 15.2286 16.8401C14.8364 16.8401 14.6334 16.9382 14.4583 17.1902L14.2413 17.0082C14.4793 16.6791 14.7734 16.5811 15.2216 16.5811C15.9568 16.5811 16.3069 16.9102 16.3069 17.4983V19.4099H16.0128H16.0058ZM16.0058 18.0795H15.1375C14.6544 18.0795 14.4233 18.2686 14.4233 18.6397C14.4233 19.0108 14.6474 19.1859 15.1515 19.1859C15.4036 19.1859 15.6487 19.1649 15.8448 18.9688C15.9498 18.8708 15.9988 18.6957 15.9988 18.4366V18.0795H16.0058Z" fill="white"/>
<path d="M18.2602 19.445C17.777 19.445 17.4129 19.319 17.1328 19.0459L17.3359 18.8428C17.5529 19.0739 17.854 19.1859 18.2532 19.1859C18.7993 19.1859 19.0934 18.9969 19.0934 18.6188C19.0934 18.3317 18.9254 18.1846 18.5613 18.1496L18.0991 18.1076C17.5389 18.0586 17.2589 17.8135 17.2589 17.3794C17.2589 16.8962 17.651 16.5881 18.2602 16.5881C18.6453 16.5881 18.9954 16.7002 19.2405 16.8822L19.0444 17.0783C18.8273 16.9242 18.5683 16.8402 18.2602 16.8402C17.805 16.8402 17.5459 17.0363 17.5459 17.3794C17.5459 17.6665 17.721 17.8135 18.1131 17.8485L18.5613 17.8905C19.0234 17.9326 19.3805 18.0726 19.3805 18.6188C19.3805 19.1299 18.9464 19.445 18.2602 19.445Z" fill="white"/>
</svg>
