<svg width="32" height="32" viewBox="0 0 32 32" fill="none" xmlns="http://www.w3.org/2000/svg">
<path d="M19.8766 25.0991V24.8578C19.8766 24.8578 19.8319 24.9114 19.7962 24.9025C19.7157 24.8846 19.6844 24.7863 19.5012 24.7819C19.318 24.7774 19.0722 24.9025 19.0722 25.1259C19.0722 25.3494 19.3985 25.5415 19.3985 25.5415C19.3985 25.5415 19.6844 25.6801 19.6979 25.8677C19.7157 26.0822 19.6308 26.0599 19.4834 26.0599C19.3359 26.0599 19.0856 25.9795 19.0588 25.8409V26.0644C19.0588 26.0644 19.1214 26.0107 19.1661 26.0286C19.242 26.0554 19.3493 26.1359 19.4789 26.1403C19.6085 26.1448 19.8677 26.118 19.957 25.908C19.9838 25.8409 20.0241 25.6801 19.9034 25.5773C19.823 25.5102 19.6085 25.3583 19.5414 25.3181C19.4387 25.2555 19.2823 25.1706 19.2778 25.0321C19.2733 24.8936 19.385 24.8712 19.5012 24.8668C19.6174 24.8623 19.8766 24.9427 19.8766 25.1081V25.0991Z" fill="#54565A"/>
<path d="M16.4714 24.0535C16.4714 24.0535 16.534 24.0937 16.534 24.1518V26.0063C16.5385 26.0688 16.4804 26.1269 16.4804 26.1269H16.8825C16.8825 26.1269 16.8245 26.0733 16.8245 26.0063V25.5415C16.8245 25.5415 16.9987 25.3136 17.1462 25.2332C17.2937 25.1528 17.5037 25.0857 17.669 25.0276C17.9059 24.9427 17.9729 24.7729 17.9729 24.7729V26.0018C17.9729 26.0733 17.9193 26.1359 17.9193 26.1359H18.3304C18.3304 26.1359 18.2768 26.0733 18.2768 26.0018V24.1473C18.2768 24.0892 18.3259 24.0579 18.3259 24.0579H17.9416C17.9416 24.0579 17.9774 24.0803 17.9774 24.1518V24.6567C17.9774 24.6567 17.9327 24.8534 17.6646 24.9651C17.3964 25.0768 17.2803 25.0947 17.1283 25.1706C16.9764 25.2466 16.8289 25.4298 16.8289 25.4298V24.1607C16.8289 24.0937 16.9004 24.0624 16.9004 24.0624H16.4759L16.4714 24.0535Z" fill="#54565A"/>
<path d="M27.138 24.7594C26.776 24.7594 26.4275 24.9918 26.4275 25.4476C26.4275 25.9034 26.7805 26.1134 27.1425 26.1089C27.5044 26.1045 27.8709 25.9257 27.8709 25.4476C27.8709 24.9694 27.5 24.7594 27.1425 24.7594H27.138ZM27.1425 26.033C26.8073 26.033 26.7314 25.8676 26.7269 25.4431C26.7224 25.0186 26.8029 24.8354 27.138 24.8354C27.4732 24.8354 27.5447 25.0007 27.5447 25.4476C27.5447 25.8944 27.4776 26.033 27.1425 26.033Z" fill="#54565A"/>
<path d="M24.6625 24.5494C24.7736 24.5494 24.8636 24.4594 24.8636 24.3483C24.8636 24.2372 24.7736 24.1472 24.6625 24.1472C24.5515 24.1472 24.4614 24.2372 24.4614 24.3483C24.4614 24.4594 24.5515 24.5494 24.6625 24.5494Z" fill="#54565A"/>
<path d="M24.4615 24.7684H24.8592C24.8592 24.7684 24.8101 24.8399 24.8101 24.8712C24.8101 24.9427 24.8145 26.0151 24.8145 26.0151C24.8145 26.0643 24.8592 26.1134 24.8592 26.1134H24.4615C24.4615 26.1134 24.5151 26.0688 24.5151 26.0151V24.8667C24.5151 24.8354 24.457 24.7639 24.457 24.7639L24.4615 24.7684Z" fill="#54565A"/>
<path d="M18.6879 24.5673C18.799 24.5673 18.889 24.4773 18.889 24.3663C18.889 24.2552 18.799 24.1652 18.6879 24.1652C18.5768 24.1652 18.4868 24.2552 18.4868 24.3663C18.4868 24.4773 18.5768 24.5673 18.6879 24.5673Z" fill="#54565A"/>
<path d="M18.4913 24.7863H18.889C18.889 24.7863 18.8398 24.8578 18.8398 24.889C18.8398 24.9605 18.8443 26.0375 18.8443 26.0375C18.8443 26.0866 18.889 26.1358 18.889 26.1358H18.4913C18.4913 26.1358 18.5449 26.0911 18.5449 26.0375V24.889C18.5449 24.8578 18.4868 24.7863 18.4868 24.7863H18.4913Z" fill="#54565A"/>
<path d="M23.8851 26.118H24.2649C24.2649 26.118 24.2068 26.0777 24.2068 26.0107L24.2157 25.0723C24.2157 25.0723 24.1576 24.7684 23.7331 24.7684C23.4159 24.7684 23.3175 25.0097 23.3175 25.0097V24.898C23.3175 24.8444 23.2729 24.7774 23.2192 24.7774H22.969C22.969 24.7774 23.0316 24.8667 23.0316 24.9293V26.0197C23.0316 26.0733 22.9735 26.1314 22.9735 26.1314H23.3712C23.3712 26.1314 23.322 26.0956 23.322 26.0241V25.1215C23.3131 25.0544 23.4114 24.8533 23.6304 24.8533C23.8493 24.8533 23.9208 24.9919 23.9208 25.0991V26.0197C23.9208 26.0867 23.8806 26.1269 23.8806 26.1269L23.8851 26.118Z" fill="#54565A"/>
<path d="M20.9313 24.7728C20.7525 24.7728 20.5961 24.8622 20.4889 25.0052V24.8666C20.4889 24.8175 20.4486 24.7773 20.3995 24.7773H20.1448C20.1448 24.7773 20.1984 24.8488 20.1984 24.8756V26.7077C20.2029 26.7569 20.1537 26.806 20.1537 26.806H20.5425C20.5425 26.806 20.4978 26.7569 20.4978 26.7077V25.9257C20.5916 26.0464 20.7391 26.1223 20.9402 26.1179C21.2664 26.1179 21.5301 25.9346 21.5301 25.4431C21.5301 24.9203 21.2619 24.7683 20.9357 24.7728H20.9313ZM20.8821 26.0508C20.5872 26.0508 20.4933 25.8989 20.4933 25.4476C20.4933 24.956 20.6408 24.8532 20.8821 24.8532C21.1234 24.8532 21.1815 25.0633 21.1815 25.4476C21.1815 25.8095 21.1279 26.0508 20.8866 26.0508H20.8821Z" fill="#54565A"/>
<path d="M26.2399 25.1124V24.9069C26.2399 24.9069 26.2265 24.9337 26.1952 24.9337C26.1639 24.9337 26.0522 24.7683 25.7036 24.7728C25.3551 24.7773 25.0244 24.9784 25.0244 25.4476C25.0244 25.4476 25.0557 26.1179 25.7081 26.1134C25.869 26.1134 26.1103 26.0464 26.2488 25.8453C26.2712 25.814 26.2488 25.8051 26.2354 25.8229C26.0745 26.0106 25.8556 26.0374 25.7081 26.0419C25.4132 26.0419 25.3417 25.6263 25.3417 25.4476C25.3417 25.2688 25.4087 24.8443 25.7036 24.8443C26.088 24.8443 26.2399 25.1169 26.2399 25.1169V25.1124Z" fill="#54565A"/>
<path d="M28.8585 25.0723V24.831C28.8585 24.831 28.8139 24.8846 28.7781 24.8757C28.6977 24.8578 28.6664 24.7595 28.4832 24.755C28.3 24.7505 28.0542 24.8757 28.0542 25.0991C28.0542 25.3225 28.3804 25.5147 28.3804 25.5147C28.3804 25.5147 28.6664 25.6532 28.6798 25.8409C28.6977 26.0554 28.6128 26.033 28.4653 26.033C28.3178 26.033 28.0676 25.9526 28.0408 25.8141V26.0375C28.0408 26.0375 28.1033 25.9839 28.148 26.0018C28.224 26.0286 28.3312 26.109 28.4608 26.1135C28.5904 26.1179 28.8496 26.0911 28.939 25.8811C28.9658 25.8141 29.006 25.6532 28.8853 25.5504C28.8049 25.4834 28.5904 25.3315 28.5234 25.2912C28.4206 25.2287 28.2642 25.1438 28.2597 25.0052C28.2553 24.8667 28.367 24.8444 28.4832 24.8399C28.5994 24.8354 28.8585 24.9159 28.8585 25.0812V25.0723Z" fill="#54565A"/>
<path d="M22.7587 25.9303V25.0857C22.7587 25.0857 22.7453 24.7773 22.2582 24.7773C22.0973 24.7773 21.9543 24.8891 21.8381 24.8935L21.7666 24.8533V25.2108C21.7666 25.2108 21.8203 25.2153 21.8203 25.1438C21.8203 25.0723 21.8962 24.8488 22.2448 24.8488C22.4682 24.8488 22.5755 25.1974 22.2582 25.3136C22.0884 25.3761 21.6907 25.3985 21.6907 25.7649C21.6907 26.1313 22.0526 26.1179 22.0526 26.1179C22.0526 26.1179 22.3476 26.1582 22.4772 25.8811V25.9794C22.4772 26.0152 22.5084 26.0464 22.5442 26.0464H22.8078C22.8078 26.0464 22.7587 25.9928 22.7587 25.9303ZM22.4816 25.7604C22.4503 25.9705 22.3565 26.0464 22.2671 26.0464C22.1867 26.0464 22.0035 26.0733 21.9901 25.7604C21.9767 25.4476 22.1375 25.4342 22.2627 25.3851C22.4012 25.3315 22.4861 25.2153 22.4861 25.2153V25.7604H22.4816Z" fill="#54565A"/>
<path d="M22.7275 24.1205L22.3969 24.5093H22.2271L22.4639 24.1205H22.7275Z" fill="#54565A"/>
<path d="M14.9342 25.1126V24.8712C14.9342 24.8712 14.8895 24.9249 14.8538 24.9159C14.7733 24.8981 14.7421 24.7998 14.5589 24.7953C14.3756 24.7908 14.1299 24.9159 14.1299 25.1394C14.1299 25.3628 14.4561 25.555 14.4561 25.555C14.4561 25.555 14.7421 25.6935 14.7555 25.8812C14.7733 26.0957 14.6884 26.0733 14.541 26.0733C14.3935 26.0733 14.1433 25.9929 14.1165 25.8544V26.0778C14.1165 26.0778 14.179 26.0242 14.2237 26.042C14.2997 26.0688 14.4069 26.1493 14.5365 26.1538C14.6661 26.1582 14.9253 26.1314 15.0147 25.9214C15.0415 25.8544 15.0817 25.6935 14.961 25.5907C14.8806 25.5237 14.6661 25.3717 14.5991 25.3315C14.4963 25.269 14.3399 25.1841 14.3354 25.0455C14.331 24.907 14.4427 24.8847 14.5589 24.8802C14.675 24.8757 14.9342 24.9562 14.9342 25.1215V25.1126Z" fill="#54565A"/>
<path d="M7.99013 25.1349V24.8936C7.99013 24.8936 7.94544 24.9472 7.90969 24.9383C7.82925 24.9204 7.79797 24.8221 7.61476 24.8176C7.43154 24.8132 7.18577 24.9383 7.18577 25.1617C7.18577 25.3851 7.51198 25.5773 7.51198 25.5773C7.51198 25.5773 7.79797 25.7158 7.81138 25.9035C7.82925 26.118 7.74435 26.0957 7.59688 26.0957C7.44942 26.0957 7.19918 26.0152 7.17236 25.8767V26.1001C7.17236 26.1001 7.23492 26.0465 7.27961 26.0644C7.35558 26.0912 7.46283 26.1716 7.59242 26.1761C7.72201 26.1806 7.98119 26.1537 8.07056 25.9437C8.09737 25.8767 8.13759 25.7158 8.01694 25.613C7.9365 25.546 7.72201 25.3941 7.65498 25.3539C7.5522 25.2913 7.39579 25.2064 7.39133 25.0679C7.38686 24.9293 7.49857 24.907 7.61476 24.9025C7.73094 24.8981 7.99013 24.9785 7.99013 25.1438V25.1349Z" fill="#54565A"/>
<path d="M6.92201 24.3618V24.0892H5.4563C5.4563 24.0892 5.50098 24.1384 5.51439 24.1875C5.5278 24.2322 5.51886 25.7784 5.51886 26.0286C5.51886 26.0912 5.46077 26.1672 5.46077 26.1672H7.00691V25.8633C7.00691 25.8633 6.89073 26.0867 6.64942 26.0867H5.80932V25.0947H6.27406C6.33662 25.0947 6.39471 25.1081 6.44833 25.1349L6.50196 25.1617V24.9606L6.42599 25.0008C6.38578 25.0232 6.33662 25.0321 6.29193 25.0321H5.80932V24.1607C5.80932 24.1607 6.57346 24.1607 6.57792 24.1607C6.62708 24.1697 6.83711 24.1831 6.92648 24.3529L6.92201 24.3618Z" fill="#54565A"/>
<path d="M13.2229 24.8086C12.8654 24.8086 12.5168 25.0365 12.5168 25.4923C12.5168 25.9481 12.8699 26.1537 13.2274 26.1492C13.5848 26.1447 13.9513 25.966 13.9468 25.4923C13.9423 25.0186 13.5804 24.8086 13.2229 24.8086ZM13.2274 26.1C12.8967 26.1 12.8162 25.9079 12.8162 25.4878C12.8162 25.0678 12.8922 24.8577 13.2229 24.8577C13.5536 24.8577 13.6251 25.0499 13.6251 25.4923C13.6251 25.9347 13.558 26.1 13.2229 26.1H13.2274Z" fill="#54565A"/>
<path d="M12.1503 24.5897C12.2614 24.5897 12.3514 24.4996 12.3514 24.3886C12.3514 24.2775 12.2614 24.1875 12.1503 24.1875C12.0392 24.1875 11.9492 24.2775 11.9492 24.3886C11.9492 24.4996 12.0392 24.5897 12.1503 24.5897Z" fill="#54565A"/>
<path d="M11.9493 24.8086H12.347C12.347 24.8086 12.2979 24.8801 12.2979 24.9114C12.2979 24.9829 12.3023 26.0553 12.3023 26.0553C12.3023 26.1045 12.347 26.1537 12.347 26.1537H11.9493C11.9493 26.1537 12.0029 26.109 12.0029 26.0553V24.9114C12.0029 24.8801 11.9448 24.8086 11.9448 24.8086H11.9493Z" fill="#54565A"/>
<path d="M8.25806 24.2903L8.53064 24.4422C8.5798 24.4691 8.60661 24.5182 8.60661 24.5718V24.8131H8.85685V24.8802H8.60214V25.9392C8.60214 25.9392 8.70939 26.1403 8.82557 25.9661C8.83451 25.9526 8.85686 25.9616 8.85239 25.975C8.83451 26.051 8.77642 26.1582 8.61108 26.1582C8.3519 26.1582 8.31615 25.9392 8.31615 25.9392V24.4422C8.31168 24.3752 8.26253 24.2814 8.26253 24.2814L8.25806 24.2903Z" fill="#54565A"/>
<path d="M9.07594 24.9427C9.07594 24.9427 9.08934 25.7023 9.08934 25.8811C9.08934 26.1626 9.63005 26.1626 9.63005 26.1626C9.8937 26.1626 9.95626 25.9571 9.95626 25.9571V26.0107C9.95626 26.0554 9.99201 26.0956 10.0412 26.0956H10.2914C10.2914 26.0956 10.2288 26.033 10.2288 25.9436V24.8131H9.88476C9.89816 24.8086 9.93391 24.8756 9.93391 24.9337V25.8811C9.93391 25.8811 9.87135 26.0956 9.65239 26.0956C9.43343 26.0956 9.37086 25.8856 9.37086 25.8856V24.9069C9.37086 24.8578 9.33065 24.8175 9.28149 24.822H9.03125C9.03125 24.822 9.0804 24.8667 9.0804 24.9471L9.07594 24.9427Z" fill="#54565A"/>
<path d="M11.7883 26.1046C11.7749 26.0778 11.7302 26.0286 11.7258 26.0063V24.0758H11.3772C11.3772 24.0758 11.4443 24.1071 11.4487 24.1696V25.041C11.4487 25.041 11.3996 24.8087 10.9929 24.8087C10.4343 24.8087 10.4522 25.4879 10.4522 25.4879C10.4522 26.0107 10.7605 26.1582 10.9974 26.1582C11.2342 26.1582 11.4577 26.0822 11.4577 26.0822H11.6543C11.7034 26.0822 11.7615 26.1046 11.7839 26.118C11.7883 26.118 11.7973 26.118 11.7928 26.109L11.7883 26.1046ZM11.4532 25.9348C11.4532 25.9795 11.4264 26.0241 11.3862 26.042C11.3325 26.0688 11.2432 26.0778 11.1225 26.0778C10.908 26.0778 10.774 25.8856 10.774 25.4879C10.774 25.0902 10.9393 24.8846 11.1314 24.8846C11.2834 24.8846 11.3951 25.0544 11.4353 25.1259C11.4442 25.1438 11.4532 25.1662 11.4532 25.1885V25.9348Z" fill="#54565A"/>
<path d="M3.41411 26.1939C3.41411 26.1939 3.37389 26.1403 3.36943 26.1269V24.7908H3.12812C3.12812 24.7908 3.17727 24.8131 3.17727 24.8578V25.4611C3.17727 25.4611 3.14153 25.2957 2.86 25.2957C2.4757 25.2957 2.48464 25.7694 2.48464 25.7694C2.48464 26.1314 2.69913 26.2341 2.86447 26.2341C3.02981 26.2341 3.18174 26.1805 3.18174 26.1805H3.3158C3.34708 26.1805 3.39177 26.1939 3.40518 26.2029C3.40518 26.2029 3.41411 26.2029 3.41411 26.1984V26.1939ZM3.18174 26.1224C3.18174 26.1224 3.10131 26.1761 2.95384 26.1761C2.80638 26.1761 2.71253 26.0465 2.71253 25.7649C2.71253 25.4834 2.82872 25.3404 2.95831 25.3404C3.0879 25.3404 3.18174 25.5236 3.18174 25.5236V26.1224Z" fill="#54565A"/>
<path d="M4.43289 25.7738C4.43289 25.7738 4.46417 25.2867 3.98603 25.2912C3.50789 25.2956 3.5347 25.7783 3.5347 25.7783C3.5347 25.7783 3.53917 26.2296 3.98603 26.2296C4.2899 26.2296 4.34352 26.1 4.37033 26.0419C4.37927 26.0196 4.35693 26.0151 4.33905 26.033C4.32118 26.0508 4.25862 26.176 3.98603 26.176C3.74025 26.176 3.76706 25.7783 3.76706 25.7783H4.43289V25.7738ZM3.9905 25.3403C4.24521 25.3403 4.22734 25.7425 4.22734 25.7425H3.7626C3.7626 25.7425 3.73578 25.3448 3.9905 25.3403Z" fill="#54565A"/>
<path d="M20.1894 21.9621V21.694C20.1894 21.694 20.1045 21.7029 20.0822 21.694C19.9615 21.6493 19.8945 21.5331 19.604 21.5331C19.3136 21.5331 18.9784 21.7074 18.9829 22.0559C18.9873 22.4045 19.5146 22.6234 19.5146 22.6234C19.5146 22.6234 20.0956 22.8513 20.0866 23.1865C20.0777 23.5216 19.8096 23.535 19.5772 23.535C19.3448 23.535 18.9516 23.3295 18.9114 23.1105V23.4367C18.9114 23.4367 19.0454 23.4278 19.0857 23.4367C19.2108 23.4725 19.3716 23.6065 19.5727 23.611C19.7738 23.6155 20.1805 23.5753 20.3145 23.249C20.3547 23.1463 20.4218 22.896 20.2296 22.7351C20.109 22.6324 19.747 22.4134 19.6353 22.3643C19.4655 22.2838 19.2108 22.1274 19.2108 21.9084C19.2108 21.6895 19.4297 21.6001 19.6085 21.6001C19.7872 21.6001 20.1894 21.7074 20.1939 21.9665L20.1894 21.9621Z" fill="#54565A"/>
<path d="M22.1375 22.0425C22.2461 22.0425 22.3342 21.9545 22.3342 21.8459C22.3342 21.7373 22.2461 21.6493 22.1375 21.6493C22.0289 21.6493 21.9409 21.7373 21.9409 21.8459C21.9409 21.9545 22.0289 22.0425 22.1375 22.0425Z" fill="#54565A"/>
<path d="M21.941 22.2526H22.3387C22.3387 22.2526 22.2895 22.3241 22.2895 22.3553C22.2895 22.4268 22.294 23.5038 22.294 23.5038C22.294 23.5529 22.3387 23.6021 22.3387 23.6021H21.941C21.941 23.6021 21.9946 23.5574 21.9946 23.5038V22.3553C21.9946 22.3241 21.9365 22.2526 21.9365 22.2526H21.941Z" fill="#54565A"/>
<path d="M20.5648 22.3821C20.5648 22.3821 20.5782 23.1462 20.5782 23.3205C20.5782 23.602 21.1189 23.602 21.1189 23.602C21.3825 23.602 21.4451 23.392 21.4451 23.392V23.4456C21.4451 23.4903 21.4809 23.5216 21.53 23.5216H21.7803C21.7803 23.5216 21.7177 23.468 21.7177 23.3786V22.248H21.3736C21.387 22.2435 21.4228 22.3106 21.4228 22.3687V23.316C21.4228 23.316 21.3602 23.5305 21.1368 23.5305C20.9133 23.5305 20.8552 23.3205 20.8552 23.3205V22.3374C20.8552 22.2882 20.815 22.248 20.7659 22.248H20.5156C20.5156 22.248 20.5648 22.2927 20.5648 22.3731V22.3821Z" fill="#54565A"/>
<path d="M23.666 23.5976V23.2982C23.666 23.2982 23.523 23.5216 23.4068 23.5216H23.0091C22.9555 23.5216 22.9242 23.4814 22.951 23.4367L23.666 22.248H22.6159V22.6011C22.6159 22.6011 22.7767 22.3329 22.8795 22.3285C22.9421 22.3285 23.0985 22.3285 23.2057 22.3285C23.2504 22.3285 23.2772 22.3508 23.2549 22.391L22.5042 23.6065H23.6749L23.666 23.5976Z" fill="#54565A"/>
<path d="M24.8993 23.401V22.5564C24.8993 22.5564 24.8859 22.248 24.3988 22.248C24.2379 22.248 24.0949 22.3598 23.9788 22.3642L23.9073 22.324V22.6815C23.9073 22.6815 23.9609 22.686 23.9609 22.6145C23.9609 22.543 24.0369 22.3195 24.3854 22.3195C24.6088 22.3195 24.7161 22.6681 24.3988 22.7843C24.229 22.8468 23.8313 22.8692 23.8313 23.2356C23.8313 23.602 24.1933 23.5886 24.1933 23.5886C24.1933 23.5886 24.4882 23.6289 24.6178 23.3518V23.4501C24.6178 23.4859 24.6491 23.5171 24.6848 23.5171H24.9485C24.9485 23.5171 24.8993 23.4635 24.8993 23.401ZM24.6178 23.2311C24.5865 23.4412 24.4927 23.5171 24.4033 23.5171C24.3228 23.5171 24.1396 23.544 24.1262 23.2311C24.1128 22.9183 24.2737 22.9049 24.3988 22.8558C24.5373 22.8022 24.6222 22.686 24.6222 22.686V23.2311H24.6178Z" fill="#54565A"/>
<path d="M8.30269 21.9933V21.7252C8.30269 21.7252 8.21779 21.7341 8.19544 21.7252C8.07479 21.6805 8.00776 21.5643 7.7173 21.5643C7.42684 21.5643 7.09169 21.7386 7.09616 22.0872C7.10063 22.4357 7.62792 22.6547 7.62792 22.6547C7.62792 22.6547 8.20885 22.8826 8.19991 23.2177C8.19098 23.5529 7.92286 23.5663 7.69049 23.5663C7.45812 23.5663 7.06488 23.3607 7.02466 23.1418V23.468C7.02466 23.468 7.15872 23.459 7.19893 23.468C7.32406 23.5037 7.48493 23.6378 7.68602 23.6423C7.88711 23.6467 8.29375 23.6065 8.42781 23.2803C8.46803 23.1775 8.53506 22.9273 8.34291 22.7664C8.22226 22.6636 7.8603 22.4447 7.74858 22.3955C7.57877 22.3151 7.32406 22.1587 7.32406 21.9397C7.32406 21.7207 7.54302 21.6314 7.72177 21.6314C7.90051 21.6314 8.30269 21.7386 8.30716 21.9978L8.30269 21.9933Z" fill="#54565A"/>
<path d="M9.34406 22.2928C8.9821 22.2928 8.63354 22.5252 8.63354 22.9765C8.63354 23.4278 8.98657 23.6379 9.34853 23.6379C9.71049 23.6379 10.0769 23.4546 10.0724 22.9765C10.068 22.4984 9.70155 22.2883 9.34406 22.2883V22.2928ZM9.34853 23.5619C9.01338 23.5619 8.93741 23.3966 8.93741 22.972C8.93741 22.5475 9.01338 22.3643 9.34853 22.3643C9.68368 22.3643 9.75071 22.5341 9.75517 22.9765C9.75964 23.4189 9.68814 23.5619 9.353 23.5619H9.34853Z" fill="#54565A"/>
<path d="M11.4486 22.6324V22.4269C11.4486 22.4269 11.4352 22.4537 11.4039 22.4537C11.3727 22.4537 11.2609 22.2883 10.9124 22.2928C10.5638 22.2973 10.2332 22.4984 10.2332 22.9676C10.2332 22.9676 10.2644 23.6379 10.9169 23.6334C11.0777 23.6334 11.319 23.5664 11.4576 23.3653C11.4799 23.334 11.4576 23.3251 11.4442 23.3429C11.2833 23.5306 11.0643 23.5574 10.9169 23.5619C10.6219 23.5619 10.5504 23.1463 10.5504 22.9676C10.5504 22.7888 10.6175 22.3643 10.9124 22.3643C11.2967 22.3643 11.4486 22.6369 11.4486 22.6369V22.6324Z" fill="#54565A"/>
<path d="M11.8331 22.0649C11.9417 22.0649 12.0297 21.9768 12.0297 21.8683C12.0297 21.7597 11.9417 21.6716 11.8331 21.6716C11.7245 21.6716 11.6365 21.7597 11.6365 21.8683C11.6365 21.9768 11.7245 22.0649 11.8331 22.0649Z" fill="#54565A"/>
<path d="M11.6319 22.2883H12.0296C12.0296 22.2883 11.9805 22.3598 11.9805 22.3911C11.9805 22.4626 11.9849 23.5306 11.9849 23.5306C11.9849 23.5797 12.0296 23.6289 12.0296 23.6289H11.6319C11.6319 23.6289 11.6855 23.5842 11.6855 23.5306V22.3866C11.6855 22.3553 11.6274 22.2838 11.6274 22.2838L11.6319 22.2883Z" fill="#54565A"/>
<path d="M13.4864 22.9765C13.4864 22.9765 13.5355 22.2794 12.8429 22.2838C12.1502 22.2883 12.1949 22.9809 12.1949 22.9809C12.1949 22.9809 12.2039 23.6289 12.8429 23.6289C13.2763 23.6289 13.3568 23.4412 13.3925 23.3563C13.4059 23.325 13.3746 23.3161 13.3434 23.3429C13.3121 23.3697 13.2272 23.5485 12.8384 23.5529C12.4854 23.5529 12.5211 22.9809 12.5211 22.9809H13.4819L13.4864 22.9765ZM12.8563 22.3553C13.2227 22.3553 13.1959 22.9318 13.1959 22.9318H12.5256C12.5256 22.9318 12.4898 22.3598 12.8563 22.3553Z" fill="#54565A"/>
<path d="M14.9922 23.5708C14.9788 23.544 14.9341 23.4948 14.9297 23.4725V21.5465H14.5811C14.5811 21.5465 14.6481 21.5778 14.6481 21.6404V22.5117C14.6481 22.5117 14.599 22.2749 14.1923 22.2749C13.6382 22.2749 13.6516 22.9541 13.6516 22.9541C13.6516 23.477 13.96 23.6244 14.1968 23.6244C14.4337 23.6244 14.6571 23.5485 14.6571 23.5485H14.8537C14.9029 23.5485 14.9609 23.5708 14.9833 23.5842C14.9878 23.5842 14.9967 23.5842 14.9922 23.5753V23.5708ZM14.6526 23.468C14.6526 23.468 14.5364 23.5485 14.3219 23.5485C14.1074 23.5485 13.9734 23.3563 13.9734 22.9586C13.9734 22.5609 14.1387 22.3553 14.3309 22.3553C14.523 22.3553 14.6526 22.61 14.6526 22.61V23.468Z" fill="#54565A"/>
<path d="M17.7762 23.5619C17.7628 23.5351 17.7181 23.4859 17.7136 23.4636V21.5376H17.3651C17.3651 21.5376 17.4321 21.5689 17.4321 21.6314V22.5028C17.4321 22.5028 17.3829 22.266 16.9763 22.266C16.4222 22.266 16.4356 22.9452 16.4356 22.9452C16.4356 23.4681 16.7439 23.6155 16.9808 23.6155C17.2176 23.6155 17.441 23.5396 17.441 23.5396H17.6376C17.6868 23.5396 17.7449 23.5619 17.7672 23.5753C17.7717 23.5753 17.7806 23.5753 17.7762 23.5664V23.5619ZM17.441 23.4591C17.441 23.4591 17.3248 23.5396 17.1103 23.5396C16.8958 23.5396 16.7618 23.3474 16.7618 22.9497C16.7618 22.552 16.9271 22.3464 17.1193 22.3464C17.3114 22.3464 17.441 22.6011 17.441 22.6011V23.4591Z" fill="#54565A"/>
<path d="M16.2301 23.4233V22.5787C16.2301 22.5787 16.2167 22.2704 15.7296 22.2704C15.5688 22.2704 15.4258 22.3821 15.3096 22.3866L15.2381 22.3464V22.7038C15.2381 22.7038 15.2917 22.7083 15.2917 22.6368C15.2917 22.5653 15.3677 22.3419 15.7162 22.3419C15.9396 22.3419 16.0469 22.6904 15.7296 22.8066C15.5598 22.8692 15.1621 22.8915 15.1621 23.258C15.1621 23.6244 15.5241 23.611 15.5241 23.611C15.5241 23.611 15.819 23.6512 15.9486 23.3741V23.4725C15.9486 23.5082 15.9799 23.5395 16.0156 23.5395H16.2793C16.2793 23.5395 16.2301 23.4859 16.2301 23.4233ZM15.9486 23.2535C15.9173 23.4635 15.8235 23.5395 15.7341 23.5395C15.6537 23.5395 15.4704 23.5663 15.457 23.2535C15.4436 22.9407 15.6045 22.9273 15.7296 22.8781C15.8681 22.8245 15.9531 22.7083 15.9531 22.7083V23.2535H15.9486Z" fill="#54565A"/>
<path d="M31.8748 16.3628C28.3893 16.9929 26.4007 22.5251 23.152 19.3747C17.8477 14.2358 10.3583 15.0625 8.16868 17.6185C7.15876 18.7938 3.1638 18.6106 3.1638 20.1031H0C1.22888 16.774 10.2019 20.5008 12.9367 17.261C15.8592 13.7934 23.2995 17.2521 25.8734 19.4551C28.4965 21.7029 31.3162 17.2074 31.8882 17.2521V16.3628H31.8748Z" fill="#FF595A"/>
<path d="M13.558 7.86355V6.71064C13.558 6.71064 13.2005 6.75086 13.0932 6.71064C12.5838 6.52296 12.2844 6.01353 11.0377 6.0046C9.79092 5.99566 8.35202 6.75086 8.35202 8.24786C8.35202 9.74486 10.6221 10.6967 10.6221 10.6967C10.6221 10.6967 13.1245 11.6843 13.0798 13.1366C13.0396 14.5889 11.8778 14.6827 10.8813 14.6827C9.88476 14.6827 8.19561 13.7264 8.03027 12.7925L8.05262 14.1912C8.05262 14.1912 8.59779 14.1509 8.7676 14.2001C9.29937 14.352 9.99201 14.9285 10.8545 14.9464C11.7169 14.9687 13.4686 14.7989 14.0585 13.3913C14.2417 12.9578 14.5232 11.8675 13.6965 11.1704C13.1737 10.7324 11.6186 9.7806 11.1449 9.56164C10.4076 9.21755 9.33065 8.53385 9.31724 7.5999C9.30384 6.66596 10.2601 6.27271 11.0377 6.27271C11.8152 6.27271 13.5401 6.75086 13.558 7.85909V7.86355Z" fill="#54565A"/>
<path d="M5.59922 7.85904V6.70613C5.59922 6.70613 5.24173 6.74634 5.13001 6.70613C4.62059 6.51844 4.32119 6.00902 3.07444 6.00008C1.82769 5.99114 0.384314 6.74634 0.384314 8.24334C0.384314 9.74034 2.65885 10.6966 2.65885 10.6966C2.65885 10.6966 5.16129 11.6842 5.12108 13.141C5.08086 14.5978 3.91454 14.6916 2.91804 14.6916C1.92153 14.6916 0.227914 13.7353 0.0581055 12.8014L0.0804466 14.2045C0.0804466 14.2045 0.625623 14.1643 0.795432 14.2135C1.3272 14.3654 2.01984 14.9418 2.88229 14.9597C3.74473 14.9776 5.50091 14.8123 6.09524 13.4002C6.27845 12.9667 6.56444 11.8719 5.73328 11.1748C5.21045 10.7368 3.65089 9.78502 3.17721 9.56606C2.43989 9.22198 1.35848 8.53827 1.34954 7.59986C1.3406 6.66144 2.29689 6.2682 3.07444 6.2682C3.85198 6.2682 5.57688 6.74634 5.59922 7.85904Z" fill="#54565A"/>
<path d="M22.3478 7.37646V6.27271H16.4179C16.4179 6.27271 16.6011 6.47379 16.6502 6.67488C16.6949 6.8581 16.6592 13.0159 16.6502 14.0213C16.6502 14.1152 16.6279 14.2046 16.5922 14.285L16.4089 14.6872H22.674V13.5566C22.674 13.5566 22.1958 14.5263 21.2261 14.5263H17.8612V10.433H20.0956L20.6407 10.7279V9.90572L20.0777 10.2006H17.8344V6.43805H20.8597C20.882 6.43805 20.9223 6.43805 20.9446 6.44698C21.1502 6.4872 21.9903 6.69723 22.3478 7.37646Z" fill="#54565A"/>
<path d="M24.5777 6.29504C24.5777 6.29504 24.828 6.46038 24.828 6.69275V14.1286C24.828 14.3744 24.5956 14.6112 24.5956 14.6112H26.2043C26.2043 14.6112 25.9719 14.3922 25.9719 14.1286V12.2562C25.9719 12.2562 26.6735 11.3536 27.2723 11.0229C27.8934 10.6788 28.7023 10.4464 29.3726 10.2006C30.3244 9.85656 30.5925 9.19073 30.5925 9.19073V14.1241C30.5836 14.4101 30.3601 14.6559 30.3601 14.6559H32.0001C32.0001 14.6559 31.7856 14.4056 31.7856 14.1241V6.69275C31.8035 6.46485 32.0001 6.32632 32.0001 6.32632H30.4584C30.4584 6.32632 30.6059 6.41123 30.6059 6.69275V8.71258C30.6059 8.71258 30.4227 9.508 29.3457 9.93699C28.2688 10.366 27.8041 10.4509 27.1919 10.7503C26.5797 11.0497 25.9809 11.7781 25.9809 11.7781L25.9987 6.69275C25.9987 6.4291 26.2803 6.29504 26.2803 6.29504H24.5732H24.5777Z" fill="#54565A"/>
</svg>
