<svg viewBox="0 0 32 32" fill="none" xmlns="http://www.w3.org/2000/svg">
<style>path{fill:#6F7173}@media (prefers-color-scheme:dark){path{fill:#fff}}</style>
<path d="M1.69556 4.95904C1.79619 5.16228 1.93706 5.33504 2.10812 5.45698C2.27918 5.57892 2.49049 5.67038 2.73199 5.72119C2.97348 5.772 3.22504 5.80249 3.49673 5.80249C3.64767 5.80249 3.81873 5.78216 4.00991 5.73135C4.19103 5.69071 4.36209 5.61957 4.52309 5.51795C4.68409 5.41633 4.8149 5.29439 4.91553 5.14196C5.01615 4.98953 5.07652 4.79645 5.07652 4.58305C5.07652 4.4103 5.03627 4.26803 4.96584 4.14609C4.8954 4.02414 4.79478 3.92252 4.67403 3.83106C4.55328 3.74977 4.42247 3.67864 4.28159 3.62783C4.14072 3.57702 3.99985 3.52621 3.85897 3.49572L2.53074 3.17054C2.35968 3.12989 2.18862 3.06892 2.02762 2.99778C1.86662 2.92665 1.71569 2.84535 1.59494 2.72341C1.47419 2.61163 1.37357 2.46936 1.30313 2.30677C1.23269 2.14418 1.19244 1.94094 1.19244 1.70721C1.19244 1.56494 1.22263 1.39219 1.27294 1.18895C1.33332 0.995874 1.43394 0.802796 1.58488 0.630042C1.73581 0.457289 1.94712 0.30486 2.21881 0.182916C2.49049 0.0609722 2.83261 0 3.24517 0C3.53698 0 3.81873 0.0406478 4.09041 0.121944C4.36209 0.203239 4.59353 0.315021 4.79478 0.477613C4.99602 0.640205 5.15702 0.833282 5.27777 1.06701C5.39852 1.30073 5.45889 1.57511 5.45889 1.87997H4.8954C4.88534 1.64624 4.83503 1.45316 4.74446 1.28041C4.6539 1.10766 4.53315 0.965388 4.38222 0.853606C4.23128 0.741824 4.06022 0.650366 3.86904 0.589394C3.67785 0.528423 3.4766 0.497937 3.26529 0.497937C3.07411 0.497937 2.88292 0.518261 2.7018 0.558909C2.52068 0.599557 2.35968 0.67069 2.22887 0.762148C2.088 0.853606 1.98737 0.97555 1.89681 1.12798C1.80625 1.28041 1.77606 1.46332 1.77606 1.69705C1.77606 1.83932 1.79619 1.96126 1.8465 2.06288C1.89681 2.1645 1.95718 2.25596 2.04775 2.32709C2.13831 2.39823 2.22887 2.4592 2.33955 2.49985C2.45024 2.54049 2.56093 2.58114 2.68168 2.61163L4.13066 2.97746C4.34197 3.03843 4.54322 3.0994 4.72434 3.1807C4.91553 3.26199 5.07652 3.36361 5.2174 3.48556C5.35827 3.6075 5.46896 3.74977 5.54946 3.93268C5.62995 4.10544 5.6702 4.31884 5.6702 4.56273C5.6702 4.63386 5.6702 4.71516 5.65008 4.8371C5.64002 4.94888 5.59977 5.07082 5.54946 5.19277C5.49914 5.31471 5.41864 5.44682 5.32808 5.57892C5.22746 5.71103 5.09665 5.82281 4.92559 5.92443C4.75453 6.02605 4.54322 6.11751 4.29166 6.17848C4.0401 6.23945 3.73823 6.2801 3.38604 6.2801C3.03386 6.2801 2.71186 6.23945 2.40999 6.15816C2.10812 6.07686 1.85656 5.95492 1.64525 5.78216C1.43394 5.60941 1.27294 5.39601 1.15219 5.1318C1.04151 4.86759 0.991195 4.55256 1.00126 4.17657H1.56475C1.56475 4.48143 1.605 4.74564 1.70562 4.94888L1.69556 4.95904Z"/>
<path d="M10.0271 0.142334L12.3616 6.15822H11.7478L11.0233 4.28842H8.30645L7.59202 6.15822H6.98828L9.38313 0.142334H10.0171H10.0271ZM10.8422 3.81081L9.685 0.721566L8.48758 3.81081H10.8321H10.8422Z"/>
<path d="M14.4138 4.95904C14.5144 5.16228 14.6553 5.33504 14.8264 5.45698C14.9974 5.57892 15.2088 5.67038 15.4502 5.72119C15.6917 5.772 15.9433 5.80249 16.215 5.80249C16.3659 5.80249 16.537 5.78216 16.7282 5.73135C16.9093 5.69071 17.0804 5.61957 17.2414 5.51795C17.4024 5.41633 17.5332 5.29439 17.6338 5.14196C17.7344 4.98953 17.7948 4.79645 17.7948 4.58305C17.7948 4.4103 17.7545 4.26803 17.6841 4.14609C17.6137 4.02414 17.513 3.92252 17.3923 3.83106C17.2715 3.74977 17.1407 3.67864 16.9999 3.62783C16.859 3.57702 16.7181 3.52621 16.5772 3.49572L15.249 3.17054C15.0779 3.12989 14.9069 3.06892 14.7459 2.99778C14.5849 2.92665 14.4339 2.84535 14.3132 2.72341C14.1925 2.61163 14.0918 2.46936 14.0214 2.30677C13.951 2.14418 13.9107 1.94094 13.9107 1.70721C13.9107 1.56494 13.9409 1.39219 13.9912 1.18895C14.0516 0.995874 14.1522 0.802796 14.3031 0.630042C14.4541 0.457289 14.6654 0.30486 14.9371 0.182916C15.2088 0.0609722 15.5509 0 15.9634 0C16.2552 0 16.537 0.0406478 16.8087 0.121944C17.0804 0.203239 17.3118 0.315021 17.513 0.477613C17.7143 0.640205 17.8753 0.833282 17.996 1.06701C18.1168 1.30073 18.1772 1.57511 18.1772 1.87997H17.6137C17.6036 1.64624 17.5533 1.45316 17.4627 1.28041C17.3722 1.10766 17.2514 0.965388 17.1005 0.853606C16.9495 0.741824 16.7785 0.650366 16.5873 0.589394C16.3961 0.528423 16.1949 0.497937 15.9836 0.497937C15.7924 0.497937 15.6012 0.518261 15.4201 0.558909C15.2389 0.599557 15.0779 0.67069 14.9471 0.762148C14.8063 0.853606 14.7056 0.97555 14.6151 1.12798C14.5245 1.28041 14.4943 1.46332 14.4943 1.69705C14.4943 1.83932 14.5144 1.96126 14.5648 2.06288C14.6151 2.1645 14.6754 2.25596 14.766 2.32709C14.8566 2.39823 14.9471 2.4592 15.0578 2.49985C15.1685 2.54049 15.2792 2.58114 15.3999 2.61163L16.8489 2.97746C17.0602 3.03843 17.2615 3.0994 17.4426 3.1807C17.6338 3.26199 17.7948 3.36361 17.9357 3.48556C18.0765 3.6075 18.1872 3.74977 18.2677 3.93268C18.3482 4.10544 18.3885 4.31884 18.3885 4.56273C18.3885 4.63386 18.3885 4.71516 18.3683 4.8371C18.3583 4.94888 18.318 5.07082 18.2677 5.19277C18.2174 5.31471 18.1369 5.44682 18.0463 5.57892C17.9457 5.71103 17.8149 5.82281 17.6439 5.92443C17.4728 6.02605 17.2615 6.11751 17.0099 6.17848C16.7584 6.23945 16.4565 6.2801 16.1043 6.2801C15.7521 6.2801 15.4301 6.23945 15.1283 6.15816C14.8264 6.07686 14.5748 5.95492 14.3635 5.78216C14.1522 5.60941 13.9912 5.39601 13.8705 5.1318C13.7598 4.86759 13.7095 4.55256 13.7195 4.17657H14.283C14.283 4.48143 14.3233 4.74564 14.4239 4.94888L14.4138 4.95904Z"/>
<path d="M24.4866 0.142334V0.630108H20.9346V2.80477H24.2552V3.29255H20.9346V5.67045H24.5269V6.15822H20.3711V0.142334H24.4866Z"/>
<path d="M26.2775 1.97158C26.3983 1.59558 26.5693 1.26024 26.8008 0.975703C27.0322 0.681005 27.324 0.457443 27.6862 0.284689C28.0384 0.111935 28.451 0.0306396 28.9138 0.0306396C29.3767 0.0306396 29.7893 0.111935 30.1415 0.284689C30.4936 0.457443 30.7855 0.691167 31.0169 0.975703C31.2483 1.26024 31.4294 1.59558 31.5401 1.97158C31.6508 2.34757 31.7112 2.74389 31.7112 3.16053C31.7112 3.57717 31.6508 3.97348 31.5401 4.34948C31.4294 4.72547 31.2483 5.06082 31.0169 5.34535C30.7855 5.62989 30.4936 5.86361 30.1415 6.03636C29.7893 6.20912 29.3767 6.29041 28.9138 6.29041C28.451 6.29041 28.0384 6.20912 27.6862 6.03636C27.3341 5.86361 27.0422 5.64005 26.8008 5.34535C26.5593 5.05065 26.3882 4.72547 26.2775 4.34948C26.1568 3.97348 26.1064 3.57717 26.1064 3.16053C26.1064 2.74389 26.1668 2.34757 26.2775 1.97158ZM26.8008 4.12591C26.8913 4.44094 27.0221 4.72547 27.2032 4.97952C27.3844 5.23357 27.6158 5.42665 27.8975 5.57908C28.1793 5.73151 28.5214 5.80264 28.9138 5.80264C29.3063 5.80264 29.6484 5.73151 29.9302 5.57908C30.2119 5.42665 30.4433 5.22341 30.6245 4.97952C30.8056 4.73563 30.9364 4.44094 31.027 4.12591C31.1175 3.81089 31.1578 3.48571 31.1578 3.16053C31.1578 2.83534 31.1175 2.51016 31.027 2.19514C30.9364 1.88012 30.8056 1.59558 30.6245 1.3517C30.4433 1.10781 30.2119 0.904569 29.9302 0.75214C29.6484 0.59971 29.3063 0.528576 28.9138 0.528576C28.5214 0.528576 28.1793 0.59971 27.8975 0.75214C27.6158 0.904569 27.3844 1.10781 27.2032 1.3517C27.0221 1.59558 26.8913 1.88012 26.8008 2.19514C26.7102 2.51016 26.6699 2.83534 26.6699 3.16053C26.6699 3.48571 26.7102 3.81089 26.8008 4.12591Z"/>
<path d="M1.69556 17.814C1.79619 18.0274 1.93706 18.19 2.10812 18.312C2.27918 18.4339 2.49049 18.5254 2.73199 18.5762C2.97348 18.627 3.22504 18.6575 3.49673 18.6575C3.64767 18.6575 3.81873 18.6371 4.00991 18.5863C4.19103 18.5457 4.36209 18.4644 4.52309 18.3729C4.68409 18.2815 4.8149 18.1494 4.91553 17.9969C5.01615 17.8445 5.07652 17.6514 5.07652 17.438C5.07652 17.2653 5.03627 17.123 4.96584 17.0011C4.8954 16.8791 4.79478 16.7775 4.67403 16.686C4.55328 16.6047 4.42247 16.5336 4.28159 16.4828C4.14072 16.432 3.99985 16.3913 3.85897 16.3507L2.53074 16.0255C2.35968 15.9849 2.18862 15.9239 2.02762 15.8528C1.86662 15.7816 1.71569 15.6902 1.59494 15.5784C1.47419 15.4666 1.37357 15.3243 1.30313 15.1617C1.23269 14.9992 1.19244 14.7959 1.19244 14.5622C1.19244 14.4199 1.22263 14.2472 1.27294 14.0439C1.33332 13.8509 1.43394 13.6578 1.58488 13.485C1.73581 13.3123 1.94712 13.1598 2.21881 13.0379C2.49049 12.916 2.83261 12.855 3.24517 12.855C3.53698 12.855 3.81873 12.8956 4.09041 12.9769C4.36209 13.0582 4.59353 13.17 4.79478 13.3326C4.99602 13.485 5.15702 13.6883 5.27777 13.922C5.39852 14.1557 5.45889 14.4301 5.45889 14.7349H4.8954C4.88534 14.5012 4.83503 14.3081 4.74446 14.1354C4.6539 13.9626 4.53315 13.8204 4.38222 13.7086C4.23128 13.5968 4.06022 13.5053 3.86904 13.4444C3.67785 13.3834 3.4766 13.3529 3.26529 13.3529C3.07411 13.3529 2.88292 13.3732 2.7018 13.4139C2.52068 13.4545 2.35968 13.5257 2.22887 13.6171C2.088 13.7086 1.98737 13.8305 1.89681 13.983C1.80625 14.1354 1.77606 14.3183 1.77606 14.552C1.77606 14.6943 1.79619 14.8162 1.8465 14.9179C1.89681 15.0195 1.95718 15.1109 2.04775 15.1821C2.13831 15.2532 2.22887 15.3142 2.33955 15.3548C2.45024 15.3955 2.56093 15.4361 2.68168 15.4666L4.13066 15.8324C4.34197 15.8934 4.54322 15.9544 4.72434 16.0357C4.91553 16.117 5.07652 16.2186 5.2174 16.3405C5.35827 16.4625 5.46896 16.6047 5.54946 16.7877C5.62995 16.9604 5.6702 17.1738 5.6702 17.4177C5.6702 17.4888 5.6702 17.5803 5.65008 17.6921C5.64002 17.8039 5.59977 17.9258 5.54946 18.0478C5.49914 18.1697 5.41864 18.3018 5.32808 18.4339C5.23752 18.566 5.09665 18.6778 4.92559 18.7794C4.75453 18.881 4.54322 18.9725 4.29166 19.0335C4.0401 19.0944 3.73823 19.1351 3.38604 19.1351C3.03386 19.1351 2.71186 19.0944 2.40999 19.0131C2.10812 18.9318 1.85656 18.8099 1.64525 18.6371C1.43394 18.4644 1.27294 18.251 1.15219 17.9868C1.04151 17.7226 0.991195 17.4075 1.00126 17.0316H1.56475C1.56475 17.3364 1.605 17.6006 1.70562 17.8039L1.69556 17.814Z"/>
<path d="M11.7273 13.0076L14.0618 19.0235H13.448L12.7235 17.1537H10.0066L9.29222 19.0235H8.68848L11.0833 13.0076H11.7173H11.7273ZM12.5424 16.6659L11.3852 13.5766L10.1878 16.6659H12.5323H12.5424Z"/>
<path d="M22.1017 19.0234L22.0312 17.9259H22.0111C21.9105 18.1393 21.7897 18.3222 21.6388 18.4746C21.4879 18.627 21.3269 18.7591 21.1458 18.8506C20.9646 18.9522 20.7734 19.0234 20.5722 19.064C20.3709 19.1047 20.1596 19.1351 19.9383 19.1351C19.4754 19.1351 19.0628 19.0538 18.7107 18.8811C18.3585 18.7083 18.0667 18.4848 17.8252 18.1901C17.5937 17.9055 17.4126 17.5702 17.3019 17.1942C17.1812 16.8182 17.1309 16.4219 17.1309 16.0053C17.1309 15.5886 17.1912 15.1923 17.3019 14.8163C17.4227 14.4403 17.5937 14.105 17.8252 13.8204C18.0566 13.5257 18.3484 13.3022 18.7107 13.1294C19.0628 12.9567 19.4754 12.8754 19.9383 12.8754C20.2502 12.8754 20.542 12.916 20.8238 12.9973C21.1055 13.0786 21.347 13.2107 21.5684 13.3733C21.7897 13.5461 21.9709 13.7493 22.1218 13.9932C22.2727 14.2371 22.3734 14.5318 22.4337 14.8569H21.8702C21.8501 14.6842 21.7998 14.5114 21.6992 14.3285C21.5986 14.1558 21.4677 13.9932 21.3067 13.8408C21.1458 13.6985 20.9445 13.5765 20.7231 13.4851C20.4917 13.3936 20.2401 13.3428 19.9584 13.3428C19.566 13.3428 19.2238 13.4139 18.9421 13.5664C18.6603 13.7188 18.4289 13.922 18.2478 14.1659C18.0667 14.4098 17.9358 14.6944 17.8453 15.0094C17.7547 15.3244 17.7145 15.6496 17.7145 15.9748C17.7145 16.3 17.7547 16.6251 17.8453 16.9402C17.9358 17.2552 18.0667 17.5397 18.2478 17.7938C18.4289 18.0478 18.6603 18.2409 18.9421 18.3933C19.2238 18.5457 19.566 18.6169 19.9584 18.6169C20.2904 18.6169 20.5823 18.5661 20.8439 18.4543C21.1055 18.3425 21.3168 18.1901 21.4979 17.997C21.6791 17.8039 21.8099 17.5702 21.9004 17.2958C21.991 17.0214 22.0312 16.7268 22.0212 16.4117H19.9886V15.924H22.5142V18.9827H22.1017V19.0234Z"/>
<path d="M26.2673 14.8266C26.388 14.4506 26.5591 14.1152 26.7905 13.8307C27.0219 13.536 27.3137 13.3124 27.676 13.1397C28.0282 12.9669 28.4407 12.8856 28.9036 12.8856C29.3665 12.8856 29.779 12.9669 30.1312 13.1397C30.4834 13.3124 30.7752 13.5461 31.0066 13.8307C31.2381 14.1152 31.4192 14.4506 31.5299 14.8266C31.6506 15.2025 31.7009 15.5989 31.7009 16.0155C31.7009 16.4321 31.6406 16.8285 31.5299 17.2045C31.4091 17.5805 31.2381 17.9158 31.0066 18.2003C30.7752 18.4849 30.4834 18.7186 30.1312 18.8913C29.779 19.0641 29.3665 19.1454 28.9036 19.1454C28.4407 19.1454 28.0282 19.0641 27.676 18.8913C27.3238 18.7186 27.032 18.495 26.7905 18.2003C26.5591 17.9158 26.3779 17.5805 26.2673 17.2045C26.1465 16.8285 26.0962 16.4321 26.0962 16.0155C26.0962 15.5989 26.1566 15.2025 26.2673 14.8266ZM26.7905 16.9809C26.8811 17.2959 27.0119 17.5805 27.193 17.8345C27.3741 18.0885 27.6055 18.2816 27.8873 18.4341C28.169 18.5865 28.5112 18.6576 28.9036 18.6576C29.296 18.6576 29.6382 18.5763 29.9199 18.4341C30.2016 18.2918 30.4331 18.0784 30.6142 17.8345C30.7953 17.5906 30.9261 17.2959 31.0167 16.9809C31.1073 16.6659 31.1475 16.3407 31.1475 16.0155C31.1475 15.6903 31.1073 15.3651 31.0167 15.0501C30.9261 14.7351 30.7953 14.4506 30.6142 14.2067C30.4331 13.9628 30.2016 13.7595 29.9199 13.6071C29.6382 13.4547 29.296 13.3836 28.9036 13.3836C28.5112 13.3836 28.169 13.4547 27.8873 13.6071C27.6055 13.7595 27.3741 13.9628 27.193 14.2067C27.0119 14.4506 26.8811 14.7351 26.7905 15.0501C26.6999 15.3651 26.6597 15.6903 26.6597 16.0155C26.6597 16.3407 26.6999 16.6659 26.7905 16.9809Z"/>
<path d="M1.69556 30.6789C1.79619 30.8923 1.93706 31.0549 2.10812 31.1768C2.27918 31.2988 2.49049 31.3902 2.73199 31.441C2.97348 31.4919 3.22504 31.5223 3.49673 31.5223C3.64767 31.5223 3.81873 31.502 4.00991 31.4512C4.19103 31.4106 4.36209 31.3293 4.52309 31.2378C4.68409 31.1463 4.8149 31.0142 4.91553 30.8618C5.01615 30.7094 5.07652 30.5163 5.07652 30.3029C5.07652 30.1301 5.03627 29.9879 4.96584 29.8659C4.8954 29.744 4.79478 29.6424 4.67403 29.5509C4.55328 29.4696 4.42247 29.3985 4.28159 29.3477C4.14072 29.2969 3.99985 29.2562 3.85897 29.2156L2.53074 28.8904C2.35968 28.8497 2.18862 28.7888 2.02762 28.7176C1.86662 28.6465 1.71569 28.555 1.59494 28.4433C1.47419 28.3315 1.37357 28.1892 1.30313 28.0266C1.23269 27.864 1.19244 27.6608 1.19244 27.4271C1.19244 27.2848 1.22263 27.112 1.27294 26.9088C1.33332 26.7157 1.43394 26.5226 1.58488 26.3499C1.73581 26.1771 1.94712 26.0247 2.21881 25.9028C2.49049 25.7808 2.83261 25.7198 3.24517 25.7198C3.53698 25.7198 3.81873 25.7605 4.09041 25.8418C4.36209 25.9231 4.59353 26.0349 4.79478 26.1975C4.99602 26.3601 5.15702 26.5531 5.27777 26.7869C5.39852 27.0206 5.45889 27.295 5.45889 27.5998H4.8954C4.88534 27.3661 4.83503 27.173 4.74446 27.0003C4.6539 26.8275 4.53315 26.6852 4.38222 26.5735C4.23128 26.4617 4.06022 26.3702 3.86904 26.3092C3.67785 26.2483 3.4766 26.2178 3.26529 26.2178C3.07411 26.2178 2.88292 26.2381 2.7018 26.2788C2.52068 26.3194 2.35968 26.3905 2.22887 26.482C2.088 26.5735 1.98737 26.6954 1.89681 26.8478C1.81631 27.0003 1.77606 27.1832 1.77606 27.4169C1.77606 27.5592 1.79619 27.6811 1.8465 27.7827C1.89681 27.8844 1.95718 27.9758 2.04775 28.0469C2.13831 28.1181 2.22887 28.179 2.33955 28.2197C2.45024 28.2603 2.56093 28.301 2.68168 28.3315L4.13066 28.6973C4.34197 28.7583 4.54322 28.8193 4.72434 28.9005C4.91553 28.9818 5.07652 29.0835 5.2174 29.2054C5.35827 29.3273 5.46896 29.4696 5.54946 29.6525C5.62995 29.8253 5.6702 30.0387 5.6702 30.2826C5.6702 30.3537 5.6702 30.4452 5.65008 30.557C5.64002 30.6687 5.59977 30.7907 5.54946 30.9126C5.49914 31.0346 5.41864 31.1667 5.32808 31.2988C5.23752 31.4309 5.09665 31.5427 4.92559 31.6443C4.75453 31.7459 4.54322 31.8374 4.29166 31.8983C4.0401 31.9593 3.73823 31.9999 3.38604 31.9999C3.03386 31.9999 2.71186 31.9593 2.40999 31.878C2.10812 31.7967 1.85656 31.6748 1.64525 31.502C1.43394 31.3293 1.27294 31.1159 1.15219 30.8516C1.04151 30.5874 0.991195 30.2724 1.00126 29.8964H1.56475C1.56475 30.2013 1.605 30.4655 1.70562 30.6687L1.69556 30.6789Z"/>
<path d="M10.3391 25.8623L12.6736 31.8782H12.0598L11.3353 30.0084H8.61847L7.90404 31.8782H7.30029L9.69514 25.8623H10.3291H10.3391ZM11.1441 29.5206L9.98695 26.4314L8.78953 29.5206H11.1341H11.1441Z"/>
<path d="M18.741 25.8623V26.3501H15.189V28.5247H18.5096V29.0125H15.189V31.3904H18.7813V31.8782H14.6255V25.8623H18.741Z"/>
<path d="M25.1004 25.8623V26.3501H21.5484V28.5247H24.8689V29.0125H21.5484V31.3904H25.1406V31.8782H20.9849V25.8623H25.1004Z"/>
<path d="M27.7571 30.6789C27.8577 30.8923 27.9986 31.0549 28.1696 31.1768C28.3407 31.2988 28.552 31.3902 28.7935 31.441C29.035 31.4919 29.2866 31.5223 29.5583 31.5223C29.7092 31.5223 29.8803 31.502 30.0714 31.4512C30.2526 31.4106 30.4236 31.3293 30.5846 31.2378C30.7456 31.1463 30.8764 31.0142 30.9771 30.8618C31.0777 30.7094 31.138 30.5163 31.138 30.3029C31.138 30.1301 31.0978 29.9879 31.0274 29.8659C30.9569 29.744 30.8563 29.6424 30.7356 29.5509C30.6148 29.4696 30.484 29.3985 30.3431 29.3477C30.2022 29.2969 30.0614 29.2562 29.9205 29.2156L28.5923 28.8904C28.4212 28.8497 28.2501 28.7888 28.0891 28.7176C27.9281 28.6465 27.7772 28.555 27.6565 28.4433C27.5357 28.3315 27.4351 28.1892 27.3647 28.0266C27.2942 27.864 27.254 27.6608 27.254 27.4271C27.254 27.2848 27.2842 27.112 27.3345 26.9088C27.3948 26.7157 27.4955 26.5226 27.6464 26.3499C27.7973 26.1771 28.0086 26.0247 28.2803 25.9028C28.552 25.7808 28.8941 25.7198 29.3067 25.7198C29.5985 25.7198 29.8803 25.7605 30.1519 25.8418C30.4236 25.9231 30.6551 26.0349 30.8563 26.1975C31.0575 26.3601 31.2185 26.5531 31.3393 26.7869C31.46 27.0206 31.5204 27.295 31.5204 27.5998H30.9569C30.9469 27.3661 30.8966 27.173 30.806 27.0003C30.7154 26.8275 30.5947 26.6852 30.4437 26.5735C30.2928 26.4617 30.1217 26.3702 29.9306 26.3092C29.7394 26.2483 29.5381 26.2178 29.3268 26.2178C29.1356 26.2178 28.9444 26.2381 28.7633 26.2788C28.5822 26.3194 28.4212 26.3905 28.2904 26.482C28.1495 26.5735 28.0489 26.6954 27.9583 26.8478C27.8778 27.0003 27.8376 27.1832 27.8376 27.4169C27.8376 27.5592 27.8577 27.6811 27.908 27.7827C27.9583 27.8844 28.0187 27.9758 28.1093 28.0469C28.1998 28.1181 28.2904 28.179 28.4011 28.2197C28.5118 28.2603 28.6225 28.301 28.7432 28.3315L30.1922 28.6973C30.4035 28.7583 30.6047 28.8193 30.7859 28.9005C30.977 28.9818 31.138 29.0835 31.2789 29.2054C31.4198 29.3273 31.5305 29.4696 31.611 29.6525C31.6915 29.8253 31.7317 30.0387 31.7317 30.2826C31.7317 30.3537 31.7317 30.4452 31.7116 30.557C31.7015 30.6687 31.6613 30.7907 31.611 30.9126C31.5607 31.0346 31.4802 31.1667 31.3896 31.2988C31.299 31.4309 31.1582 31.5427 30.9871 31.6443C30.8161 31.7459 30.6047 31.8374 30.3532 31.8983C30.1016 31.9593 29.7998 31.9999 29.4476 31.9999C29.0954 31.9999 28.7734 31.9593 28.4715 31.878C28.1696 31.7967 27.9181 31.6748 27.7068 31.502C27.4955 31.3293 27.3345 31.1159 27.2137 30.8516C27.103 30.5874 27.0527 30.2724 27.0628 29.8964H27.6263C27.6263 30.2013 27.6665 30.4655 27.7671 30.6687L27.7571 30.6789Z"/>
</svg>
