<svg width="32" height="32" viewBox="0 0 32 32" fill="none" xmlns="http://www.w3.org/2000/svg">
<path d="M31.9929 8.23104H28.3533V8.60928C29.8591 8.90187 30.0874 8.86619 30.0874 10.4291V13.9474C29.6021 14.1186 29.1311 14.24 28.4746 14.24C25.7698 14.24 25.0419 11.8492 25.0419 8.98751C25.0419 6.73238 25.2846 3.8207 27.7609 3.8207C29.2525 3.8207 29.7021 4.94826 29.7734 5.56913H31.8501C31.7145 4.19893 30.587 3 28.0036 3C24.1927 3 23.1293 5.41213 23.1293 8.84478C23.1293 12.6414 24.3283 15.0535 28.0892 15.0535C29.6307 15.0535 31.2649 14.5825 31.9929 14.3399V8.22391V8.23104ZM9.47012 14.868H10.562V4.65566H10.5977L14.223 14.868H15.4505L19.0901 4.55575H19.1258V14.868H20.8599V3.19982H18.5192L15.1579 12.7698H15.1222L11.6896 3.19982H7.75736V3.57806C9.22748 3.87065 9.47012 3.80642 9.47012 5.41927V14.868ZM6.67975 3.32114C6.23015 3.2355 5.10259 3.00714 3.90366 3.00714C1.46298 3.00714 0 4.09902 0 6.00446C0 9.66548 5.63782 9.40143 5.63782 12.2132C5.63782 13.7904 4.56021 14.24 3.46833 14.24C2.08385 14.24 0.692239 13.512 0.157003 13.198V14.6039C0.520963 14.6896 1.85549 15.0535 3.19001 15.0535C5.58073 15.0535 7.54326 14.1186 7.54326 11.6351C7.54326 7.92418 1.90544 8.16682 1.90544 5.49777C1.90544 4.35593 2.64764 3.81356 3.56824 3.81356C4.91704 3.81356 6.20161 4.37021 6.67261 4.59144V3.30687L6.67975 3.32114Z" fill="#231F20"/>
<path d="M20.603 29.3194H21.6949V19.1071H21.7306L25.3559 29.3194H26.5905L30.2302 19.0072H30.2658V29.3194H32V17.6512H29.6592L26.2979 27.2213H26.2623L22.8296 17.6512H18.8974V18.0295C20.3747 18.3221 20.6173 18.2578 20.6173 19.8707V29.3194H20.603ZM16.5424 17.7726C16.0928 17.6869 14.9652 17.4586 13.7663 17.4586C11.3185 17.4586 9.86262 18.5504 9.86262 20.4559C9.86262 24.1169 15.4933 23.8528 15.4933 26.6646C15.4933 28.2418 14.4157 28.6914 13.3238 28.6914C11.9393 28.6914 10.5477 27.9635 10.0125 27.6495V29.0553C10.3764 29.141 11.711 29.5049 13.0455 29.5049C15.4362 29.5049 17.3988 28.5701 17.3988 26.0866C17.3988 22.3756 11.7609 22.6182 11.7609 19.9492C11.7609 18.8074 12.5031 18.265 13.4237 18.265C14.7797 18.265 16.0571 18.8216 16.5281 19.0429V17.7583L16.5424 17.7726ZM6.67975 17.7726C6.23015 17.6869 5.10259 17.4586 3.90366 17.4586C1.46298 17.4586 0 18.5504 0 20.4559C0 24.1169 5.63782 23.8528 5.63782 26.6646C5.63782 28.2418 4.56021 28.6914 3.46833 28.6914C2.08385 28.6914 0.692239 27.9635 0.157003 27.6495V29.0553C0.520963 29.141 1.85549 29.5049 3.19001 29.5049C5.58073 29.5049 7.54326 28.5701 7.54326 26.0866C7.54326 22.3756 1.90544 22.6182 1.90544 19.9492C1.90544 18.8074 2.64764 18.265 3.56824 18.265C4.91704 18.265 6.20161 18.8216 6.67261 19.0429V17.7583L6.67975 17.7726Z" fill="#231F20"/>
</svg>
